M48
; DRILL file {KiCad (5.1.8-0-10_14)} date Tuesday, January 12, 2021 at 04:11:24 PM
; FORMAT={-:-/ absolute / inch / decimal}
; #@! TF.CreationDate,2021-01-12T16:11:24+01:00
; #@! TF.GenerationSoftware,Kicad,Pcbnew,(5.1.8-0-10_14)
; #@! TF.FileFunction,Plated,1,2,PTH
FMAT,2
INCH
T1C0.0157
T2C0.0197
T3C0.0394
T4C0.0417
T5C0.0472
T6C0.0512
T7C0.0787
T8C0.1260
%
G90
G05
T1
X4.55Y-4.0
X4.6Y-3.8
X4.6Y-3.85
X4.6Y-3.9
X4.6Y-4.0
X4.6Y-4.05
X4.65Y-4.0
X4.65Y-4.05
X4.7Y-3.8
X4.7Y-3.85
X4.7Y-3.9
X4.7Y-4.0
X4.7Y-4.05
X4.75Y-4.05
X4.75Y-4.2
X4.75Y-4.6
X4.8Y-4.05
X4.8Y-4.2
X4.85Y-4.05
X4.85Y-4.2
X4.85Y-4.2
X4.85Y-4.25
X4.9Y-4.05
X4.9Y-4.2
X4.95Y-4.05
X4.95Y-4.2
X4.95Y-4.35
X5.0Y-4.2
X5.0Y-4.25
X5.05Y-4.15
X5.05Y-4.2
X5.05Y-4.5
X5.05Y-4.55
X5.05Y-4.6
X5.05Y-4.65
X5.05Y-4.7
X5.05Y-4.75
X5.05Y-4.8
X5.1Y-4.5
X5.1Y-4.55
X5.1Y-4.6
X5.1Y-4.65
X5.1Y-4.7
X5.1Y-4.75
X5.1Y-4.8
X5.15Y-3.85
X5.15Y-4.35
X5.15Y-4.5
X5.15Y-4.55
X5.15Y-4.6
X5.15Y-4.65
X5.15Y-4.7
X5.15Y-4.75
X5.15Y-4.8
X5.2Y-4.3
X5.2Y-4.5
X5.2Y-4.55
X5.2Y-4.6
X5.2Y-4.65
X5.2Y-4.7
X5.2Y-4.7
X5.2Y-4.75
X5.2Y-4.8
X5.25Y-4.1
X5.25Y-4.2
X5.25Y-4.5
X5.25Y-4.55
X5.25Y-4.6
X5.25Y-4.65
X5.25Y-4.7
X5.25Y-4.75
X5.25Y-4.8
X5.3Y-4.5
X5.3Y-4.55
X5.3Y-4.6
X5.3Y-4.65
X5.3Y-4.7
X5.3Y-4.75
X5.3Y-4.8
X5.35Y-4.0
X5.35Y-4.5
X5.35Y-4.55
X5.35Y-4.6
X5.35Y-4.65
X5.35Y-4.7
X5.35Y-4.75
X5.35Y-4.8
X5.4Y-3.9
X5.4Y-4.5
X5.4Y-4.55
X5.4Y-4.6
X5.4Y-4.65
X5.4Y-4.7
X5.4Y-4.75
X5.4Y-4.8
X5.45Y-4.5
X5.45Y-4.55
X5.45Y-4.6
X5.45Y-4.65
X5.45Y-4.7
X5.45Y-4.75
X5.45Y-4.8
X5.5Y-4.5
X5.5Y-4.55
X5.5Y-4.6
X5.5Y-4.65
X5.5Y-4.7
X5.5Y-4.7
X5.5Y-4.75
X5.5Y-4.8
X5.55Y-3.7
X5.55Y-3.9
X5.55Y-4.5
X5.55Y-4.55
X5.55Y-4.6
X5.55Y-4.65
X5.55Y-4.7
X5.55Y-4.75
X5.55Y-4.8
X5.6Y-3.65
X5.6Y-3.75
X5.6Y-3.8
X5.6Y-3.9
X5.6Y-3.95
X5.6Y-4.5
X5.6Y-4.55
X5.6Y-4.6
X5.6Y-4.65
X5.6Y-4.7
X5.6Y-4.75
X5.6Y-4.8
X5.65Y-3.7
X5.65Y-4.35
X5.65Y-4.5
X5.65Y-4.55
X5.65Y-4.6
X5.65Y-4.65
X5.65Y-4.7
X5.65Y-4.75
X5.65Y-4.8
X5.7Y-3.8
X5.7Y-4.1
X5.7Y-4.3
X5.7Y-4.35
X5.7Y-4.5
X5.7Y-4.55
X5.7Y-4.6
X5.7Y-4.65
X5.7Y-4.7
X5.7Y-4.75
X5.7Y-4.8
X5.75Y-4.3
X5.75Y-4.35
X5.75Y-4.5
X5.75Y-4.55
X5.75Y-4.6
X5.75Y-4.65
X5.75Y-4.7
X5.75Y-4.75
X5.75Y-4.8
X5.8Y-3.7
X5.8Y-4.2
X5.8Y-4.5
X5.8Y-4.55
X5.8Y-4.6
X5.8Y-4.65
X5.8Y-4.7
X5.8Y-4.75
X5.8Y-4.8
X5.85Y-4.5
X5.85Y-4.55
X5.85Y-4.6
X5.85Y-4.65
X5.85Y-4.7
X5.85Y-4.75
X5.85Y-4.8
X5.9Y-3.9
X5.95Y-2.55
X5.95Y-2.75
X5.95Y-3.7
X5.95Y-3.85
X6.0Y-3.95
X6.05Y-3.95
X6.05Y-4.15
X6.1Y-3.85
X6.1Y-3.95
X6.15Y-2.55
X6.15Y-2.75
X6.15Y-3.85
X6.15Y-3.95
X6.2Y-3.7
X6.2Y-4.1
X6.2Y-4.45
X6.25Y-3.75
X6.3Y-3.65
X6.35Y-2.55
X6.35Y-2.75
X6.35Y-4.0
X6.4Y-2.9
X6.4Y-3.7
X6.4Y-3.85
X6.4Y-4.05
X6.45Y-2.85
X6.45Y-3.65
X6.45Y-3.9
X6.5Y-3.7
X6.5Y-3.95
X6.5Y-4.25
X6.6Y-4.2
X6.65Y-4.1
X6.85Y-3.65
X6.9Y-3.7
X6.9Y-3.8
X6.9Y-3.9
X6.9Y-4.1
X6.95Y-3.15
X6.95Y-3.2
X6.95Y-3.25
X6.95Y-3.3
X6.95Y-3.35
X7.0Y-3.15
X7.0Y-3.35
X7.0Y-3.8
X7.0Y-3.9
X7.05Y-3.15
X7.05Y-3.15
X7.05Y-3.35
X7.05Y-3.65
X7.1Y-3.15
X7.1Y-3.35
X7.1Y-4.15
X7.1Y-4.3
X7.1Y-4.45
X7.1Y-4.5
X7.1Y-4.55
X7.15Y-3.15
X7.15Y-3.2
X7.15Y-3.25
X7.15Y-3.3
X7.15Y-3.35
X7.15Y-3.7
X7.15Y-3.9
X7.15Y-4.05
X7.15Y-4.25
X7.15Y-4.3
X7.15Y-4.35
X7.15Y-4.45
X7.15Y-4.5
X7.15Y-4.55
X7.2Y-4.15
X7.2Y-4.3
X7.2Y-4.45
X7.2Y-4.5
X7.2Y-4.55
X7.2Y-4.55
T2
X4.1555Y-4.75
X4.1832Y-4.6832
X4.1832Y-4.8168
X4.25Y-4.6555
X4.25Y-4.8445
X4.3168Y-4.6832
X4.3168Y-4.8168
X4.3445Y-4.75
X6.9555Y-2.7
X6.9832Y-2.6332
X6.9832Y-2.7668
X7.05Y-2.6055
X7.05Y-2.7945
X7.1168Y-2.6332
X7.1168Y-2.7668
X7.1445Y-2.7
X4.1555Y-2.7
X4.1832Y-2.6332
X4.1832Y-2.7668
X4.25Y-2.6055
X4.25Y-2.7945
X4.3168Y-2.6332
X4.3168Y-2.7668
X4.3445Y-2.7
X6.961Y-4.75
X6.9887Y-4.6832
X6.9887Y-4.8168
X7.0555Y-4.6555
X7.0555Y-4.8445
X7.1223Y-4.6832
X7.1223Y-4.8168
X7.15Y-4.75
T3
X6.3Y-4.4
X6.3Y-4.5
X6.4Y-4.4
X6.4Y-4.5
X6.5Y-4.4
X6.5Y-4.5
T4
X7.05Y-3.7547
X7.05Y-3.8531
X7.05Y-3.9516
X7.05Y-4.05
X6.7978Y-3.7547
X6.7978Y-3.8531
X6.7978Y-3.9516
X6.7978Y-4.05
T5
X4.95Y-4.65
X5.95Y-4.65
T6
X7.0Y-4.3
X7.0Y-4.4969
T7
X4.227Y-3.25
X7.0616Y-3.25
T8
X7.05Y-2.7
X4.25Y-2.7
X7.0555Y-4.75
X4.25Y-4.75
T0
M30
