%TF.GenerationSoftware,KiCad,Pcbnew,(5.1.8-0-10_14)*%
%TF.CreationDate,2021-01-12T16:11:11+01:00*%
%TF.ProjectId,battery_checker,62617474-6572-4795-9f63-6865636b6572,rev?*%
%TF.SameCoordinates,Original*%
%TF.FileFunction,Copper,L2,Bot*%
%TF.FilePolarity,Positive*%
%FSLAX46Y46*%
G04 Gerber Fmt 4.6, Leading zero omitted, Abs format (unit mm)*
G04 Created by KiCad (PCBNEW (5.1.8-0-10_14)) date 2021-01-12 16:11:11*
%MOMM*%
%LPD*%
G01*
G04 APERTURE LIST*
%TA.AperFunction,ComponentPad*%
%ADD10C,3.500000*%
%TD*%
%TA.AperFunction,ComponentPad*%
%ADD11R,3.500000X3.500000*%
%TD*%
%TA.AperFunction,ComponentPad*%
%ADD12R,1.590000X1.590000*%
%TD*%
%TA.AperFunction,ComponentPad*%
%ADD13C,1.590000*%
%TD*%
%TA.AperFunction,ComponentPad*%
%ADD14C,2.400000*%
%TD*%
%TA.AperFunction,ComponentPad*%
%ADD15O,2.400000X2.400000*%
%TD*%
%TA.AperFunction,ComponentPad*%
%ADD16R,2.600000X2.600000*%
%TD*%
%TA.AperFunction,ComponentPad*%
%ADD17C,2.600000*%
%TD*%
%TA.AperFunction,ComponentPad*%
%ADD18C,0.800000*%
%TD*%
%TA.AperFunction,ComponentPad*%
%ADD19C,6.400000*%
%TD*%
%TA.AperFunction,ComponentPad*%
%ADD20C,1.700000*%
%TD*%
%TA.AperFunction,ViaPad*%
%ADD21C,0.800000*%
%TD*%
%TA.AperFunction,Conductor*%
%ADD22C,0.250000*%
%TD*%
%TA.AperFunction,Conductor*%
%ADD23C,0.500000*%
%TD*%
%TA.AperFunction,Conductor*%
%ADD24C,0.254000*%
%TD*%
%TA.AperFunction,Conductor*%
%ADD25C,0.100000*%
%TD*%
G04 APERTURE END LIST*
D10*
%TO.P,BT1,2*%
%TO.N,GND*%
X179365001Y-82550000D03*
D11*
%TO.P,BT1,1*%
%TO.N,v_sens*%
X107365001Y-82550000D03*
%TD*%
D12*
%TO.P,J1,1*%
%TO.N,GND*%
X172665001Y-102870000D03*
D13*
%TO.P,J1,2*%
%TO.N,Net-(J1-Pad2)*%
X172665001Y-100370000D03*
%TO.P,J1,3*%
%TO.N,SDA*%
X172665001Y-97870000D03*
%TO.P,J1,4*%
%TO.N,SCL*%
X172665001Y-95370000D03*
%TD*%
%TO.P,J2,4*%
%TO.N,SCL*%
X179070000Y-95370000D03*
%TO.P,J2,3*%
%TO.N,SDA*%
X179070000Y-97870000D03*
%TO.P,J2,2*%
%TO.N,Net-(J1-Pad2)*%
X179070000Y-100370000D03*
D12*
%TO.P,J2,1*%
%TO.N,GND*%
X179070000Y-102870000D03*
%TD*%
D14*
%TO.P,R2,1*%
%TO.N,Net-(Q1-Pad3)*%
X125730000Y-118110000D03*
D15*
%TO.P,R2,2*%
%TO.N,GND*%
X151130000Y-118110000D03*
%TD*%
D16*
%TO.P,J3,1*%
%TO.N,+5V*%
X177800000Y-109220000D03*
D17*
%TO.P,J3,2*%
%TO.N,GND*%
X177800000Y-114220000D03*
%TD*%
D18*
%TO.P,H1,1*%
%TO.N,GND*%
X109647056Y-66882944D03*
X107950000Y-66180000D03*
X106252944Y-66882944D03*
X105550000Y-68580000D03*
X106252944Y-70277056D03*
X107950000Y-70980000D03*
X109647056Y-70277056D03*
X110350000Y-68580000D03*
D19*
X107950000Y-68580000D03*
%TD*%
%TO.P,H2,1*%
%TO.N,GND*%
X179070000Y-68580000D03*
D18*
X181470000Y-68580000D03*
X180767056Y-70277056D03*
X179070000Y-70980000D03*
X177372944Y-70277056D03*
X176670000Y-68580000D03*
X177372944Y-66882944D03*
X179070000Y-66180000D03*
X180767056Y-66882944D03*
%TD*%
%TO.P,H3,1*%
%TO.N,GND*%
X180907056Y-118952944D03*
X179210000Y-118250000D03*
X177512944Y-118952944D03*
X176810000Y-120650000D03*
X177512944Y-122347056D03*
X179210000Y-123050000D03*
X180907056Y-122347056D03*
X181610000Y-120650000D03*
D19*
X179210000Y-120650000D03*
%TD*%
%TO.P,H4,1*%
%TO.N,GND*%
X107950000Y-120650000D03*
D18*
X110350000Y-120650000D03*
X109647056Y-122347056D03*
X107950000Y-123050000D03*
X106252944Y-122347056D03*
X105550000Y-120650000D03*
X106252944Y-118952944D03*
X107950000Y-118250000D03*
X109647056Y-118952944D03*
%TD*%
%TO.P,J4,1*%
%TO.N,MISO*%
%TA.AperFunction,ComponentPad*%
G36*
G01*
X160620000Y-115150000D02*
X159420000Y-115150000D01*
G75*
G02*
X159170000Y-114900000I0J250000D01*
G01*
X159170000Y-113700000D01*
G75*
G02*
X159420000Y-113450000I250000J0D01*
G01*
X160620000Y-113450000D01*
G75*
G02*
X160870000Y-113700000I0J-250000D01*
G01*
X160870000Y-114900000D01*
G75*
G02*
X160620000Y-115150000I-250000J0D01*
G01*
G37*
%TD.AperFunction*%
D20*
%TO.P,J4,3*%
%TO.N,SCK*%
X162560000Y-114300000D03*
%TO.P,J4,5*%
%TO.N,RST*%
X165100000Y-114300000D03*
%TO.P,J4,2*%
%TO.N,+5V*%
X160020000Y-111760000D03*
%TO.P,J4,4*%
%TO.N,MOSI*%
X162560000Y-111760000D03*
%TO.P,J4,6*%
%TO.N,GND*%
X165100000Y-111760000D03*
%TD*%
D21*
%TO.N,*%
X181610000Y-82550000D03*
%TO.N,GND*%
X158750000Y-95250000D03*
X160020000Y-92710000D03*
X163830000Y-92710000D03*
X175260000Y-93980000D03*
X181610000Y-93980000D03*
X181610000Y-99060000D03*
X181610000Y-102870000D03*
X175260000Y-104140000D03*
X168910000Y-104140000D03*
X130810000Y-97790000D03*
X127000000Y-107950000D03*
X130810000Y-110490000D03*
X125730000Y-110490000D03*
X123190000Y-107950000D03*
X132080000Y-109220000D03*
X133350000Y-104140000D03*
X129540000Y-115570000D03*
X129540000Y-116840000D03*
X129540000Y-118110000D03*
X129540000Y-119380000D03*
X129540000Y-120650000D03*
X130810000Y-120650000D03*
X130810000Y-119380000D03*
X130810000Y-118110000D03*
X130810000Y-116840000D03*
X130810000Y-115570000D03*
X132080000Y-115570000D03*
X132080000Y-116840000D03*
X132080000Y-118110000D03*
X132080000Y-119380000D03*
X132080000Y-119380000D03*
X132080000Y-120650000D03*
X133350000Y-120650000D03*
X133350000Y-119380000D03*
X133350000Y-118110000D03*
X133350000Y-116840000D03*
X133350000Y-115570000D03*
X134620000Y-115570000D03*
X135890000Y-115570000D03*
X135890000Y-116840000D03*
X134620000Y-116840000D03*
X134620000Y-118110000D03*
X135890000Y-118110000D03*
X135890000Y-119380000D03*
X134620000Y-119380000D03*
X134620000Y-120650000D03*
X135890000Y-120650000D03*
X137160000Y-119380000D03*
X142240000Y-120650000D03*
X143510000Y-118110000D03*
X139700000Y-119380000D03*
X137160000Y-116840000D03*
X139700000Y-120650000D03*
X143510000Y-116840000D03*
X138430000Y-118110000D03*
X138430000Y-116840000D03*
X140970000Y-116840000D03*
X137160000Y-120650000D03*
X143510000Y-115570000D03*
X139700000Y-119380000D03*
X139700000Y-115570000D03*
X142240000Y-118110000D03*
X139700000Y-116840000D03*
X138430000Y-120650000D03*
X140970000Y-118110000D03*
X142240000Y-119380000D03*
X138430000Y-119380000D03*
X139700000Y-118110000D03*
X142240000Y-115570000D03*
X140970000Y-120650000D03*
X143510000Y-119380000D03*
X138430000Y-115570000D03*
X140970000Y-115570000D03*
X140970000Y-119380000D03*
X142240000Y-116840000D03*
X137160000Y-115570000D03*
X137160000Y-118110000D03*
X143510000Y-120650000D03*
X144780000Y-115570000D03*
X146050000Y-115570000D03*
X147320000Y-115570000D03*
X147320000Y-116840000D03*
X146050000Y-116840000D03*
X144780000Y-116840000D03*
X144780000Y-118110000D03*
X144780000Y-119380000D03*
X144780000Y-120650000D03*
X146050000Y-120650000D03*
X146050000Y-119380000D03*
X146050000Y-118110000D03*
X147320000Y-118110000D03*
X147320000Y-119380000D03*
X147320000Y-120650000D03*
X148590000Y-120650000D03*
X148590000Y-119380000D03*
X148590000Y-118110000D03*
X148590000Y-116840000D03*
X148590000Y-115570000D03*
X128270000Y-114300000D03*
X128270000Y-115570000D03*
X128270000Y-116840000D03*
X128270000Y-118110000D03*
X128270000Y-119380000D03*
X128270000Y-120650000D03*
X128270000Y-121920000D03*
X129540000Y-121920000D03*
X130810000Y-121920000D03*
X132080000Y-121920000D03*
X133350000Y-121920000D03*
X134620000Y-121920000D03*
X135890000Y-121920000D03*
X137160000Y-121920000D03*
X138430000Y-121920000D03*
X139700000Y-121920000D03*
X140970000Y-121920000D03*
X142240000Y-121920000D03*
X143510000Y-121920000D03*
X144780000Y-121920000D03*
X146050000Y-121920000D03*
X147320000Y-121920000D03*
X148590000Y-121920000D03*
X148590000Y-114300000D03*
X147320000Y-114300000D03*
X146050000Y-114300000D03*
X144780000Y-114300000D03*
X143510000Y-114300000D03*
X142240000Y-114300000D03*
X140970000Y-114300000D03*
X139700000Y-114300000D03*
X138430000Y-114300000D03*
X137160000Y-114300000D03*
X134620000Y-114300000D03*
X135890000Y-114300000D03*
X133350000Y-114300000D03*
X132080000Y-114300000D03*
X130810000Y-114300000D03*
X129540000Y-114300000D03*
X116840000Y-102870000D03*
X119380000Y-102870000D03*
X118110000Y-102870000D03*
X120650000Y-102870000D03*
X121920000Y-102870000D03*
X123190000Y-102870000D03*
X124460000Y-102870000D03*
X125730000Y-102870000D03*
X125730000Y-106680000D03*
X123190000Y-106680000D03*
X123190000Y-106680000D03*
X121920000Y-106680000D03*
X120650000Y-106680000D03*
X124460000Y-106680000D03*
X127000000Y-106680000D03*
X128270000Y-106680000D03*
X128270000Y-105410000D03*
X115570000Y-101600000D03*
X116840000Y-101600000D03*
X118110000Y-101600000D03*
X119380000Y-101600000D03*
X119380000Y-99060000D03*
X116840000Y-99060000D03*
X116840000Y-97790000D03*
X119380000Y-97790000D03*
X119380000Y-96520000D03*
X116840000Y-96520000D03*
X176530000Y-80010000D03*
X176530000Y-81280000D03*
X176530000Y-82550000D03*
X176530000Y-83820000D03*
X176530000Y-85090000D03*
X181610000Y-85090000D03*
X181610000Y-83820000D03*
X181610000Y-81280000D03*
X181610000Y-80010000D03*
X180340000Y-80010000D03*
X179070000Y-80010000D03*
X179070000Y-80010000D03*
X177800000Y-80010000D03*
X177800000Y-85090000D03*
X179070000Y-85090000D03*
X180340000Y-85090000D03*
X144780000Y-109220000D03*
X144780000Y-110490000D03*
X146050000Y-110490000D03*
X146050000Y-109220000D03*
X143510000Y-110490000D03*
X144780000Y-104140000D03*
X142240000Y-100330000D03*
X142240000Y-99060000D03*
X140970000Y-99060000D03*
X140970000Y-93980000D03*
X143510000Y-93980000D03*
X142240000Y-95250000D03*
X142240000Y-92710000D03*
X151130000Y-93980000D03*
X144780000Y-96520000D03*
X147320000Y-93980000D03*
X157480000Y-93980000D03*
X151130000Y-97790000D03*
X149860000Y-99060000D03*
X156210000Y-97790000D03*
X154940000Y-97790000D03*
X152400000Y-100330000D03*
X153670000Y-100330000D03*
X154940000Y-100330000D03*
X156210000Y-100330000D03*
X162560000Y-93980000D03*
X167640000Y-106680000D03*
X175260000Y-99060000D03*
X177800000Y-99060000D03*
X177800000Y-96520000D03*
X175260000Y-96520000D03*
X179070000Y-92710000D03*
X180340000Y-105410000D03*
X182880000Y-105410000D03*
X181610000Y-107950000D03*
X182880000Y-113030000D03*
X182880000Y-114300000D03*
X182880000Y-115570000D03*
X182880000Y-115570000D03*
X181610000Y-110490000D03*
X181610000Y-115570000D03*
X181610000Y-113030000D03*
X181610000Y-114300000D03*
X180340000Y-113030000D03*
X180340000Y-114300000D03*
X180340000Y-115570000D03*
X180340000Y-109220000D03*
X181610000Y-109220000D03*
X182880000Y-109220000D03*
X151130000Y-64770000D03*
X156210000Y-64770000D03*
X161290000Y-64770000D03*
X156210000Y-69850000D03*
X161290000Y-69850000D03*
X151130000Y-69850000D03*
X173990000Y-92710000D03*
X157480000Y-113030000D03*
%TO.N,v_sens*%
X165100000Y-100330000D03*
X135890000Y-101600000D03*
%TO.N,Net-(C5-Pad1)*%
X147320000Y-106680000D03*
X133350000Y-106680000D03*
%TO.N,+5V*%
X162560000Y-97790000D03*
X165100000Y-93980000D03*
X165100000Y-107950000D03*
%TO.N,CHRG_enable*%
X142240000Y-96520000D03*
X137160000Y-99060000D03*
%TO.N,RST*%
X157480000Y-104140000D03*
X163830000Y-99060000D03*
%TO.N,LED_STATUS*%
X153670000Y-105410000D03*
X120650000Y-116840000D03*
%TO.N,RX*%
X162560000Y-102870000D03*
X163830000Y-72390000D03*
%TO.N,TX*%
X161290000Y-101600000D03*
X162560000Y-73660000D03*
%TD*%
D22*
%TO.N,v_sens*%
X135890000Y-101600000D02*
X159127000Y-101600000D01*
X165100000Y-99060000D02*
X165100000Y-100330000D01*
X164374999Y-98334999D02*
X165100000Y-99060000D01*
X163481999Y-98334999D02*
X164374999Y-98334999D01*
X163301997Y-98515001D02*
X163481999Y-98334999D01*
X160761997Y-98515001D02*
X163301997Y-98515001D01*
X160208500Y-100518500D02*
X160208500Y-99068498D01*
X160208500Y-99068498D02*
X160761997Y-98515001D01*
X159127000Y-101600000D02*
X160208500Y-100518500D01*
%TO.N,Net-(C5-Pad1)*%
X147320000Y-106680000D02*
X144780000Y-106680000D01*
X144780000Y-106680000D02*
X142240000Y-109220000D01*
X142240000Y-109220000D02*
X134620000Y-109220000D01*
X134620000Y-109220000D02*
X133350000Y-107950000D01*
X133350000Y-107950000D02*
X133350000Y-106680000D01*
X133350000Y-106680000D02*
X133350000Y-106680000D01*
%TO.N,+5V*%
X162560000Y-97790000D02*
X162560000Y-96520000D01*
X162560000Y-96520000D02*
X165100000Y-93980000D01*
X165100000Y-93980000D02*
X165100000Y-93980000D01*
D23*
X160020000Y-111760000D02*
X163830000Y-107950000D01*
X163830000Y-107950000D02*
X165100000Y-107950000D01*
X165100000Y-107950000D02*
X165100000Y-107950000D01*
D22*
%TO.N,CHRG_enable*%
X137160000Y-99060000D02*
X139700000Y-99060000D01*
X139700000Y-99060000D02*
X142240000Y-96520000D01*
%TO.N,RST*%
X162560000Y-99060000D02*
X157480000Y-104140000D01*
X163830000Y-99060000D02*
X162560000Y-99060000D01*
%TO.N,LED_STATUS*%
X153670000Y-105410000D02*
X147320000Y-111760000D01*
X147320000Y-111760000D02*
X125730000Y-111760000D01*
X125730000Y-111760000D02*
X120650000Y-116840000D01*
X120650000Y-116840000D02*
X120650000Y-116840000D01*
%TO.N,RX*%
X162560000Y-102870000D02*
X168910000Y-102870000D01*
X168910000Y-102870000D02*
X171450000Y-100330000D01*
X171450000Y-100330000D02*
X171450000Y-87630000D01*
X171450000Y-87630000D02*
X166370000Y-82550000D01*
X166370000Y-82550000D02*
X163830000Y-80010000D01*
X163830000Y-80010000D02*
X163830000Y-72390000D01*
X163830000Y-72390000D02*
X163830000Y-72390000D01*
%TO.N,TX*%
X161290000Y-101600000D02*
X168910000Y-101600000D01*
X168910000Y-101600000D02*
X170180000Y-100330000D01*
X170180000Y-100330000D02*
X170180000Y-88900000D01*
X170180000Y-88900000D02*
X170180000Y-87630000D01*
X170180000Y-87630000D02*
X163830000Y-81280000D01*
X163830000Y-81280000D02*
X162560000Y-80010000D01*
X162560000Y-80010000D02*
X162560000Y-73660000D01*
X162560000Y-73660000D02*
X162560000Y-73660000D01*
%TD*%
D24*
%TO.N,GND*%
X179852249Y-64232437D02*
X180609774Y-64439672D01*
X181318625Y-64777777D01*
X181956404Y-65236067D01*
X182502946Y-65800055D01*
X182940977Y-66451913D01*
X183256651Y-67171038D01*
X183441206Y-67939768D01*
X183490000Y-68604207D01*
X183490001Y-120620597D01*
X183417563Y-121432249D01*
X183210328Y-122189774D01*
X182872221Y-122898627D01*
X182413928Y-123536410D01*
X181849945Y-124082946D01*
X181198085Y-124520978D01*
X180478963Y-124836651D01*
X179710232Y-125021206D01*
X179045792Y-125070000D01*
X107979392Y-125070000D01*
X107167751Y-124997563D01*
X106410226Y-124790328D01*
X105701373Y-124452221D01*
X105063590Y-123993928D01*
X104517054Y-123429945D01*
X104463926Y-123350881D01*
X105428724Y-123350881D01*
X105788912Y-123840548D01*
X106452882Y-124200849D01*
X107174385Y-124424694D01*
X107925695Y-124503480D01*
X108677938Y-124434178D01*
X109402208Y-124219452D01*
X110070670Y-123867555D01*
X110111088Y-123840548D01*
X110471276Y-123350881D01*
X176688724Y-123350881D01*
X177048912Y-123840548D01*
X177712882Y-124200849D01*
X178434385Y-124424694D01*
X179185695Y-124503480D01*
X179937938Y-124434178D01*
X180662208Y-124219452D01*
X181330670Y-123867555D01*
X181371088Y-123840548D01*
X181731276Y-123350881D01*
X179210000Y-120829605D01*
X176688724Y-123350881D01*
X110471276Y-123350881D01*
X107950000Y-120829605D01*
X105428724Y-123350881D01*
X104463926Y-123350881D01*
X104079022Y-122778085D01*
X103763349Y-122058963D01*
X103578794Y-121290232D01*
X103530000Y-120625792D01*
X103530000Y-120625695D01*
X104096520Y-120625695D01*
X104165822Y-121377938D01*
X104380548Y-122102208D01*
X104732445Y-122770670D01*
X104759452Y-122811088D01*
X105249119Y-123171276D01*
X107770395Y-120650000D01*
X108129605Y-120650000D01*
X110650881Y-123171276D01*
X111140548Y-122811088D01*
X111500849Y-122147118D01*
X111724694Y-121425615D01*
X111803480Y-120674305D01*
X111799002Y-120625695D01*
X175356520Y-120625695D01*
X175425822Y-121377938D01*
X175640548Y-122102208D01*
X175992445Y-122770670D01*
X176019452Y-122811088D01*
X176509119Y-123171276D01*
X179030395Y-120650000D01*
X179389605Y-120650000D01*
X181910881Y-123171276D01*
X182400548Y-122811088D01*
X182760849Y-122147118D01*
X182984694Y-121425615D01*
X183063480Y-120674305D01*
X182994178Y-119922062D01*
X182779452Y-119197792D01*
X182427555Y-118529330D01*
X182400548Y-118488912D01*
X181910881Y-118128724D01*
X179389605Y-120650000D01*
X179030395Y-120650000D01*
X176509119Y-118128724D01*
X176019452Y-118488912D01*
X175659151Y-119152882D01*
X175435306Y-119874385D01*
X175356520Y-120625695D01*
X111799002Y-120625695D01*
X111734178Y-119922062D01*
X111519452Y-119197792D01*
X111167555Y-118529330D01*
X111140548Y-118488912D01*
X110650881Y-118128724D01*
X108129605Y-120650000D01*
X107770395Y-120650000D01*
X105249119Y-118128724D01*
X104759452Y-118488912D01*
X104399151Y-119152882D01*
X104175306Y-119874385D01*
X104096520Y-120625695D01*
X103530000Y-120625695D01*
X103530000Y-117949119D01*
X105428724Y-117949119D01*
X107950000Y-120470395D01*
X110471276Y-117949119D01*
X110456675Y-117929268D01*
X123895000Y-117929268D01*
X123895000Y-118290732D01*
X123965518Y-118645250D01*
X124103844Y-118979199D01*
X124304662Y-119279744D01*
X124560256Y-119535338D01*
X124860801Y-119736156D01*
X125194750Y-119874482D01*
X125549268Y-119945000D01*
X125910732Y-119945000D01*
X126265250Y-119874482D01*
X126599199Y-119736156D01*
X126899744Y-119535338D01*
X127155338Y-119279744D01*
X127356156Y-118979199D01*
X127494482Y-118645250D01*
X127519036Y-118521805D01*
X149341805Y-118521805D01*
X149414379Y-118761066D01*
X149574361Y-119083257D01*
X149794125Y-119368046D01*
X150065226Y-119604489D01*
X150377246Y-119783500D01*
X150718194Y-119898199D01*
X151003000Y-119781854D01*
X151003000Y-118237000D01*
X151257000Y-118237000D01*
X151257000Y-119781854D01*
X151541806Y-119898199D01*
X151882754Y-119783500D01*
X152194774Y-119604489D01*
X152465875Y-119368046D01*
X152685639Y-119083257D01*
X152845621Y-118761066D01*
X152918195Y-118521805D01*
X152801432Y-118237000D01*
X151257000Y-118237000D01*
X151003000Y-118237000D01*
X149458568Y-118237000D01*
X149341805Y-118521805D01*
X127519036Y-118521805D01*
X127565000Y-118290732D01*
X127565000Y-117929268D01*
X127519037Y-117698195D01*
X149341805Y-117698195D01*
X149458568Y-117983000D01*
X151003000Y-117983000D01*
X151003000Y-116438146D01*
X151257000Y-116438146D01*
X151257000Y-117983000D01*
X152801432Y-117983000D01*
X152815322Y-117949119D01*
X176688724Y-117949119D01*
X179210000Y-120470395D01*
X181731276Y-117949119D01*
X181371088Y-117459452D01*
X180707118Y-117099151D01*
X179985615Y-116875306D01*
X179234305Y-116796520D01*
X178482062Y-116865822D01*
X177757792Y-117080548D01*
X177089330Y-117432445D01*
X177048912Y-117459452D01*
X176688724Y-117949119D01*
X152815322Y-117949119D01*
X152918195Y-117698195D01*
X152845621Y-117458934D01*
X152685639Y-117136743D01*
X152465875Y-116851954D01*
X152194774Y-116615511D01*
X151882754Y-116436500D01*
X151541806Y-116321801D01*
X151257000Y-116438146D01*
X151003000Y-116438146D01*
X150718194Y-116321801D01*
X150377246Y-116436500D01*
X150065226Y-116615511D01*
X149794125Y-116851954D01*
X149574361Y-117136743D01*
X149414379Y-117458934D01*
X149341805Y-117698195D01*
X127519037Y-117698195D01*
X127494482Y-117574750D01*
X127356156Y-117240801D01*
X127155338Y-116940256D01*
X126899744Y-116684662D01*
X126599199Y-116483844D01*
X126265250Y-116345518D01*
X125910732Y-116275000D01*
X125549268Y-116275000D01*
X125194750Y-116345518D01*
X124860801Y-116483844D01*
X124560256Y-116684662D01*
X124304662Y-116940256D01*
X124103844Y-117240801D01*
X123965518Y-117574750D01*
X123895000Y-117929268D01*
X110456675Y-117929268D01*
X110111088Y-117459452D01*
X109447118Y-117099151D01*
X108725615Y-116875306D01*
X107974305Y-116796520D01*
X107222062Y-116865822D01*
X106497792Y-117080548D01*
X105829330Y-117432445D01*
X105788912Y-117459452D01*
X105428724Y-117949119D01*
X103530000Y-117949119D01*
X103530000Y-116738061D01*
X119615000Y-116738061D01*
X119615000Y-116941939D01*
X119654774Y-117141898D01*
X119732795Y-117330256D01*
X119846063Y-117499774D01*
X119990226Y-117643937D01*
X120159744Y-117757205D01*
X120348102Y-117835226D01*
X120548061Y-117875000D01*
X120751939Y-117875000D01*
X120951898Y-117835226D01*
X121140256Y-117757205D01*
X121309774Y-117643937D01*
X121453937Y-117499774D01*
X121567205Y-117330256D01*
X121645226Y-117141898D01*
X121685000Y-116941939D01*
X121685000Y-116879801D01*
X124864801Y-113700000D01*
X158531928Y-113700000D01*
X158531928Y-114900000D01*
X158548992Y-115073254D01*
X158599528Y-115239850D01*
X158681595Y-115393386D01*
X158792038Y-115527962D01*
X158926614Y-115638405D01*
X159080150Y-115720472D01*
X159246746Y-115771008D01*
X159420000Y-115788072D01*
X160620000Y-115788072D01*
X160793254Y-115771008D01*
X160959850Y-115720472D01*
X161113386Y-115638405D01*
X161247962Y-115527962D01*
X161358405Y-115393386D01*
X161426285Y-115266392D01*
X161613368Y-115453475D01*
X161856589Y-115615990D01*
X162126842Y-115727932D01*
X162413740Y-115785000D01*
X162706260Y-115785000D01*
X162993158Y-115727932D01*
X163263411Y-115615990D01*
X163506632Y-115453475D01*
X163713475Y-115246632D01*
X163830000Y-115072240D01*
X163946525Y-115246632D01*
X164153368Y-115453475D01*
X164396589Y-115615990D01*
X164666842Y-115727932D01*
X164953740Y-115785000D01*
X165246260Y-115785000D01*
X165533158Y-115727932D01*
X165803411Y-115615990D01*
X165873401Y-115569224D01*
X176630381Y-115569224D01*
X176762317Y-115864312D01*
X177103045Y-116035159D01*
X177470557Y-116136250D01*
X177850729Y-116163701D01*
X178228951Y-116116457D01*
X178590690Y-115996333D01*
X178837683Y-115864312D01*
X178969619Y-115569224D01*
X177800000Y-114399605D01*
X176630381Y-115569224D01*
X165873401Y-115569224D01*
X166046632Y-115453475D01*
X166253475Y-115246632D01*
X166415990Y-115003411D01*
X166527932Y-114733158D01*
X166585000Y-114446260D01*
X166585000Y-114270729D01*
X175856299Y-114270729D01*
X175903543Y-114648951D01*
X176023667Y-115010690D01*
X176155688Y-115257683D01*
X176450776Y-115389619D01*
X177620395Y-114220000D01*
X177979605Y-114220000D01*
X179149224Y-115389619D01*
X179444312Y-115257683D01*
X179615159Y-114916955D01*
X179716250Y-114549443D01*
X179743701Y-114169271D01*
X179696457Y-113791049D01*
X179576333Y-113429310D01*
X179444312Y-113182317D01*
X179149224Y-113050381D01*
X177979605Y-114220000D01*
X177620395Y-114220000D01*
X176450776Y-113050381D01*
X176155688Y-113182317D01*
X175984841Y-113523045D01*
X175883750Y-113890557D01*
X175856299Y-114270729D01*
X166585000Y-114270729D01*
X166585000Y-114153740D01*
X166527932Y-113866842D01*
X166415990Y-113596589D01*
X166253475Y-113353368D01*
X166046632Y-113146525D01*
X165873271Y-113030689D01*
X165923114Y-112870776D01*
X176630381Y-112870776D01*
X177800000Y-114040395D01*
X178969619Y-112870776D01*
X178837683Y-112575688D01*
X178496955Y-112404841D01*
X178129443Y-112303750D01*
X177749271Y-112276299D01*
X177371049Y-112323543D01*
X177009310Y-112443667D01*
X176762317Y-112575688D01*
X176630381Y-112870776D01*
X165923114Y-112870776D01*
X165948792Y-112788397D01*
X165100000Y-111939605D01*
X164251208Y-112788397D01*
X164326729Y-113030689D01*
X164153368Y-113146525D01*
X163946525Y-113353368D01*
X163830000Y-113527760D01*
X163713475Y-113353368D01*
X163506632Y-113146525D01*
X163332240Y-113030000D01*
X163506632Y-112913475D01*
X163713475Y-112706632D01*
X163829311Y-112533271D01*
X164071603Y-112608792D01*
X164920395Y-111760000D01*
X165279605Y-111760000D01*
X166128397Y-112608792D01*
X166377472Y-112531157D01*
X166503371Y-112267117D01*
X166575339Y-111983589D01*
X166590611Y-111691469D01*
X166548599Y-111401981D01*
X166450919Y-111126253D01*
X166377472Y-110988843D01*
X166128397Y-110911208D01*
X165279605Y-111760000D01*
X164920395Y-111760000D01*
X164071603Y-110911208D01*
X163829311Y-110986729D01*
X163713475Y-110813368D01*
X163631710Y-110731603D01*
X164251208Y-110731603D01*
X165100000Y-111580395D01*
X165948792Y-110731603D01*
X165871157Y-110482528D01*
X165607117Y-110356629D01*
X165323589Y-110284661D01*
X165031469Y-110269389D01*
X164741981Y-110311401D01*
X164466253Y-110409081D01*
X164328843Y-110482528D01*
X164251208Y-110731603D01*
X163631710Y-110731603D01*
X163506632Y-110606525D01*
X163263411Y-110444010D01*
X162993158Y-110332068D01*
X162748230Y-110283348D01*
X164196579Y-108835000D01*
X164561546Y-108835000D01*
X164609744Y-108867205D01*
X164798102Y-108945226D01*
X164998061Y-108985000D01*
X165201939Y-108985000D01*
X165401898Y-108945226D01*
X165590256Y-108867205D01*
X165759774Y-108753937D01*
X165903937Y-108609774D01*
X166017205Y-108440256D01*
X166095226Y-108251898D01*
X166135000Y-108051939D01*
X166135000Y-107920000D01*
X175861928Y-107920000D01*
X175861928Y-110520000D01*
X175874188Y-110644482D01*
X175910498Y-110764180D01*
X175969463Y-110874494D01*
X176048815Y-110971185D01*
X176145506Y-111050537D01*
X176255820Y-111109502D01*
X176375518Y-111145812D01*
X176500000Y-111158072D01*
X179100000Y-111158072D01*
X179224482Y-111145812D01*
X179344180Y-111109502D01*
X179454494Y-111050537D01*
X179551185Y-110971185D01*
X179630537Y-110874494D01*
X179689502Y-110764180D01*
X179725812Y-110644482D01*
X179738072Y-110520000D01*
X179738072Y-107920000D01*
X179725812Y-107795518D01*
X179689502Y-107675820D01*
X179630537Y-107565506D01*
X179551185Y-107468815D01*
X179454494Y-107389463D01*
X179344180Y-107330498D01*
X179224482Y-107294188D01*
X179100000Y-107281928D01*
X176500000Y-107281928D01*
X176375518Y-107294188D01*
X176255820Y-107330498D01*
X176145506Y-107389463D01*
X176048815Y-107468815D01*
X175969463Y-107565506D01*
X175910498Y-107675820D01*
X175874188Y-107795518D01*
X175861928Y-107920000D01*
X166135000Y-107920000D01*
X166135000Y-107848061D01*
X166095226Y-107648102D01*
X166017205Y-107459744D01*
X165903937Y-107290226D01*
X165759774Y-107146063D01*
X165590256Y-107032795D01*
X165401898Y-106954774D01*
X165201939Y-106915000D01*
X164998061Y-106915000D01*
X164798102Y-106954774D01*
X164609744Y-107032795D01*
X164561546Y-107065000D01*
X163873469Y-107065000D01*
X163830000Y-107060719D01*
X163786531Y-107065000D01*
X163786523Y-107065000D01*
X163656510Y-107077805D01*
X163489686Y-107128411D01*
X163335941Y-107210589D01*
X163234953Y-107293468D01*
X163234951Y-107293470D01*
X163201183Y-107321183D01*
X163173470Y-107354951D01*
X160238961Y-110289461D01*
X160166260Y-110275000D01*
X159873740Y-110275000D01*
X159586842Y-110332068D01*
X159316589Y-110444010D01*
X159073368Y-110606525D01*
X158866525Y-110813368D01*
X158704010Y-111056589D01*
X158592068Y-111326842D01*
X158535000Y-111613740D01*
X158535000Y-111906260D01*
X158592068Y-112193158D01*
X158704010Y-112463411D01*
X158866525Y-112706632D01*
X159053608Y-112893715D01*
X158926614Y-112961595D01*
X158792038Y-113072038D01*
X158681595Y-113206614D01*
X158599528Y-113360150D01*
X158548992Y-113526746D01*
X158531928Y-113700000D01*
X124864801Y-113700000D01*
X126044802Y-112520000D01*
X147282678Y-112520000D01*
X147320000Y-112523676D01*
X147357322Y-112520000D01*
X147357333Y-112520000D01*
X147468986Y-112509003D01*
X147612247Y-112465546D01*
X147744276Y-112394974D01*
X147860001Y-112300001D01*
X147883804Y-112270997D01*
X153709802Y-106445000D01*
X153771939Y-106445000D01*
X153971898Y-106405226D01*
X154160256Y-106327205D01*
X154329774Y-106213937D01*
X154473937Y-106069774D01*
X154587205Y-105900256D01*
X154665226Y-105711898D01*
X154705000Y-105511939D01*
X154705000Y-105308061D01*
X154665226Y-105108102D01*
X154587205Y-104919744D01*
X154473937Y-104750226D01*
X154329774Y-104606063D01*
X154160256Y-104492795D01*
X153971898Y-104414774D01*
X153771939Y-104375000D01*
X153568061Y-104375000D01*
X153368102Y-104414774D01*
X153179744Y-104492795D01*
X153010226Y-104606063D01*
X152866063Y-104750226D01*
X152752795Y-104919744D01*
X152674774Y-105108102D01*
X152635000Y-105308061D01*
X152635000Y-105370198D01*
X147005199Y-111000000D01*
X125767323Y-111000000D01*
X125730000Y-110996324D01*
X125692677Y-111000000D01*
X125692667Y-111000000D01*
X125581014Y-111010997D01*
X125450666Y-111050537D01*
X125437753Y-111054454D01*
X125305723Y-111125026D01*
X125222083Y-111193668D01*
X125189999Y-111219999D01*
X125166201Y-111248997D01*
X120610199Y-115805000D01*
X120548061Y-115805000D01*
X120348102Y-115844774D01*
X120159744Y-115922795D01*
X119990226Y-116036063D01*
X119846063Y-116180226D01*
X119732795Y-116349744D01*
X119654774Y-116538102D01*
X119615000Y-116738061D01*
X103530000Y-116738061D01*
X103530000Y-106578061D01*
X132315000Y-106578061D01*
X132315000Y-106781939D01*
X132354774Y-106981898D01*
X132432795Y-107170256D01*
X132546063Y-107339774D01*
X132590000Y-107383711D01*
X132590000Y-107912677D01*
X132586324Y-107950000D01*
X132590000Y-107987322D01*
X132590000Y-107987332D01*
X132600997Y-108098985D01*
X132644454Y-108242246D01*
X132715026Y-108374276D01*
X132754871Y-108422826D01*
X132809999Y-108490001D01*
X132839003Y-108513804D01*
X134056201Y-109731003D01*
X134079999Y-109760001D01*
X134195724Y-109854974D01*
X134327753Y-109925546D01*
X134471014Y-109969003D01*
X134582667Y-109980000D01*
X134582676Y-109980000D01*
X134619999Y-109983676D01*
X134657322Y-109980000D01*
X142202678Y-109980000D01*
X142240000Y-109983676D01*
X142277322Y-109980000D01*
X142277333Y-109980000D01*
X142388986Y-109969003D01*
X142532247Y-109925546D01*
X142664276Y-109854974D01*
X142780001Y-109760001D01*
X142803804Y-109730997D01*
X145094803Y-107440000D01*
X146616289Y-107440000D01*
X146660226Y-107483937D01*
X146829744Y-107597205D01*
X147018102Y-107675226D01*
X147218061Y-107715000D01*
X147421939Y-107715000D01*
X147621898Y-107675226D01*
X147810256Y-107597205D01*
X147979774Y-107483937D01*
X148123937Y-107339774D01*
X148237205Y-107170256D01*
X148315226Y-106981898D01*
X148355000Y-106781939D01*
X148355000Y-106578061D01*
X148315226Y-106378102D01*
X148237205Y-106189744D01*
X148123937Y-106020226D01*
X147979774Y-105876063D01*
X147810256Y-105762795D01*
X147621898Y-105684774D01*
X147421939Y-105645000D01*
X147218061Y-105645000D01*
X147018102Y-105684774D01*
X146829744Y-105762795D01*
X146660226Y-105876063D01*
X146616289Y-105920000D01*
X144817322Y-105920000D01*
X144779999Y-105916324D01*
X144742676Y-105920000D01*
X144742667Y-105920000D01*
X144631014Y-105930997D01*
X144487753Y-105974454D01*
X144355724Y-106045026D01*
X144355722Y-106045027D01*
X144355723Y-106045027D01*
X144268996Y-106116201D01*
X144268992Y-106116205D01*
X144239999Y-106139999D01*
X144216205Y-106168992D01*
X141925199Y-108460000D01*
X134934802Y-108460000D01*
X134110000Y-107635199D01*
X134110000Y-107383711D01*
X134153937Y-107339774D01*
X134267205Y-107170256D01*
X134345226Y-106981898D01*
X134385000Y-106781939D01*
X134385000Y-106578061D01*
X134345226Y-106378102D01*
X134267205Y-106189744D01*
X134153937Y-106020226D01*
X134009774Y-105876063D01*
X133840256Y-105762795D01*
X133651898Y-105684774D01*
X133451939Y-105645000D01*
X133248061Y-105645000D01*
X133048102Y-105684774D01*
X132859744Y-105762795D01*
X132690226Y-105876063D01*
X132546063Y-106020226D01*
X132432795Y-106189744D01*
X132354774Y-106378102D01*
X132315000Y-106578061D01*
X103530000Y-106578061D01*
X103530000Y-101498061D01*
X134855000Y-101498061D01*
X134855000Y-101701939D01*
X134894774Y-101901898D01*
X134972795Y-102090256D01*
X135086063Y-102259774D01*
X135230226Y-102403937D01*
X135399744Y-102517205D01*
X135588102Y-102595226D01*
X135788061Y-102635000D01*
X135991939Y-102635000D01*
X136191898Y-102595226D01*
X136380256Y-102517205D01*
X136549774Y-102403937D01*
X136593711Y-102360000D01*
X158185199Y-102360000D01*
X157440199Y-103105000D01*
X157378061Y-103105000D01*
X157178102Y-103144774D01*
X156989744Y-103222795D01*
X156820226Y-103336063D01*
X156676063Y-103480226D01*
X156562795Y-103649744D01*
X156484774Y-103838102D01*
X156445000Y-104038061D01*
X156445000Y-104241939D01*
X156484774Y-104441898D01*
X156562795Y-104630256D01*
X156676063Y-104799774D01*
X156820226Y-104943937D01*
X156989744Y-105057205D01*
X157178102Y-105135226D01*
X157378061Y-105175000D01*
X157581939Y-105175000D01*
X157781898Y-105135226D01*
X157970256Y-105057205D01*
X158139774Y-104943937D01*
X158283937Y-104799774D01*
X158397205Y-104630256D01*
X158475226Y-104441898D01*
X158515000Y-104241939D01*
X158515000Y-104179801D01*
X160465621Y-102229180D01*
X160486063Y-102259774D01*
X160630226Y-102403937D01*
X160799744Y-102517205D01*
X160988102Y-102595226D01*
X161188061Y-102635000D01*
X161391939Y-102635000D01*
X161558039Y-102601961D01*
X161525000Y-102768061D01*
X161525000Y-102971939D01*
X161564774Y-103171898D01*
X161642795Y-103360256D01*
X161756063Y-103529774D01*
X161900226Y-103673937D01*
X162069744Y-103787205D01*
X162258102Y-103865226D01*
X162458061Y-103905000D01*
X162661939Y-103905000D01*
X162861898Y-103865226D01*
X163050256Y-103787205D01*
X163219774Y-103673937D01*
X163228711Y-103665000D01*
X171231929Y-103665000D01*
X171244189Y-103789482D01*
X171280499Y-103909180D01*
X171339464Y-104019494D01*
X171418816Y-104116185D01*
X171515507Y-104195537D01*
X171625821Y-104254502D01*
X171745519Y-104290812D01*
X171870001Y-104303072D01*
X172379251Y-104300000D01*
X172538001Y-104141250D01*
X172538001Y-102997000D01*
X172792001Y-102997000D01*
X172792001Y-104141250D01*
X172950751Y-104300000D01*
X173460001Y-104303072D01*
X173584483Y-104290812D01*
X173704181Y-104254502D01*
X173814495Y-104195537D01*
X173911186Y-104116185D01*
X173990538Y-104019494D01*
X174049503Y-103909180D01*
X174085813Y-103789482D01*
X174098073Y-103665000D01*
X177636928Y-103665000D01*
X177649188Y-103789482D01*
X177685498Y-103909180D01*
X177744463Y-104019494D01*
X177823815Y-104116185D01*
X177920506Y-104195537D01*
X178030820Y-104254502D01*
X178150518Y-104290812D01*
X178275000Y-104303072D01*
X178784250Y-104300000D01*
X178943000Y-104141250D01*
X178943000Y-102997000D01*
X179197000Y-102997000D01*
X179197000Y-104141250D01*
X179355750Y-104300000D01*
X179865000Y-104303072D01*
X179989482Y-104290812D01*
X180109180Y-104254502D01*
X180219494Y-104195537D01*
X180316185Y-104116185D01*
X180395537Y-104019494D01*
X180454502Y-103909180D01*
X180490812Y-103789482D01*
X180503072Y-103665000D01*
X180500000Y-103155750D01*
X180341250Y-102997000D01*
X179197000Y-102997000D01*
X178943000Y-102997000D01*
X177798750Y-102997000D01*
X177640000Y-103155750D01*
X177636928Y-103665000D01*
X174098073Y-103665000D01*
X174095001Y-103155750D01*
X173936251Y-102997000D01*
X172792001Y-102997000D01*
X172538001Y-102997000D01*
X171393751Y-102997000D01*
X171235001Y-103155750D01*
X171231929Y-103665000D01*
X163228711Y-103665000D01*
X163263711Y-103630000D01*
X168872678Y-103630000D01*
X168910000Y-103633676D01*
X168947322Y-103630000D01*
X168947333Y-103630000D01*
X169058986Y-103619003D01*
X169202247Y-103575546D01*
X169334276Y-103504974D01*
X169450001Y-103410001D01*
X169473804Y-103380997D01*
X171563739Y-101291063D01*
X171727370Y-101454694D01*
X171625821Y-101485498D01*
X171515507Y-101544463D01*
X171418816Y-101623815D01*
X171339464Y-101720506D01*
X171280499Y-101830820D01*
X171244189Y-101950518D01*
X171231929Y-102075000D01*
X171235001Y-102584250D01*
X171393751Y-102743000D01*
X172538001Y-102743000D01*
X172538001Y-102723000D01*
X172792001Y-102723000D01*
X172792001Y-102743000D01*
X173936251Y-102743000D01*
X174095001Y-102584250D01*
X174098073Y-102075000D01*
X177636928Y-102075000D01*
X177640000Y-102584250D01*
X177798750Y-102743000D01*
X178943000Y-102743000D01*
X178943000Y-102723000D01*
X179197000Y-102723000D01*
X179197000Y-102743000D01*
X180341250Y-102743000D01*
X180500000Y-102584250D01*
X180503072Y-102075000D01*
X180490812Y-101950518D01*
X180454502Y-101830820D01*
X180395537Y-101720506D01*
X180316185Y-101623815D01*
X180219494Y-101544463D01*
X180109180Y-101485498D01*
X180007631Y-101454694D01*
X180180753Y-101281572D01*
X180337249Y-101047359D01*
X180445046Y-100787116D01*
X180500000Y-100510843D01*
X180500000Y-100229157D01*
X180445046Y-99952884D01*
X180337249Y-99692641D01*
X180180753Y-99458428D01*
X179981572Y-99259247D01*
X179773174Y-99120000D01*
X179981572Y-98980753D01*
X180180753Y-98781572D01*
X180337249Y-98547359D01*
X180445046Y-98287116D01*
X180500000Y-98010843D01*
X180500000Y-97729157D01*
X180445046Y-97452884D01*
X180337249Y-97192641D01*
X180180753Y-96958428D01*
X179981572Y-96759247D01*
X179773174Y-96620000D01*
X179981572Y-96480753D01*
X180180753Y-96281572D01*
X180337249Y-96047359D01*
X180445046Y-95787116D01*
X180500000Y-95510843D01*
X180500000Y-95229157D01*
X180445046Y-94952884D01*
X180337249Y-94692641D01*
X180180753Y-94458428D01*
X179981572Y-94259247D01*
X179747359Y-94102751D01*
X179487116Y-93994954D01*
X179210843Y-93940000D01*
X178929157Y-93940000D01*
X178652884Y-93994954D01*
X178392641Y-94102751D01*
X178158428Y-94259247D01*
X177959247Y-94458428D01*
X177802751Y-94692641D01*
X177694954Y-94952884D01*
X177640000Y-95229157D01*
X177640000Y-95510843D01*
X177694954Y-95787116D01*
X177802751Y-96047359D01*
X177959247Y-96281572D01*
X178158428Y-96480753D01*
X178366826Y-96620000D01*
X178158428Y-96759247D01*
X177959247Y-96958428D01*
X177802751Y-97192641D01*
X177694954Y-97452884D01*
X177640000Y-97729157D01*
X177640000Y-98010843D01*
X177694954Y-98287116D01*
X177802751Y-98547359D01*
X177959247Y-98781572D01*
X178158428Y-98980753D01*
X178366826Y-99120000D01*
X178158428Y-99259247D01*
X177959247Y-99458428D01*
X177802751Y-99692641D01*
X177694954Y-99952884D01*
X177640000Y-100229157D01*
X177640000Y-100510843D01*
X177694954Y-100787116D01*
X177802751Y-101047359D01*
X177959247Y-101281572D01*
X178132369Y-101454694D01*
X178030820Y-101485498D01*
X177920506Y-101544463D01*
X177823815Y-101623815D01*
X177744463Y-101720506D01*
X177685498Y-101830820D01*
X177649188Y-101950518D01*
X177636928Y-102075000D01*
X174098073Y-102075000D01*
X174085813Y-101950518D01*
X174049503Y-101830820D01*
X173990538Y-101720506D01*
X173911186Y-101623815D01*
X173814495Y-101544463D01*
X173704181Y-101485498D01*
X173602632Y-101454694D01*
X173775754Y-101281572D01*
X173932250Y-101047359D01*
X174040047Y-100787116D01*
X174095001Y-100510843D01*
X174095001Y-100229157D01*
X174040047Y-99952884D01*
X173932250Y-99692641D01*
X173775754Y-99458428D01*
X173576573Y-99259247D01*
X173368175Y-99120000D01*
X173576573Y-98980753D01*
X173775754Y-98781572D01*
X173932250Y-98547359D01*
X174040047Y-98287116D01*
X174095001Y-98010843D01*
X174095001Y-97729157D01*
X174040047Y-97452884D01*
X173932250Y-97192641D01*
X173775754Y-96958428D01*
X173576573Y-96759247D01*
X173368175Y-96620000D01*
X173576573Y-96480753D01*
X173775754Y-96281572D01*
X173932250Y-96047359D01*
X174040047Y-95787116D01*
X174095001Y-95510843D01*
X174095001Y-95229157D01*
X174040047Y-94952884D01*
X173932250Y-94692641D01*
X173775754Y-94458428D01*
X173576573Y-94259247D01*
X173342360Y-94102751D01*
X173082117Y-93994954D01*
X172805844Y-93940000D01*
X172524158Y-93940000D01*
X172247885Y-93994954D01*
X172210000Y-94010647D01*
X172210000Y-87667323D01*
X172213676Y-87630000D01*
X172210000Y-87592677D01*
X172210000Y-87592667D01*
X172199003Y-87481014D01*
X172155546Y-87337753D01*
X172084974Y-87205723D01*
X172013799Y-87118997D01*
X171990001Y-87089999D01*
X171961003Y-87066201D01*
X167224674Y-82329872D01*
X169385001Y-82329872D01*
X169385001Y-82770128D01*
X169470891Y-83201925D01*
X169639370Y-83608669D01*
X169883963Y-83974729D01*
X170195272Y-84286038D01*
X170561332Y-84530631D01*
X170968076Y-84699110D01*
X171399873Y-84785000D01*
X171840129Y-84785000D01*
X172271926Y-84699110D01*
X172678670Y-84530631D01*
X173044730Y-84286038D01*
X173111159Y-84219609D01*
X177874998Y-84219609D01*
X178061074Y-84560766D01*
X178478410Y-84776513D01*
X178929816Y-84906696D01*
X179397947Y-84946313D01*
X179864812Y-84893842D01*
X180312469Y-84751297D01*
X180668928Y-84560766D01*
X180855004Y-84219609D01*
X179365001Y-82729605D01*
X177874998Y-84219609D01*
X173111159Y-84219609D01*
X173356039Y-83974729D01*
X173600632Y-83608669D01*
X173769111Y-83201925D01*
X173855001Y-82770128D01*
X173855001Y-82582946D01*
X176968688Y-82582946D01*
X177021159Y-83049811D01*
X177163704Y-83497468D01*
X177354235Y-83853927D01*
X177695392Y-84040003D01*
X179185396Y-82550000D01*
X179544606Y-82550000D01*
X181034610Y-84040003D01*
X181375767Y-83853927D01*
X181514792Y-83585000D01*
X181711939Y-83585000D01*
X181911898Y-83545226D01*
X182100256Y-83467205D01*
X182269774Y-83353937D01*
X182413937Y-83209774D01*
X182527205Y-83040256D01*
X182605226Y-82851898D01*
X182645000Y-82651939D01*
X182645000Y-82448061D01*
X182605226Y-82248102D01*
X182527205Y-82059744D01*
X182413937Y-81890226D01*
X182269774Y-81746063D01*
X182100256Y-81632795D01*
X181911898Y-81554774D01*
X181711939Y-81515000D01*
X181519511Y-81515000D01*
X181375767Y-81246073D01*
X181034610Y-81059997D01*
X179544606Y-82550000D01*
X179185396Y-82550000D01*
X177695392Y-81059997D01*
X177354235Y-81246073D01*
X177138488Y-81663409D01*
X177008305Y-82114815D01*
X176968688Y-82582946D01*
X173855001Y-82582946D01*
X173855001Y-82329872D01*
X173769111Y-81898075D01*
X173600632Y-81491331D01*
X173356039Y-81125271D01*
X173111159Y-80880391D01*
X177874998Y-80880391D01*
X179365001Y-82370395D01*
X180855004Y-80880391D01*
X180668928Y-80539234D01*
X180251592Y-80323487D01*
X179800186Y-80193304D01*
X179332055Y-80153687D01*
X178865190Y-80206158D01*
X178417533Y-80348703D01*
X178061074Y-80539234D01*
X177874998Y-80880391D01*
X173111159Y-80880391D01*
X173044730Y-80813962D01*
X172678670Y-80569369D01*
X172271926Y-80400890D01*
X171840129Y-80315000D01*
X171399873Y-80315000D01*
X170968076Y-80400890D01*
X170561332Y-80569369D01*
X170195272Y-80813962D01*
X169883963Y-81125271D01*
X169639370Y-81491331D01*
X169470891Y-81898075D01*
X169385001Y-82329872D01*
X167224674Y-82329872D01*
X166933808Y-82039007D01*
X166933799Y-82038996D01*
X164590000Y-79695199D01*
X164590000Y-73093711D01*
X164633937Y-73049774D01*
X164747205Y-72880256D01*
X164825226Y-72691898D01*
X164865000Y-72491939D01*
X164865000Y-72288061D01*
X164825226Y-72088102D01*
X164747205Y-71899744D01*
X164633937Y-71730226D01*
X164489774Y-71586063D01*
X164320256Y-71472795D01*
X164131898Y-71394774D01*
X163931939Y-71355000D01*
X163728061Y-71355000D01*
X163528102Y-71394774D01*
X163339744Y-71472795D01*
X163170226Y-71586063D01*
X163026063Y-71730226D01*
X162912795Y-71899744D01*
X162834774Y-72088102D01*
X162795000Y-72288061D01*
X162795000Y-72491939D01*
X162828039Y-72658039D01*
X162661939Y-72625000D01*
X162458061Y-72625000D01*
X162258102Y-72664774D01*
X162069744Y-72742795D01*
X161900226Y-72856063D01*
X161756063Y-73000226D01*
X161642795Y-73169744D01*
X161564774Y-73358102D01*
X161525000Y-73558061D01*
X161525000Y-73761939D01*
X161564774Y-73961898D01*
X161642795Y-74150256D01*
X161756063Y-74319774D01*
X161800001Y-74363712D01*
X161800000Y-79972677D01*
X161796324Y-80010000D01*
X161800000Y-80047322D01*
X161800000Y-80047332D01*
X161810997Y-80158985D01*
X161844510Y-80269463D01*
X161854454Y-80302246D01*
X161925026Y-80434276D01*
X161964871Y-80482826D01*
X162019999Y-80550001D01*
X162049003Y-80573804D01*
X163318997Y-81843799D01*
X163319003Y-81843804D01*
X169420001Y-87944803D01*
X169420000Y-88937332D01*
X169420001Y-88937342D01*
X169420000Y-100015198D01*
X168595199Y-100840000D01*
X166004013Y-100840000D01*
X166017205Y-100820256D01*
X166095226Y-100631898D01*
X166135000Y-100431939D01*
X166135000Y-100228061D01*
X166095226Y-100028102D01*
X166017205Y-99839744D01*
X165903937Y-99670226D01*
X165860000Y-99626289D01*
X165860000Y-99097322D01*
X165863676Y-99059999D01*
X165860000Y-99022676D01*
X165860000Y-99022667D01*
X165849003Y-98911014D01*
X165805546Y-98767753D01*
X165734974Y-98635724D01*
X165640001Y-98519999D01*
X165611003Y-98496201D01*
X164938802Y-97824001D01*
X164915000Y-97794998D01*
X164799275Y-97700025D01*
X164667246Y-97629453D01*
X164523985Y-97585996D01*
X164412332Y-97574999D01*
X164412321Y-97574999D01*
X164374999Y-97571323D01*
X164337677Y-97574999D01*
X163572511Y-97574999D01*
X163555226Y-97488102D01*
X163477205Y-97299744D01*
X163363937Y-97130226D01*
X163320000Y-97086289D01*
X163320000Y-96834801D01*
X165139803Y-95015000D01*
X165201939Y-95015000D01*
X165401898Y-94975226D01*
X165590256Y-94897205D01*
X165759774Y-94783937D01*
X165903937Y-94639774D01*
X166017205Y-94470256D01*
X166095226Y-94281898D01*
X166135000Y-94081939D01*
X166135000Y-93878061D01*
X166095226Y-93678102D01*
X166017205Y-93489744D01*
X165903937Y-93320226D01*
X165759774Y-93176063D01*
X165590256Y-93062795D01*
X165401898Y-92984774D01*
X165201939Y-92945000D01*
X164998061Y-92945000D01*
X164798102Y-92984774D01*
X164609744Y-93062795D01*
X164440226Y-93176063D01*
X164296063Y-93320226D01*
X164182795Y-93489744D01*
X164104774Y-93678102D01*
X164065000Y-93878061D01*
X164065000Y-93940197D01*
X162048998Y-95956201D01*
X162020000Y-95979999D01*
X161996202Y-96008997D01*
X161996201Y-96008998D01*
X161925026Y-96095724D01*
X161854454Y-96227754D01*
X161810998Y-96371015D01*
X161796324Y-96520000D01*
X161800001Y-96557332D01*
X161800001Y-97086288D01*
X161756063Y-97130226D01*
X161642795Y-97299744D01*
X161564774Y-97488102D01*
X161525000Y-97688061D01*
X161525000Y-97755001D01*
X160799320Y-97755001D01*
X160761997Y-97751325D01*
X160724674Y-97755001D01*
X160724664Y-97755001D01*
X160613011Y-97765998D01*
X160469750Y-97809455D01*
X160337720Y-97880027D01*
X160265880Y-97938985D01*
X160221996Y-97975000D01*
X160198197Y-98003999D01*
X159697498Y-98504699D01*
X159668500Y-98528497D01*
X159644702Y-98557495D01*
X159644701Y-98557496D01*
X159573526Y-98644222D01*
X159502954Y-98776252D01*
X159493552Y-98807248D01*
X159462076Y-98911015D01*
X159459498Y-98919513D01*
X159444824Y-99068498D01*
X159448501Y-99105830D01*
X159448500Y-100203698D01*
X158812199Y-100840000D01*
X136593711Y-100840000D01*
X136549774Y-100796063D01*
X136380256Y-100682795D01*
X136191898Y-100604774D01*
X135991939Y-100565000D01*
X135788061Y-100565000D01*
X135588102Y-100604774D01*
X135399744Y-100682795D01*
X135230226Y-100796063D01*
X135086063Y-100940226D01*
X134972795Y-101109744D01*
X134894774Y-101298102D01*
X134855000Y-101498061D01*
X103530000Y-101498061D01*
X103530000Y-98958061D01*
X136125000Y-98958061D01*
X136125000Y-99161939D01*
X136164774Y-99361898D01*
X136242795Y-99550256D01*
X136356063Y-99719774D01*
X136500226Y-99863937D01*
X136669744Y-99977205D01*
X136858102Y-100055226D01*
X137058061Y-100095000D01*
X137261939Y-100095000D01*
X137461898Y-100055226D01*
X137650256Y-99977205D01*
X137819774Y-99863937D01*
X137863711Y-99820000D01*
X139662678Y-99820000D01*
X139700000Y-99823676D01*
X139737322Y-99820000D01*
X139737333Y-99820000D01*
X139848986Y-99809003D01*
X139992247Y-99765546D01*
X140124276Y-99694974D01*
X140240001Y-99600001D01*
X140263804Y-99570997D01*
X142279803Y-97555000D01*
X142341939Y-97555000D01*
X142541898Y-97515226D01*
X142730256Y-97437205D01*
X142899774Y-97323937D01*
X143043937Y-97179774D01*
X143157205Y-97010256D01*
X143235226Y-96821898D01*
X143275000Y-96621939D01*
X143275000Y-96418061D01*
X143235226Y-96218102D01*
X143157205Y-96029744D01*
X143043937Y-95860226D01*
X142899774Y-95716063D01*
X142730256Y-95602795D01*
X142541898Y-95524774D01*
X142341939Y-95485000D01*
X142138061Y-95485000D01*
X141938102Y-95524774D01*
X141749744Y-95602795D01*
X141580226Y-95716063D01*
X141436063Y-95860226D01*
X141322795Y-96029744D01*
X141244774Y-96218102D01*
X141205000Y-96418061D01*
X141205000Y-96480197D01*
X139385199Y-98300000D01*
X137863711Y-98300000D01*
X137819774Y-98256063D01*
X137650256Y-98142795D01*
X137461898Y-98064774D01*
X137261939Y-98025000D01*
X137058061Y-98025000D01*
X136858102Y-98064774D01*
X136669744Y-98142795D01*
X136500226Y-98256063D01*
X136356063Y-98400226D01*
X136242795Y-98569744D01*
X136164774Y-98758102D01*
X136125000Y-98958061D01*
X103530000Y-98958061D01*
X103530000Y-80800000D01*
X104976929Y-80800000D01*
X104976929Y-84300000D01*
X104989189Y-84424482D01*
X105025499Y-84544180D01*
X105084464Y-84654494D01*
X105163816Y-84751185D01*
X105260507Y-84830537D01*
X105370821Y-84889502D01*
X105490519Y-84925812D01*
X105615001Y-84938072D01*
X109115001Y-84938072D01*
X109239483Y-84925812D01*
X109359181Y-84889502D01*
X109469495Y-84830537D01*
X109566186Y-84751185D01*
X109645538Y-84654494D01*
X109704503Y-84544180D01*
X109740813Y-84424482D01*
X109753073Y-84300000D01*
X109753073Y-82329872D01*
X113775001Y-82329872D01*
X113775001Y-82770128D01*
X113860891Y-83201925D01*
X114029370Y-83608669D01*
X114273963Y-83974729D01*
X114585272Y-84286038D01*
X114951332Y-84530631D01*
X115358076Y-84699110D01*
X115789873Y-84785000D01*
X116230129Y-84785000D01*
X116661926Y-84699110D01*
X117068670Y-84530631D01*
X117434730Y-84286038D01*
X117746039Y-83974729D01*
X117990632Y-83608669D01*
X118159111Y-83201925D01*
X118245001Y-82770128D01*
X118245001Y-82329872D01*
X118159111Y-81898075D01*
X117990632Y-81491331D01*
X117746039Y-81125271D01*
X117434730Y-80813962D01*
X117068670Y-80569369D01*
X116661926Y-80400890D01*
X116230129Y-80315000D01*
X115789873Y-80315000D01*
X115358076Y-80400890D01*
X114951332Y-80569369D01*
X114585272Y-80813962D01*
X114273963Y-81125271D01*
X114029370Y-81491331D01*
X113860891Y-81898075D01*
X113775001Y-82329872D01*
X109753073Y-82329872D01*
X109753073Y-80800000D01*
X109740813Y-80675518D01*
X109704503Y-80555820D01*
X109645538Y-80445506D01*
X109566186Y-80348815D01*
X109469495Y-80269463D01*
X109359181Y-80210498D01*
X109239483Y-80174188D01*
X109115001Y-80161928D01*
X105615001Y-80161928D01*
X105490519Y-80174188D01*
X105370821Y-80210498D01*
X105260507Y-80269463D01*
X105163816Y-80348815D01*
X105084464Y-80445506D01*
X105025499Y-80555820D01*
X104989189Y-80675518D01*
X104976929Y-80800000D01*
X103530000Y-80800000D01*
X103530000Y-71280881D01*
X105428724Y-71280881D01*
X105788912Y-71770548D01*
X106452882Y-72130849D01*
X107174385Y-72354694D01*
X107925695Y-72433480D01*
X108677938Y-72364178D01*
X109402208Y-72149452D01*
X110070670Y-71797555D01*
X110111088Y-71770548D01*
X110471276Y-71280881D01*
X176548724Y-71280881D01*
X176908912Y-71770548D01*
X177572882Y-72130849D01*
X178294385Y-72354694D01*
X179045695Y-72433480D01*
X179797938Y-72364178D01*
X180522208Y-72149452D01*
X181190670Y-71797555D01*
X181231088Y-71770548D01*
X181591276Y-71280881D01*
X179070000Y-68759605D01*
X176548724Y-71280881D01*
X110471276Y-71280881D01*
X107950000Y-68759605D01*
X105428724Y-71280881D01*
X103530000Y-71280881D01*
X103530000Y-68609392D01*
X103534792Y-68555695D01*
X104096520Y-68555695D01*
X104165822Y-69307938D01*
X104380548Y-70032208D01*
X104732445Y-70700670D01*
X104759452Y-70741088D01*
X105249119Y-71101276D01*
X107770395Y-68580000D01*
X108129605Y-68580000D01*
X110650881Y-71101276D01*
X111140548Y-70741088D01*
X111500849Y-70077118D01*
X111724694Y-69355615D01*
X111803480Y-68604305D01*
X111799002Y-68555695D01*
X175216520Y-68555695D01*
X175285822Y-69307938D01*
X175500548Y-70032208D01*
X175852445Y-70700670D01*
X175879452Y-70741088D01*
X176369119Y-71101276D01*
X178890395Y-68580000D01*
X179249605Y-68580000D01*
X181770881Y-71101276D01*
X182260548Y-70741088D01*
X182620849Y-70077118D01*
X182844694Y-69355615D01*
X182923480Y-68604305D01*
X182854178Y-67852062D01*
X182639452Y-67127792D01*
X182287555Y-66459330D01*
X182260548Y-66418912D01*
X181770881Y-66058724D01*
X179249605Y-68580000D01*
X178890395Y-68580000D01*
X176369119Y-66058724D01*
X175879452Y-66418912D01*
X175519151Y-67082882D01*
X175295306Y-67804385D01*
X175216520Y-68555695D01*
X111799002Y-68555695D01*
X111734178Y-67852062D01*
X111519452Y-67127792D01*
X111167555Y-66459330D01*
X111140548Y-66418912D01*
X110650881Y-66058724D01*
X108129605Y-68580000D01*
X107770395Y-68580000D01*
X105249119Y-66058724D01*
X104759452Y-66418912D01*
X104399151Y-67082882D01*
X104175306Y-67804385D01*
X104096520Y-68555695D01*
X103534792Y-68555695D01*
X103602437Y-67797751D01*
X103809672Y-67040226D01*
X104147777Y-66331375D01*
X104472755Y-65879119D01*
X105428724Y-65879119D01*
X107950000Y-68400395D01*
X110471276Y-65879119D01*
X176548724Y-65879119D01*
X179070000Y-68400395D01*
X181591276Y-65879119D01*
X181231088Y-65389452D01*
X180567118Y-65029151D01*
X179845615Y-64805306D01*
X179094305Y-64726520D01*
X178342062Y-64795822D01*
X177617792Y-65010548D01*
X176949330Y-65362445D01*
X176908912Y-65389452D01*
X176548724Y-65879119D01*
X110471276Y-65879119D01*
X110111088Y-65389452D01*
X109447118Y-65029151D01*
X108725615Y-64805306D01*
X107974305Y-64726520D01*
X107222062Y-64795822D01*
X106497792Y-65010548D01*
X105829330Y-65362445D01*
X105788912Y-65389452D01*
X105428724Y-65879119D01*
X104472755Y-65879119D01*
X104606067Y-65693596D01*
X105170055Y-65147054D01*
X105821913Y-64709023D01*
X106541038Y-64393349D01*
X107309768Y-64208794D01*
X107974207Y-64160000D01*
X179040608Y-64160000D01*
X179852249Y-64232437D01*
%TA.AperFunction,Conductor*%
D25*
G36*
X179852249Y-64232437D02*
G01*
X180609774Y-64439672D01*
X181318625Y-64777777D01*
X181956404Y-65236067D01*
X182502946Y-65800055D01*
X182940977Y-66451913D01*
X183256651Y-67171038D01*
X183441206Y-67939768D01*
X183490000Y-68604207D01*
X183490001Y-120620597D01*
X183417563Y-121432249D01*
X183210328Y-122189774D01*
X182872221Y-122898627D01*
X182413928Y-123536410D01*
X181849945Y-124082946D01*
X181198085Y-124520978D01*
X180478963Y-124836651D01*
X179710232Y-125021206D01*
X179045792Y-125070000D01*
X107979392Y-125070000D01*
X107167751Y-124997563D01*
X106410226Y-124790328D01*
X105701373Y-124452221D01*
X105063590Y-123993928D01*
X104517054Y-123429945D01*
X104463926Y-123350881D01*
X105428724Y-123350881D01*
X105788912Y-123840548D01*
X106452882Y-124200849D01*
X107174385Y-124424694D01*
X107925695Y-124503480D01*
X108677938Y-124434178D01*
X109402208Y-124219452D01*
X110070670Y-123867555D01*
X110111088Y-123840548D01*
X110471276Y-123350881D01*
X176688724Y-123350881D01*
X177048912Y-123840548D01*
X177712882Y-124200849D01*
X178434385Y-124424694D01*
X179185695Y-124503480D01*
X179937938Y-124434178D01*
X180662208Y-124219452D01*
X181330670Y-123867555D01*
X181371088Y-123840548D01*
X181731276Y-123350881D01*
X179210000Y-120829605D01*
X176688724Y-123350881D01*
X110471276Y-123350881D01*
X107950000Y-120829605D01*
X105428724Y-123350881D01*
X104463926Y-123350881D01*
X104079022Y-122778085D01*
X103763349Y-122058963D01*
X103578794Y-121290232D01*
X103530000Y-120625792D01*
X103530000Y-120625695D01*
X104096520Y-120625695D01*
X104165822Y-121377938D01*
X104380548Y-122102208D01*
X104732445Y-122770670D01*
X104759452Y-122811088D01*
X105249119Y-123171276D01*
X107770395Y-120650000D01*
X108129605Y-120650000D01*
X110650881Y-123171276D01*
X111140548Y-122811088D01*
X111500849Y-122147118D01*
X111724694Y-121425615D01*
X111803480Y-120674305D01*
X111799002Y-120625695D01*
X175356520Y-120625695D01*
X175425822Y-121377938D01*
X175640548Y-122102208D01*
X175992445Y-122770670D01*
X176019452Y-122811088D01*
X176509119Y-123171276D01*
X179030395Y-120650000D01*
X179389605Y-120650000D01*
X181910881Y-123171276D01*
X182400548Y-122811088D01*
X182760849Y-122147118D01*
X182984694Y-121425615D01*
X183063480Y-120674305D01*
X182994178Y-119922062D01*
X182779452Y-119197792D01*
X182427555Y-118529330D01*
X182400548Y-118488912D01*
X181910881Y-118128724D01*
X179389605Y-120650000D01*
X179030395Y-120650000D01*
X176509119Y-118128724D01*
X176019452Y-118488912D01*
X175659151Y-119152882D01*
X175435306Y-119874385D01*
X175356520Y-120625695D01*
X111799002Y-120625695D01*
X111734178Y-119922062D01*
X111519452Y-119197792D01*
X111167555Y-118529330D01*
X111140548Y-118488912D01*
X110650881Y-118128724D01*
X108129605Y-120650000D01*
X107770395Y-120650000D01*
X105249119Y-118128724D01*
X104759452Y-118488912D01*
X104399151Y-119152882D01*
X104175306Y-119874385D01*
X104096520Y-120625695D01*
X103530000Y-120625695D01*
X103530000Y-117949119D01*
X105428724Y-117949119D01*
X107950000Y-120470395D01*
X110471276Y-117949119D01*
X110456675Y-117929268D01*
X123895000Y-117929268D01*
X123895000Y-118290732D01*
X123965518Y-118645250D01*
X124103844Y-118979199D01*
X124304662Y-119279744D01*
X124560256Y-119535338D01*
X124860801Y-119736156D01*
X125194750Y-119874482D01*
X125549268Y-119945000D01*
X125910732Y-119945000D01*
X126265250Y-119874482D01*
X126599199Y-119736156D01*
X126899744Y-119535338D01*
X127155338Y-119279744D01*
X127356156Y-118979199D01*
X127494482Y-118645250D01*
X127519036Y-118521805D01*
X149341805Y-118521805D01*
X149414379Y-118761066D01*
X149574361Y-119083257D01*
X149794125Y-119368046D01*
X150065226Y-119604489D01*
X150377246Y-119783500D01*
X150718194Y-119898199D01*
X151003000Y-119781854D01*
X151003000Y-118237000D01*
X151257000Y-118237000D01*
X151257000Y-119781854D01*
X151541806Y-119898199D01*
X151882754Y-119783500D01*
X152194774Y-119604489D01*
X152465875Y-119368046D01*
X152685639Y-119083257D01*
X152845621Y-118761066D01*
X152918195Y-118521805D01*
X152801432Y-118237000D01*
X151257000Y-118237000D01*
X151003000Y-118237000D01*
X149458568Y-118237000D01*
X149341805Y-118521805D01*
X127519036Y-118521805D01*
X127565000Y-118290732D01*
X127565000Y-117929268D01*
X127519037Y-117698195D01*
X149341805Y-117698195D01*
X149458568Y-117983000D01*
X151003000Y-117983000D01*
X151003000Y-116438146D01*
X151257000Y-116438146D01*
X151257000Y-117983000D01*
X152801432Y-117983000D01*
X152815322Y-117949119D01*
X176688724Y-117949119D01*
X179210000Y-120470395D01*
X181731276Y-117949119D01*
X181371088Y-117459452D01*
X180707118Y-117099151D01*
X179985615Y-116875306D01*
X179234305Y-116796520D01*
X178482062Y-116865822D01*
X177757792Y-117080548D01*
X177089330Y-117432445D01*
X177048912Y-117459452D01*
X176688724Y-117949119D01*
X152815322Y-117949119D01*
X152918195Y-117698195D01*
X152845621Y-117458934D01*
X152685639Y-117136743D01*
X152465875Y-116851954D01*
X152194774Y-116615511D01*
X151882754Y-116436500D01*
X151541806Y-116321801D01*
X151257000Y-116438146D01*
X151003000Y-116438146D01*
X150718194Y-116321801D01*
X150377246Y-116436500D01*
X150065226Y-116615511D01*
X149794125Y-116851954D01*
X149574361Y-117136743D01*
X149414379Y-117458934D01*
X149341805Y-117698195D01*
X127519037Y-117698195D01*
X127494482Y-117574750D01*
X127356156Y-117240801D01*
X127155338Y-116940256D01*
X126899744Y-116684662D01*
X126599199Y-116483844D01*
X126265250Y-116345518D01*
X125910732Y-116275000D01*
X125549268Y-116275000D01*
X125194750Y-116345518D01*
X124860801Y-116483844D01*
X124560256Y-116684662D01*
X124304662Y-116940256D01*
X124103844Y-117240801D01*
X123965518Y-117574750D01*
X123895000Y-117929268D01*
X110456675Y-117929268D01*
X110111088Y-117459452D01*
X109447118Y-117099151D01*
X108725615Y-116875306D01*
X107974305Y-116796520D01*
X107222062Y-116865822D01*
X106497792Y-117080548D01*
X105829330Y-117432445D01*
X105788912Y-117459452D01*
X105428724Y-117949119D01*
X103530000Y-117949119D01*
X103530000Y-116738061D01*
X119615000Y-116738061D01*
X119615000Y-116941939D01*
X119654774Y-117141898D01*
X119732795Y-117330256D01*
X119846063Y-117499774D01*
X119990226Y-117643937D01*
X120159744Y-117757205D01*
X120348102Y-117835226D01*
X120548061Y-117875000D01*
X120751939Y-117875000D01*
X120951898Y-117835226D01*
X121140256Y-117757205D01*
X121309774Y-117643937D01*
X121453937Y-117499774D01*
X121567205Y-117330256D01*
X121645226Y-117141898D01*
X121685000Y-116941939D01*
X121685000Y-116879801D01*
X124864801Y-113700000D01*
X158531928Y-113700000D01*
X158531928Y-114900000D01*
X158548992Y-115073254D01*
X158599528Y-115239850D01*
X158681595Y-115393386D01*
X158792038Y-115527962D01*
X158926614Y-115638405D01*
X159080150Y-115720472D01*
X159246746Y-115771008D01*
X159420000Y-115788072D01*
X160620000Y-115788072D01*
X160793254Y-115771008D01*
X160959850Y-115720472D01*
X161113386Y-115638405D01*
X161247962Y-115527962D01*
X161358405Y-115393386D01*
X161426285Y-115266392D01*
X161613368Y-115453475D01*
X161856589Y-115615990D01*
X162126842Y-115727932D01*
X162413740Y-115785000D01*
X162706260Y-115785000D01*
X162993158Y-115727932D01*
X163263411Y-115615990D01*
X163506632Y-115453475D01*
X163713475Y-115246632D01*
X163830000Y-115072240D01*
X163946525Y-115246632D01*
X164153368Y-115453475D01*
X164396589Y-115615990D01*
X164666842Y-115727932D01*
X164953740Y-115785000D01*
X165246260Y-115785000D01*
X165533158Y-115727932D01*
X165803411Y-115615990D01*
X165873401Y-115569224D01*
X176630381Y-115569224D01*
X176762317Y-115864312D01*
X177103045Y-116035159D01*
X177470557Y-116136250D01*
X177850729Y-116163701D01*
X178228951Y-116116457D01*
X178590690Y-115996333D01*
X178837683Y-115864312D01*
X178969619Y-115569224D01*
X177800000Y-114399605D01*
X176630381Y-115569224D01*
X165873401Y-115569224D01*
X166046632Y-115453475D01*
X166253475Y-115246632D01*
X166415990Y-115003411D01*
X166527932Y-114733158D01*
X166585000Y-114446260D01*
X166585000Y-114270729D01*
X175856299Y-114270729D01*
X175903543Y-114648951D01*
X176023667Y-115010690D01*
X176155688Y-115257683D01*
X176450776Y-115389619D01*
X177620395Y-114220000D01*
X177979605Y-114220000D01*
X179149224Y-115389619D01*
X179444312Y-115257683D01*
X179615159Y-114916955D01*
X179716250Y-114549443D01*
X179743701Y-114169271D01*
X179696457Y-113791049D01*
X179576333Y-113429310D01*
X179444312Y-113182317D01*
X179149224Y-113050381D01*
X177979605Y-114220000D01*
X177620395Y-114220000D01*
X176450776Y-113050381D01*
X176155688Y-113182317D01*
X175984841Y-113523045D01*
X175883750Y-113890557D01*
X175856299Y-114270729D01*
X166585000Y-114270729D01*
X166585000Y-114153740D01*
X166527932Y-113866842D01*
X166415990Y-113596589D01*
X166253475Y-113353368D01*
X166046632Y-113146525D01*
X165873271Y-113030689D01*
X165923114Y-112870776D01*
X176630381Y-112870776D01*
X177800000Y-114040395D01*
X178969619Y-112870776D01*
X178837683Y-112575688D01*
X178496955Y-112404841D01*
X178129443Y-112303750D01*
X177749271Y-112276299D01*
X177371049Y-112323543D01*
X177009310Y-112443667D01*
X176762317Y-112575688D01*
X176630381Y-112870776D01*
X165923114Y-112870776D01*
X165948792Y-112788397D01*
X165100000Y-111939605D01*
X164251208Y-112788397D01*
X164326729Y-113030689D01*
X164153368Y-113146525D01*
X163946525Y-113353368D01*
X163830000Y-113527760D01*
X163713475Y-113353368D01*
X163506632Y-113146525D01*
X163332240Y-113030000D01*
X163506632Y-112913475D01*
X163713475Y-112706632D01*
X163829311Y-112533271D01*
X164071603Y-112608792D01*
X164920395Y-111760000D01*
X165279605Y-111760000D01*
X166128397Y-112608792D01*
X166377472Y-112531157D01*
X166503371Y-112267117D01*
X166575339Y-111983589D01*
X166590611Y-111691469D01*
X166548599Y-111401981D01*
X166450919Y-111126253D01*
X166377472Y-110988843D01*
X166128397Y-110911208D01*
X165279605Y-111760000D01*
X164920395Y-111760000D01*
X164071603Y-110911208D01*
X163829311Y-110986729D01*
X163713475Y-110813368D01*
X163631710Y-110731603D01*
X164251208Y-110731603D01*
X165100000Y-111580395D01*
X165948792Y-110731603D01*
X165871157Y-110482528D01*
X165607117Y-110356629D01*
X165323589Y-110284661D01*
X165031469Y-110269389D01*
X164741981Y-110311401D01*
X164466253Y-110409081D01*
X164328843Y-110482528D01*
X164251208Y-110731603D01*
X163631710Y-110731603D01*
X163506632Y-110606525D01*
X163263411Y-110444010D01*
X162993158Y-110332068D01*
X162748230Y-110283348D01*
X164196579Y-108835000D01*
X164561546Y-108835000D01*
X164609744Y-108867205D01*
X164798102Y-108945226D01*
X164998061Y-108985000D01*
X165201939Y-108985000D01*
X165401898Y-108945226D01*
X165590256Y-108867205D01*
X165759774Y-108753937D01*
X165903937Y-108609774D01*
X166017205Y-108440256D01*
X166095226Y-108251898D01*
X166135000Y-108051939D01*
X166135000Y-107920000D01*
X175861928Y-107920000D01*
X175861928Y-110520000D01*
X175874188Y-110644482D01*
X175910498Y-110764180D01*
X175969463Y-110874494D01*
X176048815Y-110971185D01*
X176145506Y-111050537D01*
X176255820Y-111109502D01*
X176375518Y-111145812D01*
X176500000Y-111158072D01*
X179100000Y-111158072D01*
X179224482Y-111145812D01*
X179344180Y-111109502D01*
X179454494Y-111050537D01*
X179551185Y-110971185D01*
X179630537Y-110874494D01*
X179689502Y-110764180D01*
X179725812Y-110644482D01*
X179738072Y-110520000D01*
X179738072Y-107920000D01*
X179725812Y-107795518D01*
X179689502Y-107675820D01*
X179630537Y-107565506D01*
X179551185Y-107468815D01*
X179454494Y-107389463D01*
X179344180Y-107330498D01*
X179224482Y-107294188D01*
X179100000Y-107281928D01*
X176500000Y-107281928D01*
X176375518Y-107294188D01*
X176255820Y-107330498D01*
X176145506Y-107389463D01*
X176048815Y-107468815D01*
X175969463Y-107565506D01*
X175910498Y-107675820D01*
X175874188Y-107795518D01*
X175861928Y-107920000D01*
X166135000Y-107920000D01*
X166135000Y-107848061D01*
X166095226Y-107648102D01*
X166017205Y-107459744D01*
X165903937Y-107290226D01*
X165759774Y-107146063D01*
X165590256Y-107032795D01*
X165401898Y-106954774D01*
X165201939Y-106915000D01*
X164998061Y-106915000D01*
X164798102Y-106954774D01*
X164609744Y-107032795D01*
X164561546Y-107065000D01*
X163873469Y-107065000D01*
X163830000Y-107060719D01*
X163786531Y-107065000D01*
X163786523Y-107065000D01*
X163656510Y-107077805D01*
X163489686Y-107128411D01*
X163335941Y-107210589D01*
X163234953Y-107293468D01*
X163234951Y-107293470D01*
X163201183Y-107321183D01*
X163173470Y-107354951D01*
X160238961Y-110289461D01*
X160166260Y-110275000D01*
X159873740Y-110275000D01*
X159586842Y-110332068D01*
X159316589Y-110444010D01*
X159073368Y-110606525D01*
X158866525Y-110813368D01*
X158704010Y-111056589D01*
X158592068Y-111326842D01*
X158535000Y-111613740D01*
X158535000Y-111906260D01*
X158592068Y-112193158D01*
X158704010Y-112463411D01*
X158866525Y-112706632D01*
X159053608Y-112893715D01*
X158926614Y-112961595D01*
X158792038Y-113072038D01*
X158681595Y-113206614D01*
X158599528Y-113360150D01*
X158548992Y-113526746D01*
X158531928Y-113700000D01*
X124864801Y-113700000D01*
X126044802Y-112520000D01*
X147282678Y-112520000D01*
X147320000Y-112523676D01*
X147357322Y-112520000D01*
X147357333Y-112520000D01*
X147468986Y-112509003D01*
X147612247Y-112465546D01*
X147744276Y-112394974D01*
X147860001Y-112300001D01*
X147883804Y-112270997D01*
X153709802Y-106445000D01*
X153771939Y-106445000D01*
X153971898Y-106405226D01*
X154160256Y-106327205D01*
X154329774Y-106213937D01*
X154473937Y-106069774D01*
X154587205Y-105900256D01*
X154665226Y-105711898D01*
X154705000Y-105511939D01*
X154705000Y-105308061D01*
X154665226Y-105108102D01*
X154587205Y-104919744D01*
X154473937Y-104750226D01*
X154329774Y-104606063D01*
X154160256Y-104492795D01*
X153971898Y-104414774D01*
X153771939Y-104375000D01*
X153568061Y-104375000D01*
X153368102Y-104414774D01*
X153179744Y-104492795D01*
X153010226Y-104606063D01*
X152866063Y-104750226D01*
X152752795Y-104919744D01*
X152674774Y-105108102D01*
X152635000Y-105308061D01*
X152635000Y-105370198D01*
X147005199Y-111000000D01*
X125767323Y-111000000D01*
X125730000Y-110996324D01*
X125692677Y-111000000D01*
X125692667Y-111000000D01*
X125581014Y-111010997D01*
X125450666Y-111050537D01*
X125437753Y-111054454D01*
X125305723Y-111125026D01*
X125222083Y-111193668D01*
X125189999Y-111219999D01*
X125166201Y-111248997D01*
X120610199Y-115805000D01*
X120548061Y-115805000D01*
X120348102Y-115844774D01*
X120159744Y-115922795D01*
X119990226Y-116036063D01*
X119846063Y-116180226D01*
X119732795Y-116349744D01*
X119654774Y-116538102D01*
X119615000Y-116738061D01*
X103530000Y-116738061D01*
X103530000Y-106578061D01*
X132315000Y-106578061D01*
X132315000Y-106781939D01*
X132354774Y-106981898D01*
X132432795Y-107170256D01*
X132546063Y-107339774D01*
X132590000Y-107383711D01*
X132590000Y-107912677D01*
X132586324Y-107950000D01*
X132590000Y-107987322D01*
X132590000Y-107987332D01*
X132600997Y-108098985D01*
X132644454Y-108242246D01*
X132715026Y-108374276D01*
X132754871Y-108422826D01*
X132809999Y-108490001D01*
X132839003Y-108513804D01*
X134056201Y-109731003D01*
X134079999Y-109760001D01*
X134195724Y-109854974D01*
X134327753Y-109925546D01*
X134471014Y-109969003D01*
X134582667Y-109980000D01*
X134582676Y-109980000D01*
X134619999Y-109983676D01*
X134657322Y-109980000D01*
X142202678Y-109980000D01*
X142240000Y-109983676D01*
X142277322Y-109980000D01*
X142277333Y-109980000D01*
X142388986Y-109969003D01*
X142532247Y-109925546D01*
X142664276Y-109854974D01*
X142780001Y-109760001D01*
X142803804Y-109730997D01*
X145094803Y-107440000D01*
X146616289Y-107440000D01*
X146660226Y-107483937D01*
X146829744Y-107597205D01*
X147018102Y-107675226D01*
X147218061Y-107715000D01*
X147421939Y-107715000D01*
X147621898Y-107675226D01*
X147810256Y-107597205D01*
X147979774Y-107483937D01*
X148123937Y-107339774D01*
X148237205Y-107170256D01*
X148315226Y-106981898D01*
X148355000Y-106781939D01*
X148355000Y-106578061D01*
X148315226Y-106378102D01*
X148237205Y-106189744D01*
X148123937Y-106020226D01*
X147979774Y-105876063D01*
X147810256Y-105762795D01*
X147621898Y-105684774D01*
X147421939Y-105645000D01*
X147218061Y-105645000D01*
X147018102Y-105684774D01*
X146829744Y-105762795D01*
X146660226Y-105876063D01*
X146616289Y-105920000D01*
X144817322Y-105920000D01*
X144779999Y-105916324D01*
X144742676Y-105920000D01*
X144742667Y-105920000D01*
X144631014Y-105930997D01*
X144487753Y-105974454D01*
X144355724Y-106045026D01*
X144355722Y-106045027D01*
X144355723Y-106045027D01*
X144268996Y-106116201D01*
X144268992Y-106116205D01*
X144239999Y-106139999D01*
X144216205Y-106168992D01*
X141925199Y-108460000D01*
X134934802Y-108460000D01*
X134110000Y-107635199D01*
X134110000Y-107383711D01*
X134153937Y-107339774D01*
X134267205Y-107170256D01*
X134345226Y-106981898D01*
X134385000Y-106781939D01*
X134385000Y-106578061D01*
X134345226Y-106378102D01*
X134267205Y-106189744D01*
X134153937Y-106020226D01*
X134009774Y-105876063D01*
X133840256Y-105762795D01*
X133651898Y-105684774D01*
X133451939Y-105645000D01*
X133248061Y-105645000D01*
X133048102Y-105684774D01*
X132859744Y-105762795D01*
X132690226Y-105876063D01*
X132546063Y-106020226D01*
X132432795Y-106189744D01*
X132354774Y-106378102D01*
X132315000Y-106578061D01*
X103530000Y-106578061D01*
X103530000Y-101498061D01*
X134855000Y-101498061D01*
X134855000Y-101701939D01*
X134894774Y-101901898D01*
X134972795Y-102090256D01*
X135086063Y-102259774D01*
X135230226Y-102403937D01*
X135399744Y-102517205D01*
X135588102Y-102595226D01*
X135788061Y-102635000D01*
X135991939Y-102635000D01*
X136191898Y-102595226D01*
X136380256Y-102517205D01*
X136549774Y-102403937D01*
X136593711Y-102360000D01*
X158185199Y-102360000D01*
X157440199Y-103105000D01*
X157378061Y-103105000D01*
X157178102Y-103144774D01*
X156989744Y-103222795D01*
X156820226Y-103336063D01*
X156676063Y-103480226D01*
X156562795Y-103649744D01*
X156484774Y-103838102D01*
X156445000Y-104038061D01*
X156445000Y-104241939D01*
X156484774Y-104441898D01*
X156562795Y-104630256D01*
X156676063Y-104799774D01*
X156820226Y-104943937D01*
X156989744Y-105057205D01*
X157178102Y-105135226D01*
X157378061Y-105175000D01*
X157581939Y-105175000D01*
X157781898Y-105135226D01*
X157970256Y-105057205D01*
X158139774Y-104943937D01*
X158283937Y-104799774D01*
X158397205Y-104630256D01*
X158475226Y-104441898D01*
X158515000Y-104241939D01*
X158515000Y-104179801D01*
X160465621Y-102229180D01*
X160486063Y-102259774D01*
X160630226Y-102403937D01*
X160799744Y-102517205D01*
X160988102Y-102595226D01*
X161188061Y-102635000D01*
X161391939Y-102635000D01*
X161558039Y-102601961D01*
X161525000Y-102768061D01*
X161525000Y-102971939D01*
X161564774Y-103171898D01*
X161642795Y-103360256D01*
X161756063Y-103529774D01*
X161900226Y-103673937D01*
X162069744Y-103787205D01*
X162258102Y-103865226D01*
X162458061Y-103905000D01*
X162661939Y-103905000D01*
X162861898Y-103865226D01*
X163050256Y-103787205D01*
X163219774Y-103673937D01*
X163228711Y-103665000D01*
X171231929Y-103665000D01*
X171244189Y-103789482D01*
X171280499Y-103909180D01*
X171339464Y-104019494D01*
X171418816Y-104116185D01*
X171515507Y-104195537D01*
X171625821Y-104254502D01*
X171745519Y-104290812D01*
X171870001Y-104303072D01*
X172379251Y-104300000D01*
X172538001Y-104141250D01*
X172538001Y-102997000D01*
X172792001Y-102997000D01*
X172792001Y-104141250D01*
X172950751Y-104300000D01*
X173460001Y-104303072D01*
X173584483Y-104290812D01*
X173704181Y-104254502D01*
X173814495Y-104195537D01*
X173911186Y-104116185D01*
X173990538Y-104019494D01*
X174049503Y-103909180D01*
X174085813Y-103789482D01*
X174098073Y-103665000D01*
X177636928Y-103665000D01*
X177649188Y-103789482D01*
X177685498Y-103909180D01*
X177744463Y-104019494D01*
X177823815Y-104116185D01*
X177920506Y-104195537D01*
X178030820Y-104254502D01*
X178150518Y-104290812D01*
X178275000Y-104303072D01*
X178784250Y-104300000D01*
X178943000Y-104141250D01*
X178943000Y-102997000D01*
X179197000Y-102997000D01*
X179197000Y-104141250D01*
X179355750Y-104300000D01*
X179865000Y-104303072D01*
X179989482Y-104290812D01*
X180109180Y-104254502D01*
X180219494Y-104195537D01*
X180316185Y-104116185D01*
X180395537Y-104019494D01*
X180454502Y-103909180D01*
X180490812Y-103789482D01*
X180503072Y-103665000D01*
X180500000Y-103155750D01*
X180341250Y-102997000D01*
X179197000Y-102997000D01*
X178943000Y-102997000D01*
X177798750Y-102997000D01*
X177640000Y-103155750D01*
X177636928Y-103665000D01*
X174098073Y-103665000D01*
X174095001Y-103155750D01*
X173936251Y-102997000D01*
X172792001Y-102997000D01*
X172538001Y-102997000D01*
X171393751Y-102997000D01*
X171235001Y-103155750D01*
X171231929Y-103665000D01*
X163228711Y-103665000D01*
X163263711Y-103630000D01*
X168872678Y-103630000D01*
X168910000Y-103633676D01*
X168947322Y-103630000D01*
X168947333Y-103630000D01*
X169058986Y-103619003D01*
X169202247Y-103575546D01*
X169334276Y-103504974D01*
X169450001Y-103410001D01*
X169473804Y-103380997D01*
X171563739Y-101291063D01*
X171727370Y-101454694D01*
X171625821Y-101485498D01*
X171515507Y-101544463D01*
X171418816Y-101623815D01*
X171339464Y-101720506D01*
X171280499Y-101830820D01*
X171244189Y-101950518D01*
X171231929Y-102075000D01*
X171235001Y-102584250D01*
X171393751Y-102743000D01*
X172538001Y-102743000D01*
X172538001Y-102723000D01*
X172792001Y-102723000D01*
X172792001Y-102743000D01*
X173936251Y-102743000D01*
X174095001Y-102584250D01*
X174098073Y-102075000D01*
X177636928Y-102075000D01*
X177640000Y-102584250D01*
X177798750Y-102743000D01*
X178943000Y-102743000D01*
X178943000Y-102723000D01*
X179197000Y-102723000D01*
X179197000Y-102743000D01*
X180341250Y-102743000D01*
X180500000Y-102584250D01*
X180503072Y-102075000D01*
X180490812Y-101950518D01*
X180454502Y-101830820D01*
X180395537Y-101720506D01*
X180316185Y-101623815D01*
X180219494Y-101544463D01*
X180109180Y-101485498D01*
X180007631Y-101454694D01*
X180180753Y-101281572D01*
X180337249Y-101047359D01*
X180445046Y-100787116D01*
X180500000Y-100510843D01*
X180500000Y-100229157D01*
X180445046Y-99952884D01*
X180337249Y-99692641D01*
X180180753Y-99458428D01*
X179981572Y-99259247D01*
X179773174Y-99120000D01*
X179981572Y-98980753D01*
X180180753Y-98781572D01*
X180337249Y-98547359D01*
X180445046Y-98287116D01*
X180500000Y-98010843D01*
X180500000Y-97729157D01*
X180445046Y-97452884D01*
X180337249Y-97192641D01*
X180180753Y-96958428D01*
X179981572Y-96759247D01*
X179773174Y-96620000D01*
X179981572Y-96480753D01*
X180180753Y-96281572D01*
X180337249Y-96047359D01*
X180445046Y-95787116D01*
X180500000Y-95510843D01*
X180500000Y-95229157D01*
X180445046Y-94952884D01*
X180337249Y-94692641D01*
X180180753Y-94458428D01*
X179981572Y-94259247D01*
X179747359Y-94102751D01*
X179487116Y-93994954D01*
X179210843Y-93940000D01*
X178929157Y-93940000D01*
X178652884Y-93994954D01*
X178392641Y-94102751D01*
X178158428Y-94259247D01*
X177959247Y-94458428D01*
X177802751Y-94692641D01*
X177694954Y-94952884D01*
X177640000Y-95229157D01*
X177640000Y-95510843D01*
X177694954Y-95787116D01*
X177802751Y-96047359D01*
X177959247Y-96281572D01*
X178158428Y-96480753D01*
X178366826Y-96620000D01*
X178158428Y-96759247D01*
X177959247Y-96958428D01*
X177802751Y-97192641D01*
X177694954Y-97452884D01*
X177640000Y-97729157D01*
X177640000Y-98010843D01*
X177694954Y-98287116D01*
X177802751Y-98547359D01*
X177959247Y-98781572D01*
X178158428Y-98980753D01*
X178366826Y-99120000D01*
X178158428Y-99259247D01*
X177959247Y-99458428D01*
X177802751Y-99692641D01*
X177694954Y-99952884D01*
X177640000Y-100229157D01*
X177640000Y-100510843D01*
X177694954Y-100787116D01*
X177802751Y-101047359D01*
X177959247Y-101281572D01*
X178132369Y-101454694D01*
X178030820Y-101485498D01*
X177920506Y-101544463D01*
X177823815Y-101623815D01*
X177744463Y-101720506D01*
X177685498Y-101830820D01*
X177649188Y-101950518D01*
X177636928Y-102075000D01*
X174098073Y-102075000D01*
X174085813Y-101950518D01*
X174049503Y-101830820D01*
X173990538Y-101720506D01*
X173911186Y-101623815D01*
X173814495Y-101544463D01*
X173704181Y-101485498D01*
X173602632Y-101454694D01*
X173775754Y-101281572D01*
X173932250Y-101047359D01*
X174040047Y-100787116D01*
X174095001Y-100510843D01*
X174095001Y-100229157D01*
X174040047Y-99952884D01*
X173932250Y-99692641D01*
X173775754Y-99458428D01*
X173576573Y-99259247D01*
X173368175Y-99120000D01*
X173576573Y-98980753D01*
X173775754Y-98781572D01*
X173932250Y-98547359D01*
X174040047Y-98287116D01*
X174095001Y-98010843D01*
X174095001Y-97729157D01*
X174040047Y-97452884D01*
X173932250Y-97192641D01*
X173775754Y-96958428D01*
X173576573Y-96759247D01*
X173368175Y-96620000D01*
X173576573Y-96480753D01*
X173775754Y-96281572D01*
X173932250Y-96047359D01*
X174040047Y-95787116D01*
X174095001Y-95510843D01*
X174095001Y-95229157D01*
X174040047Y-94952884D01*
X173932250Y-94692641D01*
X173775754Y-94458428D01*
X173576573Y-94259247D01*
X173342360Y-94102751D01*
X173082117Y-93994954D01*
X172805844Y-93940000D01*
X172524158Y-93940000D01*
X172247885Y-93994954D01*
X172210000Y-94010647D01*
X172210000Y-87667323D01*
X172213676Y-87630000D01*
X172210000Y-87592677D01*
X172210000Y-87592667D01*
X172199003Y-87481014D01*
X172155546Y-87337753D01*
X172084974Y-87205723D01*
X172013799Y-87118997D01*
X171990001Y-87089999D01*
X171961003Y-87066201D01*
X167224674Y-82329872D01*
X169385001Y-82329872D01*
X169385001Y-82770128D01*
X169470891Y-83201925D01*
X169639370Y-83608669D01*
X169883963Y-83974729D01*
X170195272Y-84286038D01*
X170561332Y-84530631D01*
X170968076Y-84699110D01*
X171399873Y-84785000D01*
X171840129Y-84785000D01*
X172271926Y-84699110D01*
X172678670Y-84530631D01*
X173044730Y-84286038D01*
X173111159Y-84219609D01*
X177874998Y-84219609D01*
X178061074Y-84560766D01*
X178478410Y-84776513D01*
X178929816Y-84906696D01*
X179397947Y-84946313D01*
X179864812Y-84893842D01*
X180312469Y-84751297D01*
X180668928Y-84560766D01*
X180855004Y-84219609D01*
X179365001Y-82729605D01*
X177874998Y-84219609D01*
X173111159Y-84219609D01*
X173356039Y-83974729D01*
X173600632Y-83608669D01*
X173769111Y-83201925D01*
X173855001Y-82770128D01*
X173855001Y-82582946D01*
X176968688Y-82582946D01*
X177021159Y-83049811D01*
X177163704Y-83497468D01*
X177354235Y-83853927D01*
X177695392Y-84040003D01*
X179185396Y-82550000D01*
X179544606Y-82550000D01*
X181034610Y-84040003D01*
X181375767Y-83853927D01*
X181514792Y-83585000D01*
X181711939Y-83585000D01*
X181911898Y-83545226D01*
X182100256Y-83467205D01*
X182269774Y-83353937D01*
X182413937Y-83209774D01*
X182527205Y-83040256D01*
X182605226Y-82851898D01*
X182645000Y-82651939D01*
X182645000Y-82448061D01*
X182605226Y-82248102D01*
X182527205Y-82059744D01*
X182413937Y-81890226D01*
X182269774Y-81746063D01*
X182100256Y-81632795D01*
X181911898Y-81554774D01*
X181711939Y-81515000D01*
X181519511Y-81515000D01*
X181375767Y-81246073D01*
X181034610Y-81059997D01*
X179544606Y-82550000D01*
X179185396Y-82550000D01*
X177695392Y-81059997D01*
X177354235Y-81246073D01*
X177138488Y-81663409D01*
X177008305Y-82114815D01*
X176968688Y-82582946D01*
X173855001Y-82582946D01*
X173855001Y-82329872D01*
X173769111Y-81898075D01*
X173600632Y-81491331D01*
X173356039Y-81125271D01*
X173111159Y-80880391D01*
X177874998Y-80880391D01*
X179365001Y-82370395D01*
X180855004Y-80880391D01*
X180668928Y-80539234D01*
X180251592Y-80323487D01*
X179800186Y-80193304D01*
X179332055Y-80153687D01*
X178865190Y-80206158D01*
X178417533Y-80348703D01*
X178061074Y-80539234D01*
X177874998Y-80880391D01*
X173111159Y-80880391D01*
X173044730Y-80813962D01*
X172678670Y-80569369D01*
X172271926Y-80400890D01*
X171840129Y-80315000D01*
X171399873Y-80315000D01*
X170968076Y-80400890D01*
X170561332Y-80569369D01*
X170195272Y-80813962D01*
X169883963Y-81125271D01*
X169639370Y-81491331D01*
X169470891Y-81898075D01*
X169385001Y-82329872D01*
X167224674Y-82329872D01*
X166933808Y-82039007D01*
X166933799Y-82038996D01*
X164590000Y-79695199D01*
X164590000Y-73093711D01*
X164633937Y-73049774D01*
X164747205Y-72880256D01*
X164825226Y-72691898D01*
X164865000Y-72491939D01*
X164865000Y-72288061D01*
X164825226Y-72088102D01*
X164747205Y-71899744D01*
X164633937Y-71730226D01*
X164489774Y-71586063D01*
X164320256Y-71472795D01*
X164131898Y-71394774D01*
X163931939Y-71355000D01*
X163728061Y-71355000D01*
X163528102Y-71394774D01*
X163339744Y-71472795D01*
X163170226Y-71586063D01*
X163026063Y-71730226D01*
X162912795Y-71899744D01*
X162834774Y-72088102D01*
X162795000Y-72288061D01*
X162795000Y-72491939D01*
X162828039Y-72658039D01*
X162661939Y-72625000D01*
X162458061Y-72625000D01*
X162258102Y-72664774D01*
X162069744Y-72742795D01*
X161900226Y-72856063D01*
X161756063Y-73000226D01*
X161642795Y-73169744D01*
X161564774Y-73358102D01*
X161525000Y-73558061D01*
X161525000Y-73761939D01*
X161564774Y-73961898D01*
X161642795Y-74150256D01*
X161756063Y-74319774D01*
X161800001Y-74363712D01*
X161800000Y-79972677D01*
X161796324Y-80010000D01*
X161800000Y-80047322D01*
X161800000Y-80047332D01*
X161810997Y-80158985D01*
X161844510Y-80269463D01*
X161854454Y-80302246D01*
X161925026Y-80434276D01*
X161964871Y-80482826D01*
X162019999Y-80550001D01*
X162049003Y-80573804D01*
X163318997Y-81843799D01*
X163319003Y-81843804D01*
X169420001Y-87944803D01*
X169420000Y-88937332D01*
X169420001Y-88937342D01*
X169420000Y-100015198D01*
X168595199Y-100840000D01*
X166004013Y-100840000D01*
X166017205Y-100820256D01*
X166095226Y-100631898D01*
X166135000Y-100431939D01*
X166135000Y-100228061D01*
X166095226Y-100028102D01*
X166017205Y-99839744D01*
X165903937Y-99670226D01*
X165860000Y-99626289D01*
X165860000Y-99097322D01*
X165863676Y-99059999D01*
X165860000Y-99022676D01*
X165860000Y-99022667D01*
X165849003Y-98911014D01*
X165805546Y-98767753D01*
X165734974Y-98635724D01*
X165640001Y-98519999D01*
X165611003Y-98496201D01*
X164938802Y-97824001D01*
X164915000Y-97794998D01*
X164799275Y-97700025D01*
X164667246Y-97629453D01*
X164523985Y-97585996D01*
X164412332Y-97574999D01*
X164412321Y-97574999D01*
X164374999Y-97571323D01*
X164337677Y-97574999D01*
X163572511Y-97574999D01*
X163555226Y-97488102D01*
X163477205Y-97299744D01*
X163363937Y-97130226D01*
X163320000Y-97086289D01*
X163320000Y-96834801D01*
X165139803Y-95015000D01*
X165201939Y-95015000D01*
X165401898Y-94975226D01*
X165590256Y-94897205D01*
X165759774Y-94783937D01*
X165903937Y-94639774D01*
X166017205Y-94470256D01*
X166095226Y-94281898D01*
X166135000Y-94081939D01*
X166135000Y-93878061D01*
X166095226Y-93678102D01*
X166017205Y-93489744D01*
X165903937Y-93320226D01*
X165759774Y-93176063D01*
X165590256Y-93062795D01*
X165401898Y-92984774D01*
X165201939Y-92945000D01*
X164998061Y-92945000D01*
X164798102Y-92984774D01*
X164609744Y-93062795D01*
X164440226Y-93176063D01*
X164296063Y-93320226D01*
X164182795Y-93489744D01*
X164104774Y-93678102D01*
X164065000Y-93878061D01*
X164065000Y-93940197D01*
X162048998Y-95956201D01*
X162020000Y-95979999D01*
X161996202Y-96008997D01*
X161996201Y-96008998D01*
X161925026Y-96095724D01*
X161854454Y-96227754D01*
X161810998Y-96371015D01*
X161796324Y-96520000D01*
X161800001Y-96557332D01*
X161800001Y-97086288D01*
X161756063Y-97130226D01*
X161642795Y-97299744D01*
X161564774Y-97488102D01*
X161525000Y-97688061D01*
X161525000Y-97755001D01*
X160799320Y-97755001D01*
X160761997Y-97751325D01*
X160724674Y-97755001D01*
X160724664Y-97755001D01*
X160613011Y-97765998D01*
X160469750Y-97809455D01*
X160337720Y-97880027D01*
X160265880Y-97938985D01*
X160221996Y-97975000D01*
X160198197Y-98003999D01*
X159697498Y-98504699D01*
X159668500Y-98528497D01*
X159644702Y-98557495D01*
X159644701Y-98557496D01*
X159573526Y-98644222D01*
X159502954Y-98776252D01*
X159493552Y-98807248D01*
X159462076Y-98911015D01*
X159459498Y-98919513D01*
X159444824Y-99068498D01*
X159448501Y-99105830D01*
X159448500Y-100203698D01*
X158812199Y-100840000D01*
X136593711Y-100840000D01*
X136549774Y-100796063D01*
X136380256Y-100682795D01*
X136191898Y-100604774D01*
X135991939Y-100565000D01*
X135788061Y-100565000D01*
X135588102Y-100604774D01*
X135399744Y-100682795D01*
X135230226Y-100796063D01*
X135086063Y-100940226D01*
X134972795Y-101109744D01*
X134894774Y-101298102D01*
X134855000Y-101498061D01*
X103530000Y-101498061D01*
X103530000Y-98958061D01*
X136125000Y-98958061D01*
X136125000Y-99161939D01*
X136164774Y-99361898D01*
X136242795Y-99550256D01*
X136356063Y-99719774D01*
X136500226Y-99863937D01*
X136669744Y-99977205D01*
X136858102Y-100055226D01*
X137058061Y-100095000D01*
X137261939Y-100095000D01*
X137461898Y-100055226D01*
X137650256Y-99977205D01*
X137819774Y-99863937D01*
X137863711Y-99820000D01*
X139662678Y-99820000D01*
X139700000Y-99823676D01*
X139737322Y-99820000D01*
X139737333Y-99820000D01*
X139848986Y-99809003D01*
X139992247Y-99765546D01*
X140124276Y-99694974D01*
X140240001Y-99600001D01*
X140263804Y-99570997D01*
X142279803Y-97555000D01*
X142341939Y-97555000D01*
X142541898Y-97515226D01*
X142730256Y-97437205D01*
X142899774Y-97323937D01*
X143043937Y-97179774D01*
X143157205Y-97010256D01*
X143235226Y-96821898D01*
X143275000Y-96621939D01*
X143275000Y-96418061D01*
X143235226Y-96218102D01*
X143157205Y-96029744D01*
X143043937Y-95860226D01*
X142899774Y-95716063D01*
X142730256Y-95602795D01*
X142541898Y-95524774D01*
X142341939Y-95485000D01*
X142138061Y-95485000D01*
X141938102Y-95524774D01*
X141749744Y-95602795D01*
X141580226Y-95716063D01*
X141436063Y-95860226D01*
X141322795Y-96029744D01*
X141244774Y-96218102D01*
X141205000Y-96418061D01*
X141205000Y-96480197D01*
X139385199Y-98300000D01*
X137863711Y-98300000D01*
X137819774Y-98256063D01*
X137650256Y-98142795D01*
X137461898Y-98064774D01*
X137261939Y-98025000D01*
X137058061Y-98025000D01*
X136858102Y-98064774D01*
X136669744Y-98142795D01*
X136500226Y-98256063D01*
X136356063Y-98400226D01*
X136242795Y-98569744D01*
X136164774Y-98758102D01*
X136125000Y-98958061D01*
X103530000Y-98958061D01*
X103530000Y-80800000D01*
X104976929Y-80800000D01*
X104976929Y-84300000D01*
X104989189Y-84424482D01*
X105025499Y-84544180D01*
X105084464Y-84654494D01*
X105163816Y-84751185D01*
X105260507Y-84830537D01*
X105370821Y-84889502D01*
X105490519Y-84925812D01*
X105615001Y-84938072D01*
X109115001Y-84938072D01*
X109239483Y-84925812D01*
X109359181Y-84889502D01*
X109469495Y-84830537D01*
X109566186Y-84751185D01*
X109645538Y-84654494D01*
X109704503Y-84544180D01*
X109740813Y-84424482D01*
X109753073Y-84300000D01*
X109753073Y-82329872D01*
X113775001Y-82329872D01*
X113775001Y-82770128D01*
X113860891Y-83201925D01*
X114029370Y-83608669D01*
X114273963Y-83974729D01*
X114585272Y-84286038D01*
X114951332Y-84530631D01*
X115358076Y-84699110D01*
X115789873Y-84785000D01*
X116230129Y-84785000D01*
X116661926Y-84699110D01*
X117068670Y-84530631D01*
X117434730Y-84286038D01*
X117746039Y-83974729D01*
X117990632Y-83608669D01*
X118159111Y-83201925D01*
X118245001Y-82770128D01*
X118245001Y-82329872D01*
X118159111Y-81898075D01*
X117990632Y-81491331D01*
X117746039Y-81125271D01*
X117434730Y-80813962D01*
X117068670Y-80569369D01*
X116661926Y-80400890D01*
X116230129Y-80315000D01*
X115789873Y-80315000D01*
X115358076Y-80400890D01*
X114951332Y-80569369D01*
X114585272Y-80813962D01*
X114273963Y-81125271D01*
X114029370Y-81491331D01*
X113860891Y-81898075D01*
X113775001Y-82329872D01*
X109753073Y-82329872D01*
X109753073Y-80800000D01*
X109740813Y-80675518D01*
X109704503Y-80555820D01*
X109645538Y-80445506D01*
X109566186Y-80348815D01*
X109469495Y-80269463D01*
X109359181Y-80210498D01*
X109239483Y-80174188D01*
X109115001Y-80161928D01*
X105615001Y-80161928D01*
X105490519Y-80174188D01*
X105370821Y-80210498D01*
X105260507Y-80269463D01*
X105163816Y-80348815D01*
X105084464Y-80445506D01*
X105025499Y-80555820D01*
X104989189Y-80675518D01*
X104976929Y-80800000D01*
X103530000Y-80800000D01*
X103530000Y-71280881D01*
X105428724Y-71280881D01*
X105788912Y-71770548D01*
X106452882Y-72130849D01*
X107174385Y-72354694D01*
X107925695Y-72433480D01*
X108677938Y-72364178D01*
X109402208Y-72149452D01*
X110070670Y-71797555D01*
X110111088Y-71770548D01*
X110471276Y-71280881D01*
X176548724Y-71280881D01*
X176908912Y-71770548D01*
X177572882Y-72130849D01*
X178294385Y-72354694D01*
X179045695Y-72433480D01*
X179797938Y-72364178D01*
X180522208Y-72149452D01*
X181190670Y-71797555D01*
X181231088Y-71770548D01*
X181591276Y-71280881D01*
X179070000Y-68759605D01*
X176548724Y-71280881D01*
X110471276Y-71280881D01*
X107950000Y-68759605D01*
X105428724Y-71280881D01*
X103530000Y-71280881D01*
X103530000Y-68609392D01*
X103534792Y-68555695D01*
X104096520Y-68555695D01*
X104165822Y-69307938D01*
X104380548Y-70032208D01*
X104732445Y-70700670D01*
X104759452Y-70741088D01*
X105249119Y-71101276D01*
X107770395Y-68580000D01*
X108129605Y-68580000D01*
X110650881Y-71101276D01*
X111140548Y-70741088D01*
X111500849Y-70077118D01*
X111724694Y-69355615D01*
X111803480Y-68604305D01*
X111799002Y-68555695D01*
X175216520Y-68555695D01*
X175285822Y-69307938D01*
X175500548Y-70032208D01*
X175852445Y-70700670D01*
X175879452Y-70741088D01*
X176369119Y-71101276D01*
X178890395Y-68580000D01*
X179249605Y-68580000D01*
X181770881Y-71101276D01*
X182260548Y-70741088D01*
X182620849Y-70077118D01*
X182844694Y-69355615D01*
X182923480Y-68604305D01*
X182854178Y-67852062D01*
X182639452Y-67127792D01*
X182287555Y-66459330D01*
X182260548Y-66418912D01*
X181770881Y-66058724D01*
X179249605Y-68580000D01*
X178890395Y-68580000D01*
X176369119Y-66058724D01*
X175879452Y-66418912D01*
X175519151Y-67082882D01*
X175295306Y-67804385D01*
X175216520Y-68555695D01*
X111799002Y-68555695D01*
X111734178Y-67852062D01*
X111519452Y-67127792D01*
X111167555Y-66459330D01*
X111140548Y-66418912D01*
X110650881Y-66058724D01*
X108129605Y-68580000D01*
X107770395Y-68580000D01*
X105249119Y-66058724D01*
X104759452Y-66418912D01*
X104399151Y-67082882D01*
X104175306Y-67804385D01*
X104096520Y-68555695D01*
X103534792Y-68555695D01*
X103602437Y-67797751D01*
X103809672Y-67040226D01*
X104147777Y-66331375D01*
X104472755Y-65879119D01*
X105428724Y-65879119D01*
X107950000Y-68400395D01*
X110471276Y-65879119D01*
X176548724Y-65879119D01*
X179070000Y-68400395D01*
X181591276Y-65879119D01*
X181231088Y-65389452D01*
X180567118Y-65029151D01*
X179845615Y-64805306D01*
X179094305Y-64726520D01*
X178342062Y-64795822D01*
X177617792Y-65010548D01*
X176949330Y-65362445D01*
X176908912Y-65389452D01*
X176548724Y-65879119D01*
X110471276Y-65879119D01*
X110111088Y-65389452D01*
X109447118Y-65029151D01*
X108725615Y-64805306D01*
X107974305Y-64726520D01*
X107222062Y-64795822D01*
X106497792Y-65010548D01*
X105829330Y-65362445D01*
X105788912Y-65389452D01*
X105428724Y-65879119D01*
X104472755Y-65879119D01*
X104606067Y-65693596D01*
X105170055Y-65147054D01*
X105821913Y-64709023D01*
X106541038Y-64393349D01*
X107309768Y-64208794D01*
X107974207Y-64160000D01*
X179040608Y-64160000D01*
X179852249Y-64232437D01*
G37*
%TD.AperFunction*%
%TD*%
M02*
