%TF.GenerationSoftware,KiCad,Pcbnew,(5.1.8-0-10_14)*%
%TF.CreationDate,2021-01-12T16:11:11+01:00*%
%TF.ProjectId,battery_checker,62617474-6572-4795-9f63-6865636b6572,rev?*%
%TF.SameCoordinates,Original*%
%TF.FileFunction,Legend,Bot*%
%TF.FilePolarity,Positive*%
%FSLAX46Y46*%
G04 Gerber Fmt 4.6, Leading zero omitted, Abs format (unit mm)*
G04 Created by KiCad (PCBNEW (5.1.8-0-10_14)) date 2021-01-12 16:11:11*
%MOMM*%
%LPD*%
G01*
G04 APERTURE LIST*
%ADD10C,0.300000*%
G04 APERTURE END LIST*
D10*
X165652142Y-72457142D02*
X166795000Y-72457142D01*
X168652142Y-72457142D02*
X169795000Y-72457142D01*
X171652142Y-72457142D02*
X172795000Y-72457142D01*
X174652142Y-72457142D02*
X175795000Y-72457142D01*
X177652142Y-72457142D02*
X178795000Y-72457142D01*
X180652142Y-72457142D02*
X181795000Y-72457142D01*
X165652142Y-75007142D02*
X166795000Y-75007142D01*
X168652142Y-75007142D02*
X169795000Y-75007142D01*
X171652142Y-75007142D02*
X172795000Y-75007142D01*
X174652142Y-75007142D02*
X175795000Y-75007142D01*
X177652142Y-75007142D02*
X178795000Y-75007142D01*
X180652142Y-75007142D02*
X181795000Y-75007142D01*
X165652142Y-77557142D02*
X166795000Y-77557142D01*
X168652142Y-77557142D02*
X169795000Y-77557142D01*
X171652142Y-77557142D02*
X172795000Y-77557142D01*
X174652142Y-77557142D02*
X175795000Y-77557142D01*
X177652142Y-77557142D02*
X178795000Y-77557142D01*
X180652142Y-77557142D02*
X181795000Y-77557142D01*
X165652142Y-80107142D02*
X166795000Y-80107142D01*
X168652142Y-80107142D02*
X169795000Y-80107142D01*
X171652142Y-80107142D02*
X172795000Y-80107142D01*
X174652142Y-80107142D02*
X175795000Y-80107142D01*
X177652142Y-80107142D02*
X178795000Y-80107142D01*
X180652142Y-80107142D02*
X181795000Y-80107142D01*
X165652142Y-82657142D02*
X166795000Y-82657142D01*
X168652142Y-82657142D02*
X169795000Y-82657142D01*
X171652142Y-82657142D02*
X172795000Y-82657142D01*
X174652142Y-82657142D02*
X175795000Y-82657142D01*
X177652142Y-82657142D02*
X178795000Y-82657142D01*
X180652142Y-82657142D02*
X181795000Y-82657142D01*
X165652142Y-85207142D02*
X166795000Y-85207142D01*
X168652142Y-85207142D02*
X169795000Y-85207142D01*
X171652142Y-85207142D02*
X172795000Y-85207142D01*
X174652142Y-85207142D02*
X175795000Y-85207142D01*
X177652142Y-85207142D02*
X178795000Y-85207142D01*
X180652142Y-85207142D02*
X181795000Y-85207142D01*
X165652142Y-87757142D02*
X166795000Y-87757142D01*
X168652142Y-87757142D02*
X169795000Y-87757142D01*
X171652142Y-87757142D02*
X172795000Y-87757142D01*
X174652142Y-87757142D02*
X175795000Y-87757142D01*
X177652142Y-87757142D02*
X178795000Y-87757142D01*
X180652142Y-87757142D02*
X181795000Y-87757142D01*
X165652142Y-90307142D02*
X166795000Y-90307142D01*
X168652142Y-90307142D02*
X169795000Y-90307142D01*
X171652142Y-90307142D02*
X172795000Y-90307142D01*
X174652142Y-90307142D02*
X175795000Y-90307142D01*
X177652142Y-90307142D02*
X178795000Y-90307142D01*
X180652142Y-90307142D02*
X181795000Y-90307142D01*
X165652142Y-92857142D02*
X166795000Y-92857142D01*
X168652142Y-92857142D02*
X169795000Y-92857142D01*
X171652142Y-92857142D02*
X172795000Y-92857142D01*
X174652142Y-92857142D02*
X175795000Y-92857142D01*
X177652142Y-92857142D02*
X178795000Y-92857142D01*
X180652142Y-92857142D02*
X181795000Y-92857142D01*
X104692142Y-72457142D02*
X105835000Y-72457142D01*
X105263571Y-73028571D02*
X105263571Y-71885714D01*
X106549285Y-72457142D02*
X107692142Y-72457142D01*
X107120714Y-73028571D02*
X107120714Y-71885714D01*
X108406428Y-72457142D02*
X109549285Y-72457142D01*
X108977857Y-73028571D02*
X108977857Y-71885714D01*
X110263571Y-72457142D02*
X111406428Y-72457142D01*
X110835000Y-73028571D02*
X110835000Y-71885714D01*
X112120714Y-72457142D02*
X113263571Y-72457142D01*
X112692142Y-73028571D02*
X112692142Y-71885714D01*
X113977857Y-72457142D02*
X115120714Y-72457142D01*
X114549285Y-73028571D02*
X114549285Y-71885714D01*
X115835000Y-72457142D02*
X116977857Y-72457142D01*
X116406428Y-73028571D02*
X116406428Y-71885714D01*
X117692142Y-72457142D02*
X118835000Y-72457142D01*
X118263571Y-73028571D02*
X118263571Y-71885714D01*
X119549285Y-72457142D02*
X120692142Y-72457142D01*
X120120714Y-73028571D02*
X120120714Y-71885714D01*
X104692142Y-75007142D02*
X105835000Y-75007142D01*
X105263571Y-75578571D02*
X105263571Y-74435714D01*
X106549285Y-75007142D02*
X107692142Y-75007142D01*
X107120714Y-75578571D02*
X107120714Y-74435714D01*
X108406428Y-75007142D02*
X109549285Y-75007142D01*
X108977857Y-75578571D02*
X108977857Y-74435714D01*
X110263571Y-75007142D02*
X111406428Y-75007142D01*
X110835000Y-75578571D02*
X110835000Y-74435714D01*
X112120714Y-75007142D02*
X113263571Y-75007142D01*
X112692142Y-75578571D02*
X112692142Y-74435714D01*
X113977857Y-75007142D02*
X115120714Y-75007142D01*
X114549285Y-75578571D02*
X114549285Y-74435714D01*
X115835000Y-75007142D02*
X116977857Y-75007142D01*
X116406428Y-75578571D02*
X116406428Y-74435714D01*
X117692142Y-75007142D02*
X118835000Y-75007142D01*
X118263571Y-75578571D02*
X118263571Y-74435714D01*
X119549285Y-75007142D02*
X120692142Y-75007142D01*
X120120714Y-75578571D02*
X120120714Y-74435714D01*
X104692142Y-77557142D02*
X105835000Y-77557142D01*
X105263571Y-78128571D02*
X105263571Y-76985714D01*
X106549285Y-77557142D02*
X107692142Y-77557142D01*
X107120714Y-78128571D02*
X107120714Y-76985714D01*
X108406428Y-77557142D02*
X109549285Y-77557142D01*
X108977857Y-78128571D02*
X108977857Y-76985714D01*
X110263571Y-77557142D02*
X111406428Y-77557142D01*
X110835000Y-78128571D02*
X110835000Y-76985714D01*
X112120714Y-77557142D02*
X113263571Y-77557142D01*
X112692142Y-78128571D02*
X112692142Y-76985714D01*
X113977857Y-77557142D02*
X115120714Y-77557142D01*
X114549285Y-78128571D02*
X114549285Y-76985714D01*
X115835000Y-77557142D02*
X116977857Y-77557142D01*
X116406428Y-78128571D02*
X116406428Y-76985714D01*
X117692142Y-77557142D02*
X118835000Y-77557142D01*
X118263571Y-78128571D02*
X118263571Y-76985714D01*
X119549285Y-77557142D02*
X120692142Y-77557142D01*
X120120714Y-78128571D02*
X120120714Y-76985714D01*
X104692142Y-80107142D02*
X105835000Y-80107142D01*
X105263571Y-80678571D02*
X105263571Y-79535714D01*
X106549285Y-80107142D02*
X107692142Y-80107142D01*
X107120714Y-80678571D02*
X107120714Y-79535714D01*
X108406428Y-80107142D02*
X109549285Y-80107142D01*
X108977857Y-80678571D02*
X108977857Y-79535714D01*
X110263571Y-80107142D02*
X111406428Y-80107142D01*
X110835000Y-80678571D02*
X110835000Y-79535714D01*
X112120714Y-80107142D02*
X113263571Y-80107142D01*
X112692142Y-80678571D02*
X112692142Y-79535714D01*
X113977857Y-80107142D02*
X115120714Y-80107142D01*
X114549285Y-80678571D02*
X114549285Y-79535714D01*
X115835000Y-80107142D02*
X116977857Y-80107142D01*
X116406428Y-80678571D02*
X116406428Y-79535714D01*
X117692142Y-80107142D02*
X118835000Y-80107142D01*
X118263571Y-80678571D02*
X118263571Y-79535714D01*
X119549285Y-80107142D02*
X120692142Y-80107142D01*
X120120714Y-80678571D02*
X120120714Y-79535714D01*
X104692142Y-82657142D02*
X105835000Y-82657142D01*
X105263571Y-83228571D02*
X105263571Y-82085714D01*
X106549285Y-82657142D02*
X107692142Y-82657142D01*
X107120714Y-83228571D02*
X107120714Y-82085714D01*
X108406428Y-82657142D02*
X109549285Y-82657142D01*
X108977857Y-83228571D02*
X108977857Y-82085714D01*
X110263571Y-82657142D02*
X111406428Y-82657142D01*
X110835000Y-83228571D02*
X110835000Y-82085714D01*
X112120714Y-82657142D02*
X113263571Y-82657142D01*
X112692142Y-83228571D02*
X112692142Y-82085714D01*
X113977857Y-82657142D02*
X115120714Y-82657142D01*
X114549285Y-83228571D02*
X114549285Y-82085714D01*
X115835000Y-82657142D02*
X116977857Y-82657142D01*
X116406428Y-83228571D02*
X116406428Y-82085714D01*
X117692142Y-82657142D02*
X118835000Y-82657142D01*
X118263571Y-83228571D02*
X118263571Y-82085714D01*
X119549285Y-82657142D02*
X120692142Y-82657142D01*
X120120714Y-83228571D02*
X120120714Y-82085714D01*
X104692142Y-85207142D02*
X105835000Y-85207142D01*
X105263571Y-85778571D02*
X105263571Y-84635714D01*
X106549285Y-85207142D02*
X107692142Y-85207142D01*
X107120714Y-85778571D02*
X107120714Y-84635714D01*
X108406428Y-85207142D02*
X109549285Y-85207142D01*
X108977857Y-85778571D02*
X108977857Y-84635714D01*
X110263571Y-85207142D02*
X111406428Y-85207142D01*
X110835000Y-85778571D02*
X110835000Y-84635714D01*
X112120714Y-85207142D02*
X113263571Y-85207142D01*
X112692142Y-85778571D02*
X112692142Y-84635714D01*
X113977857Y-85207142D02*
X115120714Y-85207142D01*
X114549285Y-85778571D02*
X114549285Y-84635714D01*
X115835000Y-85207142D02*
X116977857Y-85207142D01*
X116406428Y-85778571D02*
X116406428Y-84635714D01*
X117692142Y-85207142D02*
X118835000Y-85207142D01*
X118263571Y-85778571D02*
X118263571Y-84635714D01*
X119549285Y-85207142D02*
X120692142Y-85207142D01*
X120120714Y-85778571D02*
X120120714Y-84635714D01*
X104692142Y-87757142D02*
X105835000Y-87757142D01*
X105263571Y-88328571D02*
X105263571Y-87185714D01*
X106549285Y-87757142D02*
X107692142Y-87757142D01*
X107120714Y-88328571D02*
X107120714Y-87185714D01*
X108406428Y-87757142D02*
X109549285Y-87757142D01*
X108977857Y-88328571D02*
X108977857Y-87185714D01*
X110263571Y-87757142D02*
X111406428Y-87757142D01*
X110835000Y-88328571D02*
X110835000Y-87185714D01*
X112120714Y-87757142D02*
X113263571Y-87757142D01*
X112692142Y-88328571D02*
X112692142Y-87185714D01*
X113977857Y-87757142D02*
X115120714Y-87757142D01*
X114549285Y-88328571D02*
X114549285Y-87185714D01*
X115835000Y-87757142D02*
X116977857Y-87757142D01*
X116406428Y-88328571D02*
X116406428Y-87185714D01*
X117692142Y-87757142D02*
X118835000Y-87757142D01*
X118263571Y-88328571D02*
X118263571Y-87185714D01*
X119549285Y-87757142D02*
X120692142Y-87757142D01*
X120120714Y-88328571D02*
X120120714Y-87185714D01*
X104692142Y-90307142D02*
X105835000Y-90307142D01*
X105263571Y-90878571D02*
X105263571Y-89735714D01*
X106549285Y-90307142D02*
X107692142Y-90307142D01*
X107120714Y-90878571D02*
X107120714Y-89735714D01*
X108406428Y-90307142D02*
X109549285Y-90307142D01*
X108977857Y-90878571D02*
X108977857Y-89735714D01*
X110263571Y-90307142D02*
X111406428Y-90307142D01*
X110835000Y-90878571D02*
X110835000Y-89735714D01*
X112120714Y-90307142D02*
X113263571Y-90307142D01*
X112692142Y-90878571D02*
X112692142Y-89735714D01*
X113977857Y-90307142D02*
X115120714Y-90307142D01*
X114549285Y-90878571D02*
X114549285Y-89735714D01*
X115835000Y-90307142D02*
X116977857Y-90307142D01*
X116406428Y-90878571D02*
X116406428Y-89735714D01*
X117692142Y-90307142D02*
X118835000Y-90307142D01*
X118263571Y-90878571D02*
X118263571Y-89735714D01*
X119549285Y-90307142D02*
X120692142Y-90307142D01*
X120120714Y-90878571D02*
X120120714Y-89735714D01*
X104692142Y-92857142D02*
X105835000Y-92857142D01*
X105263571Y-93428571D02*
X105263571Y-92285714D01*
X106549285Y-92857142D02*
X107692142Y-92857142D01*
X107120714Y-93428571D02*
X107120714Y-92285714D01*
X108406428Y-92857142D02*
X109549285Y-92857142D01*
X108977857Y-93428571D02*
X108977857Y-92285714D01*
X110263571Y-92857142D02*
X111406428Y-92857142D01*
X110835000Y-93428571D02*
X110835000Y-92285714D01*
X112120714Y-92857142D02*
X113263571Y-92857142D01*
X112692142Y-93428571D02*
X112692142Y-92285714D01*
X113977857Y-92857142D02*
X115120714Y-92857142D01*
X114549285Y-93428571D02*
X114549285Y-92285714D01*
X115835000Y-92857142D02*
X116977857Y-92857142D01*
X116406428Y-93428571D02*
X116406428Y-92285714D01*
X117692142Y-92857142D02*
X118835000Y-92857142D01*
X118263571Y-93428571D02*
X118263571Y-92285714D01*
X119549285Y-92857142D02*
X120692142Y-92857142D01*
X120120714Y-93428571D02*
X120120714Y-92285714D01*
M02*
