%TF.GenerationSoftware,KiCad,Pcbnew,(5.1.8-0-10_14)*%
%TF.CreationDate,2021-01-12T16:11:11+01:00*%
%TF.ProjectId,battery_checker,62617474-6572-4795-9f63-6865636b6572,rev?*%
%TF.SameCoordinates,Original*%
%TF.FileFunction,Copper,L1,Top*%
%TF.FilePolarity,Positive*%
%FSLAX46Y46*%
G04 Gerber Fmt 4.6, Leading zero omitted, Abs format (unit mm)*
G04 Created by KiCad (PCBNEW (5.1.8-0-10_14)) date 2021-01-12 16:11:11*
%MOMM*%
%LPD*%
G01*
G04 APERTURE LIST*
%TA.AperFunction,ComponentPad*%
%ADD10C,3.500000*%
%TD*%
%TA.AperFunction,ComponentPad*%
%ADD11R,3.500000X3.500000*%
%TD*%
%TA.AperFunction,SMDPad,CuDef*%
%ADD12R,0.600000X1.970000*%
%TD*%
%TA.AperFunction,ComponentPad*%
%ADD13R,1.590000X1.590000*%
%TD*%
%TA.AperFunction,ComponentPad*%
%ADD14C,1.590000*%
%TD*%
%TA.AperFunction,SMDPad,CuDef*%
%ADD15R,4.600000X1.100000*%
%TD*%
%TA.AperFunction,SMDPad,CuDef*%
%ADD16R,9.400000X10.800000*%
%TD*%
%TA.AperFunction,ComponentPad*%
%ADD17C,2.400000*%
%TD*%
%TA.AperFunction,ComponentPad*%
%ADD18O,2.400000X2.400000*%
%TD*%
%TA.AperFunction,SMDPad,CuDef*%
%ADD19R,2.800000X1.000000*%
%TD*%
%TA.AperFunction,SMDPad,CuDef*%
%ADD20C,0.100000*%
%TD*%
%TA.AperFunction,SMDPad,CuDef*%
%ADD21R,1.970000X0.600000*%
%TD*%
%TA.AperFunction,ComponentPad*%
%ADD22R,2.600000X2.600000*%
%TD*%
%TA.AperFunction,ComponentPad*%
%ADD23C,2.600000*%
%TD*%
%TA.AperFunction,ComponentPad*%
%ADD24C,0.800000*%
%TD*%
%TA.AperFunction,ComponentPad*%
%ADD25C,6.400000*%
%TD*%
%TA.AperFunction,ComponentPad*%
%ADD26C,1.700000*%
%TD*%
%TA.AperFunction,SMDPad,CuDef*%
%ADD27C,3.000000*%
%TD*%
%TA.AperFunction,ViaPad*%
%ADD28C,0.800000*%
%TD*%
%TA.AperFunction,Conductor*%
%ADD29C,0.500000*%
%TD*%
%TA.AperFunction,Conductor*%
%ADD30C,0.250000*%
%TD*%
%TA.AperFunction,Conductor*%
%ADD31C,2.000000*%
%TD*%
%TA.AperFunction,Conductor*%
%ADD32C,1.000000*%
%TD*%
%TA.AperFunction,Conductor*%
%ADD33C,0.200000*%
%TD*%
%TA.AperFunction,Conductor*%
%ADD34C,0.254000*%
%TD*%
%TA.AperFunction,Conductor*%
%ADD35C,0.100000*%
%TD*%
G04 APERTURE END LIST*
D10*
%TO.P,BT1,2*%
%TO.N,GND*%
X179365001Y-82550000D03*
D11*
%TO.P,BT1,1*%
%TO.N,v_sens*%
X107365001Y-82550000D03*
%TD*%
%TO.P,C1,1*%
%TO.N,GND*%
%TA.AperFunction,SMDPad,CuDef*%
G36*
G01*
X147302322Y-97209429D02*
X146630571Y-96537678D01*
G75*
G02*
X146630571Y-96184124I176777J176777D01*
G01*
X146984124Y-95830571D01*
G75*
G02*
X147337678Y-95830571I176777J-176777D01*
G01*
X148009429Y-96502322D01*
G75*
G02*
X148009429Y-96855876I-176777J-176777D01*
G01*
X147655876Y-97209429D01*
G75*
G02*
X147302322Y-97209429I-176777J176777D01*
G01*
G37*
%TD.AperFunction*%
%TO.P,C1,2*%
%TO.N,Net-(C1-Pad2)*%
%TA.AperFunction,SMDPad,CuDef*%
G36*
G01*
X148645824Y-95865927D02*
X147974073Y-95194176D01*
G75*
G02*
X147974073Y-94840622I176777J176777D01*
G01*
X148327626Y-94487069D01*
G75*
G02*
X148681180Y-94487069I176777J-176777D01*
G01*
X149352931Y-95158820D01*
G75*
G02*
X149352931Y-95512374I-176777J-176777D01*
G01*
X148999378Y-95865927D01*
G75*
G02*
X148645824Y-95865927I-176777J176777D01*
G01*
G37*
%TD.AperFunction*%
%TD*%
%TO.P,C2,2*%
%TO.N,Net-(C2-Pad2)*%
%TA.AperFunction,SMDPad,CuDef*%
G36*
G01*
X144125927Y-99042322D02*
X144797678Y-99714073D01*
G75*
G02*
X144797678Y-100067627I-176777J-176777D01*
G01*
X144444125Y-100421180D01*
G75*
G02*
X144090571Y-100421180I-176777J176777D01*
G01*
X143418820Y-99749429D01*
G75*
G02*
X143418820Y-99395875I176777J176777D01*
G01*
X143772373Y-99042322D01*
G75*
G02*
X144125927Y-99042322I176777J-176777D01*
G01*
G37*
%TD.AperFunction*%
%TO.P,C2,1*%
%TO.N,GND*%
%TA.AperFunction,SMDPad,CuDef*%
G36*
G01*
X145469429Y-97698820D02*
X146141180Y-98370571D01*
G75*
G02*
X146141180Y-98724125I-176777J-176777D01*
G01*
X145787627Y-99077678D01*
G75*
G02*
X145434073Y-99077678I-176777J176777D01*
G01*
X144762322Y-98405927D01*
G75*
G02*
X144762322Y-98052373I176777J176777D01*
G01*
X145115875Y-97698820D01*
G75*
G02*
X145469429Y-97698820I176777J-176777D01*
G01*
G37*
%TD.AperFunction*%
%TD*%
%TO.P,C3,2*%
%TO.N,GND*%
%TA.AperFunction,SMDPad,CuDef*%
G36*
G01*
X114750000Y-118585000D02*
X114750000Y-117635000D01*
G75*
G02*
X115000000Y-117385000I250000J0D01*
G01*
X115500000Y-117385000D01*
G75*
G02*
X115750000Y-117635000I0J-250000D01*
G01*
X115750000Y-118585000D01*
G75*
G02*
X115500000Y-118835000I-250000J0D01*
G01*
X115000000Y-118835000D01*
G75*
G02*
X114750000Y-118585000I0J250000D01*
G01*
G37*
%TD.AperFunction*%
%TO.P,C3,1*%
%TO.N,v_sens*%
%TA.AperFunction,SMDPad,CuDef*%
G36*
G01*
X112850000Y-118585000D02*
X112850000Y-117635000D01*
G75*
G02*
X113100000Y-117385000I250000J0D01*
G01*
X113600000Y-117385000D01*
G75*
G02*
X113850000Y-117635000I0J-250000D01*
G01*
X113850000Y-118585000D01*
G75*
G02*
X113600000Y-118835000I-250000J0D01*
G01*
X113100000Y-118835000D01*
G75*
G02*
X112850000Y-118585000I0J250000D01*
G01*
G37*
%TD.AperFunction*%
%TD*%
%TO.P,C4,1*%
%TO.N,v_sens*%
%TA.AperFunction,SMDPad,CuDef*%
G36*
G01*
X105490000Y-98790000D02*
X105490000Y-96790000D01*
G75*
G02*
X105740000Y-96540000I250000J0D01*
G01*
X108740000Y-96540000D01*
G75*
G02*
X108990000Y-96790000I0J-250000D01*
G01*
X108990000Y-98790000D01*
G75*
G02*
X108740000Y-99040000I-250000J0D01*
G01*
X105740000Y-99040000D01*
G75*
G02*
X105490000Y-98790000I0J250000D01*
G01*
G37*
%TD.AperFunction*%
%TO.P,C4,2*%
%TO.N,GND*%
%TA.AperFunction,SMDPad,CuDef*%
G36*
G01*
X111990000Y-98790000D02*
X111990000Y-96790000D01*
G75*
G02*
X112240000Y-96540000I250000J0D01*
G01*
X115240000Y-96540000D01*
G75*
G02*
X115490000Y-96790000I0J-250000D01*
G01*
X115490000Y-98790000D01*
G75*
G02*
X115240000Y-99040000I-250000J0D01*
G01*
X112240000Y-99040000D01*
G75*
G02*
X111990000Y-98790000I0J250000D01*
G01*
G37*
%TD.AperFunction*%
%TD*%
%TO.P,C5,1*%
%TO.N,Net-(C5-Pad1)*%
%TA.AperFunction,SMDPad,CuDef*%
G36*
G01*
X130335000Y-103960000D02*
X131285000Y-103960000D01*
G75*
G02*
X131535000Y-104210000I0J-250000D01*
G01*
X131535000Y-104710000D01*
G75*
G02*
X131285000Y-104960000I-250000J0D01*
G01*
X130335000Y-104960000D01*
G75*
G02*
X130085000Y-104710000I0J250000D01*
G01*
X130085000Y-104210000D01*
G75*
G02*
X130335000Y-103960000I250000J0D01*
G01*
G37*
%TD.AperFunction*%
%TO.P,C5,2*%
%TO.N,GND*%
%TA.AperFunction,SMDPad,CuDef*%
G36*
G01*
X130335000Y-105860000D02*
X131285000Y-105860000D01*
G75*
G02*
X131535000Y-106110000I0J-250000D01*
G01*
X131535000Y-106610000D01*
G75*
G02*
X131285000Y-106860000I-250000J0D01*
G01*
X130335000Y-106860000D01*
G75*
G02*
X130085000Y-106610000I0J250000D01*
G01*
X130085000Y-106110000D01*
G75*
G02*
X130335000Y-105860000I250000J0D01*
G01*
G37*
%TD.AperFunction*%
%TD*%
%TO.P,C6,2*%
%TO.N,GND*%
%TA.AperFunction,SMDPad,CuDef*%
G36*
G01*
X165330000Y-121650000D02*
X165330000Y-119650000D01*
G75*
G02*
X165580000Y-119400000I250000J0D01*
G01*
X168580000Y-119400000D01*
G75*
G02*
X168830000Y-119650000I0J-250000D01*
G01*
X168830000Y-121650000D01*
G75*
G02*
X168580000Y-121900000I-250000J0D01*
G01*
X165580000Y-121900000D01*
G75*
G02*
X165330000Y-121650000I0J250000D01*
G01*
G37*
%TD.AperFunction*%
%TO.P,C6,1*%
%TO.N,+5V*%
%TA.AperFunction,SMDPad,CuDef*%
G36*
G01*
X158830000Y-121650000D02*
X158830000Y-119650000D01*
G75*
G02*
X159080000Y-119400000I250000J0D01*
G01*
X162080000Y-119400000D01*
G75*
G02*
X162330000Y-119650000I0J-250000D01*
G01*
X162330000Y-121650000D01*
G75*
G02*
X162080000Y-121900000I-250000J0D01*
G01*
X159080000Y-121900000D01*
G75*
G02*
X158830000Y-121650000I0J250000D01*
G01*
G37*
%TD.AperFunction*%
%TD*%
%TO.P,C7,1*%
%TO.N,+5V*%
%TA.AperFunction,SMDPad,CuDef*%
G36*
G01*
X165680571Y-106771180D02*
X165008820Y-106099429D01*
G75*
G02*
X165008820Y-105745875I176777J176777D01*
G01*
X165362373Y-105392322D01*
G75*
G02*
X165715927Y-105392322I176777J-176777D01*
G01*
X166387678Y-106064073D01*
G75*
G02*
X166387678Y-106417627I-176777J-176777D01*
G01*
X166034125Y-106771180D01*
G75*
G02*
X165680571Y-106771180I-176777J176777D01*
G01*
G37*
%TD.AperFunction*%
%TO.P,C7,2*%
%TO.N,GND*%
%TA.AperFunction,SMDPad,CuDef*%
G36*
G01*
X167024073Y-105427678D02*
X166352322Y-104755927D01*
G75*
G02*
X166352322Y-104402373I176777J176777D01*
G01*
X166705875Y-104048820D01*
G75*
G02*
X167059429Y-104048820I176777J-176777D01*
G01*
X167731180Y-104720571D01*
G75*
G02*
X167731180Y-105074125I-176777J-176777D01*
G01*
X167377627Y-105427678D01*
G75*
G02*
X167024073Y-105427678I-176777J176777D01*
G01*
G37*
%TD.AperFunction*%
%TD*%
%TO.P,D1,2*%
%TO.N,+5V*%
%TA.AperFunction,SMDPad,CuDef*%
G36*
G01*
X121463750Y-95700000D02*
X122376250Y-95700000D01*
G75*
G02*
X122620000Y-95943750I0J-243750D01*
G01*
X122620000Y-96431250D01*
G75*
G02*
X122376250Y-96675000I-243750J0D01*
G01*
X121463750Y-96675000D01*
G75*
G02*
X121220000Y-96431250I0J243750D01*
G01*
X121220000Y-95943750D01*
G75*
G02*
X121463750Y-95700000I243750J0D01*
G01*
G37*
%TD.AperFunction*%
%TO.P,D1,1*%
%TO.N,Net-(D1-Pad1)*%
%TA.AperFunction,SMDPad,CuDef*%
G36*
G01*
X121463750Y-93825000D02*
X122376250Y-93825000D01*
G75*
G02*
X122620000Y-94068750I0J-243750D01*
G01*
X122620000Y-94556250D01*
G75*
G02*
X122376250Y-94800000I-243750J0D01*
G01*
X121463750Y-94800000D01*
G75*
G02*
X121220000Y-94556250I0J243750D01*
G01*
X121220000Y-94068750D01*
G75*
G02*
X121463750Y-93825000I243750J0D01*
G01*
G37*
%TD.AperFunction*%
%TD*%
%TO.P,D2,1*%
%TO.N,Net-(D2-Pad1)*%
%TA.AperFunction,SMDPad,CuDef*%
G36*
G01*
X121463750Y-98905000D02*
X122376250Y-98905000D01*
G75*
G02*
X122620000Y-99148750I0J-243750D01*
G01*
X122620000Y-99636250D01*
G75*
G02*
X122376250Y-99880000I-243750J0D01*
G01*
X121463750Y-99880000D01*
G75*
G02*
X121220000Y-99636250I0J243750D01*
G01*
X121220000Y-99148750D01*
G75*
G02*
X121463750Y-98905000I243750J0D01*
G01*
G37*
%TD.AperFunction*%
%TO.P,D2,2*%
%TO.N,+5V*%
%TA.AperFunction,SMDPad,CuDef*%
G36*
G01*
X121463750Y-100780000D02*
X122376250Y-100780000D01*
G75*
G02*
X122620000Y-101023750I0J-243750D01*
G01*
X122620000Y-101511250D01*
G75*
G02*
X122376250Y-101755000I-243750J0D01*
G01*
X121463750Y-101755000D01*
G75*
G02*
X121220000Y-101511250I0J243750D01*
G01*
X121220000Y-101023750D01*
G75*
G02*
X121463750Y-100780000I243750J0D01*
G01*
G37*
%TD.AperFunction*%
%TD*%
%TO.P,D3,1*%
%TO.N,Net-(D3-Pad1)*%
%TA.AperFunction,SMDPad,CuDef*%
G36*
G01*
X170636250Y-113517500D02*
X169723750Y-113517500D01*
G75*
G02*
X169480000Y-113273750I0J243750D01*
G01*
X169480000Y-112786250D01*
G75*
G02*
X169723750Y-112542500I243750J0D01*
G01*
X170636250Y-112542500D01*
G75*
G02*
X170880000Y-112786250I0J-243750D01*
G01*
X170880000Y-113273750D01*
G75*
G02*
X170636250Y-113517500I-243750J0D01*
G01*
G37*
%TD.AperFunction*%
%TO.P,D3,2*%
%TO.N,+5V*%
%TA.AperFunction,SMDPad,CuDef*%
G36*
G01*
X170636250Y-111642500D02*
X169723750Y-111642500D01*
G75*
G02*
X169480000Y-111398750I0J243750D01*
G01*
X169480000Y-110911250D01*
G75*
G02*
X169723750Y-110667500I243750J0D01*
G01*
X170636250Y-110667500D01*
G75*
G02*
X170880000Y-110911250I0J-243750D01*
G01*
X170880000Y-111398750D01*
G75*
G02*
X170636250Y-111642500I-243750J0D01*
G01*
G37*
%TD.AperFunction*%
%TD*%
D12*
%TO.P,IC1,8*%
%TO.N,CHRG_enable*%
X132715000Y-100260000D03*
%TO.P,IC1,7*%
%TO.N,Net-(IC1-Pad7)*%
X131445000Y-100260000D03*
%TO.P,IC1,6*%
%TO.N,Net-(IC1-Pad6)*%
X130175000Y-100260000D03*
%TO.P,IC1,5*%
%TO.N,v_sens*%
X128905000Y-100260000D03*
%TO.P,IC1,4*%
%TO.N,+5V*%
X128905000Y-95320000D03*
%TO.P,IC1,3*%
%TO.N,GND*%
X130175000Y-95320000D03*
%TO.P,IC1,2*%
%TO.N,Net-(IC1-Pad2)*%
X131445000Y-95320000D03*
%TO.P,IC1,1*%
%TO.N,GND*%
X132715000Y-95320000D03*
%TD*%
D13*
%TO.P,J1,1*%
%TO.N,GND*%
X172665001Y-102870000D03*
D14*
%TO.P,J1,2*%
%TO.N,Net-(J1-Pad2)*%
X172665001Y-100370000D03*
%TO.P,J1,3*%
%TO.N,SDA*%
X172665001Y-97870000D03*
%TO.P,J1,4*%
%TO.N,SCL*%
X172665001Y-95370000D03*
%TD*%
%TO.P,J2,4*%
%TO.N,SCL*%
X179070000Y-95370000D03*
%TO.P,J2,3*%
%TO.N,SDA*%
X179070000Y-97870000D03*
%TO.P,J2,2*%
%TO.N,Net-(J1-Pad2)*%
X179070000Y-100370000D03*
D13*
%TO.P,J2,1*%
%TO.N,GND*%
X179070000Y-102870000D03*
%TD*%
D15*
%TO.P,Q1,1*%
%TO.N,Net-(Q1-Pad1)*%
X118805000Y-113030000D03*
%TO.P,Q1,3*%
%TO.N,Net-(Q1-Pad3)*%
X118805000Y-107950000D03*
D16*
%TO.P,Q1,2*%
%TO.N,v_sens*%
X109655000Y-110490000D03*
%TD*%
%TO.P,R1,1*%
%TO.N,Net-(C5-Pad1)*%
%TA.AperFunction,SMDPad,CuDef*%
G36*
G01*
X152245000Y-103320001D02*
X152245000Y-102419999D01*
G75*
G02*
X152494999Y-102170000I249999J0D01*
G01*
X153020001Y-102170000D01*
G75*
G02*
X153270000Y-102419999I0J-249999D01*
G01*
X153270000Y-103320001D01*
G75*
G02*
X153020001Y-103570000I-249999J0D01*
G01*
X152494999Y-103570000D01*
G75*
G02*
X152245000Y-103320001I0J249999D01*
G01*
G37*
%TD.AperFunction*%
%TO.P,R1,2*%
%TO.N,PWM*%
%TA.AperFunction,SMDPad,CuDef*%
G36*
G01*
X154070000Y-103320001D02*
X154070000Y-102419999D01*
G75*
G02*
X154319999Y-102170000I249999J0D01*
G01*
X154845001Y-102170000D01*
G75*
G02*
X155095000Y-102419999I0J-249999D01*
G01*
X155095000Y-103320001D01*
G75*
G02*
X154845001Y-103570000I-249999J0D01*
G01*
X154319999Y-103570000D01*
G75*
G02*
X154070000Y-103320001I0J249999D01*
G01*
G37*
%TD.AperFunction*%
%TD*%
D17*
%TO.P,R2,1*%
%TO.N,Net-(Q1-Pad3)*%
X125730000Y-118110000D03*
D18*
%TO.P,R2,2*%
%TO.N,GND*%
X151130000Y-118110000D03*
%TD*%
%TO.P,R3,2*%
%TO.N,Net-(IC1-Pad7)*%
%TA.AperFunction,SMDPad,CuDef*%
G36*
G01*
X125279999Y-95650000D02*
X126180001Y-95650000D01*
G75*
G02*
X126430000Y-95899999I0J-249999D01*
G01*
X126430000Y-96425001D01*
G75*
G02*
X126180001Y-96675000I-249999J0D01*
G01*
X125279999Y-96675000D01*
G75*
G02*
X125030000Y-96425001I0J249999D01*
G01*
X125030000Y-95899999D01*
G75*
G02*
X125279999Y-95650000I249999J0D01*
G01*
G37*
%TD.AperFunction*%
%TO.P,R3,1*%
%TO.N,Net-(D1-Pad1)*%
%TA.AperFunction,SMDPad,CuDef*%
G36*
G01*
X125279999Y-93825000D02*
X126180001Y-93825000D01*
G75*
G02*
X126430000Y-94074999I0J-249999D01*
G01*
X126430000Y-94600001D01*
G75*
G02*
X126180001Y-94850000I-249999J0D01*
G01*
X125279999Y-94850000D01*
G75*
G02*
X125030000Y-94600001I0J249999D01*
G01*
X125030000Y-94074999D01*
G75*
G02*
X125279999Y-93825000I249999J0D01*
G01*
G37*
%TD.AperFunction*%
%TD*%
%TO.P,R4,1*%
%TO.N,Net-(D2-Pad1)*%
%TA.AperFunction,SMDPad,CuDef*%
G36*
G01*
X125279999Y-98940001D02*
X126180001Y-98940001D01*
G75*
G02*
X126430000Y-99190000I0J-249999D01*
G01*
X126430000Y-99715002D01*
G75*
G02*
X126180001Y-99965001I-249999J0D01*
G01*
X125279999Y-99965001D01*
G75*
G02*
X125030000Y-99715002I0J249999D01*
G01*
X125030000Y-99190000D01*
G75*
G02*
X125279999Y-98940001I249999J0D01*
G01*
G37*
%TD.AperFunction*%
%TO.P,R4,2*%
%TO.N,Net-(IC1-Pad6)*%
%TA.AperFunction,SMDPad,CuDef*%
G36*
G01*
X125279999Y-100765001D02*
X126180001Y-100765001D01*
G75*
G02*
X126430000Y-101015000I0J-249999D01*
G01*
X126430000Y-101540002D01*
G75*
G02*
X126180001Y-101790001I-249999J0D01*
G01*
X125279999Y-101790001D01*
G75*
G02*
X125030000Y-101540002I0J249999D01*
G01*
X125030000Y-101015000D01*
G75*
G02*
X125279999Y-100765001I249999J0D01*
G01*
G37*
%TD.AperFunction*%
%TD*%
%TO.P,R5,2*%
%TO.N,GND*%
%TA.AperFunction,SMDPad,CuDef*%
G36*
G01*
X169729999Y-117240000D02*
X170630001Y-117240000D01*
G75*
G02*
X170880000Y-117489999I0J-249999D01*
G01*
X170880000Y-118015001D01*
G75*
G02*
X170630001Y-118265000I-249999J0D01*
G01*
X169729999Y-118265000D01*
G75*
G02*
X169480000Y-118015001I0J249999D01*
G01*
X169480000Y-117489999D01*
G75*
G02*
X169729999Y-117240000I249999J0D01*
G01*
G37*
%TD.AperFunction*%
%TO.P,R5,1*%
%TO.N,Net-(D3-Pad1)*%
%TA.AperFunction,SMDPad,CuDef*%
G36*
G01*
X169729999Y-115415000D02*
X170630001Y-115415000D01*
G75*
G02*
X170880000Y-115664999I0J-249999D01*
G01*
X170880000Y-116190001D01*
G75*
G02*
X170630001Y-116440000I-249999J0D01*
G01*
X169729999Y-116440000D01*
G75*
G02*
X169480000Y-116190001I0J249999D01*
G01*
X169480000Y-115664999D01*
G75*
G02*
X169729999Y-115415000I249999J0D01*
G01*
G37*
%TD.AperFunction*%
%TD*%
%TO.P,R6,1*%
%TO.N,Net-(IC1-Pad2)*%
%TA.AperFunction,SMDPad,CuDef*%
G36*
G01*
X136340001Y-97032500D02*
X135439999Y-97032500D01*
G75*
G02*
X135190000Y-96782501I0J249999D01*
G01*
X135190000Y-96257499D01*
G75*
G02*
X135439999Y-96007500I249999J0D01*
G01*
X136340001Y-96007500D01*
G75*
G02*
X136590000Y-96257499I0J-249999D01*
G01*
X136590000Y-96782501D01*
G75*
G02*
X136340001Y-97032500I-249999J0D01*
G01*
G37*
%TD.AperFunction*%
%TO.P,R6,2*%
%TO.N,GND*%
%TA.AperFunction,SMDPad,CuDef*%
G36*
G01*
X136340001Y-95207500D02*
X135439999Y-95207500D01*
G75*
G02*
X135190000Y-94957501I0J249999D01*
G01*
X135190000Y-94432499D01*
G75*
G02*
X135439999Y-94182500I249999J0D01*
G01*
X136340001Y-94182500D01*
G75*
G02*
X136590000Y-94432499I0J-249999D01*
G01*
X136590000Y-94957501D01*
G75*
G02*
X136340001Y-95207500I-249999J0D01*
G01*
G37*
%TD.AperFunction*%
%TD*%
D19*
%TO.P,SW1,1*%
%TO.N,RST*%
X150770000Y-107220000D03*
X156570000Y-107220000D03*
%TO.P,SW1,2*%
%TO.N,GND*%
X150770000Y-111220000D03*
X156570000Y-111220000D03*
%TD*%
%TA.AperFunction,SMDPad,CuDef*%
D20*
%TO.P,U1,1*%
%TO.N,Net-(U1-Pad1)*%
G36*
X160774555Y-94973666D02*
G01*
X161163464Y-94584757D01*
X162294835Y-95716128D01*
X161905926Y-96105037D01*
X160774555Y-94973666D01*
G37*
%TD.AperFunction*%
%TA.AperFunction,SMDPad,CuDef*%
%TO.P,U1,2*%
%TO.N,CHRG_enable*%
G36*
X160208870Y-95539352D02*
G01*
X160597779Y-95150443D01*
X161729150Y-96281814D01*
X161340241Y-96670723D01*
X160208870Y-95539352D01*
G37*
%TD.AperFunction*%
%TA.AperFunction,SMDPad,CuDef*%
%TO.P,U1,3*%
%TO.N,GND*%
G36*
X159643184Y-96105037D02*
G01*
X160032093Y-95716128D01*
X161163464Y-96847499D01*
X160774555Y-97236408D01*
X159643184Y-96105037D01*
G37*
%TD.AperFunction*%
%TA.AperFunction,SMDPad,CuDef*%
%TO.P,U1,4*%
%TO.N,+5V*%
G36*
X159077499Y-96670722D02*
G01*
X159466408Y-96281813D01*
X160597779Y-97413184D01*
X160208870Y-97802093D01*
X159077499Y-96670722D01*
G37*
%TD.AperFunction*%
%TA.AperFunction,SMDPad,CuDef*%
%TO.P,U1,5*%
%TO.N,GND*%
G36*
X158511813Y-97236408D02*
G01*
X158900722Y-96847499D01*
X160032093Y-97978870D01*
X159643184Y-98367779D01*
X158511813Y-97236408D01*
G37*
%TD.AperFunction*%
%TA.AperFunction,SMDPad,CuDef*%
%TO.P,U1,6*%
%TO.N,+5V*%
G36*
X157946128Y-97802093D02*
G01*
X158335037Y-97413184D01*
X159466408Y-98544555D01*
X159077499Y-98933464D01*
X157946128Y-97802093D01*
G37*
%TD.AperFunction*%
%TA.AperFunction,SMDPad,CuDef*%
%TO.P,U1,7*%
%TO.N,Net-(C1-Pad2)*%
G36*
X157380443Y-98367779D02*
G01*
X157769352Y-97978870D01*
X158900723Y-99110241D01*
X158511814Y-99499150D01*
X157380443Y-98367779D01*
G37*
%TD.AperFunction*%
%TA.AperFunction,SMDPad,CuDef*%
%TO.P,U1,8*%
%TO.N,Net-(C2-Pad2)*%
G36*
X156814757Y-98933464D02*
G01*
X157203666Y-98544555D01*
X158335037Y-99675926D01*
X157946128Y-100064835D01*
X156814757Y-98933464D01*
G37*
%TD.AperFunction*%
%TA.AperFunction,SMDPad,CuDef*%
%TO.P,U1,9*%
%TO.N,PWM*%
G36*
X157203666Y-102115445D02*
G01*
X156814757Y-101726536D01*
X157946128Y-100595165D01*
X158335037Y-100984074D01*
X157203666Y-102115445D01*
G37*
%TD.AperFunction*%
%TA.AperFunction,SMDPad,CuDef*%
%TO.P,U1,10*%
%TO.N,LED_STATUS*%
G36*
X157769352Y-102681130D02*
G01*
X157380443Y-102292221D01*
X158511814Y-101160850D01*
X158900723Y-101549759D01*
X157769352Y-102681130D01*
G37*
%TD.AperFunction*%
%TA.AperFunction,SMDPad,CuDef*%
%TO.P,U1,11*%
%TO.N,Net-(U1-Pad11)*%
G36*
X158335037Y-103246816D02*
G01*
X157946128Y-102857907D01*
X159077499Y-101726536D01*
X159466408Y-102115445D01*
X158335037Y-103246816D01*
G37*
%TD.AperFunction*%
%TA.AperFunction,SMDPad,CuDef*%
%TO.P,U1,12*%
%TO.N,TX*%
G36*
X158900722Y-103812501D02*
G01*
X158511813Y-103423592D01*
X159643184Y-102292221D01*
X160032093Y-102681130D01*
X158900722Y-103812501D01*
G37*
%TD.AperFunction*%
%TA.AperFunction,SMDPad,CuDef*%
%TO.P,U1,13*%
%TO.N,RX*%
G36*
X159466408Y-104378187D02*
G01*
X159077499Y-103989278D01*
X160208870Y-102857907D01*
X160597779Y-103246816D01*
X159466408Y-104378187D01*
G37*
%TD.AperFunction*%
%TA.AperFunction,SMDPad,CuDef*%
%TO.P,U1,14*%
%TO.N,Net-(U1-Pad14)*%
G36*
X160032093Y-104943872D02*
G01*
X159643184Y-104554963D01*
X160774555Y-103423592D01*
X161163464Y-103812501D01*
X160032093Y-104943872D01*
G37*
%TD.AperFunction*%
%TA.AperFunction,SMDPad,CuDef*%
%TO.P,U1,15*%
%TO.N,MOSI*%
G36*
X160597779Y-105509557D02*
G01*
X160208870Y-105120648D01*
X161340241Y-103989277D01*
X161729150Y-104378186D01*
X160597779Y-105509557D01*
G37*
%TD.AperFunction*%
%TA.AperFunction,SMDPad,CuDef*%
%TO.P,U1,16*%
%TO.N,MISO*%
G36*
X161163464Y-106075243D02*
G01*
X160774555Y-105686334D01*
X161905926Y-104554963D01*
X162294835Y-104943872D01*
X161163464Y-106075243D01*
G37*
%TD.AperFunction*%
%TA.AperFunction,SMDPad,CuDef*%
%TO.P,U1,17*%
%TO.N,SCK*%
G36*
X162825165Y-104943872D02*
G01*
X163214074Y-104554963D01*
X164345445Y-105686334D01*
X163956536Y-106075243D01*
X162825165Y-104943872D01*
G37*
%TD.AperFunction*%
%TA.AperFunction,SMDPad,CuDef*%
%TO.P,U1,18*%
%TO.N,+5V*%
G36*
X163390850Y-104378186D02*
G01*
X163779759Y-103989277D01*
X164911130Y-105120648D01*
X164522221Y-105509557D01*
X163390850Y-104378186D01*
G37*
%TD.AperFunction*%
%TA.AperFunction,SMDPad,CuDef*%
%TO.P,U1,19*%
%TO.N,Net-(U1-Pad19)*%
G36*
X163956536Y-103812501D02*
G01*
X164345445Y-103423592D01*
X165476816Y-104554963D01*
X165087907Y-104943872D01*
X163956536Y-103812501D01*
G37*
%TD.AperFunction*%
%TA.AperFunction,SMDPad,CuDef*%
%TO.P,U1,20*%
%TO.N,+5V*%
G36*
X164522221Y-103246816D02*
G01*
X164911130Y-102857907D01*
X166042501Y-103989278D01*
X165653592Y-104378187D01*
X164522221Y-103246816D01*
G37*
%TD.AperFunction*%
%TA.AperFunction,SMDPad,CuDef*%
%TO.P,U1,21*%
%TO.N,GND*%
G36*
X165087907Y-102681130D02*
G01*
X165476816Y-102292221D01*
X166608187Y-103423592D01*
X166219278Y-103812501D01*
X165087907Y-102681130D01*
G37*
%TD.AperFunction*%
%TA.AperFunction,SMDPad,CuDef*%
%TO.P,U1,22*%
%TO.N,Net-(U1-Pad22)*%
G36*
X165653592Y-102115445D02*
G01*
X166042501Y-101726536D01*
X167173872Y-102857907D01*
X166784963Y-103246816D01*
X165653592Y-102115445D01*
G37*
%TD.AperFunction*%
%TA.AperFunction,SMDPad,CuDef*%
%TO.P,U1,23*%
%TO.N,v_sens*%
G36*
X166219277Y-101549759D02*
G01*
X166608186Y-101160850D01*
X167739557Y-102292221D01*
X167350648Y-102681130D01*
X166219277Y-101549759D01*
G37*
%TD.AperFunction*%
%TA.AperFunction,SMDPad,CuDef*%
%TO.P,U1,24*%
%TO.N,Net-(U1-Pad24)*%
G36*
X166784963Y-100984074D02*
G01*
X167173872Y-100595165D01*
X168305243Y-101726536D01*
X167916334Y-102115445D01*
X166784963Y-100984074D01*
G37*
%TD.AperFunction*%
%TA.AperFunction,SMDPad,CuDef*%
%TO.P,U1,25*%
%TO.N,Net-(U1-Pad25)*%
G36*
X167173872Y-100064835D02*
G01*
X166784963Y-99675926D01*
X167916334Y-98544555D01*
X168305243Y-98933464D01*
X167173872Y-100064835D01*
G37*
%TD.AperFunction*%
%TA.AperFunction,SMDPad,CuDef*%
%TO.P,U1,26*%
%TO.N,Net-(U1-Pad26)*%
G36*
X166608186Y-99499150D02*
G01*
X166219277Y-99110241D01*
X167350648Y-97978870D01*
X167739557Y-98367779D01*
X166608186Y-99499150D01*
G37*
%TD.AperFunction*%
%TA.AperFunction,SMDPad,CuDef*%
%TO.P,U1,27*%
%TO.N,SDA*%
G36*
X166042501Y-98933464D02*
G01*
X165653592Y-98544555D01*
X166784963Y-97413184D01*
X167173872Y-97802093D01*
X166042501Y-98933464D01*
G37*
%TD.AperFunction*%
%TA.AperFunction,SMDPad,CuDef*%
%TO.P,U1,28*%
%TO.N,SCL*%
G36*
X165476816Y-98367779D02*
G01*
X165087907Y-97978870D01*
X166219278Y-96847499D01*
X166608187Y-97236408D01*
X165476816Y-98367779D01*
G37*
%TD.AperFunction*%
%TA.AperFunction,SMDPad,CuDef*%
%TO.P,U1,29*%
%TO.N,RST*%
G36*
X164911130Y-97802093D02*
G01*
X164522221Y-97413184D01*
X165653592Y-96281813D01*
X166042501Y-96670722D01*
X164911130Y-97802093D01*
G37*
%TD.AperFunction*%
%TA.AperFunction,SMDPad,CuDef*%
%TO.P,U1,30*%
%TO.N,Net-(U1-Pad30)*%
G36*
X164345445Y-97236408D02*
G01*
X163956536Y-96847499D01*
X165087907Y-95716128D01*
X165476816Y-96105037D01*
X164345445Y-97236408D01*
G37*
%TD.AperFunction*%
%TA.AperFunction,SMDPad,CuDef*%
%TO.P,U1,31*%
%TO.N,Net-(U1-Pad31)*%
G36*
X163779759Y-96670723D02*
G01*
X163390850Y-96281814D01*
X164522221Y-95150443D01*
X164911130Y-95539352D01*
X163779759Y-96670723D01*
G37*
%TD.AperFunction*%
%TA.AperFunction,SMDPad,CuDef*%
%TO.P,U1,32*%
%TO.N,Net-(U1-Pad32)*%
G36*
X163214074Y-96105037D02*
G01*
X162825165Y-95716128D01*
X163956536Y-94584757D01*
X164345445Y-94973666D01*
X163214074Y-96105037D01*
G37*
%TD.AperFunction*%
%TD*%
D21*
%TO.P,U2,1*%
%TO.N,Net-(Q1-Pad1)*%
X135960000Y-103505000D03*
%TO.P,U2,2*%
%TO.N,Net-(Q1-Pad3)*%
X135960000Y-104775000D03*
%TO.P,U2,3*%
%TO.N,Net-(C5-Pad1)*%
X135960000Y-106045000D03*
%TO.P,U2,4*%
%TO.N,GND*%
X135960000Y-107315000D03*
%TO.P,U2,5*%
%TO.N,Net-(U2-Pad5)*%
X140900000Y-107315000D03*
%TO.P,U2,6*%
%TO.N,Net-(U2-Pad6)*%
X140900000Y-106045000D03*
%TO.P,U2,7*%
%TO.N,Net-(U2-Pad7)*%
X140900000Y-104775000D03*
%TO.P,U2,8*%
%TO.N,+5V*%
X140900000Y-103505000D03*
%TD*%
%TA.AperFunction,SMDPad,CuDef*%
D20*
%TO.P,Y1,1*%
%TO.N,Net-(C1-Pad2)*%
G36*
X155019087Y-93756699D02*
G01*
X156433301Y-95170913D01*
X153251321Y-98352893D01*
X151837107Y-96938679D01*
X155019087Y-93756699D01*
G37*
%TD.AperFunction*%
%TA.AperFunction,SMDPad,CuDef*%
%TO.P,Y1,2*%
%TO.N,Net-(C2-Pad2)*%
G36*
X149008679Y-99767107D02*
G01*
X150422893Y-101181321D01*
X147240913Y-104363301D01*
X145826699Y-102949087D01*
X149008679Y-99767107D01*
G37*
%TD.AperFunction*%
%TD*%
D22*
%TO.P,J3,1*%
%TO.N,+5V*%
X177800000Y-109220000D03*
D23*
%TO.P,J3,2*%
%TO.N,GND*%
X177800000Y-114220000D03*
%TD*%
D24*
%TO.P,H1,1*%
%TO.N,GND*%
X109647056Y-66882944D03*
X107950000Y-66180000D03*
X106252944Y-66882944D03*
X105550000Y-68580000D03*
X106252944Y-70277056D03*
X107950000Y-70980000D03*
X109647056Y-70277056D03*
X110350000Y-68580000D03*
D25*
X107950000Y-68580000D03*
%TD*%
%TO.P,H2,1*%
%TO.N,GND*%
X179070000Y-68580000D03*
D24*
X181470000Y-68580000D03*
X180767056Y-70277056D03*
X179070000Y-70980000D03*
X177372944Y-70277056D03*
X176670000Y-68580000D03*
X177372944Y-66882944D03*
X179070000Y-66180000D03*
X180767056Y-66882944D03*
%TD*%
%TO.P,H3,1*%
%TO.N,GND*%
X180907056Y-118952944D03*
X179210000Y-118250000D03*
X177512944Y-118952944D03*
X176810000Y-120650000D03*
X177512944Y-122347056D03*
X179210000Y-123050000D03*
X180907056Y-122347056D03*
X181610000Y-120650000D03*
D25*
X179210000Y-120650000D03*
%TD*%
%TO.P,H4,1*%
%TO.N,GND*%
X107950000Y-120650000D03*
D24*
X110350000Y-120650000D03*
X109647056Y-122347056D03*
X107950000Y-123050000D03*
X106252944Y-122347056D03*
X105550000Y-120650000D03*
X106252944Y-118952944D03*
X107950000Y-118250000D03*
X109647056Y-118952944D03*
%TD*%
%TA.AperFunction,SMDPad,CuDef*%
D20*
%TO.P,JP1,1*%
%TO.N,+5V*%
G36*
X170030000Y-107430000D02*
G01*
X169530000Y-107430000D01*
X169530000Y-107429398D01*
X169505466Y-107429398D01*
X169456635Y-107424588D01*
X169408510Y-107415016D01*
X169361555Y-107400772D01*
X169316222Y-107381995D01*
X169272949Y-107358864D01*
X169232150Y-107331604D01*
X169194221Y-107300476D01*
X169159524Y-107265779D01*
X169128396Y-107227850D01*
X169101136Y-107187051D01*
X169078005Y-107143778D01*
X169059228Y-107098445D01*
X169044984Y-107051490D01*
X169035412Y-107003365D01*
X169030602Y-106954534D01*
X169030602Y-106930000D01*
X169030000Y-106930000D01*
X169030000Y-106430000D01*
X169030602Y-106430000D01*
X169030602Y-106405466D01*
X169035412Y-106356635D01*
X169044984Y-106308510D01*
X169059228Y-106261555D01*
X169078005Y-106216222D01*
X169101136Y-106172949D01*
X169128396Y-106132150D01*
X169159524Y-106094221D01*
X169194221Y-106059524D01*
X169232150Y-106028396D01*
X169272949Y-106001136D01*
X169316222Y-105978005D01*
X169361555Y-105959228D01*
X169408510Y-105944984D01*
X169456635Y-105935412D01*
X169505466Y-105930602D01*
X169530000Y-105930602D01*
X169530000Y-105930000D01*
X170030000Y-105930000D01*
X170030000Y-107430000D01*
G37*
%TD.AperFunction*%
%TA.AperFunction,SMDPad,CuDef*%
%TO.P,JP1,2*%
%TO.N,Net-(J1-Pad2)*%
G36*
X170830000Y-105930602D02*
G01*
X170854534Y-105930602D01*
X170903365Y-105935412D01*
X170951490Y-105944984D01*
X170998445Y-105959228D01*
X171043778Y-105978005D01*
X171087051Y-106001136D01*
X171127850Y-106028396D01*
X171165779Y-106059524D01*
X171200476Y-106094221D01*
X171231604Y-106132150D01*
X171258864Y-106172949D01*
X171281995Y-106216222D01*
X171300772Y-106261555D01*
X171315016Y-106308510D01*
X171324588Y-106356635D01*
X171329398Y-106405466D01*
X171329398Y-106430000D01*
X171330000Y-106430000D01*
X171330000Y-106930000D01*
X171329398Y-106930000D01*
X171329398Y-106954534D01*
X171324588Y-107003365D01*
X171315016Y-107051490D01*
X171300772Y-107098445D01*
X171281995Y-107143778D01*
X171258864Y-107187051D01*
X171231604Y-107227850D01*
X171200476Y-107265779D01*
X171165779Y-107300476D01*
X171127850Y-107331604D01*
X171087051Y-107358864D01*
X171043778Y-107381995D01*
X170998445Y-107400772D01*
X170951490Y-107415016D01*
X170903365Y-107424588D01*
X170854534Y-107429398D01*
X170830000Y-107429398D01*
X170830000Y-107430000D01*
X170330000Y-107430000D01*
X170330000Y-105930000D01*
X170830000Y-105930000D01*
X170830000Y-105930602D01*
G37*
%TD.AperFunction*%
%TD*%
%TO.P,D4,1*%
%TO.N,Net-(D4-Pad1)*%
%TA.AperFunction,SMDPad,CuDef*%
G36*
G01*
X116685000Y-118566250D02*
X116685000Y-117653750D01*
G75*
G02*
X116928750Y-117410000I243750J0D01*
G01*
X117416250Y-117410000D01*
G75*
G02*
X117660000Y-117653750I0J-243750D01*
G01*
X117660000Y-118566250D01*
G75*
G02*
X117416250Y-118810000I-243750J0D01*
G01*
X116928750Y-118810000D01*
G75*
G02*
X116685000Y-118566250I0J243750D01*
G01*
G37*
%TD.AperFunction*%
%TO.P,D4,2*%
%TO.N,LED_STATUS*%
%TA.AperFunction,SMDPad,CuDef*%
G36*
G01*
X118560000Y-118566250D02*
X118560000Y-117653750D01*
G75*
G02*
X118803750Y-117410000I243750J0D01*
G01*
X119291250Y-117410000D01*
G75*
G02*
X119535000Y-117653750I0J-243750D01*
G01*
X119535000Y-118566250D01*
G75*
G02*
X119291250Y-118810000I-243750J0D01*
G01*
X118803750Y-118810000D01*
G75*
G02*
X118560000Y-118566250I0J243750D01*
G01*
G37*
%TD.AperFunction*%
%TD*%
%TO.P,R7,1*%
%TO.N,Net-(D4-Pad1)*%
%TA.AperFunction,SMDPad,CuDef*%
G36*
G01*
X115725000Y-121469999D02*
X115725000Y-122370001D01*
G75*
G02*
X115475001Y-122620000I-249999J0D01*
G01*
X114949999Y-122620000D01*
G75*
G02*
X114700000Y-122370001I0J249999D01*
G01*
X114700000Y-121469999D01*
G75*
G02*
X114949999Y-121220000I249999J0D01*
G01*
X115475001Y-121220000D01*
G75*
G02*
X115725000Y-121469999I0J-249999D01*
G01*
G37*
%TD.AperFunction*%
%TO.P,R7,2*%
%TO.N,GND*%
%TA.AperFunction,SMDPad,CuDef*%
G36*
G01*
X113900000Y-121469999D02*
X113900000Y-122370001D01*
G75*
G02*
X113650001Y-122620000I-249999J0D01*
G01*
X113124999Y-122620000D01*
G75*
G02*
X112875000Y-122370001I0J249999D01*
G01*
X112875000Y-121469999D01*
G75*
G02*
X113124999Y-121220000I249999J0D01*
G01*
X113650001Y-121220000D01*
G75*
G02*
X113900000Y-121469999I0J-249999D01*
G01*
G37*
%TD.AperFunction*%
%TD*%
%TO.P,J4,1*%
%TO.N,MISO*%
%TA.AperFunction,ComponentPad*%
G36*
G01*
X160620000Y-115150000D02*
X159420000Y-115150000D01*
G75*
G02*
X159170000Y-114900000I0J250000D01*
G01*
X159170000Y-113700000D01*
G75*
G02*
X159420000Y-113450000I250000J0D01*
G01*
X160620000Y-113450000D01*
G75*
G02*
X160870000Y-113700000I0J-250000D01*
G01*
X160870000Y-114900000D01*
G75*
G02*
X160620000Y-115150000I-250000J0D01*
G01*
G37*
%TD.AperFunction*%
D26*
%TO.P,J4,3*%
%TO.N,SCK*%
X162560000Y-114300000D03*
%TO.P,J4,5*%
%TO.N,RST*%
X165100000Y-114300000D03*
%TO.P,J4,2*%
%TO.N,+5V*%
X160020000Y-111760000D03*
%TO.P,J4,4*%
%TO.N,MOSI*%
X162560000Y-111760000D03*
%TO.P,J4,6*%
%TO.N,GND*%
X165100000Y-111760000D03*
%TD*%
%TO.P,R8,1*%
%TO.N,+5V*%
%TA.AperFunction,SMDPad,CuDef*%
G36*
G01*
X165857500Y-94430001D02*
X165857500Y-93529999D01*
G75*
G02*
X166107499Y-93280000I249999J0D01*
G01*
X166632501Y-93280000D01*
G75*
G02*
X166882500Y-93529999I0J-249999D01*
G01*
X166882500Y-94430001D01*
G75*
G02*
X166632501Y-94680000I-249999J0D01*
G01*
X166107499Y-94680000D01*
G75*
G02*
X165857500Y-94430001I0J249999D01*
G01*
G37*
%TD.AperFunction*%
%TO.P,R8,2*%
%TO.N,RST*%
%TA.AperFunction,SMDPad,CuDef*%
G36*
G01*
X167682500Y-94430001D02*
X167682500Y-93529999D01*
G75*
G02*
X167932499Y-93280000I249999J0D01*
G01*
X168457501Y-93280000D01*
G75*
G02*
X168707500Y-93529999I0J-249999D01*
G01*
X168707500Y-94430001D01*
G75*
G02*
X168457501Y-94680000I-249999J0D01*
G01*
X167932499Y-94680000D01*
G75*
G02*
X167682500Y-94430001I0J249999D01*
G01*
G37*
%TD.AperFunction*%
%TD*%
D27*
%TO.P,TP1,1*%
%TO.N,+5V*%
X148625001Y-66795001D03*
%TD*%
%TO.P,TP2,1*%
%TO.N,GND*%
X153675001Y-66795001D03*
%TD*%
%TO.P,TP3,1*%
%TO.N,RX*%
X163865001Y-66765001D03*
%TD*%
%TO.P,TP4,1*%
%TO.N,TX*%
X158750000Y-66765001D03*
%TD*%
D28*
%TO.N,*%
X181610000Y-82550000D03*
%TO.N,GND*%
X158750000Y-95250000D03*
X160020000Y-92710000D03*
X163830000Y-92710000D03*
X175260000Y-93980000D03*
X181610000Y-93980000D03*
X181610000Y-99060000D03*
X181610000Y-102870000D03*
X175260000Y-104140000D03*
X168910000Y-104140000D03*
X130810000Y-97790000D03*
X127000000Y-107950000D03*
X130810000Y-110490000D03*
X125730000Y-110490000D03*
X123190000Y-107950000D03*
X132080000Y-109220000D03*
X133350000Y-104140000D03*
X129540000Y-115570000D03*
X129540000Y-116840000D03*
X129540000Y-118110000D03*
X129540000Y-119380000D03*
X129540000Y-120650000D03*
X130810000Y-120650000D03*
X130810000Y-119380000D03*
X130810000Y-118110000D03*
X130810000Y-116840000D03*
X130810000Y-115570000D03*
X132080000Y-115570000D03*
X132080000Y-116840000D03*
X132080000Y-118110000D03*
X132080000Y-119380000D03*
X132080000Y-119380000D03*
X132080000Y-120650000D03*
X133350000Y-120650000D03*
X133350000Y-119380000D03*
X133350000Y-118110000D03*
X133350000Y-116840000D03*
X133350000Y-115570000D03*
X134620000Y-115570000D03*
X135890000Y-115570000D03*
X135890000Y-116840000D03*
X134620000Y-116840000D03*
X134620000Y-118110000D03*
X135890000Y-118110000D03*
X135890000Y-119380000D03*
X134620000Y-119380000D03*
X134620000Y-120650000D03*
X135890000Y-120650000D03*
X137160000Y-119380000D03*
X142240000Y-120650000D03*
X143510000Y-118110000D03*
X139700000Y-119380000D03*
X137160000Y-116840000D03*
X139700000Y-120650000D03*
X143510000Y-116840000D03*
X138430000Y-118110000D03*
X138430000Y-116840000D03*
X140970000Y-116840000D03*
X137160000Y-120650000D03*
X143510000Y-115570000D03*
X139700000Y-119380000D03*
X139700000Y-115570000D03*
X142240000Y-118110000D03*
X139700000Y-116840000D03*
X138430000Y-120650000D03*
X140970000Y-118110000D03*
X142240000Y-119380000D03*
X138430000Y-119380000D03*
X139700000Y-118110000D03*
X142240000Y-115570000D03*
X140970000Y-120650000D03*
X143510000Y-119380000D03*
X138430000Y-115570000D03*
X140970000Y-115570000D03*
X140970000Y-119380000D03*
X142240000Y-116840000D03*
X137160000Y-115570000D03*
X137160000Y-118110000D03*
X143510000Y-120650000D03*
X144780000Y-115570000D03*
X146050000Y-115570000D03*
X147320000Y-115570000D03*
X147320000Y-116840000D03*
X146050000Y-116840000D03*
X144780000Y-116840000D03*
X144780000Y-118110000D03*
X144780000Y-119380000D03*
X144780000Y-120650000D03*
X146050000Y-120650000D03*
X146050000Y-119380000D03*
X146050000Y-118110000D03*
X147320000Y-118110000D03*
X147320000Y-119380000D03*
X147320000Y-120650000D03*
X148590000Y-120650000D03*
X148590000Y-119380000D03*
X148590000Y-118110000D03*
X148590000Y-116840000D03*
X148590000Y-115570000D03*
X128270000Y-114300000D03*
X128270000Y-115570000D03*
X128270000Y-116840000D03*
X128270000Y-118110000D03*
X128270000Y-119380000D03*
X128270000Y-120650000D03*
X128270000Y-121920000D03*
X129540000Y-121920000D03*
X130810000Y-121920000D03*
X132080000Y-121920000D03*
X133350000Y-121920000D03*
X134620000Y-121920000D03*
X135890000Y-121920000D03*
X137160000Y-121920000D03*
X138430000Y-121920000D03*
X139700000Y-121920000D03*
X140970000Y-121920000D03*
X142240000Y-121920000D03*
X143510000Y-121920000D03*
X144780000Y-121920000D03*
X146050000Y-121920000D03*
X147320000Y-121920000D03*
X148590000Y-121920000D03*
X148590000Y-114300000D03*
X147320000Y-114300000D03*
X146050000Y-114300000D03*
X144780000Y-114300000D03*
X143510000Y-114300000D03*
X142240000Y-114300000D03*
X140970000Y-114300000D03*
X139700000Y-114300000D03*
X138430000Y-114300000D03*
X137160000Y-114300000D03*
X134620000Y-114300000D03*
X135890000Y-114300000D03*
X133350000Y-114300000D03*
X132080000Y-114300000D03*
X130810000Y-114300000D03*
X129540000Y-114300000D03*
X116840000Y-102870000D03*
X119380000Y-102870000D03*
X118110000Y-102870000D03*
X120650000Y-102870000D03*
X121920000Y-102870000D03*
X123190000Y-102870000D03*
X124460000Y-102870000D03*
X125730000Y-102870000D03*
X125730000Y-106680000D03*
X123190000Y-106680000D03*
X123190000Y-106680000D03*
X121920000Y-106680000D03*
X120650000Y-106680000D03*
X124460000Y-106680000D03*
X127000000Y-106680000D03*
X128270000Y-106680000D03*
X128270000Y-105410000D03*
X115570000Y-101600000D03*
X116840000Y-101600000D03*
X118110000Y-101600000D03*
X119380000Y-101600000D03*
X119380000Y-99060000D03*
X116840000Y-99060000D03*
X116840000Y-97790000D03*
X119380000Y-97790000D03*
X119380000Y-96520000D03*
X116840000Y-96520000D03*
X176530000Y-80010000D03*
X176530000Y-81280000D03*
X176530000Y-82550000D03*
X176530000Y-83820000D03*
X176530000Y-85090000D03*
X181610000Y-85090000D03*
X181610000Y-83820000D03*
X181610000Y-81280000D03*
X181610000Y-80010000D03*
X180340000Y-80010000D03*
X179070000Y-80010000D03*
X179070000Y-80010000D03*
X177800000Y-80010000D03*
X177800000Y-85090000D03*
X179070000Y-85090000D03*
X180340000Y-85090000D03*
X144780000Y-109220000D03*
X144780000Y-110490000D03*
X146050000Y-110490000D03*
X146050000Y-109220000D03*
X143510000Y-110490000D03*
X144780000Y-104140000D03*
X142240000Y-100330000D03*
X142240000Y-99060000D03*
X140970000Y-99060000D03*
X140970000Y-93980000D03*
X143510000Y-93980000D03*
X142240000Y-95250000D03*
X142240000Y-92710000D03*
X151130000Y-93980000D03*
X144780000Y-96520000D03*
X147320000Y-93980000D03*
X157480000Y-93980000D03*
X151130000Y-97790000D03*
X149860000Y-99060000D03*
X156210000Y-97790000D03*
X154940000Y-97790000D03*
X152400000Y-100330000D03*
X153670000Y-100330000D03*
X154940000Y-100330000D03*
X156210000Y-100330000D03*
X162560000Y-93980000D03*
X167640000Y-106680000D03*
X175260000Y-99060000D03*
X177800000Y-99060000D03*
X177800000Y-96520000D03*
X175260000Y-96520000D03*
X179070000Y-92710000D03*
X180340000Y-105410000D03*
X182880000Y-105410000D03*
X181610000Y-107950000D03*
X182880000Y-113030000D03*
X182880000Y-114300000D03*
X182880000Y-115570000D03*
X182880000Y-115570000D03*
X181610000Y-110490000D03*
X181610000Y-115570000D03*
X181610000Y-113030000D03*
X181610000Y-114300000D03*
X180340000Y-113030000D03*
X180340000Y-114300000D03*
X180340000Y-115570000D03*
X180340000Y-109220000D03*
X181610000Y-109220000D03*
X182880000Y-109220000D03*
X151130000Y-64770000D03*
X156210000Y-64770000D03*
X161290000Y-64770000D03*
X156210000Y-69850000D03*
X161290000Y-69850000D03*
X151130000Y-69850000D03*
X173990000Y-92710000D03*
X157480000Y-113030000D03*
%TO.N,v_sens*%
X165100000Y-100330000D03*
X135890000Y-101600000D03*
%TO.N,Net-(C5-Pad1)*%
X147320000Y-106680000D03*
X133350000Y-106680000D03*
%TO.N,+5V*%
X162560000Y-97790000D03*
X165100000Y-93980000D03*
X165100000Y-107950000D03*
%TO.N,CHRG_enable*%
X142240000Y-96520000D03*
X137160000Y-99060000D03*
%TO.N,RST*%
X157480000Y-104140000D03*
X163830000Y-99060000D03*
%TO.N,LED_STATUS*%
X153670000Y-105410000D03*
X120650000Y-116840000D03*
%TO.N,RX*%
X162560000Y-102870000D03*
X163830000Y-72390000D03*
%TO.N,TX*%
X161290000Y-101600000D03*
X162560000Y-73660000D03*
%TD*%
D29*
%TO.N,GND*%
X130175000Y-97155000D02*
X130810000Y-97790000D01*
X130175000Y-95320000D02*
X130175000Y-97155000D01*
X133340000Y-94695000D02*
X132715000Y-95320000D01*
X135890000Y-94695000D02*
X133340000Y-94695000D01*
D30*
X167041751Y-104246065D02*
X167041751Y-104738249D01*
X165848047Y-103052361D02*
X167041751Y-104246065D01*
X158752489Y-97088175D02*
X159271953Y-97607639D01*
X159883859Y-95956803D02*
X159331783Y-95956803D01*
X158752489Y-96536097D02*
X158752489Y-97088175D01*
X159331783Y-95956803D02*
X158752489Y-96536097D01*
X160403324Y-96476268D02*
X159883859Y-95956803D01*
X159177056Y-95250000D02*
X158750000Y-95250000D01*
X160403324Y-96476268D02*
X159177056Y-95250000D01*
D31*
%TO.N,v_sens*%
X107365001Y-97664999D02*
X107240000Y-97790000D01*
X107365001Y-82550000D02*
X107365001Y-97664999D01*
X107240000Y-108075000D02*
X109655000Y-110490000D01*
X107240000Y-97790000D02*
X107240000Y-108075000D01*
D32*
X116005000Y-104140000D02*
X109655000Y-110490000D01*
X126300002Y-104140000D02*
X116005000Y-104140000D01*
X128905000Y-101535002D02*
X126300002Y-104140000D01*
X128905000Y-100260000D02*
X128905000Y-101535002D01*
D30*
X166459953Y-101401526D02*
X166171526Y-101401526D01*
X166979417Y-101920990D02*
X166459953Y-101401526D01*
X166171526Y-101401526D02*
X165100000Y-100330000D01*
X165100000Y-100330000D02*
X165100000Y-100330000D01*
X128905000Y-101495000D02*
X129829990Y-102419990D01*
X128905000Y-100260000D02*
X128905000Y-101495000D01*
X129829990Y-102419990D02*
X135070010Y-102419990D01*
X135070010Y-102419990D02*
X135890000Y-101600000D01*
X135890000Y-101600000D02*
X135890000Y-101600000D01*
D32*
X113350000Y-114185000D02*
X109655000Y-110490000D01*
X113350000Y-118110000D02*
X113350000Y-114185000D01*
D30*
%TO.N,Net-(C1-Pad2)*%
X153256906Y-95176498D02*
X154135204Y-96054796D01*
X148663502Y-95176498D02*
X153256906Y-95176498D01*
X155456369Y-96054796D02*
X158140583Y-98739010D01*
X154135204Y-96054796D02*
X155456369Y-96054796D01*
%TO.N,Net-(C2-Pad2)*%
X145791343Y-99731751D02*
X148124796Y-102065204D01*
X144108249Y-99731751D02*
X145791343Y-99731751D01*
X149860000Y-100330000D02*
X148124796Y-102065204D01*
X150885305Y-99304695D02*
X149860000Y-100330000D01*
X157574897Y-99304695D02*
X150885305Y-99304695D01*
%TO.N,Net-(C5-Pad1)*%
X132395000Y-106045000D02*
X130810000Y-104460000D01*
X135960000Y-106045000D02*
X132395000Y-106045000D01*
X151130000Y-104140000D02*
X148590000Y-106680000D01*
X148590000Y-106680000D02*
X147320000Y-106680000D01*
X147320000Y-106680000D02*
X147320000Y-106680000D01*
X133985000Y-106045000D02*
X133350000Y-106680000D01*
X135960000Y-106045000D02*
X133985000Y-106045000D01*
X151487500Y-104140000D02*
X152757500Y-102870000D01*
X151130000Y-104140000D02*
X151487500Y-104140000D01*
%TO.N,+5V*%
X120894990Y-97212510D02*
X121920000Y-96187500D01*
X120894990Y-100242490D02*
X120894990Y-97212510D01*
X121920000Y-101267500D02*
X120894990Y-100242490D01*
X128900010Y-95324990D02*
X128905000Y-95320000D01*
X122782510Y-95324990D02*
X128900010Y-95324990D01*
X121920000Y-96187500D02*
X122782510Y-95324990D01*
D32*
X128905000Y-94044998D02*
X130239998Y-92710000D01*
X128905000Y-95320000D02*
X128905000Y-94044998D01*
X130239998Y-92710000D02*
X137160000Y-92710000D01*
X137160000Y-92710000D02*
X139700000Y-95250000D01*
X139700000Y-102305000D02*
X140900000Y-103505000D01*
X139700000Y-95250000D02*
X139700000Y-102305000D01*
X142175002Y-103505000D02*
X147320000Y-108649998D01*
X140900000Y-103505000D02*
X142175002Y-103505000D01*
X170180000Y-111155000D02*
X170180000Y-109220000D01*
D31*
X177800000Y-109220000D02*
X170180000Y-109220000D01*
D30*
X163631526Y-104229953D02*
X164150990Y-104749417D01*
X163631526Y-103098582D02*
X163631526Y-104229953D01*
X164762896Y-103098582D02*
X163631526Y-103098582D01*
X165282361Y-103618047D02*
X164762896Y-103098582D01*
X160357103Y-97561417D02*
X160357103Y-98722897D01*
X159837639Y-97041953D02*
X160357103Y-97561417D01*
D29*
X165483324Y-106081751D02*
X164150990Y-104749417D01*
X165698249Y-106081751D02*
X165483324Y-106081751D01*
X164637896Y-102973582D02*
X165282361Y-103618047D01*
X163506526Y-103626100D02*
X164159044Y-102973582D01*
X163506526Y-104104953D02*
X163506526Y-103626100D01*
X164159044Y-102973582D02*
X164637896Y-102973582D01*
X164150990Y-104749417D02*
X163506526Y-104104953D01*
X169530000Y-108570000D02*
X170180000Y-109220000D01*
X169530000Y-106680000D02*
X169530000Y-108570000D01*
D30*
X159837639Y-97041953D02*
X160585686Y-97790000D01*
X160585686Y-97790000D02*
X162560000Y-97790000D01*
X162560000Y-97790000D02*
X162560000Y-97790000D01*
X166370000Y-93980000D02*
X165100000Y-93980000D01*
D31*
X161290000Y-119940000D02*
X160580000Y-120650000D01*
X161290000Y-118110000D02*
X161290000Y-119940000D01*
X166370000Y-118110000D02*
X161290000Y-118110000D01*
X167640000Y-116840000D02*
X166370000Y-118110000D01*
X167640000Y-111760000D02*
X167640000Y-116840000D01*
X170180000Y-109220000D02*
X167640000Y-111760000D01*
D32*
X147320000Y-108649998D02*
X151829998Y-108649998D01*
X151829998Y-108649998D02*
X153670000Y-110490000D01*
X153670000Y-113740000D02*
X160580000Y-120650000D01*
X153670000Y-110490000D02*
X153670000Y-113740000D01*
D29*
X165698249Y-107351751D02*
X165100000Y-107950000D01*
X165698249Y-106081751D02*
X165698249Y-107351751D01*
X168910000Y-107950000D02*
X170180000Y-109220000D01*
X165100000Y-107950000D02*
X168910000Y-107950000D01*
D30*
X163830000Y-102165686D02*
X165282361Y-103618047D01*
X163830000Y-100330000D02*
X163830000Y-102165686D01*
X162560000Y-99060000D02*
X163830000Y-100330000D01*
X158706268Y-98173324D02*
X159592944Y-99060000D01*
X160357103Y-98722897D02*
X160020000Y-99060000D01*
X160020000Y-99060000D02*
X162560000Y-99060000D01*
X159592944Y-99060000D02*
X160020000Y-99060000D01*
X166370000Y-93980000D02*
X166370000Y-85090000D01*
X148625001Y-66795001D02*
X148625001Y-71084999D01*
X149930002Y-72390000D02*
X153670000Y-72390000D01*
X148625001Y-71084999D02*
X149930002Y-72390000D01*
X166370000Y-85090000D02*
X153670000Y-72390000D01*
%TO.N,Net-(D1-Pad1)*%
X121945000Y-94337500D02*
X121920000Y-94312500D01*
X125730000Y-94337500D02*
X121945000Y-94337500D01*
%TO.N,Net-(D2-Pad1)*%
X121980001Y-99452501D02*
X121920000Y-99392500D01*
X125730000Y-99452501D02*
X121980001Y-99452501D01*
%TO.N,Net-(D3-Pad1)*%
X170180000Y-113030000D02*
X170180000Y-115927500D01*
%TO.N,CHRG_enable*%
X160969010Y-95910583D02*
X157768427Y-92710000D01*
X157768427Y-92710000D02*
X147320000Y-92710000D01*
X147320000Y-92710000D02*
X143510000Y-96520000D01*
X143510000Y-96520000D02*
X142240000Y-96520000D01*
X142240000Y-96520000D02*
X142240000Y-96520000D01*
X132715000Y-100260000D02*
X135960000Y-100260000D01*
X135960000Y-100260000D02*
X137160000Y-99060000D01*
X137160000Y-99060000D02*
X137160000Y-99060000D01*
%TO.N,Net-(IC1-Pad7)*%
X131445000Y-99659998D02*
X131445000Y-100260000D01*
X127947502Y-96162500D02*
X131445000Y-99659998D01*
X125730000Y-96162500D02*
X127947502Y-96162500D01*
%TO.N,Net-(IC1-Pad6)*%
X130175000Y-99575000D02*
X129214991Y-98614991D01*
X128392510Y-98614991D02*
X125730000Y-101277501D01*
X129214991Y-98614991D02*
X128392510Y-98614991D01*
X130175000Y-100260000D02*
X130175000Y-99575000D01*
%TO.N,Net-(IC1-Pad2)*%
X135779999Y-96630001D02*
X135890000Y-96520000D01*
X131520001Y-96630001D02*
X135779999Y-96630001D01*
X131445000Y-96555000D02*
X131520001Y-96630001D01*
X131445000Y-95320000D02*
X131445000Y-96555000D01*
%TO.N,SDA*%
X172448861Y-97653860D02*
X172665001Y-97870000D01*
X166933196Y-97653860D02*
X172448861Y-97653860D01*
X166413732Y-98173324D02*
X166933196Y-97653860D01*
X172665001Y-97870000D02*
X179070000Y-97870000D01*
%TO.N,SCL*%
X168085686Y-95370000D02*
X172665001Y-95370000D01*
X165848047Y-97607639D02*
X168085686Y-95370000D01*
X172665001Y-95370000D02*
X179070000Y-95370000D01*
%TO.N,Net-(Q1-Pad1)*%
X127000000Y-105410000D02*
X129540000Y-102870000D01*
X135325000Y-102870000D02*
X135960000Y-103505000D01*
X129540000Y-102870000D02*
X135325000Y-102870000D01*
X117909998Y-105410000D02*
X118110000Y-105410000D01*
X118110000Y-105410000D02*
X119380000Y-105410000D01*
X119380000Y-105410000D02*
X127000000Y-105410000D01*
X115570000Y-109795000D02*
X116552500Y-110777500D01*
X115570000Y-106680000D02*
X115570000Y-109795000D01*
X119380000Y-105410000D02*
X116840000Y-105410000D01*
X118805000Y-113030000D02*
X116552500Y-110777500D01*
X116840000Y-105410000D02*
X115570000Y-106680000D01*
X116552500Y-110777500D02*
X116179999Y-110404999D01*
D31*
%TO.N,Net-(Q1-Pad3)*%
X125730000Y-114875000D02*
X125730000Y-118110000D01*
X118805000Y-107950000D02*
X125730000Y-114875000D01*
D32*
X125730000Y-118110000D02*
X125730000Y-114300000D01*
X128270000Y-111760000D02*
X134620000Y-111760000D01*
X125730000Y-114300000D02*
X128270000Y-111760000D01*
X138430000Y-105969998D02*
X138430000Y-107950000D01*
X137235002Y-104775000D02*
X138430000Y-105969998D01*
X135960000Y-104775000D02*
X137235002Y-104775000D01*
X134620000Y-111760000D02*
X138430000Y-107950000D01*
D30*
%TO.N,PWM*%
X156060202Y-102870000D02*
X157574897Y-101355305D01*
X154582500Y-102870000D02*
X156060202Y-102870000D01*
%TO.N,RST*%
X150770000Y-107220000D02*
X156570000Y-107220000D01*
X164762897Y-97561417D02*
X164762897Y-98127103D01*
X165282361Y-97041953D02*
X164762897Y-97561417D01*
X164762897Y-98127103D02*
X163830000Y-99060000D01*
X156570000Y-107220000D02*
X156570000Y-105050000D01*
X156570000Y-105050000D02*
X157480000Y-104140000D01*
X157480000Y-104140000D02*
X157480000Y-104140000D01*
X163830000Y-99060000D02*
X163830000Y-99060000D01*
D29*
%TO.N,Net-(J1-Pad2)*%
X170830000Y-102205001D02*
X172665001Y-100370000D01*
X170830000Y-106680000D02*
X170830000Y-102205001D01*
X172665001Y-100370000D02*
X179070000Y-100370000D01*
D30*
%TO.N,Net-(D4-Pad1)*%
X117172500Y-119960000D02*
X115212500Y-121920000D01*
X117172500Y-118110000D02*
X117172500Y-119960000D01*
%TO.N,LED_STATUS*%
X157621118Y-102627072D02*
X154838190Y-105410000D01*
X157621118Y-102440455D02*
X157621118Y-102627072D01*
X158140583Y-101920990D02*
X157621118Y-102440455D01*
X154838190Y-105410000D02*
X153670000Y-105410000D01*
X153670000Y-105410000D02*
X153670000Y-105410000D01*
X119380000Y-118110000D02*
X120650000Y-116840000D01*
X119047500Y-118110000D02*
X119380000Y-118110000D01*
D33*
%TO.N,MISO*%
X161409999Y-112910001D02*
X160020000Y-114300000D01*
X161409999Y-105439799D02*
X161409999Y-112910001D01*
X161534695Y-105315103D02*
X161409999Y-105439799D01*
%TO.N,SCK*%
X163710001Y-105439799D02*
X163585305Y-105315103D01*
X163710001Y-113149999D02*
X163710001Y-105439799D01*
X162560000Y-114300000D02*
X163710001Y-113149999D01*
%TO.N,MOSI*%
X162560000Y-112325698D02*
X162560000Y-111760000D01*
X161170010Y-113715688D02*
X162560000Y-112325698D01*
X160847824Y-115450010D02*
X161170010Y-115127824D01*
X161170010Y-115127824D02*
X161170010Y-113715688D01*
X159192176Y-115450010D02*
X160847824Y-115450010D01*
X158869990Y-106848437D02*
X158869990Y-115127824D01*
X158869990Y-115127824D02*
X159192176Y-115450010D01*
X160969010Y-104749417D02*
X158869990Y-106848437D01*
D30*
%TO.N,RST*%
X165282361Y-96892639D02*
X168195000Y-93980000D01*
X165282361Y-97041953D02*
X165282361Y-96892639D01*
D33*
X154869999Y-108920001D02*
X156570000Y-107220000D01*
X158760018Y-115850020D02*
X154869999Y-111960001D01*
X154869999Y-111960001D02*
X154869999Y-108920001D01*
X163549980Y-115850020D02*
X158760018Y-115850020D01*
X165100000Y-114300000D02*
X163549980Y-115850020D01*
D30*
%TO.N,RX*%
X159837639Y-103618047D02*
X160585686Y-102870000D01*
X160585686Y-102870000D02*
X162560000Y-102870000D01*
X162560000Y-102870000D02*
X162560000Y-102870000D01*
X163865001Y-72354999D02*
X163830000Y-72390000D01*
X163865001Y-66765001D02*
X163865001Y-72354999D01*
%TO.N,TX*%
X159271953Y-103052361D02*
X160724314Y-101600000D01*
X160724314Y-101600000D02*
X161290000Y-101600000D01*
X161290000Y-101600000D02*
X161290000Y-101600000D01*
X158750000Y-69850000D02*
X162560000Y-73660000D01*
X158750000Y-66765001D02*
X158750000Y-69850000D01*
%TD*%
D34*
%TO.N,GND*%
X179852249Y-64232437D02*
X180609774Y-64439672D01*
X181318625Y-64777777D01*
X181956404Y-65236067D01*
X182502946Y-65800055D01*
X182940977Y-66451913D01*
X183256651Y-67171038D01*
X183441206Y-67939768D01*
X183490000Y-68604207D01*
X183490001Y-120620597D01*
X183417563Y-121432249D01*
X183210328Y-122189774D01*
X182872221Y-122898627D01*
X182413928Y-123536410D01*
X181849945Y-124082946D01*
X181198085Y-124520978D01*
X180478963Y-124836651D01*
X179710232Y-125021206D01*
X179045792Y-125070000D01*
X107979392Y-125070000D01*
X107167751Y-124997563D01*
X106410226Y-124790328D01*
X105701373Y-124452221D01*
X105063590Y-123993928D01*
X104517054Y-123429945D01*
X104463926Y-123350881D01*
X105428724Y-123350881D01*
X105788912Y-123840548D01*
X106452882Y-124200849D01*
X107174385Y-124424694D01*
X107925695Y-124503480D01*
X108677938Y-124434178D01*
X109402208Y-124219452D01*
X110070670Y-123867555D01*
X110111088Y-123840548D01*
X110471276Y-123350881D01*
X176688724Y-123350881D01*
X177048912Y-123840548D01*
X177712882Y-124200849D01*
X178434385Y-124424694D01*
X179185695Y-124503480D01*
X179937938Y-124434178D01*
X180662208Y-124219452D01*
X181330670Y-123867555D01*
X181371088Y-123840548D01*
X181731276Y-123350881D01*
X179210000Y-120829605D01*
X176688724Y-123350881D01*
X110471276Y-123350881D01*
X107950000Y-120829605D01*
X105428724Y-123350881D01*
X104463926Y-123350881D01*
X104079022Y-122778085D01*
X103763349Y-122058963D01*
X103578794Y-121290232D01*
X103530000Y-120625792D01*
X103530000Y-120625695D01*
X104096520Y-120625695D01*
X104165822Y-121377938D01*
X104380548Y-122102208D01*
X104732445Y-122770670D01*
X104759452Y-122811088D01*
X105249119Y-123171276D01*
X107770395Y-120650000D01*
X108129605Y-120650000D01*
X110650881Y-123171276D01*
X111140548Y-122811088D01*
X111244241Y-122620000D01*
X112236928Y-122620000D01*
X112249188Y-122744482D01*
X112285498Y-122864180D01*
X112344463Y-122974494D01*
X112423815Y-123071185D01*
X112520506Y-123150537D01*
X112630820Y-123209502D01*
X112750518Y-123245812D01*
X112875000Y-123258072D01*
X113101750Y-123255000D01*
X113260500Y-123096250D01*
X113260500Y-122047000D01*
X112398750Y-122047000D01*
X112240000Y-122205750D01*
X112236928Y-122620000D01*
X111244241Y-122620000D01*
X111500849Y-122147118D01*
X111724694Y-121425615D01*
X111746255Y-121220000D01*
X112236928Y-121220000D01*
X112240000Y-121634250D01*
X112398750Y-121793000D01*
X113260500Y-121793000D01*
X113260500Y-120743750D01*
X113514500Y-120743750D01*
X113514500Y-121793000D01*
X113534500Y-121793000D01*
X113534500Y-122047000D01*
X113514500Y-122047000D01*
X113514500Y-123096250D01*
X113673250Y-123255000D01*
X113900000Y-123258072D01*
X114024482Y-123245812D01*
X114144180Y-123209502D01*
X114254494Y-123150537D01*
X114351185Y-123071185D01*
X114375363Y-123041724D01*
X114456613Y-123108405D01*
X114610149Y-123190472D01*
X114776745Y-123241008D01*
X114949999Y-123258072D01*
X115475001Y-123258072D01*
X115648255Y-123241008D01*
X115814851Y-123190472D01*
X115968387Y-123108405D01*
X116102962Y-122997962D01*
X116213405Y-122863387D01*
X116295472Y-122709851D01*
X116346008Y-122543255D01*
X116363072Y-122370001D01*
X116363072Y-121844229D01*
X117683503Y-120523799D01*
X117712501Y-120500001D01*
X117807474Y-120384276D01*
X117878046Y-120252247D01*
X117921503Y-120108986D01*
X117932500Y-119997333D01*
X117936177Y-119960000D01*
X117932500Y-119922667D01*
X117932500Y-119277845D01*
X118039792Y-119189792D01*
X118110000Y-119104244D01*
X118180208Y-119189792D01*
X118313836Y-119299458D01*
X118466291Y-119380947D01*
X118631715Y-119431128D01*
X118803750Y-119448072D01*
X119291250Y-119448072D01*
X119463285Y-119431128D01*
X119628709Y-119380947D01*
X119781164Y-119299458D01*
X119914792Y-119189792D01*
X120024458Y-119056164D01*
X120105947Y-118903709D01*
X120156128Y-118738285D01*
X120173072Y-118566250D01*
X120173072Y-118391729D01*
X120689802Y-117875000D01*
X120751939Y-117875000D01*
X120951898Y-117835226D01*
X121140256Y-117757205D01*
X121309774Y-117643937D01*
X121453937Y-117499774D01*
X121567205Y-117330256D01*
X121645226Y-117141898D01*
X121685000Y-116941939D01*
X121685000Y-116738061D01*
X121645226Y-116538102D01*
X121567205Y-116349744D01*
X121453937Y-116180226D01*
X121309774Y-116036063D01*
X121140256Y-115922795D01*
X120951898Y-115844774D01*
X120751939Y-115805000D01*
X120548061Y-115805000D01*
X120348102Y-115844774D01*
X120159744Y-115922795D01*
X119990226Y-116036063D01*
X119846063Y-116180226D01*
X119732795Y-116349744D01*
X119654774Y-116538102D01*
X119615000Y-116738061D01*
X119615000Y-116800198D01*
X119588379Y-116826819D01*
X119463285Y-116788872D01*
X119291250Y-116771928D01*
X118803750Y-116771928D01*
X118631715Y-116788872D01*
X118466291Y-116839053D01*
X118313836Y-116920542D01*
X118180208Y-117030208D01*
X118110000Y-117115756D01*
X118039792Y-117030208D01*
X117906164Y-116920542D01*
X117753709Y-116839053D01*
X117588285Y-116788872D01*
X117416250Y-116771928D01*
X116928750Y-116771928D01*
X116756715Y-116788872D01*
X116591291Y-116839053D01*
X116438836Y-116920542D01*
X116305208Y-117030208D01*
X116290171Y-117048530D01*
X116280537Y-117030506D01*
X116201185Y-116933815D01*
X116104494Y-116854463D01*
X115994180Y-116795498D01*
X115874482Y-116759188D01*
X115750000Y-116746928D01*
X115535750Y-116750000D01*
X115377000Y-116908750D01*
X115377000Y-117983000D01*
X115397000Y-117983000D01*
X115397000Y-118237000D01*
X115377000Y-118237000D01*
X115377000Y-119311250D01*
X115535750Y-119470000D01*
X115750000Y-119473072D01*
X115874482Y-119460812D01*
X115994180Y-119424502D01*
X116104494Y-119365537D01*
X116201185Y-119286185D01*
X116280537Y-119189494D01*
X116290171Y-119171470D01*
X116305208Y-119189792D01*
X116412501Y-119277845D01*
X116412501Y-119645197D01*
X115475702Y-120581997D01*
X115475001Y-120581928D01*
X114949999Y-120581928D01*
X114776745Y-120598992D01*
X114610149Y-120649528D01*
X114456613Y-120731595D01*
X114375363Y-120798276D01*
X114351185Y-120768815D01*
X114254494Y-120689463D01*
X114144180Y-120630498D01*
X114024482Y-120594188D01*
X113900000Y-120581928D01*
X113673250Y-120585000D01*
X113514500Y-120743750D01*
X113260500Y-120743750D01*
X113101750Y-120585000D01*
X112875000Y-120581928D01*
X112750518Y-120594188D01*
X112630820Y-120630498D01*
X112520506Y-120689463D01*
X112423815Y-120768815D01*
X112344463Y-120865506D01*
X112285498Y-120975820D01*
X112249188Y-121095518D01*
X112236928Y-121220000D01*
X111746255Y-121220000D01*
X111803480Y-120674305D01*
X111734178Y-119922062D01*
X111519452Y-119197792D01*
X111167555Y-118529330D01*
X111140548Y-118488912D01*
X110650881Y-118128724D01*
X108129605Y-120650000D01*
X107770395Y-120650000D01*
X105249119Y-118128724D01*
X104759452Y-118488912D01*
X104399151Y-119152882D01*
X104175306Y-119874385D01*
X104096520Y-120625695D01*
X103530000Y-120625695D01*
X103530000Y-117949119D01*
X105428724Y-117949119D01*
X107950000Y-120470395D01*
X110471276Y-117949119D01*
X110111088Y-117459452D01*
X109447118Y-117099151D01*
X108725615Y-116875306D01*
X107974305Y-116796520D01*
X107222062Y-116865822D01*
X106497792Y-117080548D01*
X105829330Y-117432445D01*
X105788912Y-117459452D01*
X105428724Y-117949119D01*
X103530000Y-117949119D01*
X103530000Y-105090000D01*
X104316928Y-105090000D01*
X104316928Y-115890000D01*
X104329188Y-116014482D01*
X104365498Y-116134180D01*
X104424463Y-116244494D01*
X104503815Y-116341185D01*
X104600506Y-116420537D01*
X104710820Y-116479502D01*
X104830518Y-116515812D01*
X104955000Y-116528072D01*
X112215000Y-116528072D01*
X112215000Y-117603808D01*
X112211928Y-117635000D01*
X112211928Y-118585000D01*
X112228992Y-118758254D01*
X112279528Y-118924850D01*
X112361595Y-119078386D01*
X112472038Y-119212962D01*
X112606614Y-119323405D01*
X112760150Y-119405472D01*
X112926746Y-119456008D01*
X113100000Y-119473072D01*
X113600000Y-119473072D01*
X113773254Y-119456008D01*
X113939850Y-119405472D01*
X114093386Y-119323405D01*
X114227962Y-119212962D01*
X114233342Y-119206406D01*
X114298815Y-119286185D01*
X114395506Y-119365537D01*
X114505820Y-119424502D01*
X114625518Y-119460812D01*
X114750000Y-119473072D01*
X114964250Y-119470000D01*
X115123000Y-119311250D01*
X115123000Y-118237000D01*
X115103000Y-118237000D01*
X115103000Y-117983000D01*
X115123000Y-117983000D01*
X115123000Y-116908750D01*
X114964250Y-116750000D01*
X114750000Y-116746928D01*
X114625518Y-116759188D01*
X114505820Y-116795498D01*
X114485000Y-116806627D01*
X114485000Y-116514138D01*
X114599180Y-116479502D01*
X114709494Y-116420537D01*
X114806185Y-116341185D01*
X114885537Y-116244494D01*
X114944502Y-116134180D01*
X114980812Y-116014482D01*
X114993072Y-115890000D01*
X114993072Y-110290004D01*
X115006201Y-110306002D01*
X115030000Y-110335001D01*
X115058998Y-110358799D01*
X116041497Y-111341299D01*
X116041502Y-111341303D01*
X116542127Y-111841928D01*
X116505000Y-111841928D01*
X116380518Y-111854188D01*
X116260820Y-111890498D01*
X116150506Y-111949463D01*
X116053815Y-112028815D01*
X115974463Y-112125506D01*
X115915498Y-112235820D01*
X115879188Y-112355518D01*
X115866928Y-112480000D01*
X115866928Y-113580000D01*
X115879188Y-113704482D01*
X115915498Y-113824180D01*
X115974463Y-113934494D01*
X116053815Y-114031185D01*
X116150506Y-114110537D01*
X116260820Y-114169502D01*
X116380518Y-114205812D01*
X116505000Y-114218072D01*
X121105000Y-114218072D01*
X121229482Y-114205812D01*
X121349180Y-114169502D01*
X121459494Y-114110537D01*
X121556185Y-114031185D01*
X121635537Y-113934494D01*
X121694502Y-113824180D01*
X121730812Y-113704482D01*
X121743072Y-113580000D01*
X121743072Y-113200311D01*
X124095000Y-115552239D01*
X124095001Y-117262151D01*
X123965518Y-117574750D01*
X123895000Y-117929268D01*
X123895000Y-118290732D01*
X123965518Y-118645250D01*
X124103844Y-118979199D01*
X124304662Y-119279744D01*
X124560256Y-119535338D01*
X124860801Y-119736156D01*
X125194750Y-119874482D01*
X125549268Y-119945000D01*
X125910732Y-119945000D01*
X126265250Y-119874482D01*
X126599199Y-119736156D01*
X126899744Y-119535338D01*
X127155338Y-119279744D01*
X127356156Y-118979199D01*
X127494482Y-118645250D01*
X127519036Y-118521805D01*
X149341805Y-118521805D01*
X149414379Y-118761066D01*
X149574361Y-119083257D01*
X149794125Y-119368046D01*
X150065226Y-119604489D01*
X150377246Y-119783500D01*
X150718194Y-119898199D01*
X151003000Y-119781854D01*
X151003000Y-118237000D01*
X151257000Y-118237000D01*
X151257000Y-119781854D01*
X151541806Y-119898199D01*
X151882754Y-119783500D01*
X152194774Y-119604489D01*
X152465875Y-119368046D01*
X152685639Y-119083257D01*
X152845621Y-118761066D01*
X152918195Y-118521805D01*
X152801432Y-118237000D01*
X151257000Y-118237000D01*
X151003000Y-118237000D01*
X149458568Y-118237000D01*
X149341805Y-118521805D01*
X127519036Y-118521805D01*
X127565000Y-118290732D01*
X127565000Y-117929268D01*
X127519037Y-117698195D01*
X149341805Y-117698195D01*
X149458568Y-117983000D01*
X151003000Y-117983000D01*
X151003000Y-116438146D01*
X151257000Y-116438146D01*
X151257000Y-117983000D01*
X152801432Y-117983000D01*
X152918195Y-117698195D01*
X152845621Y-117458934D01*
X152685639Y-117136743D01*
X152465875Y-116851954D01*
X152194774Y-116615511D01*
X151882754Y-116436500D01*
X151541806Y-116321801D01*
X151257000Y-116438146D01*
X151003000Y-116438146D01*
X150718194Y-116321801D01*
X150377246Y-116436500D01*
X150065226Y-116615511D01*
X149794125Y-116851954D01*
X149574361Y-117136743D01*
X149414379Y-117458934D01*
X149341805Y-117698195D01*
X127519037Y-117698195D01*
X127494482Y-117574750D01*
X127365000Y-117262152D01*
X127365000Y-114955319D01*
X127372911Y-114875000D01*
X127364901Y-114793676D01*
X127341343Y-114554484D01*
X127280668Y-114354464D01*
X128740132Y-112895000D01*
X134564249Y-112895000D01*
X134620000Y-112900491D01*
X134675751Y-112895000D01*
X134675752Y-112895000D01*
X134842499Y-112878577D01*
X135056447Y-112813676D01*
X135253623Y-112708284D01*
X135426449Y-112566449D01*
X135461996Y-112523135D01*
X136265131Y-111720000D01*
X148731928Y-111720000D01*
X148744188Y-111844482D01*
X148780498Y-111964180D01*
X148839463Y-112074494D01*
X148918815Y-112171185D01*
X149015506Y-112250537D01*
X149125820Y-112309502D01*
X149245518Y-112345812D01*
X149370000Y-112358072D01*
X150484250Y-112355000D01*
X150643000Y-112196250D01*
X150643000Y-111347000D01*
X148893750Y-111347000D01*
X148735000Y-111505750D01*
X148731928Y-111720000D01*
X136265131Y-111720000D01*
X137265131Y-110720000D01*
X148731928Y-110720000D01*
X148735000Y-110934250D01*
X148893750Y-111093000D01*
X150643000Y-111093000D01*
X150643000Y-110243750D01*
X150484250Y-110085000D01*
X149370000Y-110081928D01*
X149245518Y-110094188D01*
X149125820Y-110130498D01*
X149015506Y-110189463D01*
X148918815Y-110268815D01*
X148839463Y-110365506D01*
X148780498Y-110475820D01*
X148744188Y-110595518D01*
X148731928Y-110720000D01*
X137265131Y-110720000D01*
X139193146Y-108791987D01*
X139236449Y-108756449D01*
X139323812Y-108649998D01*
X139378284Y-108583623D01*
X139483676Y-108386447D01*
X139548577Y-108172499D01*
X139550269Y-108155322D01*
X139551926Y-108138496D01*
X139560506Y-108145537D01*
X139670820Y-108204502D01*
X139790518Y-108240812D01*
X139915000Y-108253072D01*
X141885000Y-108253072D01*
X142009482Y-108240812D01*
X142129180Y-108204502D01*
X142239494Y-108145537D01*
X142336185Y-108066185D01*
X142415537Y-107969494D01*
X142474502Y-107859180D01*
X142510812Y-107739482D01*
X142523072Y-107615000D01*
X142523072Y-107015000D01*
X142510812Y-106890518D01*
X142474502Y-106770820D01*
X142425957Y-106680000D01*
X142474502Y-106589180D01*
X142510812Y-106469482D01*
X142523072Y-106345000D01*
X142523072Y-105745000D01*
X142510812Y-105620518D01*
X142474502Y-105500820D01*
X142425957Y-105410000D01*
X142442995Y-105378124D01*
X146478009Y-109413139D01*
X146513551Y-109456447D01*
X146686377Y-109598282D01*
X146845907Y-109683552D01*
X146883553Y-109703674D01*
X147097501Y-109768575D01*
X147320000Y-109790489D01*
X147375751Y-109784998D01*
X151359867Y-109784998D01*
X151658208Y-110083339D01*
X151055750Y-110085000D01*
X150897000Y-110243750D01*
X150897000Y-111093000D01*
X150917000Y-111093000D01*
X150917000Y-111347000D01*
X150897000Y-111347000D01*
X150897000Y-112196250D01*
X151055750Y-112355000D01*
X152170000Y-112358072D01*
X152294482Y-112345812D01*
X152414180Y-112309502D01*
X152524494Y-112250537D01*
X152535001Y-112241915D01*
X152535001Y-113684239D01*
X152529509Y-113740000D01*
X152551423Y-113962498D01*
X152616324Y-114176446D01*
X152638574Y-114218072D01*
X152721717Y-114373623D01*
X152863552Y-114546449D01*
X152906860Y-114581991D01*
X158191928Y-119867061D01*
X158191928Y-121650000D01*
X158208992Y-121823254D01*
X158259528Y-121989850D01*
X158341595Y-122143386D01*
X158452038Y-122277962D01*
X158586614Y-122388405D01*
X158740150Y-122470472D01*
X158906746Y-122521008D01*
X159080000Y-122538072D01*
X162080000Y-122538072D01*
X162253254Y-122521008D01*
X162419850Y-122470472D01*
X162573386Y-122388405D01*
X162707962Y-122277962D01*
X162818405Y-122143386D01*
X162900472Y-121989850D01*
X162927727Y-121900000D01*
X164691928Y-121900000D01*
X164704188Y-122024482D01*
X164740498Y-122144180D01*
X164799463Y-122254494D01*
X164878815Y-122351185D01*
X164975506Y-122430537D01*
X165085820Y-122489502D01*
X165205518Y-122525812D01*
X165330000Y-122538072D01*
X166794250Y-122535000D01*
X166953000Y-122376250D01*
X166953000Y-120777000D01*
X167207000Y-120777000D01*
X167207000Y-122376250D01*
X167365750Y-122535000D01*
X168830000Y-122538072D01*
X168954482Y-122525812D01*
X169074180Y-122489502D01*
X169184494Y-122430537D01*
X169281185Y-122351185D01*
X169360537Y-122254494D01*
X169419502Y-122144180D01*
X169455812Y-122024482D01*
X169468072Y-121900000D01*
X169465000Y-120935750D01*
X169306250Y-120777000D01*
X167207000Y-120777000D01*
X166953000Y-120777000D01*
X164853750Y-120777000D01*
X164695000Y-120935750D01*
X164691928Y-121900000D01*
X162927727Y-121900000D01*
X162951008Y-121823254D01*
X162968072Y-121650000D01*
X162968072Y-120625695D01*
X175356520Y-120625695D01*
X175425822Y-121377938D01*
X175640548Y-122102208D01*
X175992445Y-122770670D01*
X176019452Y-122811088D01*
X176509119Y-123171276D01*
X179030395Y-120650000D01*
X179389605Y-120650000D01*
X181910881Y-123171276D01*
X182400548Y-122811088D01*
X182760849Y-122147118D01*
X182984694Y-121425615D01*
X183063480Y-120674305D01*
X182994178Y-119922062D01*
X182779452Y-119197792D01*
X182427555Y-118529330D01*
X182400548Y-118488912D01*
X181910881Y-118128724D01*
X179389605Y-120650000D01*
X179030395Y-120650000D01*
X176509119Y-118128724D01*
X176019452Y-118488912D01*
X175659151Y-119152882D01*
X175435306Y-119874385D01*
X175356520Y-120625695D01*
X162968072Y-120625695D01*
X162968072Y-119745000D01*
X164693027Y-119745000D01*
X164695000Y-120364250D01*
X164853750Y-120523000D01*
X166953000Y-120523000D01*
X166953000Y-120503000D01*
X167207000Y-120503000D01*
X167207000Y-120523000D01*
X169306250Y-120523000D01*
X169465000Y-120364250D01*
X169468072Y-119400000D01*
X169455812Y-119275518D01*
X169419502Y-119155820D01*
X169360537Y-119045506D01*
X169281185Y-118948815D01*
X169184494Y-118869463D01*
X169074180Y-118810498D01*
X168954482Y-118774188D01*
X168830000Y-118761928D01*
X168028629Y-118763609D01*
X168739318Y-118052921D01*
X168801714Y-118001714D01*
X168902010Y-117879502D01*
X169003748Y-117879502D01*
X168845000Y-118038250D01*
X168841928Y-118265000D01*
X168854188Y-118389482D01*
X168890498Y-118509180D01*
X168949463Y-118619494D01*
X169028815Y-118716185D01*
X169125506Y-118795537D01*
X169235820Y-118854502D01*
X169355518Y-118890812D01*
X169480000Y-118903072D01*
X169894250Y-118900000D01*
X170053000Y-118741250D01*
X170053000Y-117879500D01*
X170307000Y-117879500D01*
X170307000Y-118741250D01*
X170465750Y-118900000D01*
X170880000Y-118903072D01*
X171004482Y-118890812D01*
X171124180Y-118854502D01*
X171234494Y-118795537D01*
X171331185Y-118716185D01*
X171410537Y-118619494D01*
X171469502Y-118509180D01*
X171505812Y-118389482D01*
X171518072Y-118265000D01*
X171515000Y-118038250D01*
X171425869Y-117949119D01*
X176688724Y-117949119D01*
X179210000Y-120470395D01*
X181731276Y-117949119D01*
X181371088Y-117459452D01*
X180707118Y-117099151D01*
X179985615Y-116875306D01*
X179234305Y-116796520D01*
X178482062Y-116865822D01*
X177757792Y-117080548D01*
X177089330Y-117432445D01*
X177048912Y-117459452D01*
X176688724Y-117949119D01*
X171425869Y-117949119D01*
X171356250Y-117879500D01*
X170307000Y-117879500D01*
X170053000Y-117879500D01*
X170033000Y-117879500D01*
X170033000Y-117625500D01*
X170053000Y-117625500D01*
X170053000Y-117605500D01*
X170307000Y-117605500D01*
X170307000Y-117625500D01*
X171356250Y-117625500D01*
X171515000Y-117466750D01*
X171518072Y-117240000D01*
X171505812Y-117115518D01*
X171469502Y-116995820D01*
X171410537Y-116885506D01*
X171331185Y-116788815D01*
X171301724Y-116764637D01*
X171368405Y-116683387D01*
X171450472Y-116529851D01*
X171501008Y-116363255D01*
X171518072Y-116190001D01*
X171518072Y-115664999D01*
X171508640Y-115569224D01*
X176630381Y-115569224D01*
X176762317Y-115864312D01*
X177103045Y-116035159D01*
X177470557Y-116136250D01*
X177850729Y-116163701D01*
X178228951Y-116116457D01*
X178590690Y-115996333D01*
X178837683Y-115864312D01*
X178969619Y-115569224D01*
X177800000Y-114399605D01*
X176630381Y-115569224D01*
X171508640Y-115569224D01*
X171501008Y-115491745D01*
X171450472Y-115325149D01*
X171368405Y-115171613D01*
X171257962Y-115037038D01*
X171123387Y-114926595D01*
X170969851Y-114844528D01*
X170940000Y-114835473D01*
X170940000Y-114270729D01*
X175856299Y-114270729D01*
X175903543Y-114648951D01*
X176023667Y-115010690D01*
X176155688Y-115257683D01*
X176450776Y-115389619D01*
X177620395Y-114220000D01*
X177979605Y-114220000D01*
X179149224Y-115389619D01*
X179444312Y-115257683D01*
X179615159Y-114916955D01*
X179716250Y-114549443D01*
X179743701Y-114169271D01*
X179696457Y-113791049D01*
X179576333Y-113429310D01*
X179444312Y-113182317D01*
X179149224Y-113050381D01*
X177979605Y-114220000D01*
X177620395Y-114220000D01*
X176450776Y-113050381D01*
X176155688Y-113182317D01*
X175984841Y-113523045D01*
X175883750Y-113890557D01*
X175856299Y-114270729D01*
X170940000Y-114270729D01*
X170940000Y-114098673D01*
X170973709Y-114088447D01*
X171126164Y-114006958D01*
X171259792Y-113897292D01*
X171369458Y-113763664D01*
X171450947Y-113611209D01*
X171501128Y-113445785D01*
X171518072Y-113273750D01*
X171518072Y-112870776D01*
X176630381Y-112870776D01*
X177800000Y-114040395D01*
X178969619Y-112870776D01*
X178837683Y-112575688D01*
X178496955Y-112404841D01*
X178129443Y-112303750D01*
X177749271Y-112276299D01*
X177371049Y-112323543D01*
X177009310Y-112443667D01*
X176762317Y-112575688D01*
X176630381Y-112870776D01*
X171518072Y-112870776D01*
X171518072Y-112786250D01*
X171501128Y-112614215D01*
X171450947Y-112448791D01*
X171369458Y-112296336D01*
X171259792Y-112162708D01*
X171174244Y-112092500D01*
X171259792Y-112022292D01*
X171369458Y-111888664D01*
X171450947Y-111736209D01*
X171501128Y-111570785D01*
X171518072Y-111398750D01*
X171518072Y-110911250D01*
X171512532Y-110855000D01*
X175959043Y-110855000D01*
X175969463Y-110874494D01*
X176048815Y-110971185D01*
X176145506Y-111050537D01*
X176255820Y-111109502D01*
X176375518Y-111145812D01*
X176500000Y-111158072D01*
X179100000Y-111158072D01*
X179224482Y-111145812D01*
X179344180Y-111109502D01*
X179454494Y-111050537D01*
X179551185Y-110971185D01*
X179630537Y-110874494D01*
X179689502Y-110764180D01*
X179725812Y-110644482D01*
X179738072Y-110520000D01*
X179738072Y-107920000D01*
X179725812Y-107795518D01*
X179689502Y-107675820D01*
X179630537Y-107565506D01*
X179551185Y-107468815D01*
X179454494Y-107389463D01*
X179344180Y-107330498D01*
X179224482Y-107294188D01*
X179100000Y-107281928D01*
X176500000Y-107281928D01*
X176375518Y-107294188D01*
X176255820Y-107330498D01*
X176145506Y-107389463D01*
X176048815Y-107468815D01*
X175969463Y-107565506D01*
X175959043Y-107585000D01*
X171758195Y-107585000D01*
X171801498Y-107520192D01*
X171860464Y-107409875D01*
X171897973Y-107319319D01*
X171934282Y-107199623D01*
X171953404Y-107103490D01*
X171965664Y-106979009D01*
X171965664Y-106954450D01*
X171968072Y-106930000D01*
X171968072Y-106430000D01*
X171965664Y-106405550D01*
X171965664Y-106380991D01*
X171953404Y-106256510D01*
X171934282Y-106160377D01*
X171897973Y-106040681D01*
X171860464Y-105950125D01*
X171801498Y-105839808D01*
X171747042Y-105758309D01*
X171715000Y-105719266D01*
X171715000Y-104281554D01*
X171745519Y-104290812D01*
X171870001Y-104303072D01*
X172379251Y-104300000D01*
X172538001Y-104141250D01*
X172538001Y-102997000D01*
X172792001Y-102997000D01*
X172792001Y-104141250D01*
X172950751Y-104300000D01*
X173460001Y-104303072D01*
X173584483Y-104290812D01*
X173704181Y-104254502D01*
X173814495Y-104195537D01*
X173911186Y-104116185D01*
X173990538Y-104019494D01*
X174049503Y-103909180D01*
X174085813Y-103789482D01*
X174098073Y-103665000D01*
X177636928Y-103665000D01*
X177649188Y-103789482D01*
X177685498Y-103909180D01*
X177744463Y-104019494D01*
X177823815Y-104116185D01*
X177920506Y-104195537D01*
X178030820Y-104254502D01*
X178150518Y-104290812D01*
X178275000Y-104303072D01*
X178784250Y-104300000D01*
X178943000Y-104141250D01*
X178943000Y-102997000D01*
X179197000Y-102997000D01*
X179197000Y-104141250D01*
X179355750Y-104300000D01*
X179865000Y-104303072D01*
X179989482Y-104290812D01*
X180109180Y-104254502D01*
X180219494Y-104195537D01*
X180316185Y-104116185D01*
X180395537Y-104019494D01*
X180454502Y-103909180D01*
X180490812Y-103789482D01*
X180503072Y-103665000D01*
X180500000Y-103155750D01*
X180341250Y-102997000D01*
X179197000Y-102997000D01*
X178943000Y-102997000D01*
X177798750Y-102997000D01*
X177640000Y-103155750D01*
X177636928Y-103665000D01*
X174098073Y-103665000D01*
X174095001Y-103155750D01*
X173936251Y-102997000D01*
X172792001Y-102997000D01*
X172538001Y-102997000D01*
X172518001Y-102997000D01*
X172518001Y-102743000D01*
X172538001Y-102743000D01*
X172538001Y-102723000D01*
X172792001Y-102723000D01*
X172792001Y-102743000D01*
X173936251Y-102743000D01*
X174095001Y-102584250D01*
X174098073Y-102075000D01*
X174085813Y-101950518D01*
X174049503Y-101830820D01*
X173990538Y-101720506D01*
X173911186Y-101623815D01*
X173814495Y-101544463D01*
X173704181Y-101485498D01*
X173602632Y-101454694D01*
X173775754Y-101281572D01*
X173793509Y-101255000D01*
X177941492Y-101255000D01*
X177959247Y-101281572D01*
X178132369Y-101454694D01*
X178030820Y-101485498D01*
X177920506Y-101544463D01*
X177823815Y-101623815D01*
X177744463Y-101720506D01*
X177685498Y-101830820D01*
X177649188Y-101950518D01*
X177636928Y-102075000D01*
X177640000Y-102584250D01*
X177798750Y-102743000D01*
X178943000Y-102743000D01*
X178943000Y-102723000D01*
X179197000Y-102723000D01*
X179197000Y-102743000D01*
X180341250Y-102743000D01*
X180500000Y-102584250D01*
X180503072Y-102075000D01*
X180490812Y-101950518D01*
X180454502Y-101830820D01*
X180395537Y-101720506D01*
X180316185Y-101623815D01*
X180219494Y-101544463D01*
X180109180Y-101485498D01*
X180007631Y-101454694D01*
X180180753Y-101281572D01*
X180337249Y-101047359D01*
X180445046Y-100787116D01*
X180500000Y-100510843D01*
X180500000Y-100229157D01*
X180445046Y-99952884D01*
X180337249Y-99692641D01*
X180180753Y-99458428D01*
X179981572Y-99259247D01*
X179773174Y-99120000D01*
X179981572Y-98980753D01*
X180180753Y-98781572D01*
X180337249Y-98547359D01*
X180445046Y-98287116D01*
X180500000Y-98010843D01*
X180500000Y-97729157D01*
X180445046Y-97452884D01*
X180337249Y-97192641D01*
X180180753Y-96958428D01*
X179981572Y-96759247D01*
X179773174Y-96620000D01*
X179981572Y-96480753D01*
X180180753Y-96281572D01*
X180337249Y-96047359D01*
X180445046Y-95787116D01*
X180500000Y-95510843D01*
X180500000Y-95229157D01*
X180445046Y-94952884D01*
X180337249Y-94692641D01*
X180180753Y-94458428D01*
X179981572Y-94259247D01*
X179747359Y-94102751D01*
X179487116Y-93994954D01*
X179210843Y-93940000D01*
X178929157Y-93940000D01*
X178652884Y-93994954D01*
X178392641Y-94102751D01*
X178158428Y-94259247D01*
X177959247Y-94458428D01*
X177857970Y-94610000D01*
X173877031Y-94610000D01*
X173775754Y-94458428D01*
X173576573Y-94259247D01*
X173342360Y-94102751D01*
X173082117Y-93994954D01*
X172805844Y-93940000D01*
X172524158Y-93940000D01*
X172247885Y-93994954D01*
X171987642Y-94102751D01*
X171753429Y-94259247D01*
X171554248Y-94458428D01*
X171452971Y-94610000D01*
X169326462Y-94610000D01*
X169328508Y-94603255D01*
X169345572Y-94430001D01*
X169345572Y-93529999D01*
X169328508Y-93356745D01*
X169277972Y-93190149D01*
X169195905Y-93036613D01*
X169085462Y-92902038D01*
X168950887Y-92791595D01*
X168797351Y-92709528D01*
X168630755Y-92658992D01*
X168457501Y-92641928D01*
X167932499Y-92641928D01*
X167759245Y-92658992D01*
X167592649Y-92709528D01*
X167439113Y-92791595D01*
X167304538Y-92902038D01*
X167282500Y-92928891D01*
X167260462Y-92902038D01*
X167130000Y-92794970D01*
X167130000Y-85127322D01*
X167133676Y-85089999D01*
X167130000Y-85052676D01*
X167130000Y-85052667D01*
X167119003Y-84941014D01*
X167075546Y-84797753D01*
X167004974Y-84665724D01*
X166910001Y-84549999D01*
X166881003Y-84526201D01*
X164684674Y-82329872D01*
X169385001Y-82329872D01*
X169385001Y-82770128D01*
X169470891Y-83201925D01*
X169639370Y-83608669D01*
X169883963Y-83974729D01*
X170195272Y-84286038D01*
X170561332Y-84530631D01*
X170968076Y-84699110D01*
X171399873Y-84785000D01*
X171840129Y-84785000D01*
X172271926Y-84699110D01*
X172678670Y-84530631D01*
X173044730Y-84286038D01*
X173111159Y-84219609D01*
X177874998Y-84219609D01*
X178061074Y-84560766D01*
X178478410Y-84776513D01*
X178929816Y-84906696D01*
X179397947Y-84946313D01*
X179864812Y-84893842D01*
X180312469Y-84751297D01*
X180668928Y-84560766D01*
X180855004Y-84219609D01*
X179365001Y-82729605D01*
X177874998Y-84219609D01*
X173111159Y-84219609D01*
X173356039Y-83974729D01*
X173600632Y-83608669D01*
X173769111Y-83201925D01*
X173855001Y-82770128D01*
X173855001Y-82582946D01*
X176968688Y-82582946D01*
X177021159Y-83049811D01*
X177163704Y-83497468D01*
X177354235Y-83853927D01*
X177695392Y-84040003D01*
X179185396Y-82550000D01*
X179544606Y-82550000D01*
X181034610Y-84040003D01*
X181375767Y-83853927D01*
X181514792Y-83585000D01*
X181711939Y-83585000D01*
X181911898Y-83545226D01*
X182100256Y-83467205D01*
X182269774Y-83353937D01*
X182413937Y-83209774D01*
X182527205Y-83040256D01*
X182605226Y-82851898D01*
X182645000Y-82651939D01*
X182645000Y-82448061D01*
X182605226Y-82248102D01*
X182527205Y-82059744D01*
X182413937Y-81890226D01*
X182269774Y-81746063D01*
X182100256Y-81632795D01*
X181911898Y-81554774D01*
X181711939Y-81515000D01*
X181519511Y-81515000D01*
X181375767Y-81246073D01*
X181034610Y-81059997D01*
X179544606Y-82550000D01*
X179185396Y-82550000D01*
X177695392Y-81059997D01*
X177354235Y-81246073D01*
X177138488Y-81663409D01*
X177008305Y-82114815D01*
X176968688Y-82582946D01*
X173855001Y-82582946D01*
X173855001Y-82329872D01*
X173769111Y-81898075D01*
X173600632Y-81491331D01*
X173356039Y-81125271D01*
X173111159Y-80880391D01*
X177874998Y-80880391D01*
X179365001Y-82370395D01*
X180855004Y-80880391D01*
X180668928Y-80539234D01*
X180251592Y-80323487D01*
X179800186Y-80193304D01*
X179332055Y-80153687D01*
X178865190Y-80206158D01*
X178417533Y-80348703D01*
X178061074Y-80539234D01*
X177874998Y-80880391D01*
X173111159Y-80880391D01*
X173044730Y-80813962D01*
X172678670Y-80569369D01*
X172271926Y-80400890D01*
X171840129Y-80315000D01*
X171399873Y-80315000D01*
X170968076Y-80400890D01*
X170561332Y-80569369D01*
X170195272Y-80813962D01*
X169883963Y-81125271D01*
X169639370Y-81491331D01*
X169470891Y-81898075D01*
X169385001Y-82329872D01*
X164684674Y-82329872D01*
X154233804Y-71879003D01*
X154210001Y-71849999D01*
X154094276Y-71755026D01*
X153962247Y-71684454D01*
X153818986Y-71640997D01*
X153707333Y-71630000D01*
X153707322Y-71630000D01*
X153670000Y-71626324D01*
X153632678Y-71630000D01*
X150244804Y-71630000D01*
X149385001Y-70770198D01*
X149385001Y-68791106D01*
X149636303Y-68687013D01*
X149985984Y-68453364D01*
X150152694Y-68286654D01*
X152362953Y-68286654D01*
X152518963Y-68602215D01*
X152893746Y-68793021D01*
X153298552Y-68907045D01*
X153717825Y-68939903D01*
X154135452Y-68890335D01*
X154535384Y-68760244D01*
X154831039Y-68602215D01*
X154987049Y-68286654D01*
X153675001Y-66974606D01*
X152362953Y-68286654D01*
X150152694Y-68286654D01*
X150283364Y-68155984D01*
X150517013Y-67806303D01*
X150677954Y-67417757D01*
X150760001Y-67005280D01*
X150760001Y-66837825D01*
X151530099Y-66837825D01*
X151579667Y-67255452D01*
X151709758Y-67655384D01*
X151867787Y-67951039D01*
X152183348Y-68107049D01*
X153495396Y-66795001D01*
X153854606Y-66795001D01*
X155166654Y-68107049D01*
X155482215Y-67951039D01*
X155673021Y-67576256D01*
X155787045Y-67171450D01*
X155819903Y-66752177D01*
X155796468Y-66554722D01*
X156615000Y-66554722D01*
X156615000Y-66975280D01*
X156697047Y-67387757D01*
X156857988Y-67776303D01*
X157091637Y-68125984D01*
X157389017Y-68423364D01*
X157738698Y-68657013D01*
X157990001Y-68761106D01*
X157990001Y-69812668D01*
X157986324Y-69850000D01*
X158000998Y-69998985D01*
X158044454Y-70142246D01*
X158115026Y-70274276D01*
X158117308Y-70277056D01*
X158210000Y-70390001D01*
X158238998Y-70413799D01*
X161525000Y-73699802D01*
X161525000Y-73761939D01*
X161564774Y-73961898D01*
X161642795Y-74150256D01*
X161756063Y-74319774D01*
X161900226Y-74463937D01*
X162069744Y-74577205D01*
X162258102Y-74655226D01*
X162458061Y-74695000D01*
X162661939Y-74695000D01*
X162861898Y-74655226D01*
X163050256Y-74577205D01*
X163219774Y-74463937D01*
X163363937Y-74319774D01*
X163477205Y-74150256D01*
X163555226Y-73961898D01*
X163595000Y-73761939D01*
X163595000Y-73558061D01*
X163561961Y-73391961D01*
X163728061Y-73425000D01*
X163931939Y-73425000D01*
X164131898Y-73385226D01*
X164320256Y-73307205D01*
X164489774Y-73193937D01*
X164633937Y-73049774D01*
X164747205Y-72880256D01*
X164825226Y-72691898D01*
X164865000Y-72491939D01*
X164865000Y-72288061D01*
X164825226Y-72088102D01*
X164747205Y-71899744D01*
X164633937Y-71730226D01*
X164625001Y-71721290D01*
X164625001Y-71280881D01*
X176548724Y-71280881D01*
X176908912Y-71770548D01*
X177572882Y-72130849D01*
X178294385Y-72354694D01*
X179045695Y-72433480D01*
X179797938Y-72364178D01*
X180522208Y-72149452D01*
X181190670Y-71797555D01*
X181231088Y-71770548D01*
X181591276Y-71280881D01*
X179070000Y-68759605D01*
X176548724Y-71280881D01*
X164625001Y-71280881D01*
X164625001Y-68761106D01*
X164876303Y-68657013D01*
X165027936Y-68555695D01*
X175216520Y-68555695D01*
X175285822Y-69307938D01*
X175500548Y-70032208D01*
X175852445Y-70700670D01*
X175879452Y-70741088D01*
X176369119Y-71101276D01*
X178890395Y-68580000D01*
X179249605Y-68580000D01*
X181770881Y-71101276D01*
X182260548Y-70741088D01*
X182620849Y-70077118D01*
X182844694Y-69355615D01*
X182923480Y-68604305D01*
X182854178Y-67852062D01*
X182639452Y-67127792D01*
X182287555Y-66459330D01*
X182260548Y-66418912D01*
X181770881Y-66058724D01*
X179249605Y-68580000D01*
X178890395Y-68580000D01*
X176369119Y-66058724D01*
X175879452Y-66418912D01*
X175519151Y-67082882D01*
X175295306Y-67804385D01*
X175216520Y-68555695D01*
X165027936Y-68555695D01*
X165225984Y-68423364D01*
X165523364Y-68125984D01*
X165757013Y-67776303D01*
X165917954Y-67387757D01*
X166000001Y-66975280D01*
X166000001Y-66554722D01*
X165917954Y-66142245D01*
X165808964Y-65879119D01*
X176548724Y-65879119D01*
X179070000Y-68400395D01*
X181591276Y-65879119D01*
X181231088Y-65389452D01*
X180567118Y-65029151D01*
X179845615Y-64805306D01*
X179094305Y-64726520D01*
X178342062Y-64795822D01*
X177617792Y-65010548D01*
X176949330Y-65362445D01*
X176908912Y-65389452D01*
X176548724Y-65879119D01*
X165808964Y-65879119D01*
X165757013Y-65753699D01*
X165523364Y-65404018D01*
X165225984Y-65106638D01*
X164876303Y-64872989D01*
X164487757Y-64712048D01*
X164075280Y-64630001D01*
X163654722Y-64630001D01*
X163242245Y-64712048D01*
X162853699Y-64872989D01*
X162504018Y-65106638D01*
X162206638Y-65404018D01*
X161972989Y-65753699D01*
X161812048Y-66142245D01*
X161730001Y-66554722D01*
X161730001Y-66975280D01*
X161812048Y-67387757D01*
X161972989Y-67776303D01*
X162206638Y-68125984D01*
X162504018Y-68423364D01*
X162853699Y-68657013D01*
X163105001Y-68761106D01*
X163105002Y-71651287D01*
X163026063Y-71730226D01*
X162912795Y-71899744D01*
X162834774Y-72088102D01*
X162795000Y-72288061D01*
X162795000Y-72491939D01*
X162828039Y-72658039D01*
X162661939Y-72625000D01*
X162599802Y-72625000D01*
X159510000Y-69535199D01*
X159510000Y-68761106D01*
X159761302Y-68657013D01*
X160110983Y-68423364D01*
X160408363Y-68125984D01*
X160642012Y-67776303D01*
X160802953Y-67387757D01*
X160885000Y-66975280D01*
X160885000Y-66554722D01*
X160802953Y-66142245D01*
X160642012Y-65753699D01*
X160408363Y-65404018D01*
X160110983Y-65106638D01*
X159761302Y-64872989D01*
X159372756Y-64712048D01*
X158960279Y-64630001D01*
X158539721Y-64630001D01*
X158127244Y-64712048D01*
X157738698Y-64872989D01*
X157389017Y-65106638D01*
X157091637Y-65404018D01*
X156857988Y-65753699D01*
X156697047Y-66142245D01*
X156615000Y-66554722D01*
X155796468Y-66554722D01*
X155770335Y-66334550D01*
X155640244Y-65934618D01*
X155482215Y-65638963D01*
X155166654Y-65482953D01*
X153854606Y-66795001D01*
X153495396Y-66795001D01*
X152183348Y-65482953D01*
X151867787Y-65638963D01*
X151676981Y-66013746D01*
X151562957Y-66418552D01*
X151530099Y-66837825D01*
X150760001Y-66837825D01*
X150760001Y-66584722D01*
X150677954Y-66172245D01*
X150517013Y-65783699D01*
X150283364Y-65434018D01*
X150152694Y-65303348D01*
X152362953Y-65303348D01*
X153675001Y-66615396D01*
X154987049Y-65303348D01*
X154831039Y-64987787D01*
X154456256Y-64796981D01*
X154051450Y-64682957D01*
X153632177Y-64650099D01*
X153214550Y-64699667D01*
X152814618Y-64829758D01*
X152518963Y-64987787D01*
X152362953Y-65303348D01*
X150152694Y-65303348D01*
X149985984Y-65136638D01*
X149636303Y-64902989D01*
X149247757Y-64742048D01*
X148835280Y-64660001D01*
X148414722Y-64660001D01*
X148002245Y-64742048D01*
X147613699Y-64902989D01*
X147264018Y-65136638D01*
X146966638Y-65434018D01*
X146732989Y-65783699D01*
X146572048Y-66172245D01*
X146490001Y-66584722D01*
X146490001Y-67005280D01*
X146572048Y-67417757D01*
X146732989Y-67806303D01*
X146966638Y-68155984D01*
X147264018Y-68453364D01*
X147613699Y-68687013D01*
X147865001Y-68791106D01*
X147865002Y-71047667D01*
X147861325Y-71084999D01*
X147875999Y-71233984D01*
X147919455Y-71377245D01*
X147990027Y-71509275D01*
X148053046Y-71586063D01*
X148085001Y-71625000D01*
X148113999Y-71648798D01*
X149366202Y-72901002D01*
X149390001Y-72930001D01*
X149418999Y-72953799D01*
X149505725Y-73024974D01*
X149637755Y-73095546D01*
X149781016Y-73139003D01*
X149892669Y-73150000D01*
X149892678Y-73150000D01*
X149930001Y-73153676D01*
X149967324Y-73150000D01*
X153355199Y-73150000D01*
X165610001Y-85404803D01*
X165610000Y-92794970D01*
X165479538Y-92902038D01*
X165409167Y-92987785D01*
X165401898Y-92984774D01*
X165201939Y-92945000D01*
X164998061Y-92945000D01*
X164798102Y-92984774D01*
X164609744Y-93062795D01*
X164440226Y-93176063D01*
X164296063Y-93320226D01*
X164182795Y-93489744D01*
X164104774Y-93678102D01*
X164065000Y-93878061D01*
X164065000Y-93957367D01*
X163956536Y-93946685D01*
X163832054Y-93958945D01*
X163712356Y-93995255D01*
X163602042Y-94054220D01*
X163505351Y-94133572D01*
X162560000Y-95078923D01*
X161614649Y-94133572D01*
X161517958Y-94054220D01*
X161407644Y-93995255D01*
X161287946Y-93958945D01*
X161163464Y-93946685D01*
X161038982Y-93958945D01*
X160919284Y-93995255D01*
X160808970Y-94054220D01*
X160712279Y-94133572D01*
X160489540Y-94356311D01*
X158332231Y-92199003D01*
X158308428Y-92169999D01*
X158192703Y-92075026D01*
X158060674Y-92004454D01*
X157917413Y-91960997D01*
X157805760Y-91950000D01*
X157805749Y-91950000D01*
X157768427Y-91946324D01*
X157731105Y-91950000D01*
X147357325Y-91950000D01*
X147320000Y-91946324D01*
X147282675Y-91950000D01*
X147282667Y-91950000D01*
X147171014Y-91960997D01*
X147027753Y-92004454D01*
X146895724Y-92075026D01*
X146779999Y-92169999D01*
X146756201Y-92198997D01*
X143195199Y-95760000D01*
X142943711Y-95760000D01*
X142899774Y-95716063D01*
X142730256Y-95602795D01*
X142541898Y-95524774D01*
X142341939Y-95485000D01*
X142138061Y-95485000D01*
X141938102Y-95524774D01*
X141749744Y-95602795D01*
X141580226Y-95716063D01*
X141436063Y-95860226D01*
X141322795Y-96029744D01*
X141244774Y-96218102D01*
X141205000Y-96418061D01*
X141205000Y-96621939D01*
X141244774Y-96821898D01*
X141322795Y-97010256D01*
X141436063Y-97179774D01*
X141580226Y-97323937D01*
X141749744Y-97437205D01*
X141938102Y-97515226D01*
X142138061Y-97555000D01*
X142341939Y-97555000D01*
X142541898Y-97515226D01*
X142730256Y-97437205D01*
X142899774Y-97323937D01*
X142943711Y-97280000D01*
X143472678Y-97280000D01*
X143510000Y-97283676D01*
X143547322Y-97280000D01*
X143547333Y-97280000D01*
X143658986Y-97269003D01*
X143802247Y-97225546D01*
X143804151Y-97224528D01*
X144692142Y-97224528D01*
X144692142Y-97449034D01*
X145451751Y-98208644D01*
X146052261Y-97608133D01*
X146052261Y-97383627D01*
X145969911Y-97300116D01*
X146719490Y-97300116D01*
X146719490Y-97524622D01*
X147027914Y-97837391D01*
X147124605Y-97916744D01*
X147234919Y-97975708D01*
X147354618Y-98012017D01*
X147479099Y-98024278D01*
X147603580Y-98012017D01*
X147723279Y-97975708D01*
X147833593Y-97916744D01*
X147930284Y-97837391D01*
X148079609Y-97683721D01*
X148079609Y-97459215D01*
X147320000Y-96699605D01*
X146719490Y-97300116D01*
X145969911Y-97300116D01*
X145743837Y-97070858D01*
X145647146Y-96991505D01*
X145536832Y-96932541D01*
X145417133Y-96896232D01*
X145292652Y-96883971D01*
X145168171Y-96896232D01*
X145048472Y-96932541D01*
X144938158Y-96991505D01*
X144841467Y-97070858D01*
X144692142Y-97224528D01*
X143804151Y-97224528D01*
X143934276Y-97154974D01*
X144050001Y-97060001D01*
X144073804Y-97030997D01*
X144743900Y-96360901D01*
X145815722Y-96360901D01*
X145827983Y-96485382D01*
X145864292Y-96605081D01*
X145923256Y-96715395D01*
X146002609Y-96812086D01*
X146315378Y-97120510D01*
X146539884Y-97120510D01*
X147140395Y-96520000D01*
X146380785Y-95760391D01*
X146156279Y-95760391D01*
X146002609Y-95909716D01*
X145923256Y-96006407D01*
X145864292Y-96116721D01*
X145827983Y-96236420D01*
X145815722Y-96360901D01*
X144743900Y-96360901D01*
X147634802Y-93470000D01*
X154403416Y-93470000D01*
X153436605Y-94436811D01*
X153405892Y-94427495D01*
X153294239Y-94416498D01*
X153294228Y-94416498D01*
X153256906Y-94412822D01*
X153219584Y-94416498D01*
X149512979Y-94416498D01*
X149132365Y-94035884D01*
X148997789Y-93925441D01*
X148844253Y-93843374D01*
X148677657Y-93792838D01*
X148504403Y-93775774D01*
X148331149Y-93792838D01*
X148164553Y-93843374D01*
X148011017Y-93925441D01*
X147876441Y-94035884D01*
X147522888Y-94389437D01*
X147412445Y-94524013D01*
X147330378Y-94677549D01*
X147279842Y-94844145D01*
X147262778Y-95017399D01*
X147263609Y-95025838D01*
X147160901Y-95015722D01*
X147036420Y-95027983D01*
X146916721Y-95064292D01*
X146806407Y-95123256D01*
X146709716Y-95202609D01*
X146560391Y-95356279D01*
X146560391Y-95580785D01*
X147320000Y-96340395D01*
X147334143Y-96326253D01*
X147513748Y-96505858D01*
X147499605Y-96520000D01*
X148259215Y-97279609D01*
X148483721Y-97279609D01*
X148637391Y-97130284D01*
X148716744Y-97033593D01*
X148775708Y-96923279D01*
X148812017Y-96803580D01*
X148824278Y-96679099D01*
X148814162Y-96576391D01*
X148822601Y-96577222D01*
X148995855Y-96560158D01*
X149162451Y-96509622D01*
X149315987Y-96427555D01*
X149450563Y-96317112D01*
X149804116Y-95963559D01*
X149826324Y-95936498D01*
X151936918Y-95936498D01*
X151385922Y-96487494D01*
X151306570Y-96584185D01*
X151247605Y-96694499D01*
X151211295Y-96814197D01*
X151199035Y-96938679D01*
X151211295Y-97063161D01*
X151247605Y-97182859D01*
X151306570Y-97293173D01*
X151385922Y-97389864D01*
X152540753Y-98544695D01*
X150922627Y-98544695D01*
X150885304Y-98541019D01*
X150847981Y-98544695D01*
X150847972Y-98544695D01*
X150736319Y-98555692D01*
X150593058Y-98599149D01*
X150461029Y-98669721D01*
X150345304Y-98764694D01*
X150321506Y-98793692D01*
X149629570Y-99485628D01*
X149459864Y-99315922D01*
X149363173Y-99236570D01*
X149252859Y-99177605D01*
X149133161Y-99141295D01*
X149008679Y-99129035D01*
X148884197Y-99141295D01*
X148764499Y-99177605D01*
X148654185Y-99236570D01*
X148557494Y-99315922D01*
X147503905Y-100369511D01*
X146448862Y-99314468D01*
X146503220Y-99260110D01*
X146390968Y-99147858D01*
X146615472Y-99147858D01*
X146769142Y-98998533D01*
X146848495Y-98901842D01*
X146907459Y-98791528D01*
X146943768Y-98671829D01*
X146956029Y-98547348D01*
X146943768Y-98422867D01*
X146907459Y-98303168D01*
X146848495Y-98192854D01*
X146769142Y-98096163D01*
X146456373Y-97787739D01*
X146231867Y-97787739D01*
X145631356Y-98388249D01*
X145645499Y-98402391D01*
X145465893Y-98581997D01*
X145451751Y-98567854D01*
X145437609Y-98581997D01*
X145258004Y-98402392D01*
X145272146Y-98388249D01*
X144512536Y-97628640D01*
X144288030Y-97628640D01*
X144134360Y-97777965D01*
X144055007Y-97874656D01*
X143996043Y-97984970D01*
X143959734Y-98104669D01*
X143947473Y-98229150D01*
X143957589Y-98331858D01*
X143949150Y-98331027D01*
X143775896Y-98348091D01*
X143609300Y-98398627D01*
X143455764Y-98480694D01*
X143321188Y-98591137D01*
X142967635Y-98944690D01*
X142857192Y-99079266D01*
X142775125Y-99232802D01*
X142724589Y-99399398D01*
X142707525Y-99572652D01*
X142724589Y-99745906D01*
X142775125Y-99912502D01*
X142857192Y-100066038D01*
X142967635Y-100200614D01*
X143639386Y-100872365D01*
X143773962Y-100982808D01*
X143927498Y-101064875D01*
X144094094Y-101115411D01*
X144267348Y-101132475D01*
X144440602Y-101115411D01*
X144607198Y-101064875D01*
X144760734Y-100982808D01*
X144895310Y-100872365D01*
X145248863Y-100518812D01*
X145271071Y-100491751D01*
X145476542Y-100491751D01*
X146429103Y-101444313D01*
X145375514Y-102497902D01*
X145296162Y-102594593D01*
X145237197Y-102704907D01*
X145200887Y-102824605D01*
X145188627Y-102949087D01*
X145200887Y-103073569D01*
X145237197Y-103193267D01*
X145296162Y-103303581D01*
X145375514Y-103400272D01*
X146789728Y-104814486D01*
X146886419Y-104893838D01*
X146996733Y-104952803D01*
X147116431Y-104989113D01*
X147240913Y-105001373D01*
X147365395Y-104989113D01*
X147485093Y-104952803D01*
X147595407Y-104893838D01*
X147692098Y-104814486D01*
X150874078Y-101632506D01*
X150953430Y-101535815D01*
X151012395Y-101425501D01*
X151048705Y-101305803D01*
X151060965Y-101181321D01*
X151048705Y-101056839D01*
X151012395Y-100937141D01*
X150953430Y-100826827D01*
X150874078Y-100730136D01*
X150704372Y-100560430D01*
X151200107Y-100064695D01*
X157043618Y-100064695D01*
X157308923Y-100330000D01*
X156363572Y-101275351D01*
X156284220Y-101372042D01*
X156225255Y-101482356D01*
X156188945Y-101602054D01*
X156181909Y-101673491D01*
X155745401Y-102110000D01*
X155674527Y-102110000D01*
X155665472Y-102080149D01*
X155583405Y-101926613D01*
X155472962Y-101792038D01*
X155338387Y-101681595D01*
X155184851Y-101599528D01*
X155018255Y-101548992D01*
X154845001Y-101531928D01*
X154319999Y-101531928D01*
X154146745Y-101548992D01*
X153980149Y-101599528D01*
X153826613Y-101681595D01*
X153692038Y-101792038D01*
X153670000Y-101818891D01*
X153647962Y-101792038D01*
X153513387Y-101681595D01*
X153359851Y-101599528D01*
X153193255Y-101548992D01*
X153020001Y-101531928D01*
X152494999Y-101531928D01*
X152321745Y-101548992D01*
X152155149Y-101599528D01*
X152001613Y-101681595D01*
X151867038Y-101792038D01*
X151756595Y-101926613D01*
X151674528Y-102080149D01*
X151623992Y-102246745D01*
X151606928Y-102419999D01*
X151606928Y-102945770D01*
X151172699Y-103380000D01*
X151167322Y-103380000D01*
X151129999Y-103376324D01*
X151092676Y-103380000D01*
X151092667Y-103380000D01*
X150981014Y-103390997D01*
X150837753Y-103434454D01*
X150705724Y-103505026D01*
X150705722Y-103505027D01*
X150705723Y-103505027D01*
X150618996Y-103576201D01*
X150618992Y-103576205D01*
X150589999Y-103599999D01*
X150566205Y-103628992D01*
X148275199Y-105920000D01*
X148023711Y-105920000D01*
X147979774Y-105876063D01*
X147810256Y-105762795D01*
X147621898Y-105684774D01*
X147421939Y-105645000D01*
X147218061Y-105645000D01*
X147018102Y-105684774D01*
X146829744Y-105762795D01*
X146660226Y-105876063D01*
X146516063Y-106020226D01*
X146427662Y-106152528D01*
X143016998Y-102741865D01*
X142981451Y-102698551D01*
X142808625Y-102556716D01*
X142611449Y-102451324D01*
X142397501Y-102386423D01*
X142230754Y-102370000D01*
X142230753Y-102370000D01*
X142175002Y-102364509D01*
X142119251Y-102370000D01*
X141370132Y-102370000D01*
X140835000Y-101834869D01*
X140835000Y-95305741D01*
X140840490Y-95249999D01*
X140835000Y-95194257D01*
X140835000Y-95194248D01*
X140818577Y-95027501D01*
X140753676Y-94813553D01*
X140648284Y-94616377D01*
X140506449Y-94443551D01*
X140463141Y-94408009D01*
X138001996Y-91946865D01*
X137966449Y-91903551D01*
X137793623Y-91761716D01*
X137596447Y-91656324D01*
X137382499Y-91591423D01*
X137215752Y-91575000D01*
X137215751Y-91575000D01*
X137160000Y-91569509D01*
X137104249Y-91575000D01*
X130295739Y-91575000D01*
X130239997Y-91569510D01*
X130184255Y-91575000D01*
X130184246Y-91575000D01*
X130017499Y-91591423D01*
X129803551Y-91656324D01*
X129606375Y-91761716D01*
X129433549Y-91903551D01*
X129398006Y-91946860D01*
X128141860Y-93203007D01*
X128098552Y-93238549D01*
X127956717Y-93411375D01*
X127851324Y-93608551D01*
X127786423Y-93822499D01*
X127776284Y-93925441D01*
X127764509Y-94044998D01*
X127770000Y-94100749D01*
X127770000Y-94564990D01*
X127068072Y-94564990D01*
X127068072Y-94074999D01*
X127051008Y-93901745D01*
X127000472Y-93735149D01*
X126918405Y-93581613D01*
X126807962Y-93447038D01*
X126673387Y-93336595D01*
X126519851Y-93254528D01*
X126353255Y-93203992D01*
X126180001Y-93186928D01*
X125279999Y-93186928D01*
X125106745Y-93203992D01*
X124940149Y-93254528D01*
X124786613Y-93336595D01*
X124652038Y-93447038D01*
X124544970Y-93577500D01*
X123108362Y-93577500D01*
X122999792Y-93445208D01*
X122866164Y-93335542D01*
X122713709Y-93254053D01*
X122548285Y-93203872D01*
X122376250Y-93186928D01*
X121463750Y-93186928D01*
X121291715Y-93203872D01*
X121126291Y-93254053D01*
X120973836Y-93335542D01*
X120840208Y-93445208D01*
X120730542Y-93578836D01*
X120649053Y-93731291D01*
X120598872Y-93896715D01*
X120581928Y-94068750D01*
X120581928Y-94556250D01*
X120598872Y-94728285D01*
X120649053Y-94893709D01*
X120730542Y-95046164D01*
X120840208Y-95179792D01*
X120925756Y-95250000D01*
X120840208Y-95320208D01*
X120730542Y-95453836D01*
X120649053Y-95606291D01*
X120598872Y-95771715D01*
X120581928Y-95943750D01*
X120581928Y-96431250D01*
X120583678Y-96449021D01*
X120383988Y-96648711D01*
X120354990Y-96672509D01*
X120331192Y-96701507D01*
X120331191Y-96701508D01*
X120260016Y-96788234D01*
X120189444Y-96920264D01*
X120167834Y-96991505D01*
X120145988Y-97063524D01*
X120136047Y-97164454D01*
X120131314Y-97212510D01*
X120134991Y-97249842D01*
X120134990Y-100205167D01*
X120131314Y-100242490D01*
X120134990Y-100279812D01*
X120134990Y-100279822D01*
X120145987Y-100391475D01*
X120182196Y-100510843D01*
X120189444Y-100534736D01*
X120260016Y-100666766D01*
X120295223Y-100709665D01*
X120354989Y-100782491D01*
X120383992Y-100806294D01*
X120583678Y-101005979D01*
X120581928Y-101023750D01*
X120581928Y-101511250D01*
X120598872Y-101683285D01*
X120649053Y-101848709D01*
X120730542Y-102001164D01*
X120840208Y-102134792D01*
X120973836Y-102244458D01*
X121126291Y-102325947D01*
X121291715Y-102376128D01*
X121463750Y-102393072D01*
X122376250Y-102393072D01*
X122548285Y-102376128D01*
X122713709Y-102325947D01*
X122866164Y-102244458D01*
X122999792Y-102134792D01*
X123109458Y-102001164D01*
X123190947Y-101848709D01*
X123241128Y-101683285D01*
X123258072Y-101511250D01*
X123258072Y-101023750D01*
X123241128Y-100851715D01*
X123190947Y-100686291D01*
X123109458Y-100533836D01*
X122999792Y-100400208D01*
X122914244Y-100330000D01*
X122999792Y-100259792D01*
X123038603Y-100212501D01*
X124544970Y-100212501D01*
X124652038Y-100342963D01*
X124678891Y-100365001D01*
X124652038Y-100387039D01*
X124541595Y-100521614D01*
X124459528Y-100675150D01*
X124408992Y-100841746D01*
X124391928Y-101015000D01*
X124391928Y-101540002D01*
X124408992Y-101713256D01*
X124459528Y-101879852D01*
X124541595Y-102033388D01*
X124652038Y-102167963D01*
X124786613Y-102278406D01*
X124940149Y-102360473D01*
X125106745Y-102411009D01*
X125279999Y-102428073D01*
X126180001Y-102428073D01*
X126353255Y-102411009D01*
X126454605Y-102380265D01*
X125829871Y-103005000D01*
X116060751Y-103005000D01*
X116004999Y-102999509D01*
X115782500Y-103021423D01*
X115750752Y-103031054D01*
X115568553Y-103086324D01*
X115371377Y-103191716D01*
X115198551Y-103333551D01*
X115163011Y-103376857D01*
X114087940Y-104451928D01*
X108875000Y-104451928D01*
X108875000Y-99664776D01*
X108913254Y-99661008D01*
X109079850Y-99610472D01*
X109233386Y-99528405D01*
X109367962Y-99417962D01*
X109478405Y-99283386D01*
X109560472Y-99129850D01*
X109587727Y-99040000D01*
X111351928Y-99040000D01*
X111364188Y-99164482D01*
X111400498Y-99284180D01*
X111459463Y-99394494D01*
X111538815Y-99491185D01*
X111635506Y-99570537D01*
X111745820Y-99629502D01*
X111865518Y-99665812D01*
X111990000Y-99678072D01*
X113454250Y-99675000D01*
X113613000Y-99516250D01*
X113613000Y-97917000D01*
X113867000Y-97917000D01*
X113867000Y-99516250D01*
X114025750Y-99675000D01*
X115490000Y-99678072D01*
X115614482Y-99665812D01*
X115734180Y-99629502D01*
X115844494Y-99570537D01*
X115941185Y-99491185D01*
X116020537Y-99394494D01*
X116079502Y-99284180D01*
X116115812Y-99164482D01*
X116128072Y-99040000D01*
X116125000Y-98075750D01*
X115966250Y-97917000D01*
X113867000Y-97917000D01*
X113613000Y-97917000D01*
X111513750Y-97917000D01*
X111355000Y-98075750D01*
X111351928Y-99040000D01*
X109587727Y-99040000D01*
X109611008Y-98963254D01*
X109628072Y-98790000D01*
X109628072Y-96790000D01*
X109611008Y-96616746D01*
X109587728Y-96540000D01*
X111351928Y-96540000D01*
X111355000Y-97504250D01*
X111513750Y-97663000D01*
X113613000Y-97663000D01*
X113613000Y-96063750D01*
X113867000Y-96063750D01*
X113867000Y-97663000D01*
X115966250Y-97663000D01*
X116125000Y-97504250D01*
X116128072Y-96540000D01*
X116115812Y-96415518D01*
X116079502Y-96295820D01*
X116020537Y-96185506D01*
X115941185Y-96088815D01*
X115844494Y-96009463D01*
X115734180Y-95950498D01*
X115614482Y-95914188D01*
X115490000Y-95901928D01*
X114025750Y-95905000D01*
X113867000Y-96063750D01*
X113613000Y-96063750D01*
X113454250Y-95905000D01*
X111990000Y-95901928D01*
X111865518Y-95914188D01*
X111745820Y-95950498D01*
X111635506Y-96009463D01*
X111538815Y-96088815D01*
X111459463Y-96185506D01*
X111400498Y-96295820D01*
X111364188Y-96415518D01*
X111351928Y-96540000D01*
X109587728Y-96540000D01*
X109560472Y-96450150D01*
X109478405Y-96296614D01*
X109367962Y-96162038D01*
X109233386Y-96051595D01*
X109079850Y-95969528D01*
X109000001Y-95945306D01*
X109000001Y-84938072D01*
X109115001Y-84938072D01*
X109239483Y-84925812D01*
X109359181Y-84889502D01*
X109469495Y-84830537D01*
X109566186Y-84751185D01*
X109645538Y-84654494D01*
X109704503Y-84544180D01*
X109740813Y-84424482D01*
X109753073Y-84300000D01*
X109753073Y-82329872D01*
X113775001Y-82329872D01*
X113775001Y-82770128D01*
X113860891Y-83201925D01*
X114029370Y-83608669D01*
X114273963Y-83974729D01*
X114585272Y-84286038D01*
X114951332Y-84530631D01*
X115358076Y-84699110D01*
X115789873Y-84785000D01*
X116230129Y-84785000D01*
X116661926Y-84699110D01*
X117068670Y-84530631D01*
X117434730Y-84286038D01*
X117746039Y-83974729D01*
X117990632Y-83608669D01*
X118159111Y-83201925D01*
X118245001Y-82770128D01*
X118245001Y-82329872D01*
X118159111Y-81898075D01*
X117990632Y-81491331D01*
X117746039Y-81125271D01*
X117434730Y-80813962D01*
X117068670Y-80569369D01*
X116661926Y-80400890D01*
X116230129Y-80315000D01*
X115789873Y-80315000D01*
X115358076Y-80400890D01*
X114951332Y-80569369D01*
X114585272Y-80813962D01*
X114273963Y-81125271D01*
X114029370Y-81491331D01*
X113860891Y-81898075D01*
X113775001Y-82329872D01*
X109753073Y-82329872D01*
X109753073Y-80800000D01*
X109740813Y-80675518D01*
X109704503Y-80555820D01*
X109645538Y-80445506D01*
X109566186Y-80348815D01*
X109469495Y-80269463D01*
X109359181Y-80210498D01*
X109239483Y-80174188D01*
X109115001Y-80161928D01*
X105615001Y-80161928D01*
X105490519Y-80174188D01*
X105370821Y-80210498D01*
X105260507Y-80269463D01*
X105163816Y-80348815D01*
X105084464Y-80445506D01*
X105025499Y-80555820D01*
X104989189Y-80675518D01*
X104976929Y-80800000D01*
X104976929Y-84300000D01*
X104989189Y-84424482D01*
X105025499Y-84544180D01*
X105084464Y-84654494D01*
X105163816Y-84751185D01*
X105260507Y-84830537D01*
X105370821Y-84889502D01*
X105490519Y-84925812D01*
X105615001Y-84938072D01*
X105730001Y-84938072D01*
X105730002Y-95902913D01*
X105566746Y-95918992D01*
X105400150Y-95969528D01*
X105246614Y-96051595D01*
X105112038Y-96162038D01*
X105001595Y-96296614D01*
X104919528Y-96450150D01*
X104868992Y-96616746D01*
X104851928Y-96790000D01*
X104851928Y-98790000D01*
X104868992Y-98963254D01*
X104919528Y-99129850D01*
X105001595Y-99283386D01*
X105112038Y-99417962D01*
X105246614Y-99528405D01*
X105400150Y-99610472D01*
X105566746Y-99661008D01*
X105605000Y-99664776D01*
X105605001Y-104451928D01*
X104955000Y-104451928D01*
X104830518Y-104464188D01*
X104710820Y-104500498D01*
X104600506Y-104559463D01*
X104503815Y-104638815D01*
X104424463Y-104735506D01*
X104365498Y-104845820D01*
X104329188Y-104965518D01*
X104316928Y-105090000D01*
X103530000Y-105090000D01*
X103530000Y-71280881D01*
X105428724Y-71280881D01*
X105788912Y-71770548D01*
X106452882Y-72130849D01*
X107174385Y-72354694D01*
X107925695Y-72433480D01*
X108677938Y-72364178D01*
X109402208Y-72149452D01*
X110070670Y-71797555D01*
X110111088Y-71770548D01*
X110471276Y-71280881D01*
X107950000Y-68759605D01*
X105428724Y-71280881D01*
X103530000Y-71280881D01*
X103530000Y-68609392D01*
X103534792Y-68555695D01*
X104096520Y-68555695D01*
X104165822Y-69307938D01*
X104380548Y-70032208D01*
X104732445Y-70700670D01*
X104759452Y-70741088D01*
X105249119Y-71101276D01*
X107770395Y-68580000D01*
X108129605Y-68580000D01*
X110650881Y-71101276D01*
X111140548Y-70741088D01*
X111500849Y-70077118D01*
X111724694Y-69355615D01*
X111803480Y-68604305D01*
X111734178Y-67852062D01*
X111519452Y-67127792D01*
X111167555Y-66459330D01*
X111140548Y-66418912D01*
X110650881Y-66058724D01*
X108129605Y-68580000D01*
X107770395Y-68580000D01*
X105249119Y-66058724D01*
X104759452Y-66418912D01*
X104399151Y-67082882D01*
X104175306Y-67804385D01*
X104096520Y-68555695D01*
X103534792Y-68555695D01*
X103602437Y-67797751D01*
X103809672Y-67040226D01*
X104147777Y-66331375D01*
X104472755Y-65879119D01*
X105428724Y-65879119D01*
X107950000Y-68400395D01*
X110471276Y-65879119D01*
X110111088Y-65389452D01*
X109447118Y-65029151D01*
X108725615Y-64805306D01*
X107974305Y-64726520D01*
X107222062Y-64795822D01*
X106497792Y-65010548D01*
X105829330Y-65362445D01*
X105788912Y-65389452D01*
X105428724Y-65879119D01*
X104472755Y-65879119D01*
X104606067Y-65693596D01*
X105170055Y-65147054D01*
X105821913Y-64709023D01*
X106541038Y-64393349D01*
X107309768Y-64208794D01*
X107974207Y-64160000D01*
X179040608Y-64160000D01*
X179852249Y-64232437D01*
%TA.AperFunction,Conductor*%
D35*
G36*
X179852249Y-64232437D02*
G01*
X180609774Y-64439672D01*
X181318625Y-64777777D01*
X181956404Y-65236067D01*
X182502946Y-65800055D01*
X182940977Y-66451913D01*
X183256651Y-67171038D01*
X183441206Y-67939768D01*
X183490000Y-68604207D01*
X183490001Y-120620597D01*
X183417563Y-121432249D01*
X183210328Y-122189774D01*
X182872221Y-122898627D01*
X182413928Y-123536410D01*
X181849945Y-124082946D01*
X181198085Y-124520978D01*
X180478963Y-124836651D01*
X179710232Y-125021206D01*
X179045792Y-125070000D01*
X107979392Y-125070000D01*
X107167751Y-124997563D01*
X106410226Y-124790328D01*
X105701373Y-124452221D01*
X105063590Y-123993928D01*
X104517054Y-123429945D01*
X104463926Y-123350881D01*
X105428724Y-123350881D01*
X105788912Y-123840548D01*
X106452882Y-124200849D01*
X107174385Y-124424694D01*
X107925695Y-124503480D01*
X108677938Y-124434178D01*
X109402208Y-124219452D01*
X110070670Y-123867555D01*
X110111088Y-123840548D01*
X110471276Y-123350881D01*
X176688724Y-123350881D01*
X177048912Y-123840548D01*
X177712882Y-124200849D01*
X178434385Y-124424694D01*
X179185695Y-124503480D01*
X179937938Y-124434178D01*
X180662208Y-124219452D01*
X181330670Y-123867555D01*
X181371088Y-123840548D01*
X181731276Y-123350881D01*
X179210000Y-120829605D01*
X176688724Y-123350881D01*
X110471276Y-123350881D01*
X107950000Y-120829605D01*
X105428724Y-123350881D01*
X104463926Y-123350881D01*
X104079022Y-122778085D01*
X103763349Y-122058963D01*
X103578794Y-121290232D01*
X103530000Y-120625792D01*
X103530000Y-120625695D01*
X104096520Y-120625695D01*
X104165822Y-121377938D01*
X104380548Y-122102208D01*
X104732445Y-122770670D01*
X104759452Y-122811088D01*
X105249119Y-123171276D01*
X107770395Y-120650000D01*
X108129605Y-120650000D01*
X110650881Y-123171276D01*
X111140548Y-122811088D01*
X111244241Y-122620000D01*
X112236928Y-122620000D01*
X112249188Y-122744482D01*
X112285498Y-122864180D01*
X112344463Y-122974494D01*
X112423815Y-123071185D01*
X112520506Y-123150537D01*
X112630820Y-123209502D01*
X112750518Y-123245812D01*
X112875000Y-123258072D01*
X113101750Y-123255000D01*
X113260500Y-123096250D01*
X113260500Y-122047000D01*
X112398750Y-122047000D01*
X112240000Y-122205750D01*
X112236928Y-122620000D01*
X111244241Y-122620000D01*
X111500849Y-122147118D01*
X111724694Y-121425615D01*
X111746255Y-121220000D01*
X112236928Y-121220000D01*
X112240000Y-121634250D01*
X112398750Y-121793000D01*
X113260500Y-121793000D01*
X113260500Y-120743750D01*
X113514500Y-120743750D01*
X113514500Y-121793000D01*
X113534500Y-121793000D01*
X113534500Y-122047000D01*
X113514500Y-122047000D01*
X113514500Y-123096250D01*
X113673250Y-123255000D01*
X113900000Y-123258072D01*
X114024482Y-123245812D01*
X114144180Y-123209502D01*
X114254494Y-123150537D01*
X114351185Y-123071185D01*
X114375363Y-123041724D01*
X114456613Y-123108405D01*
X114610149Y-123190472D01*
X114776745Y-123241008D01*
X114949999Y-123258072D01*
X115475001Y-123258072D01*
X115648255Y-123241008D01*
X115814851Y-123190472D01*
X115968387Y-123108405D01*
X116102962Y-122997962D01*
X116213405Y-122863387D01*
X116295472Y-122709851D01*
X116346008Y-122543255D01*
X116363072Y-122370001D01*
X116363072Y-121844229D01*
X117683503Y-120523799D01*
X117712501Y-120500001D01*
X117807474Y-120384276D01*
X117878046Y-120252247D01*
X117921503Y-120108986D01*
X117932500Y-119997333D01*
X117936177Y-119960000D01*
X117932500Y-119922667D01*
X117932500Y-119277845D01*
X118039792Y-119189792D01*
X118110000Y-119104244D01*
X118180208Y-119189792D01*
X118313836Y-119299458D01*
X118466291Y-119380947D01*
X118631715Y-119431128D01*
X118803750Y-119448072D01*
X119291250Y-119448072D01*
X119463285Y-119431128D01*
X119628709Y-119380947D01*
X119781164Y-119299458D01*
X119914792Y-119189792D01*
X120024458Y-119056164D01*
X120105947Y-118903709D01*
X120156128Y-118738285D01*
X120173072Y-118566250D01*
X120173072Y-118391729D01*
X120689802Y-117875000D01*
X120751939Y-117875000D01*
X120951898Y-117835226D01*
X121140256Y-117757205D01*
X121309774Y-117643937D01*
X121453937Y-117499774D01*
X121567205Y-117330256D01*
X121645226Y-117141898D01*
X121685000Y-116941939D01*
X121685000Y-116738061D01*
X121645226Y-116538102D01*
X121567205Y-116349744D01*
X121453937Y-116180226D01*
X121309774Y-116036063D01*
X121140256Y-115922795D01*
X120951898Y-115844774D01*
X120751939Y-115805000D01*
X120548061Y-115805000D01*
X120348102Y-115844774D01*
X120159744Y-115922795D01*
X119990226Y-116036063D01*
X119846063Y-116180226D01*
X119732795Y-116349744D01*
X119654774Y-116538102D01*
X119615000Y-116738061D01*
X119615000Y-116800198D01*
X119588379Y-116826819D01*
X119463285Y-116788872D01*
X119291250Y-116771928D01*
X118803750Y-116771928D01*
X118631715Y-116788872D01*
X118466291Y-116839053D01*
X118313836Y-116920542D01*
X118180208Y-117030208D01*
X118110000Y-117115756D01*
X118039792Y-117030208D01*
X117906164Y-116920542D01*
X117753709Y-116839053D01*
X117588285Y-116788872D01*
X117416250Y-116771928D01*
X116928750Y-116771928D01*
X116756715Y-116788872D01*
X116591291Y-116839053D01*
X116438836Y-116920542D01*
X116305208Y-117030208D01*
X116290171Y-117048530D01*
X116280537Y-117030506D01*
X116201185Y-116933815D01*
X116104494Y-116854463D01*
X115994180Y-116795498D01*
X115874482Y-116759188D01*
X115750000Y-116746928D01*
X115535750Y-116750000D01*
X115377000Y-116908750D01*
X115377000Y-117983000D01*
X115397000Y-117983000D01*
X115397000Y-118237000D01*
X115377000Y-118237000D01*
X115377000Y-119311250D01*
X115535750Y-119470000D01*
X115750000Y-119473072D01*
X115874482Y-119460812D01*
X115994180Y-119424502D01*
X116104494Y-119365537D01*
X116201185Y-119286185D01*
X116280537Y-119189494D01*
X116290171Y-119171470D01*
X116305208Y-119189792D01*
X116412501Y-119277845D01*
X116412501Y-119645197D01*
X115475702Y-120581997D01*
X115475001Y-120581928D01*
X114949999Y-120581928D01*
X114776745Y-120598992D01*
X114610149Y-120649528D01*
X114456613Y-120731595D01*
X114375363Y-120798276D01*
X114351185Y-120768815D01*
X114254494Y-120689463D01*
X114144180Y-120630498D01*
X114024482Y-120594188D01*
X113900000Y-120581928D01*
X113673250Y-120585000D01*
X113514500Y-120743750D01*
X113260500Y-120743750D01*
X113101750Y-120585000D01*
X112875000Y-120581928D01*
X112750518Y-120594188D01*
X112630820Y-120630498D01*
X112520506Y-120689463D01*
X112423815Y-120768815D01*
X112344463Y-120865506D01*
X112285498Y-120975820D01*
X112249188Y-121095518D01*
X112236928Y-121220000D01*
X111746255Y-121220000D01*
X111803480Y-120674305D01*
X111734178Y-119922062D01*
X111519452Y-119197792D01*
X111167555Y-118529330D01*
X111140548Y-118488912D01*
X110650881Y-118128724D01*
X108129605Y-120650000D01*
X107770395Y-120650000D01*
X105249119Y-118128724D01*
X104759452Y-118488912D01*
X104399151Y-119152882D01*
X104175306Y-119874385D01*
X104096520Y-120625695D01*
X103530000Y-120625695D01*
X103530000Y-117949119D01*
X105428724Y-117949119D01*
X107950000Y-120470395D01*
X110471276Y-117949119D01*
X110111088Y-117459452D01*
X109447118Y-117099151D01*
X108725615Y-116875306D01*
X107974305Y-116796520D01*
X107222062Y-116865822D01*
X106497792Y-117080548D01*
X105829330Y-117432445D01*
X105788912Y-117459452D01*
X105428724Y-117949119D01*
X103530000Y-117949119D01*
X103530000Y-105090000D01*
X104316928Y-105090000D01*
X104316928Y-115890000D01*
X104329188Y-116014482D01*
X104365498Y-116134180D01*
X104424463Y-116244494D01*
X104503815Y-116341185D01*
X104600506Y-116420537D01*
X104710820Y-116479502D01*
X104830518Y-116515812D01*
X104955000Y-116528072D01*
X112215000Y-116528072D01*
X112215000Y-117603808D01*
X112211928Y-117635000D01*
X112211928Y-118585000D01*
X112228992Y-118758254D01*
X112279528Y-118924850D01*
X112361595Y-119078386D01*
X112472038Y-119212962D01*
X112606614Y-119323405D01*
X112760150Y-119405472D01*
X112926746Y-119456008D01*
X113100000Y-119473072D01*
X113600000Y-119473072D01*
X113773254Y-119456008D01*
X113939850Y-119405472D01*
X114093386Y-119323405D01*
X114227962Y-119212962D01*
X114233342Y-119206406D01*
X114298815Y-119286185D01*
X114395506Y-119365537D01*
X114505820Y-119424502D01*
X114625518Y-119460812D01*
X114750000Y-119473072D01*
X114964250Y-119470000D01*
X115123000Y-119311250D01*
X115123000Y-118237000D01*
X115103000Y-118237000D01*
X115103000Y-117983000D01*
X115123000Y-117983000D01*
X115123000Y-116908750D01*
X114964250Y-116750000D01*
X114750000Y-116746928D01*
X114625518Y-116759188D01*
X114505820Y-116795498D01*
X114485000Y-116806627D01*
X114485000Y-116514138D01*
X114599180Y-116479502D01*
X114709494Y-116420537D01*
X114806185Y-116341185D01*
X114885537Y-116244494D01*
X114944502Y-116134180D01*
X114980812Y-116014482D01*
X114993072Y-115890000D01*
X114993072Y-110290004D01*
X115006201Y-110306002D01*
X115030000Y-110335001D01*
X115058998Y-110358799D01*
X116041497Y-111341299D01*
X116041502Y-111341303D01*
X116542127Y-111841928D01*
X116505000Y-111841928D01*
X116380518Y-111854188D01*
X116260820Y-111890498D01*
X116150506Y-111949463D01*
X116053815Y-112028815D01*
X115974463Y-112125506D01*
X115915498Y-112235820D01*
X115879188Y-112355518D01*
X115866928Y-112480000D01*
X115866928Y-113580000D01*
X115879188Y-113704482D01*
X115915498Y-113824180D01*
X115974463Y-113934494D01*
X116053815Y-114031185D01*
X116150506Y-114110537D01*
X116260820Y-114169502D01*
X116380518Y-114205812D01*
X116505000Y-114218072D01*
X121105000Y-114218072D01*
X121229482Y-114205812D01*
X121349180Y-114169502D01*
X121459494Y-114110537D01*
X121556185Y-114031185D01*
X121635537Y-113934494D01*
X121694502Y-113824180D01*
X121730812Y-113704482D01*
X121743072Y-113580000D01*
X121743072Y-113200311D01*
X124095000Y-115552239D01*
X124095001Y-117262151D01*
X123965518Y-117574750D01*
X123895000Y-117929268D01*
X123895000Y-118290732D01*
X123965518Y-118645250D01*
X124103844Y-118979199D01*
X124304662Y-119279744D01*
X124560256Y-119535338D01*
X124860801Y-119736156D01*
X125194750Y-119874482D01*
X125549268Y-119945000D01*
X125910732Y-119945000D01*
X126265250Y-119874482D01*
X126599199Y-119736156D01*
X126899744Y-119535338D01*
X127155338Y-119279744D01*
X127356156Y-118979199D01*
X127494482Y-118645250D01*
X127519036Y-118521805D01*
X149341805Y-118521805D01*
X149414379Y-118761066D01*
X149574361Y-119083257D01*
X149794125Y-119368046D01*
X150065226Y-119604489D01*
X150377246Y-119783500D01*
X150718194Y-119898199D01*
X151003000Y-119781854D01*
X151003000Y-118237000D01*
X151257000Y-118237000D01*
X151257000Y-119781854D01*
X151541806Y-119898199D01*
X151882754Y-119783500D01*
X152194774Y-119604489D01*
X152465875Y-119368046D01*
X152685639Y-119083257D01*
X152845621Y-118761066D01*
X152918195Y-118521805D01*
X152801432Y-118237000D01*
X151257000Y-118237000D01*
X151003000Y-118237000D01*
X149458568Y-118237000D01*
X149341805Y-118521805D01*
X127519036Y-118521805D01*
X127565000Y-118290732D01*
X127565000Y-117929268D01*
X127519037Y-117698195D01*
X149341805Y-117698195D01*
X149458568Y-117983000D01*
X151003000Y-117983000D01*
X151003000Y-116438146D01*
X151257000Y-116438146D01*
X151257000Y-117983000D01*
X152801432Y-117983000D01*
X152918195Y-117698195D01*
X152845621Y-117458934D01*
X152685639Y-117136743D01*
X152465875Y-116851954D01*
X152194774Y-116615511D01*
X151882754Y-116436500D01*
X151541806Y-116321801D01*
X151257000Y-116438146D01*
X151003000Y-116438146D01*
X150718194Y-116321801D01*
X150377246Y-116436500D01*
X150065226Y-116615511D01*
X149794125Y-116851954D01*
X149574361Y-117136743D01*
X149414379Y-117458934D01*
X149341805Y-117698195D01*
X127519037Y-117698195D01*
X127494482Y-117574750D01*
X127365000Y-117262152D01*
X127365000Y-114955319D01*
X127372911Y-114875000D01*
X127364901Y-114793676D01*
X127341343Y-114554484D01*
X127280668Y-114354464D01*
X128740132Y-112895000D01*
X134564249Y-112895000D01*
X134620000Y-112900491D01*
X134675751Y-112895000D01*
X134675752Y-112895000D01*
X134842499Y-112878577D01*
X135056447Y-112813676D01*
X135253623Y-112708284D01*
X135426449Y-112566449D01*
X135461996Y-112523135D01*
X136265131Y-111720000D01*
X148731928Y-111720000D01*
X148744188Y-111844482D01*
X148780498Y-111964180D01*
X148839463Y-112074494D01*
X148918815Y-112171185D01*
X149015506Y-112250537D01*
X149125820Y-112309502D01*
X149245518Y-112345812D01*
X149370000Y-112358072D01*
X150484250Y-112355000D01*
X150643000Y-112196250D01*
X150643000Y-111347000D01*
X148893750Y-111347000D01*
X148735000Y-111505750D01*
X148731928Y-111720000D01*
X136265131Y-111720000D01*
X137265131Y-110720000D01*
X148731928Y-110720000D01*
X148735000Y-110934250D01*
X148893750Y-111093000D01*
X150643000Y-111093000D01*
X150643000Y-110243750D01*
X150484250Y-110085000D01*
X149370000Y-110081928D01*
X149245518Y-110094188D01*
X149125820Y-110130498D01*
X149015506Y-110189463D01*
X148918815Y-110268815D01*
X148839463Y-110365506D01*
X148780498Y-110475820D01*
X148744188Y-110595518D01*
X148731928Y-110720000D01*
X137265131Y-110720000D01*
X139193146Y-108791987D01*
X139236449Y-108756449D01*
X139323812Y-108649998D01*
X139378284Y-108583623D01*
X139483676Y-108386447D01*
X139548577Y-108172499D01*
X139550269Y-108155322D01*
X139551926Y-108138496D01*
X139560506Y-108145537D01*
X139670820Y-108204502D01*
X139790518Y-108240812D01*
X139915000Y-108253072D01*
X141885000Y-108253072D01*
X142009482Y-108240812D01*
X142129180Y-108204502D01*
X142239494Y-108145537D01*
X142336185Y-108066185D01*
X142415537Y-107969494D01*
X142474502Y-107859180D01*
X142510812Y-107739482D01*
X142523072Y-107615000D01*
X142523072Y-107015000D01*
X142510812Y-106890518D01*
X142474502Y-106770820D01*
X142425957Y-106680000D01*
X142474502Y-106589180D01*
X142510812Y-106469482D01*
X142523072Y-106345000D01*
X142523072Y-105745000D01*
X142510812Y-105620518D01*
X142474502Y-105500820D01*
X142425957Y-105410000D01*
X142442995Y-105378124D01*
X146478009Y-109413139D01*
X146513551Y-109456447D01*
X146686377Y-109598282D01*
X146845907Y-109683552D01*
X146883553Y-109703674D01*
X147097501Y-109768575D01*
X147320000Y-109790489D01*
X147375751Y-109784998D01*
X151359867Y-109784998D01*
X151658208Y-110083339D01*
X151055750Y-110085000D01*
X150897000Y-110243750D01*
X150897000Y-111093000D01*
X150917000Y-111093000D01*
X150917000Y-111347000D01*
X150897000Y-111347000D01*
X150897000Y-112196250D01*
X151055750Y-112355000D01*
X152170000Y-112358072D01*
X152294482Y-112345812D01*
X152414180Y-112309502D01*
X152524494Y-112250537D01*
X152535001Y-112241915D01*
X152535001Y-113684239D01*
X152529509Y-113740000D01*
X152551423Y-113962498D01*
X152616324Y-114176446D01*
X152638574Y-114218072D01*
X152721717Y-114373623D01*
X152863552Y-114546449D01*
X152906860Y-114581991D01*
X158191928Y-119867061D01*
X158191928Y-121650000D01*
X158208992Y-121823254D01*
X158259528Y-121989850D01*
X158341595Y-122143386D01*
X158452038Y-122277962D01*
X158586614Y-122388405D01*
X158740150Y-122470472D01*
X158906746Y-122521008D01*
X159080000Y-122538072D01*
X162080000Y-122538072D01*
X162253254Y-122521008D01*
X162419850Y-122470472D01*
X162573386Y-122388405D01*
X162707962Y-122277962D01*
X162818405Y-122143386D01*
X162900472Y-121989850D01*
X162927727Y-121900000D01*
X164691928Y-121900000D01*
X164704188Y-122024482D01*
X164740498Y-122144180D01*
X164799463Y-122254494D01*
X164878815Y-122351185D01*
X164975506Y-122430537D01*
X165085820Y-122489502D01*
X165205518Y-122525812D01*
X165330000Y-122538072D01*
X166794250Y-122535000D01*
X166953000Y-122376250D01*
X166953000Y-120777000D01*
X167207000Y-120777000D01*
X167207000Y-122376250D01*
X167365750Y-122535000D01*
X168830000Y-122538072D01*
X168954482Y-122525812D01*
X169074180Y-122489502D01*
X169184494Y-122430537D01*
X169281185Y-122351185D01*
X169360537Y-122254494D01*
X169419502Y-122144180D01*
X169455812Y-122024482D01*
X169468072Y-121900000D01*
X169465000Y-120935750D01*
X169306250Y-120777000D01*
X167207000Y-120777000D01*
X166953000Y-120777000D01*
X164853750Y-120777000D01*
X164695000Y-120935750D01*
X164691928Y-121900000D01*
X162927727Y-121900000D01*
X162951008Y-121823254D01*
X162968072Y-121650000D01*
X162968072Y-120625695D01*
X175356520Y-120625695D01*
X175425822Y-121377938D01*
X175640548Y-122102208D01*
X175992445Y-122770670D01*
X176019452Y-122811088D01*
X176509119Y-123171276D01*
X179030395Y-120650000D01*
X179389605Y-120650000D01*
X181910881Y-123171276D01*
X182400548Y-122811088D01*
X182760849Y-122147118D01*
X182984694Y-121425615D01*
X183063480Y-120674305D01*
X182994178Y-119922062D01*
X182779452Y-119197792D01*
X182427555Y-118529330D01*
X182400548Y-118488912D01*
X181910881Y-118128724D01*
X179389605Y-120650000D01*
X179030395Y-120650000D01*
X176509119Y-118128724D01*
X176019452Y-118488912D01*
X175659151Y-119152882D01*
X175435306Y-119874385D01*
X175356520Y-120625695D01*
X162968072Y-120625695D01*
X162968072Y-119745000D01*
X164693027Y-119745000D01*
X164695000Y-120364250D01*
X164853750Y-120523000D01*
X166953000Y-120523000D01*
X166953000Y-120503000D01*
X167207000Y-120503000D01*
X167207000Y-120523000D01*
X169306250Y-120523000D01*
X169465000Y-120364250D01*
X169468072Y-119400000D01*
X169455812Y-119275518D01*
X169419502Y-119155820D01*
X169360537Y-119045506D01*
X169281185Y-118948815D01*
X169184494Y-118869463D01*
X169074180Y-118810498D01*
X168954482Y-118774188D01*
X168830000Y-118761928D01*
X168028629Y-118763609D01*
X168739318Y-118052921D01*
X168801714Y-118001714D01*
X168902010Y-117879502D01*
X169003748Y-117879502D01*
X168845000Y-118038250D01*
X168841928Y-118265000D01*
X168854188Y-118389482D01*
X168890498Y-118509180D01*
X168949463Y-118619494D01*
X169028815Y-118716185D01*
X169125506Y-118795537D01*
X169235820Y-118854502D01*
X169355518Y-118890812D01*
X169480000Y-118903072D01*
X169894250Y-118900000D01*
X170053000Y-118741250D01*
X170053000Y-117879500D01*
X170307000Y-117879500D01*
X170307000Y-118741250D01*
X170465750Y-118900000D01*
X170880000Y-118903072D01*
X171004482Y-118890812D01*
X171124180Y-118854502D01*
X171234494Y-118795537D01*
X171331185Y-118716185D01*
X171410537Y-118619494D01*
X171469502Y-118509180D01*
X171505812Y-118389482D01*
X171518072Y-118265000D01*
X171515000Y-118038250D01*
X171425869Y-117949119D01*
X176688724Y-117949119D01*
X179210000Y-120470395D01*
X181731276Y-117949119D01*
X181371088Y-117459452D01*
X180707118Y-117099151D01*
X179985615Y-116875306D01*
X179234305Y-116796520D01*
X178482062Y-116865822D01*
X177757792Y-117080548D01*
X177089330Y-117432445D01*
X177048912Y-117459452D01*
X176688724Y-117949119D01*
X171425869Y-117949119D01*
X171356250Y-117879500D01*
X170307000Y-117879500D01*
X170053000Y-117879500D01*
X170033000Y-117879500D01*
X170033000Y-117625500D01*
X170053000Y-117625500D01*
X170053000Y-117605500D01*
X170307000Y-117605500D01*
X170307000Y-117625500D01*
X171356250Y-117625500D01*
X171515000Y-117466750D01*
X171518072Y-117240000D01*
X171505812Y-117115518D01*
X171469502Y-116995820D01*
X171410537Y-116885506D01*
X171331185Y-116788815D01*
X171301724Y-116764637D01*
X171368405Y-116683387D01*
X171450472Y-116529851D01*
X171501008Y-116363255D01*
X171518072Y-116190001D01*
X171518072Y-115664999D01*
X171508640Y-115569224D01*
X176630381Y-115569224D01*
X176762317Y-115864312D01*
X177103045Y-116035159D01*
X177470557Y-116136250D01*
X177850729Y-116163701D01*
X178228951Y-116116457D01*
X178590690Y-115996333D01*
X178837683Y-115864312D01*
X178969619Y-115569224D01*
X177800000Y-114399605D01*
X176630381Y-115569224D01*
X171508640Y-115569224D01*
X171501008Y-115491745D01*
X171450472Y-115325149D01*
X171368405Y-115171613D01*
X171257962Y-115037038D01*
X171123387Y-114926595D01*
X170969851Y-114844528D01*
X170940000Y-114835473D01*
X170940000Y-114270729D01*
X175856299Y-114270729D01*
X175903543Y-114648951D01*
X176023667Y-115010690D01*
X176155688Y-115257683D01*
X176450776Y-115389619D01*
X177620395Y-114220000D01*
X177979605Y-114220000D01*
X179149224Y-115389619D01*
X179444312Y-115257683D01*
X179615159Y-114916955D01*
X179716250Y-114549443D01*
X179743701Y-114169271D01*
X179696457Y-113791049D01*
X179576333Y-113429310D01*
X179444312Y-113182317D01*
X179149224Y-113050381D01*
X177979605Y-114220000D01*
X177620395Y-114220000D01*
X176450776Y-113050381D01*
X176155688Y-113182317D01*
X175984841Y-113523045D01*
X175883750Y-113890557D01*
X175856299Y-114270729D01*
X170940000Y-114270729D01*
X170940000Y-114098673D01*
X170973709Y-114088447D01*
X171126164Y-114006958D01*
X171259792Y-113897292D01*
X171369458Y-113763664D01*
X171450947Y-113611209D01*
X171501128Y-113445785D01*
X171518072Y-113273750D01*
X171518072Y-112870776D01*
X176630381Y-112870776D01*
X177800000Y-114040395D01*
X178969619Y-112870776D01*
X178837683Y-112575688D01*
X178496955Y-112404841D01*
X178129443Y-112303750D01*
X177749271Y-112276299D01*
X177371049Y-112323543D01*
X177009310Y-112443667D01*
X176762317Y-112575688D01*
X176630381Y-112870776D01*
X171518072Y-112870776D01*
X171518072Y-112786250D01*
X171501128Y-112614215D01*
X171450947Y-112448791D01*
X171369458Y-112296336D01*
X171259792Y-112162708D01*
X171174244Y-112092500D01*
X171259792Y-112022292D01*
X171369458Y-111888664D01*
X171450947Y-111736209D01*
X171501128Y-111570785D01*
X171518072Y-111398750D01*
X171518072Y-110911250D01*
X171512532Y-110855000D01*
X175959043Y-110855000D01*
X175969463Y-110874494D01*
X176048815Y-110971185D01*
X176145506Y-111050537D01*
X176255820Y-111109502D01*
X176375518Y-111145812D01*
X176500000Y-111158072D01*
X179100000Y-111158072D01*
X179224482Y-111145812D01*
X179344180Y-111109502D01*
X179454494Y-111050537D01*
X179551185Y-110971185D01*
X179630537Y-110874494D01*
X179689502Y-110764180D01*
X179725812Y-110644482D01*
X179738072Y-110520000D01*
X179738072Y-107920000D01*
X179725812Y-107795518D01*
X179689502Y-107675820D01*
X179630537Y-107565506D01*
X179551185Y-107468815D01*
X179454494Y-107389463D01*
X179344180Y-107330498D01*
X179224482Y-107294188D01*
X179100000Y-107281928D01*
X176500000Y-107281928D01*
X176375518Y-107294188D01*
X176255820Y-107330498D01*
X176145506Y-107389463D01*
X176048815Y-107468815D01*
X175969463Y-107565506D01*
X175959043Y-107585000D01*
X171758195Y-107585000D01*
X171801498Y-107520192D01*
X171860464Y-107409875D01*
X171897973Y-107319319D01*
X171934282Y-107199623D01*
X171953404Y-107103490D01*
X171965664Y-106979009D01*
X171965664Y-106954450D01*
X171968072Y-106930000D01*
X171968072Y-106430000D01*
X171965664Y-106405550D01*
X171965664Y-106380991D01*
X171953404Y-106256510D01*
X171934282Y-106160377D01*
X171897973Y-106040681D01*
X171860464Y-105950125D01*
X171801498Y-105839808D01*
X171747042Y-105758309D01*
X171715000Y-105719266D01*
X171715000Y-104281554D01*
X171745519Y-104290812D01*
X171870001Y-104303072D01*
X172379251Y-104300000D01*
X172538001Y-104141250D01*
X172538001Y-102997000D01*
X172792001Y-102997000D01*
X172792001Y-104141250D01*
X172950751Y-104300000D01*
X173460001Y-104303072D01*
X173584483Y-104290812D01*
X173704181Y-104254502D01*
X173814495Y-104195537D01*
X173911186Y-104116185D01*
X173990538Y-104019494D01*
X174049503Y-103909180D01*
X174085813Y-103789482D01*
X174098073Y-103665000D01*
X177636928Y-103665000D01*
X177649188Y-103789482D01*
X177685498Y-103909180D01*
X177744463Y-104019494D01*
X177823815Y-104116185D01*
X177920506Y-104195537D01*
X178030820Y-104254502D01*
X178150518Y-104290812D01*
X178275000Y-104303072D01*
X178784250Y-104300000D01*
X178943000Y-104141250D01*
X178943000Y-102997000D01*
X179197000Y-102997000D01*
X179197000Y-104141250D01*
X179355750Y-104300000D01*
X179865000Y-104303072D01*
X179989482Y-104290812D01*
X180109180Y-104254502D01*
X180219494Y-104195537D01*
X180316185Y-104116185D01*
X180395537Y-104019494D01*
X180454502Y-103909180D01*
X180490812Y-103789482D01*
X180503072Y-103665000D01*
X180500000Y-103155750D01*
X180341250Y-102997000D01*
X179197000Y-102997000D01*
X178943000Y-102997000D01*
X177798750Y-102997000D01*
X177640000Y-103155750D01*
X177636928Y-103665000D01*
X174098073Y-103665000D01*
X174095001Y-103155750D01*
X173936251Y-102997000D01*
X172792001Y-102997000D01*
X172538001Y-102997000D01*
X172518001Y-102997000D01*
X172518001Y-102743000D01*
X172538001Y-102743000D01*
X172538001Y-102723000D01*
X172792001Y-102723000D01*
X172792001Y-102743000D01*
X173936251Y-102743000D01*
X174095001Y-102584250D01*
X174098073Y-102075000D01*
X174085813Y-101950518D01*
X174049503Y-101830820D01*
X173990538Y-101720506D01*
X173911186Y-101623815D01*
X173814495Y-101544463D01*
X173704181Y-101485498D01*
X173602632Y-101454694D01*
X173775754Y-101281572D01*
X173793509Y-101255000D01*
X177941492Y-101255000D01*
X177959247Y-101281572D01*
X178132369Y-101454694D01*
X178030820Y-101485498D01*
X177920506Y-101544463D01*
X177823815Y-101623815D01*
X177744463Y-101720506D01*
X177685498Y-101830820D01*
X177649188Y-101950518D01*
X177636928Y-102075000D01*
X177640000Y-102584250D01*
X177798750Y-102743000D01*
X178943000Y-102743000D01*
X178943000Y-102723000D01*
X179197000Y-102723000D01*
X179197000Y-102743000D01*
X180341250Y-102743000D01*
X180500000Y-102584250D01*
X180503072Y-102075000D01*
X180490812Y-101950518D01*
X180454502Y-101830820D01*
X180395537Y-101720506D01*
X180316185Y-101623815D01*
X180219494Y-101544463D01*
X180109180Y-101485498D01*
X180007631Y-101454694D01*
X180180753Y-101281572D01*
X180337249Y-101047359D01*
X180445046Y-100787116D01*
X180500000Y-100510843D01*
X180500000Y-100229157D01*
X180445046Y-99952884D01*
X180337249Y-99692641D01*
X180180753Y-99458428D01*
X179981572Y-99259247D01*
X179773174Y-99120000D01*
X179981572Y-98980753D01*
X180180753Y-98781572D01*
X180337249Y-98547359D01*
X180445046Y-98287116D01*
X180500000Y-98010843D01*
X180500000Y-97729157D01*
X180445046Y-97452884D01*
X180337249Y-97192641D01*
X180180753Y-96958428D01*
X179981572Y-96759247D01*
X179773174Y-96620000D01*
X179981572Y-96480753D01*
X180180753Y-96281572D01*
X180337249Y-96047359D01*
X180445046Y-95787116D01*
X180500000Y-95510843D01*
X180500000Y-95229157D01*
X180445046Y-94952884D01*
X180337249Y-94692641D01*
X180180753Y-94458428D01*
X179981572Y-94259247D01*
X179747359Y-94102751D01*
X179487116Y-93994954D01*
X179210843Y-93940000D01*
X178929157Y-93940000D01*
X178652884Y-93994954D01*
X178392641Y-94102751D01*
X178158428Y-94259247D01*
X177959247Y-94458428D01*
X177857970Y-94610000D01*
X173877031Y-94610000D01*
X173775754Y-94458428D01*
X173576573Y-94259247D01*
X173342360Y-94102751D01*
X173082117Y-93994954D01*
X172805844Y-93940000D01*
X172524158Y-93940000D01*
X172247885Y-93994954D01*
X171987642Y-94102751D01*
X171753429Y-94259247D01*
X171554248Y-94458428D01*
X171452971Y-94610000D01*
X169326462Y-94610000D01*
X169328508Y-94603255D01*
X169345572Y-94430001D01*
X169345572Y-93529999D01*
X169328508Y-93356745D01*
X169277972Y-93190149D01*
X169195905Y-93036613D01*
X169085462Y-92902038D01*
X168950887Y-92791595D01*
X168797351Y-92709528D01*
X168630755Y-92658992D01*
X168457501Y-92641928D01*
X167932499Y-92641928D01*
X167759245Y-92658992D01*
X167592649Y-92709528D01*
X167439113Y-92791595D01*
X167304538Y-92902038D01*
X167282500Y-92928891D01*
X167260462Y-92902038D01*
X167130000Y-92794970D01*
X167130000Y-85127322D01*
X167133676Y-85089999D01*
X167130000Y-85052676D01*
X167130000Y-85052667D01*
X167119003Y-84941014D01*
X167075546Y-84797753D01*
X167004974Y-84665724D01*
X166910001Y-84549999D01*
X166881003Y-84526201D01*
X164684674Y-82329872D01*
X169385001Y-82329872D01*
X169385001Y-82770128D01*
X169470891Y-83201925D01*
X169639370Y-83608669D01*
X169883963Y-83974729D01*
X170195272Y-84286038D01*
X170561332Y-84530631D01*
X170968076Y-84699110D01*
X171399873Y-84785000D01*
X171840129Y-84785000D01*
X172271926Y-84699110D01*
X172678670Y-84530631D01*
X173044730Y-84286038D01*
X173111159Y-84219609D01*
X177874998Y-84219609D01*
X178061074Y-84560766D01*
X178478410Y-84776513D01*
X178929816Y-84906696D01*
X179397947Y-84946313D01*
X179864812Y-84893842D01*
X180312469Y-84751297D01*
X180668928Y-84560766D01*
X180855004Y-84219609D01*
X179365001Y-82729605D01*
X177874998Y-84219609D01*
X173111159Y-84219609D01*
X173356039Y-83974729D01*
X173600632Y-83608669D01*
X173769111Y-83201925D01*
X173855001Y-82770128D01*
X173855001Y-82582946D01*
X176968688Y-82582946D01*
X177021159Y-83049811D01*
X177163704Y-83497468D01*
X177354235Y-83853927D01*
X177695392Y-84040003D01*
X179185396Y-82550000D01*
X179544606Y-82550000D01*
X181034610Y-84040003D01*
X181375767Y-83853927D01*
X181514792Y-83585000D01*
X181711939Y-83585000D01*
X181911898Y-83545226D01*
X182100256Y-83467205D01*
X182269774Y-83353937D01*
X182413937Y-83209774D01*
X182527205Y-83040256D01*
X182605226Y-82851898D01*
X182645000Y-82651939D01*
X182645000Y-82448061D01*
X182605226Y-82248102D01*
X182527205Y-82059744D01*
X182413937Y-81890226D01*
X182269774Y-81746063D01*
X182100256Y-81632795D01*
X181911898Y-81554774D01*
X181711939Y-81515000D01*
X181519511Y-81515000D01*
X181375767Y-81246073D01*
X181034610Y-81059997D01*
X179544606Y-82550000D01*
X179185396Y-82550000D01*
X177695392Y-81059997D01*
X177354235Y-81246073D01*
X177138488Y-81663409D01*
X177008305Y-82114815D01*
X176968688Y-82582946D01*
X173855001Y-82582946D01*
X173855001Y-82329872D01*
X173769111Y-81898075D01*
X173600632Y-81491331D01*
X173356039Y-81125271D01*
X173111159Y-80880391D01*
X177874998Y-80880391D01*
X179365001Y-82370395D01*
X180855004Y-80880391D01*
X180668928Y-80539234D01*
X180251592Y-80323487D01*
X179800186Y-80193304D01*
X179332055Y-80153687D01*
X178865190Y-80206158D01*
X178417533Y-80348703D01*
X178061074Y-80539234D01*
X177874998Y-80880391D01*
X173111159Y-80880391D01*
X173044730Y-80813962D01*
X172678670Y-80569369D01*
X172271926Y-80400890D01*
X171840129Y-80315000D01*
X171399873Y-80315000D01*
X170968076Y-80400890D01*
X170561332Y-80569369D01*
X170195272Y-80813962D01*
X169883963Y-81125271D01*
X169639370Y-81491331D01*
X169470891Y-81898075D01*
X169385001Y-82329872D01*
X164684674Y-82329872D01*
X154233804Y-71879003D01*
X154210001Y-71849999D01*
X154094276Y-71755026D01*
X153962247Y-71684454D01*
X153818986Y-71640997D01*
X153707333Y-71630000D01*
X153707322Y-71630000D01*
X153670000Y-71626324D01*
X153632678Y-71630000D01*
X150244804Y-71630000D01*
X149385001Y-70770198D01*
X149385001Y-68791106D01*
X149636303Y-68687013D01*
X149985984Y-68453364D01*
X150152694Y-68286654D01*
X152362953Y-68286654D01*
X152518963Y-68602215D01*
X152893746Y-68793021D01*
X153298552Y-68907045D01*
X153717825Y-68939903D01*
X154135452Y-68890335D01*
X154535384Y-68760244D01*
X154831039Y-68602215D01*
X154987049Y-68286654D01*
X153675001Y-66974606D01*
X152362953Y-68286654D01*
X150152694Y-68286654D01*
X150283364Y-68155984D01*
X150517013Y-67806303D01*
X150677954Y-67417757D01*
X150760001Y-67005280D01*
X150760001Y-66837825D01*
X151530099Y-66837825D01*
X151579667Y-67255452D01*
X151709758Y-67655384D01*
X151867787Y-67951039D01*
X152183348Y-68107049D01*
X153495396Y-66795001D01*
X153854606Y-66795001D01*
X155166654Y-68107049D01*
X155482215Y-67951039D01*
X155673021Y-67576256D01*
X155787045Y-67171450D01*
X155819903Y-66752177D01*
X155796468Y-66554722D01*
X156615000Y-66554722D01*
X156615000Y-66975280D01*
X156697047Y-67387757D01*
X156857988Y-67776303D01*
X157091637Y-68125984D01*
X157389017Y-68423364D01*
X157738698Y-68657013D01*
X157990001Y-68761106D01*
X157990001Y-69812668D01*
X157986324Y-69850000D01*
X158000998Y-69998985D01*
X158044454Y-70142246D01*
X158115026Y-70274276D01*
X158117308Y-70277056D01*
X158210000Y-70390001D01*
X158238998Y-70413799D01*
X161525000Y-73699802D01*
X161525000Y-73761939D01*
X161564774Y-73961898D01*
X161642795Y-74150256D01*
X161756063Y-74319774D01*
X161900226Y-74463937D01*
X162069744Y-74577205D01*
X162258102Y-74655226D01*
X162458061Y-74695000D01*
X162661939Y-74695000D01*
X162861898Y-74655226D01*
X163050256Y-74577205D01*
X163219774Y-74463937D01*
X163363937Y-74319774D01*
X163477205Y-74150256D01*
X163555226Y-73961898D01*
X163595000Y-73761939D01*
X163595000Y-73558061D01*
X163561961Y-73391961D01*
X163728061Y-73425000D01*
X163931939Y-73425000D01*
X164131898Y-73385226D01*
X164320256Y-73307205D01*
X164489774Y-73193937D01*
X164633937Y-73049774D01*
X164747205Y-72880256D01*
X164825226Y-72691898D01*
X164865000Y-72491939D01*
X164865000Y-72288061D01*
X164825226Y-72088102D01*
X164747205Y-71899744D01*
X164633937Y-71730226D01*
X164625001Y-71721290D01*
X164625001Y-71280881D01*
X176548724Y-71280881D01*
X176908912Y-71770548D01*
X177572882Y-72130849D01*
X178294385Y-72354694D01*
X179045695Y-72433480D01*
X179797938Y-72364178D01*
X180522208Y-72149452D01*
X181190670Y-71797555D01*
X181231088Y-71770548D01*
X181591276Y-71280881D01*
X179070000Y-68759605D01*
X176548724Y-71280881D01*
X164625001Y-71280881D01*
X164625001Y-68761106D01*
X164876303Y-68657013D01*
X165027936Y-68555695D01*
X175216520Y-68555695D01*
X175285822Y-69307938D01*
X175500548Y-70032208D01*
X175852445Y-70700670D01*
X175879452Y-70741088D01*
X176369119Y-71101276D01*
X178890395Y-68580000D01*
X179249605Y-68580000D01*
X181770881Y-71101276D01*
X182260548Y-70741088D01*
X182620849Y-70077118D01*
X182844694Y-69355615D01*
X182923480Y-68604305D01*
X182854178Y-67852062D01*
X182639452Y-67127792D01*
X182287555Y-66459330D01*
X182260548Y-66418912D01*
X181770881Y-66058724D01*
X179249605Y-68580000D01*
X178890395Y-68580000D01*
X176369119Y-66058724D01*
X175879452Y-66418912D01*
X175519151Y-67082882D01*
X175295306Y-67804385D01*
X175216520Y-68555695D01*
X165027936Y-68555695D01*
X165225984Y-68423364D01*
X165523364Y-68125984D01*
X165757013Y-67776303D01*
X165917954Y-67387757D01*
X166000001Y-66975280D01*
X166000001Y-66554722D01*
X165917954Y-66142245D01*
X165808964Y-65879119D01*
X176548724Y-65879119D01*
X179070000Y-68400395D01*
X181591276Y-65879119D01*
X181231088Y-65389452D01*
X180567118Y-65029151D01*
X179845615Y-64805306D01*
X179094305Y-64726520D01*
X178342062Y-64795822D01*
X177617792Y-65010548D01*
X176949330Y-65362445D01*
X176908912Y-65389452D01*
X176548724Y-65879119D01*
X165808964Y-65879119D01*
X165757013Y-65753699D01*
X165523364Y-65404018D01*
X165225984Y-65106638D01*
X164876303Y-64872989D01*
X164487757Y-64712048D01*
X164075280Y-64630001D01*
X163654722Y-64630001D01*
X163242245Y-64712048D01*
X162853699Y-64872989D01*
X162504018Y-65106638D01*
X162206638Y-65404018D01*
X161972989Y-65753699D01*
X161812048Y-66142245D01*
X161730001Y-66554722D01*
X161730001Y-66975280D01*
X161812048Y-67387757D01*
X161972989Y-67776303D01*
X162206638Y-68125984D01*
X162504018Y-68423364D01*
X162853699Y-68657013D01*
X163105001Y-68761106D01*
X163105002Y-71651287D01*
X163026063Y-71730226D01*
X162912795Y-71899744D01*
X162834774Y-72088102D01*
X162795000Y-72288061D01*
X162795000Y-72491939D01*
X162828039Y-72658039D01*
X162661939Y-72625000D01*
X162599802Y-72625000D01*
X159510000Y-69535199D01*
X159510000Y-68761106D01*
X159761302Y-68657013D01*
X160110983Y-68423364D01*
X160408363Y-68125984D01*
X160642012Y-67776303D01*
X160802953Y-67387757D01*
X160885000Y-66975280D01*
X160885000Y-66554722D01*
X160802953Y-66142245D01*
X160642012Y-65753699D01*
X160408363Y-65404018D01*
X160110983Y-65106638D01*
X159761302Y-64872989D01*
X159372756Y-64712048D01*
X158960279Y-64630001D01*
X158539721Y-64630001D01*
X158127244Y-64712048D01*
X157738698Y-64872989D01*
X157389017Y-65106638D01*
X157091637Y-65404018D01*
X156857988Y-65753699D01*
X156697047Y-66142245D01*
X156615000Y-66554722D01*
X155796468Y-66554722D01*
X155770335Y-66334550D01*
X155640244Y-65934618D01*
X155482215Y-65638963D01*
X155166654Y-65482953D01*
X153854606Y-66795001D01*
X153495396Y-66795001D01*
X152183348Y-65482953D01*
X151867787Y-65638963D01*
X151676981Y-66013746D01*
X151562957Y-66418552D01*
X151530099Y-66837825D01*
X150760001Y-66837825D01*
X150760001Y-66584722D01*
X150677954Y-66172245D01*
X150517013Y-65783699D01*
X150283364Y-65434018D01*
X150152694Y-65303348D01*
X152362953Y-65303348D01*
X153675001Y-66615396D01*
X154987049Y-65303348D01*
X154831039Y-64987787D01*
X154456256Y-64796981D01*
X154051450Y-64682957D01*
X153632177Y-64650099D01*
X153214550Y-64699667D01*
X152814618Y-64829758D01*
X152518963Y-64987787D01*
X152362953Y-65303348D01*
X150152694Y-65303348D01*
X149985984Y-65136638D01*
X149636303Y-64902989D01*
X149247757Y-64742048D01*
X148835280Y-64660001D01*
X148414722Y-64660001D01*
X148002245Y-64742048D01*
X147613699Y-64902989D01*
X147264018Y-65136638D01*
X146966638Y-65434018D01*
X146732989Y-65783699D01*
X146572048Y-66172245D01*
X146490001Y-66584722D01*
X146490001Y-67005280D01*
X146572048Y-67417757D01*
X146732989Y-67806303D01*
X146966638Y-68155984D01*
X147264018Y-68453364D01*
X147613699Y-68687013D01*
X147865001Y-68791106D01*
X147865002Y-71047667D01*
X147861325Y-71084999D01*
X147875999Y-71233984D01*
X147919455Y-71377245D01*
X147990027Y-71509275D01*
X148053046Y-71586063D01*
X148085001Y-71625000D01*
X148113999Y-71648798D01*
X149366202Y-72901002D01*
X149390001Y-72930001D01*
X149418999Y-72953799D01*
X149505725Y-73024974D01*
X149637755Y-73095546D01*
X149781016Y-73139003D01*
X149892669Y-73150000D01*
X149892678Y-73150000D01*
X149930001Y-73153676D01*
X149967324Y-73150000D01*
X153355199Y-73150000D01*
X165610001Y-85404803D01*
X165610000Y-92794970D01*
X165479538Y-92902038D01*
X165409167Y-92987785D01*
X165401898Y-92984774D01*
X165201939Y-92945000D01*
X164998061Y-92945000D01*
X164798102Y-92984774D01*
X164609744Y-93062795D01*
X164440226Y-93176063D01*
X164296063Y-93320226D01*
X164182795Y-93489744D01*
X164104774Y-93678102D01*
X164065000Y-93878061D01*
X164065000Y-93957367D01*
X163956536Y-93946685D01*
X163832054Y-93958945D01*
X163712356Y-93995255D01*
X163602042Y-94054220D01*
X163505351Y-94133572D01*
X162560000Y-95078923D01*
X161614649Y-94133572D01*
X161517958Y-94054220D01*
X161407644Y-93995255D01*
X161287946Y-93958945D01*
X161163464Y-93946685D01*
X161038982Y-93958945D01*
X160919284Y-93995255D01*
X160808970Y-94054220D01*
X160712279Y-94133572D01*
X160489540Y-94356311D01*
X158332231Y-92199003D01*
X158308428Y-92169999D01*
X158192703Y-92075026D01*
X158060674Y-92004454D01*
X157917413Y-91960997D01*
X157805760Y-91950000D01*
X157805749Y-91950000D01*
X157768427Y-91946324D01*
X157731105Y-91950000D01*
X147357325Y-91950000D01*
X147320000Y-91946324D01*
X147282675Y-91950000D01*
X147282667Y-91950000D01*
X147171014Y-91960997D01*
X147027753Y-92004454D01*
X146895724Y-92075026D01*
X146779999Y-92169999D01*
X146756201Y-92198997D01*
X143195199Y-95760000D01*
X142943711Y-95760000D01*
X142899774Y-95716063D01*
X142730256Y-95602795D01*
X142541898Y-95524774D01*
X142341939Y-95485000D01*
X142138061Y-95485000D01*
X141938102Y-95524774D01*
X141749744Y-95602795D01*
X141580226Y-95716063D01*
X141436063Y-95860226D01*
X141322795Y-96029744D01*
X141244774Y-96218102D01*
X141205000Y-96418061D01*
X141205000Y-96621939D01*
X141244774Y-96821898D01*
X141322795Y-97010256D01*
X141436063Y-97179774D01*
X141580226Y-97323937D01*
X141749744Y-97437205D01*
X141938102Y-97515226D01*
X142138061Y-97555000D01*
X142341939Y-97555000D01*
X142541898Y-97515226D01*
X142730256Y-97437205D01*
X142899774Y-97323937D01*
X142943711Y-97280000D01*
X143472678Y-97280000D01*
X143510000Y-97283676D01*
X143547322Y-97280000D01*
X143547333Y-97280000D01*
X143658986Y-97269003D01*
X143802247Y-97225546D01*
X143804151Y-97224528D01*
X144692142Y-97224528D01*
X144692142Y-97449034D01*
X145451751Y-98208644D01*
X146052261Y-97608133D01*
X146052261Y-97383627D01*
X145969911Y-97300116D01*
X146719490Y-97300116D01*
X146719490Y-97524622D01*
X147027914Y-97837391D01*
X147124605Y-97916744D01*
X147234919Y-97975708D01*
X147354618Y-98012017D01*
X147479099Y-98024278D01*
X147603580Y-98012017D01*
X147723279Y-97975708D01*
X147833593Y-97916744D01*
X147930284Y-97837391D01*
X148079609Y-97683721D01*
X148079609Y-97459215D01*
X147320000Y-96699605D01*
X146719490Y-97300116D01*
X145969911Y-97300116D01*
X145743837Y-97070858D01*
X145647146Y-96991505D01*
X145536832Y-96932541D01*
X145417133Y-96896232D01*
X145292652Y-96883971D01*
X145168171Y-96896232D01*
X145048472Y-96932541D01*
X144938158Y-96991505D01*
X144841467Y-97070858D01*
X144692142Y-97224528D01*
X143804151Y-97224528D01*
X143934276Y-97154974D01*
X144050001Y-97060001D01*
X144073804Y-97030997D01*
X144743900Y-96360901D01*
X145815722Y-96360901D01*
X145827983Y-96485382D01*
X145864292Y-96605081D01*
X145923256Y-96715395D01*
X146002609Y-96812086D01*
X146315378Y-97120510D01*
X146539884Y-97120510D01*
X147140395Y-96520000D01*
X146380785Y-95760391D01*
X146156279Y-95760391D01*
X146002609Y-95909716D01*
X145923256Y-96006407D01*
X145864292Y-96116721D01*
X145827983Y-96236420D01*
X145815722Y-96360901D01*
X144743900Y-96360901D01*
X147634802Y-93470000D01*
X154403416Y-93470000D01*
X153436605Y-94436811D01*
X153405892Y-94427495D01*
X153294239Y-94416498D01*
X153294228Y-94416498D01*
X153256906Y-94412822D01*
X153219584Y-94416498D01*
X149512979Y-94416498D01*
X149132365Y-94035884D01*
X148997789Y-93925441D01*
X148844253Y-93843374D01*
X148677657Y-93792838D01*
X148504403Y-93775774D01*
X148331149Y-93792838D01*
X148164553Y-93843374D01*
X148011017Y-93925441D01*
X147876441Y-94035884D01*
X147522888Y-94389437D01*
X147412445Y-94524013D01*
X147330378Y-94677549D01*
X147279842Y-94844145D01*
X147262778Y-95017399D01*
X147263609Y-95025838D01*
X147160901Y-95015722D01*
X147036420Y-95027983D01*
X146916721Y-95064292D01*
X146806407Y-95123256D01*
X146709716Y-95202609D01*
X146560391Y-95356279D01*
X146560391Y-95580785D01*
X147320000Y-96340395D01*
X147334143Y-96326253D01*
X147513748Y-96505858D01*
X147499605Y-96520000D01*
X148259215Y-97279609D01*
X148483721Y-97279609D01*
X148637391Y-97130284D01*
X148716744Y-97033593D01*
X148775708Y-96923279D01*
X148812017Y-96803580D01*
X148824278Y-96679099D01*
X148814162Y-96576391D01*
X148822601Y-96577222D01*
X148995855Y-96560158D01*
X149162451Y-96509622D01*
X149315987Y-96427555D01*
X149450563Y-96317112D01*
X149804116Y-95963559D01*
X149826324Y-95936498D01*
X151936918Y-95936498D01*
X151385922Y-96487494D01*
X151306570Y-96584185D01*
X151247605Y-96694499D01*
X151211295Y-96814197D01*
X151199035Y-96938679D01*
X151211295Y-97063161D01*
X151247605Y-97182859D01*
X151306570Y-97293173D01*
X151385922Y-97389864D01*
X152540753Y-98544695D01*
X150922627Y-98544695D01*
X150885304Y-98541019D01*
X150847981Y-98544695D01*
X150847972Y-98544695D01*
X150736319Y-98555692D01*
X150593058Y-98599149D01*
X150461029Y-98669721D01*
X150345304Y-98764694D01*
X150321506Y-98793692D01*
X149629570Y-99485628D01*
X149459864Y-99315922D01*
X149363173Y-99236570D01*
X149252859Y-99177605D01*
X149133161Y-99141295D01*
X149008679Y-99129035D01*
X148884197Y-99141295D01*
X148764499Y-99177605D01*
X148654185Y-99236570D01*
X148557494Y-99315922D01*
X147503905Y-100369511D01*
X146448862Y-99314468D01*
X146503220Y-99260110D01*
X146390968Y-99147858D01*
X146615472Y-99147858D01*
X146769142Y-98998533D01*
X146848495Y-98901842D01*
X146907459Y-98791528D01*
X146943768Y-98671829D01*
X146956029Y-98547348D01*
X146943768Y-98422867D01*
X146907459Y-98303168D01*
X146848495Y-98192854D01*
X146769142Y-98096163D01*
X146456373Y-97787739D01*
X146231867Y-97787739D01*
X145631356Y-98388249D01*
X145645499Y-98402391D01*
X145465893Y-98581997D01*
X145451751Y-98567854D01*
X145437609Y-98581997D01*
X145258004Y-98402392D01*
X145272146Y-98388249D01*
X144512536Y-97628640D01*
X144288030Y-97628640D01*
X144134360Y-97777965D01*
X144055007Y-97874656D01*
X143996043Y-97984970D01*
X143959734Y-98104669D01*
X143947473Y-98229150D01*
X143957589Y-98331858D01*
X143949150Y-98331027D01*
X143775896Y-98348091D01*
X143609300Y-98398627D01*
X143455764Y-98480694D01*
X143321188Y-98591137D01*
X142967635Y-98944690D01*
X142857192Y-99079266D01*
X142775125Y-99232802D01*
X142724589Y-99399398D01*
X142707525Y-99572652D01*
X142724589Y-99745906D01*
X142775125Y-99912502D01*
X142857192Y-100066038D01*
X142967635Y-100200614D01*
X143639386Y-100872365D01*
X143773962Y-100982808D01*
X143927498Y-101064875D01*
X144094094Y-101115411D01*
X144267348Y-101132475D01*
X144440602Y-101115411D01*
X144607198Y-101064875D01*
X144760734Y-100982808D01*
X144895310Y-100872365D01*
X145248863Y-100518812D01*
X145271071Y-100491751D01*
X145476542Y-100491751D01*
X146429103Y-101444313D01*
X145375514Y-102497902D01*
X145296162Y-102594593D01*
X145237197Y-102704907D01*
X145200887Y-102824605D01*
X145188627Y-102949087D01*
X145200887Y-103073569D01*
X145237197Y-103193267D01*
X145296162Y-103303581D01*
X145375514Y-103400272D01*
X146789728Y-104814486D01*
X146886419Y-104893838D01*
X146996733Y-104952803D01*
X147116431Y-104989113D01*
X147240913Y-105001373D01*
X147365395Y-104989113D01*
X147485093Y-104952803D01*
X147595407Y-104893838D01*
X147692098Y-104814486D01*
X150874078Y-101632506D01*
X150953430Y-101535815D01*
X151012395Y-101425501D01*
X151048705Y-101305803D01*
X151060965Y-101181321D01*
X151048705Y-101056839D01*
X151012395Y-100937141D01*
X150953430Y-100826827D01*
X150874078Y-100730136D01*
X150704372Y-100560430D01*
X151200107Y-100064695D01*
X157043618Y-100064695D01*
X157308923Y-100330000D01*
X156363572Y-101275351D01*
X156284220Y-101372042D01*
X156225255Y-101482356D01*
X156188945Y-101602054D01*
X156181909Y-101673491D01*
X155745401Y-102110000D01*
X155674527Y-102110000D01*
X155665472Y-102080149D01*
X155583405Y-101926613D01*
X155472962Y-101792038D01*
X155338387Y-101681595D01*
X155184851Y-101599528D01*
X155018255Y-101548992D01*
X154845001Y-101531928D01*
X154319999Y-101531928D01*
X154146745Y-101548992D01*
X153980149Y-101599528D01*
X153826613Y-101681595D01*
X153692038Y-101792038D01*
X153670000Y-101818891D01*
X153647962Y-101792038D01*
X153513387Y-101681595D01*
X153359851Y-101599528D01*
X153193255Y-101548992D01*
X153020001Y-101531928D01*
X152494999Y-101531928D01*
X152321745Y-101548992D01*
X152155149Y-101599528D01*
X152001613Y-101681595D01*
X151867038Y-101792038D01*
X151756595Y-101926613D01*
X151674528Y-102080149D01*
X151623992Y-102246745D01*
X151606928Y-102419999D01*
X151606928Y-102945770D01*
X151172699Y-103380000D01*
X151167322Y-103380000D01*
X151129999Y-103376324D01*
X151092676Y-103380000D01*
X151092667Y-103380000D01*
X150981014Y-103390997D01*
X150837753Y-103434454D01*
X150705724Y-103505026D01*
X150705722Y-103505027D01*
X150705723Y-103505027D01*
X150618996Y-103576201D01*
X150618992Y-103576205D01*
X150589999Y-103599999D01*
X150566205Y-103628992D01*
X148275199Y-105920000D01*
X148023711Y-105920000D01*
X147979774Y-105876063D01*
X147810256Y-105762795D01*
X147621898Y-105684774D01*
X147421939Y-105645000D01*
X147218061Y-105645000D01*
X147018102Y-105684774D01*
X146829744Y-105762795D01*
X146660226Y-105876063D01*
X146516063Y-106020226D01*
X146427662Y-106152528D01*
X143016998Y-102741865D01*
X142981451Y-102698551D01*
X142808625Y-102556716D01*
X142611449Y-102451324D01*
X142397501Y-102386423D01*
X142230754Y-102370000D01*
X142230753Y-102370000D01*
X142175002Y-102364509D01*
X142119251Y-102370000D01*
X141370132Y-102370000D01*
X140835000Y-101834869D01*
X140835000Y-95305741D01*
X140840490Y-95249999D01*
X140835000Y-95194257D01*
X140835000Y-95194248D01*
X140818577Y-95027501D01*
X140753676Y-94813553D01*
X140648284Y-94616377D01*
X140506449Y-94443551D01*
X140463141Y-94408009D01*
X138001996Y-91946865D01*
X137966449Y-91903551D01*
X137793623Y-91761716D01*
X137596447Y-91656324D01*
X137382499Y-91591423D01*
X137215752Y-91575000D01*
X137215751Y-91575000D01*
X137160000Y-91569509D01*
X137104249Y-91575000D01*
X130295739Y-91575000D01*
X130239997Y-91569510D01*
X130184255Y-91575000D01*
X130184246Y-91575000D01*
X130017499Y-91591423D01*
X129803551Y-91656324D01*
X129606375Y-91761716D01*
X129433549Y-91903551D01*
X129398006Y-91946860D01*
X128141860Y-93203007D01*
X128098552Y-93238549D01*
X127956717Y-93411375D01*
X127851324Y-93608551D01*
X127786423Y-93822499D01*
X127776284Y-93925441D01*
X127764509Y-94044998D01*
X127770000Y-94100749D01*
X127770000Y-94564990D01*
X127068072Y-94564990D01*
X127068072Y-94074999D01*
X127051008Y-93901745D01*
X127000472Y-93735149D01*
X126918405Y-93581613D01*
X126807962Y-93447038D01*
X126673387Y-93336595D01*
X126519851Y-93254528D01*
X126353255Y-93203992D01*
X126180001Y-93186928D01*
X125279999Y-93186928D01*
X125106745Y-93203992D01*
X124940149Y-93254528D01*
X124786613Y-93336595D01*
X124652038Y-93447038D01*
X124544970Y-93577500D01*
X123108362Y-93577500D01*
X122999792Y-93445208D01*
X122866164Y-93335542D01*
X122713709Y-93254053D01*
X122548285Y-93203872D01*
X122376250Y-93186928D01*
X121463750Y-93186928D01*
X121291715Y-93203872D01*
X121126291Y-93254053D01*
X120973836Y-93335542D01*
X120840208Y-93445208D01*
X120730542Y-93578836D01*
X120649053Y-93731291D01*
X120598872Y-93896715D01*
X120581928Y-94068750D01*
X120581928Y-94556250D01*
X120598872Y-94728285D01*
X120649053Y-94893709D01*
X120730542Y-95046164D01*
X120840208Y-95179792D01*
X120925756Y-95250000D01*
X120840208Y-95320208D01*
X120730542Y-95453836D01*
X120649053Y-95606291D01*
X120598872Y-95771715D01*
X120581928Y-95943750D01*
X120581928Y-96431250D01*
X120583678Y-96449021D01*
X120383988Y-96648711D01*
X120354990Y-96672509D01*
X120331192Y-96701507D01*
X120331191Y-96701508D01*
X120260016Y-96788234D01*
X120189444Y-96920264D01*
X120167834Y-96991505D01*
X120145988Y-97063524D01*
X120136047Y-97164454D01*
X120131314Y-97212510D01*
X120134991Y-97249842D01*
X120134990Y-100205167D01*
X120131314Y-100242490D01*
X120134990Y-100279812D01*
X120134990Y-100279822D01*
X120145987Y-100391475D01*
X120182196Y-100510843D01*
X120189444Y-100534736D01*
X120260016Y-100666766D01*
X120295223Y-100709665D01*
X120354989Y-100782491D01*
X120383992Y-100806294D01*
X120583678Y-101005979D01*
X120581928Y-101023750D01*
X120581928Y-101511250D01*
X120598872Y-101683285D01*
X120649053Y-101848709D01*
X120730542Y-102001164D01*
X120840208Y-102134792D01*
X120973836Y-102244458D01*
X121126291Y-102325947D01*
X121291715Y-102376128D01*
X121463750Y-102393072D01*
X122376250Y-102393072D01*
X122548285Y-102376128D01*
X122713709Y-102325947D01*
X122866164Y-102244458D01*
X122999792Y-102134792D01*
X123109458Y-102001164D01*
X123190947Y-101848709D01*
X123241128Y-101683285D01*
X123258072Y-101511250D01*
X123258072Y-101023750D01*
X123241128Y-100851715D01*
X123190947Y-100686291D01*
X123109458Y-100533836D01*
X122999792Y-100400208D01*
X122914244Y-100330000D01*
X122999792Y-100259792D01*
X123038603Y-100212501D01*
X124544970Y-100212501D01*
X124652038Y-100342963D01*
X124678891Y-100365001D01*
X124652038Y-100387039D01*
X124541595Y-100521614D01*
X124459528Y-100675150D01*
X124408992Y-100841746D01*
X124391928Y-101015000D01*
X124391928Y-101540002D01*
X124408992Y-101713256D01*
X124459528Y-101879852D01*
X124541595Y-102033388D01*
X124652038Y-102167963D01*
X124786613Y-102278406D01*
X124940149Y-102360473D01*
X125106745Y-102411009D01*
X125279999Y-102428073D01*
X126180001Y-102428073D01*
X126353255Y-102411009D01*
X126454605Y-102380265D01*
X125829871Y-103005000D01*
X116060751Y-103005000D01*
X116004999Y-102999509D01*
X115782500Y-103021423D01*
X115750752Y-103031054D01*
X115568553Y-103086324D01*
X115371377Y-103191716D01*
X115198551Y-103333551D01*
X115163011Y-103376857D01*
X114087940Y-104451928D01*
X108875000Y-104451928D01*
X108875000Y-99664776D01*
X108913254Y-99661008D01*
X109079850Y-99610472D01*
X109233386Y-99528405D01*
X109367962Y-99417962D01*
X109478405Y-99283386D01*
X109560472Y-99129850D01*
X109587727Y-99040000D01*
X111351928Y-99040000D01*
X111364188Y-99164482D01*
X111400498Y-99284180D01*
X111459463Y-99394494D01*
X111538815Y-99491185D01*
X111635506Y-99570537D01*
X111745820Y-99629502D01*
X111865518Y-99665812D01*
X111990000Y-99678072D01*
X113454250Y-99675000D01*
X113613000Y-99516250D01*
X113613000Y-97917000D01*
X113867000Y-97917000D01*
X113867000Y-99516250D01*
X114025750Y-99675000D01*
X115490000Y-99678072D01*
X115614482Y-99665812D01*
X115734180Y-99629502D01*
X115844494Y-99570537D01*
X115941185Y-99491185D01*
X116020537Y-99394494D01*
X116079502Y-99284180D01*
X116115812Y-99164482D01*
X116128072Y-99040000D01*
X116125000Y-98075750D01*
X115966250Y-97917000D01*
X113867000Y-97917000D01*
X113613000Y-97917000D01*
X111513750Y-97917000D01*
X111355000Y-98075750D01*
X111351928Y-99040000D01*
X109587727Y-99040000D01*
X109611008Y-98963254D01*
X109628072Y-98790000D01*
X109628072Y-96790000D01*
X109611008Y-96616746D01*
X109587728Y-96540000D01*
X111351928Y-96540000D01*
X111355000Y-97504250D01*
X111513750Y-97663000D01*
X113613000Y-97663000D01*
X113613000Y-96063750D01*
X113867000Y-96063750D01*
X113867000Y-97663000D01*
X115966250Y-97663000D01*
X116125000Y-97504250D01*
X116128072Y-96540000D01*
X116115812Y-96415518D01*
X116079502Y-96295820D01*
X116020537Y-96185506D01*
X115941185Y-96088815D01*
X115844494Y-96009463D01*
X115734180Y-95950498D01*
X115614482Y-95914188D01*
X115490000Y-95901928D01*
X114025750Y-95905000D01*
X113867000Y-96063750D01*
X113613000Y-96063750D01*
X113454250Y-95905000D01*
X111990000Y-95901928D01*
X111865518Y-95914188D01*
X111745820Y-95950498D01*
X111635506Y-96009463D01*
X111538815Y-96088815D01*
X111459463Y-96185506D01*
X111400498Y-96295820D01*
X111364188Y-96415518D01*
X111351928Y-96540000D01*
X109587728Y-96540000D01*
X109560472Y-96450150D01*
X109478405Y-96296614D01*
X109367962Y-96162038D01*
X109233386Y-96051595D01*
X109079850Y-95969528D01*
X109000001Y-95945306D01*
X109000001Y-84938072D01*
X109115001Y-84938072D01*
X109239483Y-84925812D01*
X109359181Y-84889502D01*
X109469495Y-84830537D01*
X109566186Y-84751185D01*
X109645538Y-84654494D01*
X109704503Y-84544180D01*
X109740813Y-84424482D01*
X109753073Y-84300000D01*
X109753073Y-82329872D01*
X113775001Y-82329872D01*
X113775001Y-82770128D01*
X113860891Y-83201925D01*
X114029370Y-83608669D01*
X114273963Y-83974729D01*
X114585272Y-84286038D01*
X114951332Y-84530631D01*
X115358076Y-84699110D01*
X115789873Y-84785000D01*
X116230129Y-84785000D01*
X116661926Y-84699110D01*
X117068670Y-84530631D01*
X117434730Y-84286038D01*
X117746039Y-83974729D01*
X117990632Y-83608669D01*
X118159111Y-83201925D01*
X118245001Y-82770128D01*
X118245001Y-82329872D01*
X118159111Y-81898075D01*
X117990632Y-81491331D01*
X117746039Y-81125271D01*
X117434730Y-80813962D01*
X117068670Y-80569369D01*
X116661926Y-80400890D01*
X116230129Y-80315000D01*
X115789873Y-80315000D01*
X115358076Y-80400890D01*
X114951332Y-80569369D01*
X114585272Y-80813962D01*
X114273963Y-81125271D01*
X114029370Y-81491331D01*
X113860891Y-81898075D01*
X113775001Y-82329872D01*
X109753073Y-82329872D01*
X109753073Y-80800000D01*
X109740813Y-80675518D01*
X109704503Y-80555820D01*
X109645538Y-80445506D01*
X109566186Y-80348815D01*
X109469495Y-80269463D01*
X109359181Y-80210498D01*
X109239483Y-80174188D01*
X109115001Y-80161928D01*
X105615001Y-80161928D01*
X105490519Y-80174188D01*
X105370821Y-80210498D01*
X105260507Y-80269463D01*
X105163816Y-80348815D01*
X105084464Y-80445506D01*
X105025499Y-80555820D01*
X104989189Y-80675518D01*
X104976929Y-80800000D01*
X104976929Y-84300000D01*
X104989189Y-84424482D01*
X105025499Y-84544180D01*
X105084464Y-84654494D01*
X105163816Y-84751185D01*
X105260507Y-84830537D01*
X105370821Y-84889502D01*
X105490519Y-84925812D01*
X105615001Y-84938072D01*
X105730001Y-84938072D01*
X105730002Y-95902913D01*
X105566746Y-95918992D01*
X105400150Y-95969528D01*
X105246614Y-96051595D01*
X105112038Y-96162038D01*
X105001595Y-96296614D01*
X104919528Y-96450150D01*
X104868992Y-96616746D01*
X104851928Y-96790000D01*
X104851928Y-98790000D01*
X104868992Y-98963254D01*
X104919528Y-99129850D01*
X105001595Y-99283386D01*
X105112038Y-99417962D01*
X105246614Y-99528405D01*
X105400150Y-99610472D01*
X105566746Y-99661008D01*
X105605000Y-99664776D01*
X105605001Y-104451928D01*
X104955000Y-104451928D01*
X104830518Y-104464188D01*
X104710820Y-104500498D01*
X104600506Y-104559463D01*
X104503815Y-104638815D01*
X104424463Y-104735506D01*
X104365498Y-104845820D01*
X104329188Y-104965518D01*
X104316928Y-105090000D01*
X103530000Y-105090000D01*
X103530000Y-71280881D01*
X105428724Y-71280881D01*
X105788912Y-71770548D01*
X106452882Y-72130849D01*
X107174385Y-72354694D01*
X107925695Y-72433480D01*
X108677938Y-72364178D01*
X109402208Y-72149452D01*
X110070670Y-71797555D01*
X110111088Y-71770548D01*
X110471276Y-71280881D01*
X107950000Y-68759605D01*
X105428724Y-71280881D01*
X103530000Y-71280881D01*
X103530000Y-68609392D01*
X103534792Y-68555695D01*
X104096520Y-68555695D01*
X104165822Y-69307938D01*
X104380548Y-70032208D01*
X104732445Y-70700670D01*
X104759452Y-70741088D01*
X105249119Y-71101276D01*
X107770395Y-68580000D01*
X108129605Y-68580000D01*
X110650881Y-71101276D01*
X111140548Y-70741088D01*
X111500849Y-70077118D01*
X111724694Y-69355615D01*
X111803480Y-68604305D01*
X111734178Y-67852062D01*
X111519452Y-67127792D01*
X111167555Y-66459330D01*
X111140548Y-66418912D01*
X110650881Y-66058724D01*
X108129605Y-68580000D01*
X107770395Y-68580000D01*
X105249119Y-66058724D01*
X104759452Y-66418912D01*
X104399151Y-67082882D01*
X104175306Y-67804385D01*
X104096520Y-68555695D01*
X103534792Y-68555695D01*
X103602437Y-67797751D01*
X103809672Y-67040226D01*
X104147777Y-66331375D01*
X104472755Y-65879119D01*
X105428724Y-65879119D01*
X107950000Y-68400395D01*
X110471276Y-65879119D01*
X110111088Y-65389452D01*
X109447118Y-65029151D01*
X108725615Y-64805306D01*
X107974305Y-64726520D01*
X107222062Y-64795822D01*
X106497792Y-65010548D01*
X105829330Y-65362445D01*
X105788912Y-65389452D01*
X105428724Y-65879119D01*
X104472755Y-65879119D01*
X104606067Y-65693596D01*
X105170055Y-65147054D01*
X105821913Y-64709023D01*
X106541038Y-64393349D01*
X107309768Y-64208794D01*
X107974207Y-64160000D01*
X179040608Y-64160000D01*
X179852249Y-64232437D01*
G37*
%TD.AperFunction*%
D34*
X158134990Y-110106476D02*
X158094482Y-110094188D01*
X157970000Y-110081928D01*
X156855750Y-110085000D01*
X156697000Y-110243750D01*
X156697000Y-111093000D01*
X156717000Y-111093000D01*
X156717000Y-111347000D01*
X156697000Y-111347000D01*
X156697000Y-112196250D01*
X156855750Y-112355000D01*
X157970000Y-112358072D01*
X158094482Y-112345812D01*
X158134991Y-112333524D01*
X158134991Y-114185546D01*
X156294347Y-112344903D01*
X156443000Y-112196250D01*
X156443000Y-111347000D01*
X156423000Y-111347000D01*
X156423000Y-111093000D01*
X156443000Y-111093000D01*
X156443000Y-110243750D01*
X156284250Y-110085000D01*
X155604999Y-110083127D01*
X155604999Y-109224447D01*
X156471375Y-108358072D01*
X157970000Y-108358072D01*
X158094482Y-108345812D01*
X158134990Y-108333524D01*
X158134990Y-110106476D01*
%TA.AperFunction,Conductor*%
D35*
G36*
X158134990Y-110106476D02*
G01*
X158094482Y-110094188D01*
X157970000Y-110081928D01*
X156855750Y-110085000D01*
X156697000Y-110243750D01*
X156697000Y-111093000D01*
X156717000Y-111093000D01*
X156717000Y-111347000D01*
X156697000Y-111347000D01*
X156697000Y-112196250D01*
X156855750Y-112355000D01*
X157970000Y-112358072D01*
X158094482Y-112345812D01*
X158134991Y-112333524D01*
X158134991Y-114185546D01*
X156294347Y-112344903D01*
X156443000Y-112196250D01*
X156443000Y-111347000D01*
X156423000Y-111347000D01*
X156423000Y-111093000D01*
X156443000Y-111093000D01*
X156443000Y-110243750D01*
X156284250Y-110085000D01*
X155604999Y-110083127D01*
X155604999Y-109224447D01*
X156471375Y-108358072D01*
X157970000Y-108358072D01*
X158094482Y-108345812D01*
X158134990Y-108333524D01*
X158134990Y-110106476D01*
G37*
%TD.AperFunction*%
D34*
X129463992Y-104036746D02*
X129446928Y-104210000D01*
X129446928Y-104710000D01*
X129463992Y-104883254D01*
X129514528Y-105049850D01*
X129596595Y-105203386D01*
X129707038Y-105337962D01*
X129713594Y-105343342D01*
X129633815Y-105408815D01*
X129554463Y-105505506D01*
X129495498Y-105615820D01*
X129459188Y-105735518D01*
X129446928Y-105860000D01*
X129450000Y-106074250D01*
X129608750Y-106233000D01*
X130683000Y-106233000D01*
X130683000Y-106213000D01*
X130937000Y-106213000D01*
X130937000Y-106233000D01*
X130957000Y-106233000D01*
X130957000Y-106487000D01*
X130937000Y-106487000D01*
X130937000Y-107336250D01*
X131095750Y-107495000D01*
X131535000Y-107498072D01*
X131659482Y-107485812D01*
X131779180Y-107449502D01*
X131889494Y-107390537D01*
X131986185Y-107311185D01*
X132065537Y-107214494D01*
X132124502Y-107104180D01*
X132160812Y-106984482D01*
X132173072Y-106860000D01*
X132171803Y-106771492D01*
X132246014Y-106794003D01*
X132318826Y-106801174D01*
X132354774Y-106981898D01*
X132432795Y-107170256D01*
X132546063Y-107339774D01*
X132690226Y-107483937D01*
X132859744Y-107597205D01*
X133048102Y-107675226D01*
X133248061Y-107715000D01*
X133451939Y-107715000D01*
X133651898Y-107675226D01*
X133797295Y-107615000D01*
X134336928Y-107615000D01*
X134349188Y-107739482D01*
X134385498Y-107859180D01*
X134444463Y-107969494D01*
X134523815Y-108066185D01*
X134620506Y-108145537D01*
X134730820Y-108204502D01*
X134850518Y-108240812D01*
X134975000Y-108253072D01*
X135674250Y-108250000D01*
X135833000Y-108091250D01*
X135833000Y-107442000D01*
X134498750Y-107442000D01*
X134340000Y-107600750D01*
X134336928Y-107615000D01*
X133797295Y-107615000D01*
X133840256Y-107597205D01*
X134009774Y-107483937D01*
X134153937Y-107339774D01*
X134267205Y-107170256D01*
X134338617Y-106997854D01*
X134336928Y-107015000D01*
X134340000Y-107029250D01*
X134498750Y-107188000D01*
X135833000Y-107188000D01*
X135833000Y-107168000D01*
X136087000Y-107168000D01*
X136087000Y-107188000D01*
X136107000Y-107188000D01*
X136107000Y-107442000D01*
X136087000Y-107442000D01*
X136087000Y-108091250D01*
X136245750Y-108250000D01*
X136523647Y-108251221D01*
X134149869Y-110625000D01*
X128325741Y-110625000D01*
X128269999Y-110619510D01*
X128214257Y-110625000D01*
X128214248Y-110625000D01*
X128047501Y-110641423D01*
X127833553Y-110706324D01*
X127636377Y-110811716D01*
X127463551Y-110953551D01*
X127428011Y-110996857D01*
X125796054Y-112628815D01*
X121736273Y-108569035D01*
X121743072Y-108500000D01*
X121743072Y-107400000D01*
X121730812Y-107275518D01*
X121694502Y-107155820D01*
X121635537Y-107045506D01*
X121556185Y-106948815D01*
X121459494Y-106869463D01*
X121441791Y-106860000D01*
X129446928Y-106860000D01*
X129459188Y-106984482D01*
X129495498Y-107104180D01*
X129554463Y-107214494D01*
X129633815Y-107311185D01*
X129730506Y-107390537D01*
X129840820Y-107449502D01*
X129960518Y-107485812D01*
X130085000Y-107498072D01*
X130524250Y-107495000D01*
X130683000Y-107336250D01*
X130683000Y-106487000D01*
X129608750Y-106487000D01*
X129450000Y-106645750D01*
X129446928Y-106860000D01*
X121441791Y-106860000D01*
X121349180Y-106810498D01*
X121229482Y-106774188D01*
X121105000Y-106761928D01*
X119929166Y-106761928D01*
X119904323Y-106737085D01*
X119717752Y-106583970D01*
X119433714Y-106432148D01*
X119125516Y-106338658D01*
X118805000Y-106307089D01*
X118484484Y-106338658D01*
X118176286Y-106432148D01*
X117892248Y-106583970D01*
X117675406Y-106761928D01*
X116562873Y-106761928D01*
X117154802Y-106170000D01*
X126962678Y-106170000D01*
X127000000Y-106173676D01*
X127037322Y-106170000D01*
X127037333Y-106170000D01*
X127148986Y-106159003D01*
X127292247Y-106115546D01*
X127424276Y-106044974D01*
X127540001Y-105950001D01*
X127563804Y-105920997D01*
X129470931Y-104013872D01*
X129463992Y-104036746D01*
%TA.AperFunction,Conductor*%
D35*
G36*
X129463992Y-104036746D02*
G01*
X129446928Y-104210000D01*
X129446928Y-104710000D01*
X129463992Y-104883254D01*
X129514528Y-105049850D01*
X129596595Y-105203386D01*
X129707038Y-105337962D01*
X129713594Y-105343342D01*
X129633815Y-105408815D01*
X129554463Y-105505506D01*
X129495498Y-105615820D01*
X129459188Y-105735518D01*
X129446928Y-105860000D01*
X129450000Y-106074250D01*
X129608750Y-106233000D01*
X130683000Y-106233000D01*
X130683000Y-106213000D01*
X130937000Y-106213000D01*
X130937000Y-106233000D01*
X130957000Y-106233000D01*
X130957000Y-106487000D01*
X130937000Y-106487000D01*
X130937000Y-107336250D01*
X131095750Y-107495000D01*
X131535000Y-107498072D01*
X131659482Y-107485812D01*
X131779180Y-107449502D01*
X131889494Y-107390537D01*
X131986185Y-107311185D01*
X132065537Y-107214494D01*
X132124502Y-107104180D01*
X132160812Y-106984482D01*
X132173072Y-106860000D01*
X132171803Y-106771492D01*
X132246014Y-106794003D01*
X132318826Y-106801174D01*
X132354774Y-106981898D01*
X132432795Y-107170256D01*
X132546063Y-107339774D01*
X132690226Y-107483937D01*
X132859744Y-107597205D01*
X133048102Y-107675226D01*
X133248061Y-107715000D01*
X133451939Y-107715000D01*
X133651898Y-107675226D01*
X133797295Y-107615000D01*
X134336928Y-107615000D01*
X134349188Y-107739482D01*
X134385498Y-107859180D01*
X134444463Y-107969494D01*
X134523815Y-108066185D01*
X134620506Y-108145537D01*
X134730820Y-108204502D01*
X134850518Y-108240812D01*
X134975000Y-108253072D01*
X135674250Y-108250000D01*
X135833000Y-108091250D01*
X135833000Y-107442000D01*
X134498750Y-107442000D01*
X134340000Y-107600750D01*
X134336928Y-107615000D01*
X133797295Y-107615000D01*
X133840256Y-107597205D01*
X134009774Y-107483937D01*
X134153937Y-107339774D01*
X134267205Y-107170256D01*
X134338617Y-106997854D01*
X134336928Y-107015000D01*
X134340000Y-107029250D01*
X134498750Y-107188000D01*
X135833000Y-107188000D01*
X135833000Y-107168000D01*
X136087000Y-107168000D01*
X136087000Y-107188000D01*
X136107000Y-107188000D01*
X136107000Y-107442000D01*
X136087000Y-107442000D01*
X136087000Y-108091250D01*
X136245750Y-108250000D01*
X136523647Y-108251221D01*
X134149869Y-110625000D01*
X128325741Y-110625000D01*
X128269999Y-110619510D01*
X128214257Y-110625000D01*
X128214248Y-110625000D01*
X128047501Y-110641423D01*
X127833553Y-110706324D01*
X127636377Y-110811716D01*
X127463551Y-110953551D01*
X127428011Y-110996857D01*
X125796054Y-112628815D01*
X121736273Y-108569035D01*
X121743072Y-108500000D01*
X121743072Y-107400000D01*
X121730812Y-107275518D01*
X121694502Y-107155820D01*
X121635537Y-107045506D01*
X121556185Y-106948815D01*
X121459494Y-106869463D01*
X121441791Y-106860000D01*
X129446928Y-106860000D01*
X129459188Y-106984482D01*
X129495498Y-107104180D01*
X129554463Y-107214494D01*
X129633815Y-107311185D01*
X129730506Y-107390537D01*
X129840820Y-107449502D01*
X129960518Y-107485812D01*
X130085000Y-107498072D01*
X130524250Y-107495000D01*
X130683000Y-107336250D01*
X130683000Y-106487000D01*
X129608750Y-106487000D01*
X129450000Y-106645750D01*
X129446928Y-106860000D01*
X121441791Y-106860000D01*
X121349180Y-106810498D01*
X121229482Y-106774188D01*
X121105000Y-106761928D01*
X119929166Y-106761928D01*
X119904323Y-106737085D01*
X119717752Y-106583970D01*
X119433714Y-106432148D01*
X119125516Y-106338658D01*
X118805000Y-106307089D01*
X118484484Y-106338658D01*
X118176286Y-106432148D01*
X117892248Y-106583970D01*
X117675406Y-106761928D01*
X116562873Y-106761928D01*
X117154802Y-106170000D01*
X126962678Y-106170000D01*
X127000000Y-106173676D01*
X127037322Y-106170000D01*
X127037333Y-106170000D01*
X127148986Y-106159003D01*
X127292247Y-106115546D01*
X127424276Y-106044974D01*
X127540001Y-105950001D01*
X127563804Y-105920997D01*
X129470931Y-104013872D01*
X129463992Y-104036746D01*
G37*
%TD.AperFunction*%
D34*
X164609744Y-108867205D02*
X164798102Y-108945226D01*
X164998061Y-108985000D01*
X165201939Y-108985000D01*
X165401898Y-108945226D01*
X165590256Y-108867205D01*
X165638454Y-108835000D01*
X168252761Y-108835000D01*
X166540687Y-110547075D01*
X166478286Y-110598286D01*
X166273969Y-110847249D01*
X166223875Y-110940968D01*
X166128397Y-110911208D01*
X165279605Y-111760000D01*
X165293748Y-111774143D01*
X165114143Y-111953748D01*
X165100000Y-111939605D01*
X165085858Y-111953748D01*
X164906253Y-111774143D01*
X164920395Y-111760000D01*
X164906253Y-111745858D01*
X165085858Y-111566253D01*
X165100000Y-111580395D01*
X165948792Y-110731603D01*
X165871157Y-110482528D01*
X165607117Y-110356629D01*
X165323589Y-110284661D01*
X165031469Y-110269389D01*
X164741981Y-110311401D01*
X164466253Y-110409081D01*
X164445001Y-110420440D01*
X164445001Y-108757128D01*
X164609744Y-108867205D01*
%TA.AperFunction,Conductor*%
D35*
G36*
X164609744Y-108867205D02*
G01*
X164798102Y-108945226D01*
X164998061Y-108985000D01*
X165201939Y-108985000D01*
X165401898Y-108945226D01*
X165590256Y-108867205D01*
X165638454Y-108835000D01*
X168252761Y-108835000D01*
X166540687Y-110547075D01*
X166478286Y-110598286D01*
X166273969Y-110847249D01*
X166223875Y-110940968D01*
X166128397Y-110911208D01*
X165279605Y-111760000D01*
X165293748Y-111774143D01*
X165114143Y-111953748D01*
X165100000Y-111939605D01*
X165085858Y-111953748D01*
X164906253Y-111774143D01*
X164920395Y-111760000D01*
X164906253Y-111745858D01*
X165085858Y-111566253D01*
X165100000Y-111580395D01*
X165948792Y-110731603D01*
X165871157Y-110482528D01*
X165607117Y-110356629D01*
X165323589Y-110284661D01*
X165031469Y-110269389D01*
X164741981Y-110311401D01*
X164466253Y-110409081D01*
X164445001Y-110420440D01*
X164445001Y-108757128D01*
X164609744Y-108867205D01*
G37*
%TD.AperFunction*%
D34*
X171397752Y-98547359D02*
X171554248Y-98781572D01*
X171753429Y-98980753D01*
X171961827Y-99120000D01*
X171753429Y-99259247D01*
X171554248Y-99458428D01*
X171397752Y-99692641D01*
X171289955Y-99952884D01*
X171235001Y-100229157D01*
X171235001Y-100510843D01*
X171241236Y-100542187D01*
X170234951Y-101548472D01*
X170201184Y-101576184D01*
X170173471Y-101609952D01*
X170173468Y-101609955D01*
X170090590Y-101710942D01*
X170008412Y-101864688D01*
X169957805Y-102031511D01*
X169940719Y-102205001D01*
X169945001Y-102248480D01*
X169945000Y-105291928D01*
X169530000Y-105291928D01*
X169505550Y-105294336D01*
X169480991Y-105294336D01*
X169356510Y-105306596D01*
X169260377Y-105325718D01*
X169140681Y-105362027D01*
X169050125Y-105399536D01*
X168939808Y-105458502D01*
X168858309Y-105512958D01*
X168761618Y-105592310D01*
X168692310Y-105661618D01*
X168612958Y-105758309D01*
X168558502Y-105839808D01*
X168499536Y-105950125D01*
X168462027Y-106040681D01*
X168425718Y-106160377D01*
X168406596Y-106256510D01*
X168394336Y-106380991D01*
X168394336Y-106405550D01*
X168391928Y-106430000D01*
X168391928Y-106930000D01*
X168394336Y-106954450D01*
X168394336Y-106979009D01*
X168402805Y-107065000D01*
X166642675Y-107065000D01*
X166838863Y-106868812D01*
X166949306Y-106734236D01*
X167031373Y-106580700D01*
X167081909Y-106414104D01*
X167098973Y-106240850D01*
X167098142Y-106232411D01*
X167200850Y-106242527D01*
X167325331Y-106230266D01*
X167445030Y-106193957D01*
X167555344Y-106134993D01*
X167652035Y-106055640D01*
X167801360Y-105901970D01*
X167801360Y-105677464D01*
X167041751Y-104917854D01*
X167027609Y-104931997D01*
X166848004Y-104752392D01*
X166862146Y-104738249D01*
X167221356Y-104738249D01*
X167980966Y-105497858D01*
X168205472Y-105497858D01*
X168359142Y-105348533D01*
X168438495Y-105251842D01*
X168497459Y-105141528D01*
X168533768Y-105021829D01*
X168546029Y-104897348D01*
X168533768Y-104772867D01*
X168497459Y-104653168D01*
X168438495Y-104542854D01*
X168359142Y-104446163D01*
X168046373Y-104137739D01*
X167821867Y-104137739D01*
X167221356Y-104738249D01*
X166862146Y-104738249D01*
X166848003Y-104724107D01*
X167027609Y-104544501D01*
X167041751Y-104558644D01*
X167642261Y-103958133D01*
X167642261Y-103733627D01*
X167422936Y-103511213D01*
X167625057Y-103309092D01*
X167704409Y-103212401D01*
X167704665Y-103211922D01*
X167705142Y-103211667D01*
X167801833Y-103132315D01*
X168190742Y-102743406D01*
X168270094Y-102646715D01*
X168270349Y-102646238D01*
X168270828Y-102645982D01*
X168367519Y-102566630D01*
X168756428Y-102177721D01*
X168835780Y-102081030D01*
X168894745Y-101970716D01*
X168931055Y-101851018D01*
X168943315Y-101726536D01*
X168931055Y-101602054D01*
X168894745Y-101482356D01*
X168835780Y-101372042D01*
X168756428Y-101275351D01*
X167811077Y-100330000D01*
X168756428Y-99384649D01*
X168835780Y-99287958D01*
X168894745Y-99177644D01*
X168931055Y-99057946D01*
X168943315Y-98933464D01*
X168931055Y-98808982D01*
X168894745Y-98689284D01*
X168835780Y-98578970D01*
X168756428Y-98482279D01*
X168688009Y-98413860D01*
X171342454Y-98413860D01*
X171397752Y-98547359D01*
%TA.AperFunction,Conductor*%
D35*
G36*
X171397752Y-98547359D02*
G01*
X171554248Y-98781572D01*
X171753429Y-98980753D01*
X171961827Y-99120000D01*
X171753429Y-99259247D01*
X171554248Y-99458428D01*
X171397752Y-99692641D01*
X171289955Y-99952884D01*
X171235001Y-100229157D01*
X171235001Y-100510843D01*
X171241236Y-100542187D01*
X170234951Y-101548472D01*
X170201184Y-101576184D01*
X170173471Y-101609952D01*
X170173468Y-101609955D01*
X170090590Y-101710942D01*
X170008412Y-101864688D01*
X169957805Y-102031511D01*
X169940719Y-102205001D01*
X169945001Y-102248480D01*
X169945000Y-105291928D01*
X169530000Y-105291928D01*
X169505550Y-105294336D01*
X169480991Y-105294336D01*
X169356510Y-105306596D01*
X169260377Y-105325718D01*
X169140681Y-105362027D01*
X169050125Y-105399536D01*
X168939808Y-105458502D01*
X168858309Y-105512958D01*
X168761618Y-105592310D01*
X168692310Y-105661618D01*
X168612958Y-105758309D01*
X168558502Y-105839808D01*
X168499536Y-105950125D01*
X168462027Y-106040681D01*
X168425718Y-106160377D01*
X168406596Y-106256510D01*
X168394336Y-106380991D01*
X168394336Y-106405550D01*
X168391928Y-106430000D01*
X168391928Y-106930000D01*
X168394336Y-106954450D01*
X168394336Y-106979009D01*
X168402805Y-107065000D01*
X166642675Y-107065000D01*
X166838863Y-106868812D01*
X166949306Y-106734236D01*
X167031373Y-106580700D01*
X167081909Y-106414104D01*
X167098973Y-106240850D01*
X167098142Y-106232411D01*
X167200850Y-106242527D01*
X167325331Y-106230266D01*
X167445030Y-106193957D01*
X167555344Y-106134993D01*
X167652035Y-106055640D01*
X167801360Y-105901970D01*
X167801360Y-105677464D01*
X167041751Y-104917854D01*
X167027609Y-104931997D01*
X166848004Y-104752392D01*
X166862146Y-104738249D01*
X167221356Y-104738249D01*
X167980966Y-105497858D01*
X168205472Y-105497858D01*
X168359142Y-105348533D01*
X168438495Y-105251842D01*
X168497459Y-105141528D01*
X168533768Y-105021829D01*
X168546029Y-104897348D01*
X168533768Y-104772867D01*
X168497459Y-104653168D01*
X168438495Y-104542854D01*
X168359142Y-104446163D01*
X168046373Y-104137739D01*
X167821867Y-104137739D01*
X167221356Y-104738249D01*
X166862146Y-104738249D01*
X166848003Y-104724107D01*
X167027609Y-104544501D01*
X167041751Y-104558644D01*
X167642261Y-103958133D01*
X167642261Y-103733627D01*
X167422936Y-103511213D01*
X167625057Y-103309092D01*
X167704409Y-103212401D01*
X167704665Y-103211922D01*
X167705142Y-103211667D01*
X167801833Y-103132315D01*
X168190742Y-102743406D01*
X168270094Y-102646715D01*
X168270349Y-102646238D01*
X168270828Y-102645982D01*
X168367519Y-102566630D01*
X168756428Y-102177721D01*
X168835780Y-102081030D01*
X168894745Y-101970716D01*
X168931055Y-101851018D01*
X168943315Y-101726536D01*
X168931055Y-101602054D01*
X168894745Y-101482356D01*
X168835780Y-101372042D01*
X168756428Y-101275351D01*
X167811077Y-100330000D01*
X168756428Y-99384649D01*
X168835780Y-99287958D01*
X168894745Y-99177644D01*
X168931055Y-99057946D01*
X168943315Y-98933464D01*
X168931055Y-98808982D01*
X168894745Y-98689284D01*
X168835780Y-98578970D01*
X168756428Y-98482279D01*
X168688009Y-98413860D01*
X171342454Y-98413860D01*
X171397752Y-98547359D01*
G37*
%TD.AperFunction*%
D34*
X134336928Y-103805000D02*
X134349188Y-103929482D01*
X134385498Y-104049180D01*
X134434043Y-104140000D01*
X134385498Y-104230820D01*
X134349188Y-104350518D01*
X134336928Y-104475000D01*
X134336928Y-105075000D01*
X134349188Y-105199482D01*
X134375130Y-105285000D01*
X134022333Y-105285000D01*
X133985000Y-105281323D01*
X133947667Y-105285000D01*
X132709803Y-105285000D01*
X132169641Y-104744839D01*
X132173072Y-104710000D01*
X132173072Y-104210000D01*
X132156008Y-104036746D01*
X132105472Y-103870150D01*
X132023405Y-103716614D01*
X131952323Y-103630000D01*
X134336928Y-103630000D01*
X134336928Y-103805000D01*
%TA.AperFunction,Conductor*%
D35*
G36*
X134336928Y-103805000D02*
G01*
X134349188Y-103929482D01*
X134385498Y-104049180D01*
X134434043Y-104140000D01*
X134385498Y-104230820D01*
X134349188Y-104350518D01*
X134336928Y-104475000D01*
X134336928Y-105075000D01*
X134349188Y-105199482D01*
X134375130Y-105285000D01*
X134022333Y-105285000D01*
X133985000Y-105281323D01*
X133947667Y-105285000D01*
X132709803Y-105285000D01*
X132169641Y-104744839D01*
X132173072Y-104710000D01*
X132173072Y-104210000D01*
X132156008Y-104036746D01*
X132105472Y-103870150D01*
X132023405Y-103716614D01*
X131952323Y-103630000D01*
X134336928Y-103630000D01*
X134336928Y-103805000D01*
G37*
%TD.AperFunction*%
D34*
X134600498Y-93938320D02*
X134564188Y-94058018D01*
X134551928Y-94182500D01*
X134555000Y-94409250D01*
X134713750Y-94568000D01*
X135763000Y-94568000D01*
X135763000Y-94548000D01*
X136017000Y-94548000D01*
X136017000Y-94568000D01*
X137066250Y-94568000D01*
X137225000Y-94409250D01*
X137225389Y-94380521D01*
X138565000Y-95720132D01*
X138565001Y-102249239D01*
X138559509Y-102305000D01*
X138581423Y-102527498D01*
X138646324Y-102741446D01*
X138664824Y-102776057D01*
X138751717Y-102938623D01*
X138893552Y-103111449D01*
X138936860Y-103146991D01*
X139276928Y-103487059D01*
X139276928Y-103805000D01*
X139289188Y-103929482D01*
X139325498Y-104049180D01*
X139374043Y-104140000D01*
X139325498Y-104230820D01*
X139289188Y-104350518D01*
X139276928Y-104475000D01*
X139276928Y-105075000D01*
X139289188Y-105199482D01*
X139302821Y-105244423D01*
X139236449Y-105163549D01*
X139193140Y-105128006D01*
X138076998Y-104011865D01*
X138041451Y-103968551D01*
X137868625Y-103826716D01*
X137671449Y-103721324D01*
X137583072Y-103694515D01*
X137583072Y-103205000D01*
X137570812Y-103080518D01*
X137534502Y-102960820D01*
X137475537Y-102850506D01*
X137396185Y-102753815D01*
X137299494Y-102674463D01*
X137189180Y-102615498D01*
X137069482Y-102579188D01*
X136945000Y-102566928D01*
X136260215Y-102566928D01*
X136380256Y-102517205D01*
X136549774Y-102403937D01*
X136693937Y-102259774D01*
X136807205Y-102090256D01*
X136885226Y-101901898D01*
X136925000Y-101701939D01*
X136925000Y-101498061D01*
X136885226Y-101298102D01*
X136807205Y-101109744D01*
X136693937Y-100940226D01*
X136549774Y-100796063D01*
X136519716Y-100775979D01*
X136523804Y-100770997D01*
X137199802Y-100095000D01*
X137261939Y-100095000D01*
X137461898Y-100055226D01*
X137650256Y-99977205D01*
X137819774Y-99863937D01*
X137963937Y-99719774D01*
X138077205Y-99550256D01*
X138155226Y-99361898D01*
X138195000Y-99161939D01*
X138195000Y-98958061D01*
X138155226Y-98758102D01*
X138077205Y-98569744D01*
X137963937Y-98400226D01*
X137819774Y-98256063D01*
X137650256Y-98142795D01*
X137461898Y-98064774D01*
X137261939Y-98025000D01*
X137058061Y-98025000D01*
X136858102Y-98064774D01*
X136669744Y-98142795D01*
X136500226Y-98256063D01*
X136356063Y-98400226D01*
X136242795Y-98569744D01*
X136164774Y-98758102D01*
X136125000Y-98958061D01*
X136125000Y-99020198D01*
X135645199Y-99500000D01*
X133653072Y-99500000D01*
X133653072Y-99275000D01*
X133640812Y-99150518D01*
X133604502Y-99030820D01*
X133545537Y-98920506D01*
X133466185Y-98823815D01*
X133369494Y-98744463D01*
X133259180Y-98685498D01*
X133139482Y-98649188D01*
X133015000Y-98636928D01*
X132415000Y-98636928D01*
X132290518Y-98649188D01*
X132170820Y-98685498D01*
X132080000Y-98734043D01*
X131989180Y-98685498D01*
X131869482Y-98649188D01*
X131745000Y-98636928D01*
X131496732Y-98636928D01*
X129794996Y-96935193D01*
X129875000Y-96943072D01*
X129889250Y-96940000D01*
X130048000Y-96781250D01*
X130048000Y-95447000D01*
X130032983Y-95447000D01*
X130040000Y-95375752D01*
X130040000Y-95193000D01*
X130048000Y-95193000D01*
X130048000Y-95173000D01*
X130302000Y-95173000D01*
X130302000Y-95193000D01*
X130322000Y-95193000D01*
X130322000Y-95447000D01*
X130302000Y-95447000D01*
X130302000Y-96781250D01*
X130460750Y-96940000D01*
X130475000Y-96943072D01*
X130599482Y-96930812D01*
X130719180Y-96894502D01*
X130754595Y-96875572D01*
X130810026Y-96979276D01*
X130879168Y-97063525D01*
X130905000Y-97095001D01*
X130933996Y-97118797D01*
X130956200Y-97141002D01*
X130980000Y-97170002D01*
X131095725Y-97264975D01*
X131227754Y-97335547D01*
X131371015Y-97379004D01*
X131482668Y-97390001D01*
X131482678Y-97390001D01*
X131520000Y-97393677D01*
X131557323Y-97390001D01*
X134795246Y-97390001D01*
X134812038Y-97410462D01*
X134946613Y-97520905D01*
X135100149Y-97602972D01*
X135266745Y-97653508D01*
X135439999Y-97670572D01*
X136340001Y-97670572D01*
X136513255Y-97653508D01*
X136679851Y-97602972D01*
X136833387Y-97520905D01*
X136967962Y-97410462D01*
X137078405Y-97275887D01*
X137160472Y-97122351D01*
X137211008Y-96955755D01*
X137228072Y-96782501D01*
X137228072Y-96257499D01*
X137211008Y-96084245D01*
X137160472Y-95917649D01*
X137078405Y-95764113D01*
X137011724Y-95682863D01*
X137041185Y-95658685D01*
X137120537Y-95561994D01*
X137179502Y-95451680D01*
X137215812Y-95331982D01*
X137228072Y-95207500D01*
X137225000Y-94980750D01*
X137066250Y-94822000D01*
X136017000Y-94822000D01*
X136017000Y-94842000D01*
X135763000Y-94842000D01*
X135763000Y-94822000D01*
X134713750Y-94822000D01*
X134555000Y-94980750D01*
X134551928Y-95207500D01*
X134564188Y-95331982D01*
X134600498Y-95451680D01*
X134659463Y-95561994D01*
X134738815Y-95658685D01*
X134768276Y-95682863D01*
X134701595Y-95764113D01*
X134644996Y-95870001D01*
X133651161Y-95870001D01*
X133650000Y-95605750D01*
X133491250Y-95447000D01*
X132842000Y-95447000D01*
X132842000Y-95467000D01*
X132588000Y-95467000D01*
X132588000Y-95447000D01*
X132568000Y-95447000D01*
X132568000Y-95193000D01*
X132588000Y-95193000D01*
X132588000Y-95173000D01*
X132842000Y-95173000D01*
X132842000Y-95193000D01*
X133491250Y-95193000D01*
X133650000Y-95034250D01*
X133653072Y-94335000D01*
X133640812Y-94210518D01*
X133604502Y-94090820D01*
X133545537Y-93980506D01*
X133466185Y-93883815D01*
X133418889Y-93845000D01*
X134650379Y-93845000D01*
X134600498Y-93938320D01*
%TA.AperFunction,Conductor*%
D35*
G36*
X134600498Y-93938320D02*
G01*
X134564188Y-94058018D01*
X134551928Y-94182500D01*
X134555000Y-94409250D01*
X134713750Y-94568000D01*
X135763000Y-94568000D01*
X135763000Y-94548000D01*
X136017000Y-94548000D01*
X136017000Y-94568000D01*
X137066250Y-94568000D01*
X137225000Y-94409250D01*
X137225389Y-94380521D01*
X138565000Y-95720132D01*
X138565001Y-102249239D01*
X138559509Y-102305000D01*
X138581423Y-102527498D01*
X138646324Y-102741446D01*
X138664824Y-102776057D01*
X138751717Y-102938623D01*
X138893552Y-103111449D01*
X138936860Y-103146991D01*
X139276928Y-103487059D01*
X139276928Y-103805000D01*
X139289188Y-103929482D01*
X139325498Y-104049180D01*
X139374043Y-104140000D01*
X139325498Y-104230820D01*
X139289188Y-104350518D01*
X139276928Y-104475000D01*
X139276928Y-105075000D01*
X139289188Y-105199482D01*
X139302821Y-105244423D01*
X139236449Y-105163549D01*
X139193140Y-105128006D01*
X138076998Y-104011865D01*
X138041451Y-103968551D01*
X137868625Y-103826716D01*
X137671449Y-103721324D01*
X137583072Y-103694515D01*
X137583072Y-103205000D01*
X137570812Y-103080518D01*
X137534502Y-102960820D01*
X137475537Y-102850506D01*
X137396185Y-102753815D01*
X137299494Y-102674463D01*
X137189180Y-102615498D01*
X137069482Y-102579188D01*
X136945000Y-102566928D01*
X136260215Y-102566928D01*
X136380256Y-102517205D01*
X136549774Y-102403937D01*
X136693937Y-102259774D01*
X136807205Y-102090256D01*
X136885226Y-101901898D01*
X136925000Y-101701939D01*
X136925000Y-101498061D01*
X136885226Y-101298102D01*
X136807205Y-101109744D01*
X136693937Y-100940226D01*
X136549774Y-100796063D01*
X136519716Y-100775979D01*
X136523804Y-100770997D01*
X137199802Y-100095000D01*
X137261939Y-100095000D01*
X137461898Y-100055226D01*
X137650256Y-99977205D01*
X137819774Y-99863937D01*
X137963937Y-99719774D01*
X138077205Y-99550256D01*
X138155226Y-99361898D01*
X138195000Y-99161939D01*
X138195000Y-98958061D01*
X138155226Y-98758102D01*
X138077205Y-98569744D01*
X137963937Y-98400226D01*
X137819774Y-98256063D01*
X137650256Y-98142795D01*
X137461898Y-98064774D01*
X137261939Y-98025000D01*
X137058061Y-98025000D01*
X136858102Y-98064774D01*
X136669744Y-98142795D01*
X136500226Y-98256063D01*
X136356063Y-98400226D01*
X136242795Y-98569744D01*
X136164774Y-98758102D01*
X136125000Y-98958061D01*
X136125000Y-99020198D01*
X135645199Y-99500000D01*
X133653072Y-99500000D01*
X133653072Y-99275000D01*
X133640812Y-99150518D01*
X133604502Y-99030820D01*
X133545537Y-98920506D01*
X133466185Y-98823815D01*
X133369494Y-98744463D01*
X133259180Y-98685498D01*
X133139482Y-98649188D01*
X133015000Y-98636928D01*
X132415000Y-98636928D01*
X132290518Y-98649188D01*
X132170820Y-98685498D01*
X132080000Y-98734043D01*
X131989180Y-98685498D01*
X131869482Y-98649188D01*
X131745000Y-98636928D01*
X131496732Y-98636928D01*
X129794996Y-96935193D01*
X129875000Y-96943072D01*
X129889250Y-96940000D01*
X130048000Y-96781250D01*
X130048000Y-95447000D01*
X130032983Y-95447000D01*
X130040000Y-95375752D01*
X130040000Y-95193000D01*
X130048000Y-95193000D01*
X130048000Y-95173000D01*
X130302000Y-95173000D01*
X130302000Y-95193000D01*
X130322000Y-95193000D01*
X130322000Y-95447000D01*
X130302000Y-95447000D01*
X130302000Y-96781250D01*
X130460750Y-96940000D01*
X130475000Y-96943072D01*
X130599482Y-96930812D01*
X130719180Y-96894502D01*
X130754595Y-96875572D01*
X130810026Y-96979276D01*
X130879168Y-97063525D01*
X130905000Y-97095001D01*
X130933996Y-97118797D01*
X130956200Y-97141002D01*
X130980000Y-97170002D01*
X131095725Y-97264975D01*
X131227754Y-97335547D01*
X131371015Y-97379004D01*
X131482668Y-97390001D01*
X131482678Y-97390001D01*
X131520000Y-97393677D01*
X131557323Y-97390001D01*
X134795246Y-97390001D01*
X134812038Y-97410462D01*
X134946613Y-97520905D01*
X135100149Y-97602972D01*
X135266745Y-97653508D01*
X135439999Y-97670572D01*
X136340001Y-97670572D01*
X136513255Y-97653508D01*
X136679851Y-97602972D01*
X136833387Y-97520905D01*
X136967962Y-97410462D01*
X137078405Y-97275887D01*
X137160472Y-97122351D01*
X137211008Y-96955755D01*
X137228072Y-96782501D01*
X137228072Y-96257499D01*
X137211008Y-96084245D01*
X137160472Y-95917649D01*
X137078405Y-95764113D01*
X137011724Y-95682863D01*
X137041185Y-95658685D01*
X137120537Y-95561994D01*
X137179502Y-95451680D01*
X137215812Y-95331982D01*
X137228072Y-95207500D01*
X137225000Y-94980750D01*
X137066250Y-94822000D01*
X136017000Y-94822000D01*
X136017000Y-94842000D01*
X135763000Y-94842000D01*
X135763000Y-94822000D01*
X134713750Y-94822000D01*
X134555000Y-94980750D01*
X134551928Y-95207500D01*
X134564188Y-95331982D01*
X134600498Y-95451680D01*
X134659463Y-95561994D01*
X134738815Y-95658685D01*
X134768276Y-95682863D01*
X134701595Y-95764113D01*
X134644996Y-95870001D01*
X133651161Y-95870001D01*
X133650000Y-95605750D01*
X133491250Y-95447000D01*
X132842000Y-95447000D01*
X132842000Y-95467000D01*
X132588000Y-95467000D01*
X132588000Y-95447000D01*
X132568000Y-95447000D01*
X132568000Y-95193000D01*
X132588000Y-95193000D01*
X132588000Y-95173000D01*
X132842000Y-95173000D01*
X132842000Y-95193000D01*
X133491250Y-95193000D01*
X133650000Y-95034250D01*
X133653072Y-94335000D01*
X133640812Y-94210518D01*
X133604502Y-94090820D01*
X133545537Y-93980506D01*
X133466185Y-93883815D01*
X133418889Y-93845000D01*
X134650379Y-93845000D01*
X134600498Y-93938320D01*
G37*
%TD.AperFunction*%
D34*
X177959247Y-98781572D02*
X178158428Y-98980753D01*
X178366826Y-99120000D01*
X178158428Y-99259247D01*
X177959247Y-99458428D01*
X177941492Y-99485000D01*
X173793509Y-99485000D01*
X173775754Y-99458428D01*
X173576573Y-99259247D01*
X173368175Y-99120000D01*
X173576573Y-98980753D01*
X173775754Y-98781572D01*
X173877031Y-98630000D01*
X177857970Y-98630000D01*
X177959247Y-98781572D01*
%TA.AperFunction,Conductor*%
D35*
G36*
X177959247Y-98781572D02*
G01*
X178158428Y-98980753D01*
X178366826Y-99120000D01*
X178158428Y-99259247D01*
X177959247Y-99458428D01*
X177941492Y-99485000D01*
X173793509Y-99485000D01*
X173775754Y-99458428D01*
X173576573Y-99259247D01*
X173368175Y-99120000D01*
X173576573Y-98980753D01*
X173775754Y-98781572D01*
X173877031Y-98630000D01*
X177857970Y-98630000D01*
X177959247Y-98781572D01*
G37*
%TD.AperFunction*%
D34*
X156586311Y-98259540D02*
X156363572Y-98482279D01*
X156312349Y-98544695D01*
X153961889Y-98544695D01*
X155416678Y-97089906D01*
X156586311Y-98259540D01*
%TA.AperFunction,Conductor*%
D35*
G36*
X156586311Y-98259540D02*
G01*
X156363572Y-98482279D01*
X156312349Y-98544695D01*
X153961889Y-98544695D01*
X155416678Y-97089906D01*
X156586311Y-98259540D01*
G37*
%TD.AperFunction*%
D34*
X159576022Y-95592397D02*
X159582202Y-95655145D01*
X159466408Y-95643741D01*
X159341926Y-95656001D01*
X159316790Y-95663626D01*
X159186570Y-95663626D01*
X159112962Y-95750716D01*
X159111914Y-95751276D01*
X159015223Y-95830628D01*
X158626314Y-96219537D01*
X158546962Y-96316228D01*
X158546401Y-96317277D01*
X158459311Y-96390885D01*
X158459311Y-96521107D01*
X158451687Y-96546240D01*
X158439427Y-96670722D01*
X158450831Y-96786516D01*
X158335037Y-96775112D01*
X158210555Y-96787372D01*
X158185419Y-96794997D01*
X158055199Y-96794997D01*
X157981591Y-96882087D01*
X157980543Y-96882647D01*
X157883852Y-96961999D01*
X157661113Y-97184738D01*
X156491479Y-96015105D01*
X156884486Y-95622098D01*
X156963838Y-95525407D01*
X157022803Y-95415093D01*
X157059113Y-95295395D01*
X157071373Y-95170913D01*
X157059113Y-95046431D01*
X157022803Y-94926733D01*
X156963838Y-94816419D01*
X156884486Y-94719728D01*
X155634758Y-93470000D01*
X157453626Y-93470000D01*
X159576022Y-95592397D01*
%TA.AperFunction,Conductor*%
D35*
G36*
X159576022Y-95592397D02*
G01*
X159582202Y-95655145D01*
X159466408Y-95643741D01*
X159341926Y-95656001D01*
X159316790Y-95663626D01*
X159186570Y-95663626D01*
X159112962Y-95750716D01*
X159111914Y-95751276D01*
X159015223Y-95830628D01*
X158626314Y-96219537D01*
X158546962Y-96316228D01*
X158546401Y-96317277D01*
X158459311Y-96390885D01*
X158459311Y-96521107D01*
X158451687Y-96546240D01*
X158439427Y-96670722D01*
X158450831Y-96786516D01*
X158335037Y-96775112D01*
X158210555Y-96787372D01*
X158185419Y-96794997D01*
X158055199Y-96794997D01*
X157981591Y-96882087D01*
X157980543Y-96882647D01*
X157883852Y-96961999D01*
X157661113Y-97184738D01*
X156491479Y-96015105D01*
X156884486Y-95622098D01*
X156963838Y-95525407D01*
X157022803Y-95415093D01*
X157059113Y-95295395D01*
X157071373Y-95170913D01*
X157059113Y-95046431D01*
X157022803Y-94926733D01*
X156963838Y-94816419D01*
X156884486Y-94719728D01*
X155634758Y-93470000D01*
X157453626Y-93470000D01*
X159576022Y-95592397D01*
G37*
%TD.AperFunction*%
D34*
X177959247Y-96281572D02*
X178158428Y-96480753D01*
X178366826Y-96620000D01*
X178158428Y-96759247D01*
X177959247Y-96958428D01*
X177857970Y-97110000D01*
X173877031Y-97110000D01*
X173775754Y-96958428D01*
X173576573Y-96759247D01*
X173368175Y-96620000D01*
X173576573Y-96480753D01*
X173775754Y-96281572D01*
X173877031Y-96130000D01*
X177857970Y-96130000D01*
X177959247Y-96281572D01*
%TA.AperFunction,Conductor*%
D35*
G36*
X177959247Y-96281572D02*
G01*
X178158428Y-96480753D01*
X178366826Y-96620000D01*
X178158428Y-96759247D01*
X177959247Y-96958428D01*
X177857970Y-97110000D01*
X173877031Y-97110000D01*
X173775754Y-96958428D01*
X173576573Y-96759247D01*
X173368175Y-96620000D01*
X173576573Y-96480753D01*
X173775754Y-96281572D01*
X173877031Y-96130000D01*
X177857970Y-96130000D01*
X177959247Y-96281572D01*
G37*
%TD.AperFunction*%
%TD*%
M02*
