%TF.GenerationSoftware,KiCad,Pcbnew,(5.1.8-0-10_14)*%
%TF.CreationDate,2021-01-12T16:11:11+01:00*%
%TF.ProjectId,battery_checker,62617474-6572-4795-9f63-6865636b6572,rev?*%
%TF.SameCoordinates,Original*%
%TF.FileFunction,Legend,Top*%
%TF.FilePolarity,Positive*%
%FSLAX46Y46*%
G04 Gerber Fmt 4.6, Leading zero omitted, Abs format (unit mm)*
G04 Created by KiCad (PCBNEW (5.1.8-0-10_14)) date 2021-01-12 16:11:11*
%MOMM*%
%LPD*%
G01*
G04 APERTURE LIST*
%ADD10C,0.300000*%
%ADD11C,0.250000*%
%ADD12C,0.200000*%
%ADD13C,0.120000*%
%ADD14C,0.127000*%
%ADD15C,0.150000*%
%ADD16C,0.015000*%
G04 APERTURE END LIST*
D10*
X112312142Y-66137142D02*
X113455000Y-66137142D01*
X112883571Y-66708571D02*
X112883571Y-65565714D01*
X112312142Y-68687142D02*
X113455000Y-68687142D01*
X112883571Y-69258571D02*
X112883571Y-68115714D01*
X112312142Y-71237142D02*
X113455000Y-71237142D01*
X112883571Y-71808571D02*
X112883571Y-70665714D01*
X172002142Y-66137142D02*
X173145000Y-66137142D01*
X172002142Y-68687142D02*
X173145000Y-68687142D01*
X172002142Y-71237142D02*
X173145000Y-71237142D01*
D11*
X118415357Y-70905714D02*
X118605833Y-71572380D01*
X118796309Y-71096190D01*
X118986785Y-71572380D01*
X119177261Y-70905714D01*
X119462976Y-70905714D02*
X119653452Y-71572380D01*
X119843928Y-71096190D01*
X120034404Y-71572380D01*
X120224880Y-70905714D01*
X120510595Y-70905714D02*
X120701071Y-71572380D01*
X120891547Y-71096190D01*
X121082023Y-71572380D01*
X121272500Y-70905714D01*
X121653452Y-71477142D02*
X121701071Y-71524761D01*
X121653452Y-71572380D01*
X121605833Y-71524761D01*
X121653452Y-71477142D01*
X121653452Y-71572380D01*
X122558214Y-70905714D02*
X122558214Y-71715238D01*
X122510595Y-71810476D01*
X122462976Y-71858095D01*
X122367738Y-71905714D01*
X122224880Y-71905714D01*
X122129642Y-71858095D01*
X122558214Y-71524761D02*
X122462976Y-71572380D01*
X122272500Y-71572380D01*
X122177261Y-71524761D01*
X122129642Y-71477142D01*
X122082023Y-71381904D01*
X122082023Y-71096190D01*
X122129642Y-71000952D01*
X122177261Y-70953333D01*
X122272500Y-70905714D01*
X122462976Y-70905714D01*
X122558214Y-70953333D01*
X123034404Y-71572380D02*
X123034404Y-70905714D01*
X123034404Y-70572380D02*
X122986785Y-70620000D01*
X123034404Y-70667619D01*
X123082023Y-70620000D01*
X123034404Y-70572380D01*
X123034404Y-70667619D01*
X123367738Y-70905714D02*
X123748690Y-70905714D01*
X123510595Y-70572380D02*
X123510595Y-71429523D01*
X123558214Y-71524761D01*
X123653452Y-71572380D01*
X123748690Y-71572380D01*
X124082023Y-71572380D02*
X124082023Y-70572380D01*
X124510595Y-71572380D02*
X124510595Y-71048571D01*
X124462976Y-70953333D01*
X124367738Y-70905714D01*
X124224880Y-70905714D01*
X124129642Y-70953333D01*
X124082023Y-71000952D01*
X125415357Y-70905714D02*
X125415357Y-71572380D01*
X124986785Y-70905714D02*
X124986785Y-71429523D01*
X125034404Y-71524761D01*
X125129642Y-71572380D01*
X125272500Y-71572380D01*
X125367738Y-71524761D01*
X125415357Y-71477142D01*
X125891547Y-71572380D02*
X125891547Y-70572380D01*
X125891547Y-70953333D02*
X125986785Y-70905714D01*
X126177261Y-70905714D01*
X126272500Y-70953333D01*
X126320119Y-71000952D01*
X126367738Y-71096190D01*
X126367738Y-71381904D01*
X126320119Y-71477142D01*
X126272500Y-71524761D01*
X126177261Y-71572380D01*
X125986785Y-71572380D01*
X125891547Y-71524761D01*
X126796309Y-71477142D02*
X126843928Y-71524761D01*
X126796309Y-71572380D01*
X126748690Y-71524761D01*
X126796309Y-71477142D01*
X126796309Y-71572380D01*
X127701071Y-71524761D02*
X127605833Y-71572380D01*
X127415357Y-71572380D01*
X127320119Y-71524761D01*
X127272500Y-71477142D01*
X127224880Y-71381904D01*
X127224880Y-71096190D01*
X127272500Y-71000952D01*
X127320119Y-70953333D01*
X127415357Y-70905714D01*
X127605833Y-70905714D01*
X127701071Y-70953333D01*
X128272500Y-71572380D02*
X128177261Y-71524761D01*
X128129642Y-71477142D01*
X128082023Y-71381904D01*
X128082023Y-71096190D01*
X128129642Y-71000952D01*
X128177261Y-70953333D01*
X128272500Y-70905714D01*
X128415357Y-70905714D01*
X128510595Y-70953333D01*
X128558214Y-71000952D01*
X128605833Y-71096190D01*
X128605833Y-71381904D01*
X128558214Y-71477142D01*
X128510595Y-71524761D01*
X128415357Y-71572380D01*
X128272500Y-71572380D01*
X129034404Y-71572380D02*
X129034404Y-70905714D01*
X129034404Y-71000952D02*
X129082023Y-70953333D01*
X129177261Y-70905714D01*
X129320119Y-70905714D01*
X129415357Y-70953333D01*
X129462976Y-71048571D01*
X129462976Y-71572380D01*
X129462976Y-71048571D02*
X129510595Y-70953333D01*
X129605833Y-70905714D01*
X129748690Y-70905714D01*
X129843928Y-70953333D01*
X129891547Y-71048571D01*
X129891547Y-71572380D01*
X131082023Y-70524761D02*
X130224880Y-71810476D01*
X131415357Y-70905714D02*
X131415357Y-71572380D01*
X131415357Y-71000952D02*
X131462976Y-70953333D01*
X131558214Y-70905714D01*
X131701071Y-70905714D01*
X131796309Y-70953333D01*
X131843928Y-71048571D01*
X131843928Y-71572380D01*
X132701071Y-71524761D02*
X132605833Y-71572380D01*
X132415357Y-71572380D01*
X132320119Y-71524761D01*
X132272500Y-71429523D01*
X132272500Y-71048571D01*
X132320119Y-70953333D01*
X132415357Y-70905714D01*
X132605833Y-70905714D01*
X132701071Y-70953333D01*
X132748690Y-71048571D01*
X132748690Y-71143809D01*
X132272500Y-71239047D01*
X133605833Y-70905714D02*
X133605833Y-71572380D01*
X133177261Y-70905714D02*
X133177261Y-71429523D01*
X133224880Y-71524761D01*
X133320119Y-71572380D01*
X133462976Y-71572380D01*
X133558214Y-71524761D01*
X133605833Y-71477142D01*
X134082023Y-71572380D02*
X134082023Y-70905714D01*
X134082023Y-71000952D02*
X134129642Y-70953333D01*
X134224880Y-70905714D01*
X134367738Y-70905714D01*
X134462976Y-70953333D01*
X134510595Y-71048571D01*
X134510595Y-71572380D01*
X134510595Y-71048571D02*
X134558214Y-70953333D01*
X134653452Y-70905714D01*
X134796309Y-70905714D01*
X134891547Y-70953333D01*
X134939166Y-71048571D01*
X134939166Y-71572380D01*
X135415357Y-71572380D02*
X135415357Y-70905714D01*
X135415357Y-70572380D02*
X135367738Y-70620000D01*
X135415357Y-70667619D01*
X135462976Y-70620000D01*
X135415357Y-70572380D01*
X135415357Y-70667619D01*
X141227738Y-69302380D02*
X141561071Y-70302380D01*
X141894404Y-69302380D01*
X142608690Y-70254761D02*
X142513452Y-70302380D01*
X142322976Y-70302380D01*
X142227738Y-70254761D01*
X142180119Y-70159523D01*
X142180119Y-69778571D01*
X142227738Y-69683333D01*
X142322976Y-69635714D01*
X142513452Y-69635714D01*
X142608690Y-69683333D01*
X142656309Y-69778571D01*
X142656309Y-69873809D01*
X142180119Y-69969047D01*
X143084880Y-70302380D02*
X143084880Y-69635714D01*
X143084880Y-69826190D02*
X143132500Y-69730952D01*
X143180119Y-69683333D01*
X143275357Y-69635714D01*
X143370595Y-69635714D01*
X143703928Y-70207142D02*
X143751547Y-70254761D01*
X143703928Y-70302380D01*
X143656309Y-70254761D01*
X143703928Y-70207142D01*
X143703928Y-70302380D01*
X144370595Y-69302380D02*
X144465833Y-69302380D01*
X144561071Y-69350000D01*
X144608690Y-69397619D01*
X144656309Y-69492857D01*
X144703928Y-69683333D01*
X144703928Y-69921428D01*
X144656309Y-70111904D01*
X144608690Y-70207142D01*
X144561071Y-70254761D01*
X144465833Y-70302380D01*
X144370595Y-70302380D01*
X144275357Y-70254761D01*
X144227738Y-70207142D01*
X144180119Y-70111904D01*
X144132500Y-69921428D01*
X144132500Y-69683333D01*
X144180119Y-69492857D01*
X144227738Y-69397619D01*
X144275357Y-69350000D01*
X144370595Y-69302380D01*
X145132500Y-70207142D02*
X145180119Y-70254761D01*
X145132500Y-70302380D01*
X145084880Y-70254761D01*
X145132500Y-70207142D01*
X145132500Y-70302380D01*
X146132500Y-70302380D02*
X145561071Y-70302380D01*
X145846785Y-70302380D02*
X145846785Y-69302380D01*
X145751547Y-69445238D01*
X145656309Y-69540476D01*
X145561071Y-69588095D01*
D10*
X116836428Y-66713571D02*
X116122142Y-66713571D01*
X116122142Y-65213571D01*
X117336428Y-66713571D02*
X117336428Y-65213571D01*
X117836428Y-65213571D02*
X118693571Y-65213571D01*
X118265000Y-66713571D02*
X118265000Y-65213571D01*
X119193571Y-66713571D02*
X119193571Y-65213571D01*
X119193571Y-65927857D02*
X120050714Y-65927857D01*
X120050714Y-66713571D02*
X120050714Y-65213571D01*
X120765000Y-66713571D02*
X120765000Y-65213571D01*
X121479285Y-65213571D02*
X121479285Y-66427857D01*
X121550714Y-66570714D01*
X121622142Y-66642142D01*
X121765000Y-66713571D01*
X122050714Y-66713571D01*
X122193571Y-66642142D01*
X122265000Y-66570714D01*
X122336428Y-66427857D01*
X122336428Y-65213571D01*
X123050714Y-66713571D02*
X123050714Y-65213571D01*
X123550714Y-66285000D01*
X124050714Y-65213571D01*
X124050714Y-66713571D01*
X126693571Y-66713571D02*
X125836428Y-66713571D01*
X126265000Y-66713571D02*
X126265000Y-65213571D01*
X126122142Y-65427857D01*
X125979285Y-65570714D01*
X125836428Y-65642142D01*
X127550714Y-65856428D02*
X127407857Y-65785000D01*
X127336428Y-65713571D01*
X127265000Y-65570714D01*
X127265000Y-65499285D01*
X127336428Y-65356428D01*
X127407857Y-65285000D01*
X127550714Y-65213571D01*
X127836428Y-65213571D01*
X127979285Y-65285000D01*
X128050714Y-65356428D01*
X128122142Y-65499285D01*
X128122142Y-65570714D01*
X128050714Y-65713571D01*
X127979285Y-65785000D01*
X127836428Y-65856428D01*
X127550714Y-65856428D01*
X127407857Y-65927857D01*
X127336428Y-65999285D01*
X127265000Y-66142142D01*
X127265000Y-66427857D01*
X127336428Y-66570714D01*
X127407857Y-66642142D01*
X127550714Y-66713571D01*
X127836428Y-66713571D01*
X127979285Y-66642142D01*
X128050714Y-66570714D01*
X128122142Y-66427857D01*
X128122142Y-66142142D01*
X128050714Y-65999285D01*
X127979285Y-65927857D01*
X127836428Y-65856428D01*
X129407857Y-65213571D02*
X129122142Y-65213571D01*
X128979285Y-65285000D01*
X128907857Y-65356428D01*
X128765000Y-65570714D01*
X128693571Y-65856428D01*
X128693571Y-66427857D01*
X128765000Y-66570714D01*
X128836428Y-66642142D01*
X128979285Y-66713571D01*
X129265000Y-66713571D01*
X129407857Y-66642142D01*
X129479285Y-66570714D01*
X129550714Y-66427857D01*
X129550714Y-66070714D01*
X129479285Y-65927857D01*
X129407857Y-65856428D01*
X129265000Y-65785000D01*
X128979285Y-65785000D01*
X128836428Y-65856428D01*
X128765000Y-65927857D01*
X128693571Y-66070714D01*
X130907857Y-65213571D02*
X130193571Y-65213571D01*
X130122142Y-65927857D01*
X130193571Y-65856428D01*
X130336428Y-65785000D01*
X130693571Y-65785000D01*
X130836428Y-65856428D01*
X130907857Y-65927857D01*
X130979285Y-66070714D01*
X130979285Y-66427857D01*
X130907857Y-66570714D01*
X130836428Y-66642142D01*
X130693571Y-66713571D01*
X130336428Y-66713571D01*
X130193571Y-66642142D01*
X130122142Y-66570714D01*
X131907857Y-65213571D02*
X132050714Y-65213571D01*
X132193571Y-65285000D01*
X132265000Y-65356428D01*
X132336428Y-65499285D01*
X132407857Y-65785000D01*
X132407857Y-66142142D01*
X132336428Y-66427857D01*
X132265000Y-66570714D01*
X132193571Y-66642142D01*
X132050714Y-66713571D01*
X131907857Y-66713571D01*
X131765000Y-66642142D01*
X131693571Y-66570714D01*
X131622142Y-66427857D01*
X131550714Y-66142142D01*
X131550714Y-65785000D01*
X131622142Y-65499285D01*
X131693571Y-65356428D01*
X131765000Y-65285000D01*
X131907857Y-65213571D01*
X135050714Y-66570714D02*
X134979285Y-66642142D01*
X134765000Y-66713571D01*
X134622142Y-66713571D01*
X134407857Y-66642142D01*
X134265000Y-66499285D01*
X134193571Y-66356428D01*
X134122142Y-66070714D01*
X134122142Y-65856428D01*
X134193571Y-65570714D01*
X134265000Y-65427857D01*
X134407857Y-65285000D01*
X134622142Y-65213571D01*
X134765000Y-65213571D01*
X134979285Y-65285000D01*
X135050714Y-65356428D01*
X135693571Y-66713571D02*
X135693571Y-65213571D01*
X135693571Y-65927857D02*
X136550714Y-65927857D01*
X136550714Y-66713571D02*
X136550714Y-65213571D01*
X137193571Y-66285000D02*
X137907857Y-66285000D01*
X137050714Y-66713571D02*
X137550714Y-65213571D01*
X138050714Y-66713571D01*
X139407857Y-66713571D02*
X138907857Y-65999285D01*
X138550714Y-66713571D02*
X138550714Y-65213571D01*
X139122142Y-65213571D01*
X139265000Y-65285000D01*
X139336428Y-65356428D01*
X139407857Y-65499285D01*
X139407857Y-65713571D01*
X139336428Y-65856428D01*
X139265000Y-65927857D01*
X139122142Y-65999285D01*
X138550714Y-65999285D01*
X140836428Y-65285000D02*
X140693571Y-65213571D01*
X140479285Y-65213571D01*
X140265000Y-65285000D01*
X140122142Y-65427857D01*
X140050714Y-65570714D01*
X139979285Y-65856428D01*
X139979285Y-66070714D01*
X140050714Y-66356428D01*
X140122142Y-66499285D01*
X140265000Y-66642142D01*
X140479285Y-66713571D01*
X140622142Y-66713571D01*
X140836428Y-66642142D01*
X140907857Y-66570714D01*
X140907857Y-66070714D01*
X140622142Y-66070714D01*
X141550714Y-65927857D02*
X142050714Y-65927857D01*
X142265000Y-66713571D02*
X141550714Y-66713571D01*
X141550714Y-65213571D01*
X142265000Y-65213571D01*
X143765000Y-66713571D02*
X143265000Y-65999285D01*
X142907857Y-66713571D02*
X142907857Y-65213571D01*
X143479285Y-65213571D01*
X143622142Y-65285000D01*
X143693571Y-65356428D01*
X143765000Y-65499285D01*
X143765000Y-65713571D01*
X143693571Y-65856428D01*
X143622142Y-65927857D01*
X143479285Y-65999285D01*
X142907857Y-65999285D01*
X116050714Y-68835000D02*
X116765000Y-68835000D01*
X115907857Y-69263571D02*
X116407857Y-67763571D01*
X116907857Y-69263571D01*
X117407857Y-69263571D02*
X117407857Y-67763571D01*
X118265000Y-69263571D01*
X118265000Y-67763571D01*
X118979285Y-69263571D02*
X118979285Y-67763571D01*
X119336428Y-67763571D01*
X119550714Y-67835000D01*
X119693571Y-67977857D01*
X119765000Y-68120714D01*
X119836428Y-68406428D01*
X119836428Y-68620714D01*
X119765000Y-68906428D01*
X119693571Y-69049285D01*
X119550714Y-69192142D01*
X119336428Y-69263571D01*
X118979285Y-69263571D01*
X122479285Y-69120714D02*
X122407857Y-69192142D01*
X122193571Y-69263571D01*
X122050714Y-69263571D01*
X121836428Y-69192142D01*
X121693571Y-69049285D01*
X121622142Y-68906428D01*
X121550714Y-68620714D01*
X121550714Y-68406428D01*
X121622142Y-68120714D01*
X121693571Y-67977857D01*
X121836428Y-67835000D01*
X122050714Y-67763571D01*
X122193571Y-67763571D01*
X122407857Y-67835000D01*
X122479285Y-67906428D01*
X123050714Y-68835000D02*
X123765000Y-68835000D01*
X122907857Y-69263571D02*
X123407857Y-67763571D01*
X123907857Y-69263571D01*
X124407857Y-69263571D02*
X124407857Y-67763571D01*
X124979285Y-67763571D01*
X125122142Y-67835000D01*
X125193571Y-67906428D01*
X125265000Y-68049285D01*
X125265000Y-68263571D01*
X125193571Y-68406428D01*
X125122142Y-68477857D01*
X124979285Y-68549285D01*
X124407857Y-68549285D01*
X125836428Y-68835000D02*
X126550714Y-68835000D01*
X125693571Y-69263571D02*
X126193571Y-67763571D01*
X126693571Y-69263571D01*
X128050714Y-69120714D02*
X127979285Y-69192142D01*
X127765000Y-69263571D01*
X127622142Y-69263571D01*
X127407857Y-69192142D01*
X127265000Y-69049285D01*
X127193571Y-68906428D01*
X127122142Y-68620714D01*
X127122142Y-68406428D01*
X127193571Y-68120714D01*
X127265000Y-67977857D01*
X127407857Y-67835000D01*
X127622142Y-67763571D01*
X127765000Y-67763571D01*
X127979285Y-67835000D01*
X128050714Y-67906428D01*
X128693571Y-69263571D02*
X128693571Y-67763571D01*
X129193571Y-67763571D02*
X130050714Y-67763571D01*
X129622142Y-69263571D02*
X129622142Y-67763571D01*
X130836428Y-68549285D02*
X130836428Y-69263571D01*
X130336428Y-67763571D02*
X130836428Y-68549285D01*
X131336428Y-67763571D01*
X132765000Y-67763571D02*
X133622142Y-67763571D01*
X133193571Y-69263571D02*
X133193571Y-67763571D01*
X134122142Y-68477857D02*
X134622142Y-68477857D01*
X134836428Y-69263571D02*
X134122142Y-69263571D01*
X134122142Y-67763571D01*
X134836428Y-67763571D01*
X135407857Y-69192142D02*
X135622142Y-69263571D01*
X135979285Y-69263571D01*
X136122142Y-69192142D01*
X136193571Y-69120714D01*
X136265000Y-68977857D01*
X136265000Y-68835000D01*
X136193571Y-68692142D01*
X136122142Y-68620714D01*
X135979285Y-68549285D01*
X135693571Y-68477857D01*
X135550714Y-68406428D01*
X135479285Y-68335000D01*
X135407857Y-68192142D01*
X135407857Y-68049285D01*
X135479285Y-67906428D01*
X135550714Y-67835000D01*
X135693571Y-67763571D01*
X136050714Y-67763571D01*
X136265000Y-67835000D01*
X136693571Y-67763571D02*
X137550714Y-67763571D01*
X137122142Y-69263571D02*
X137122142Y-67763571D01*
X138050714Y-68477857D02*
X138550714Y-68477857D01*
X138765000Y-69263571D02*
X138050714Y-69263571D01*
X138050714Y-67763571D01*
X138765000Y-67763571D01*
X140265000Y-69263571D02*
X139765000Y-68549285D01*
X139407857Y-69263571D02*
X139407857Y-67763571D01*
X139979285Y-67763571D01*
X140122142Y-67835000D01*
X140193571Y-67906428D01*
X140265000Y-68049285D01*
X140265000Y-68263571D01*
X140193571Y-68406428D01*
X140122142Y-68477857D01*
X139979285Y-68549285D01*
X139407857Y-68549285D01*
D12*
X182480000Y-103479523D02*
X182441904Y-103555714D01*
X182441904Y-103670000D01*
X182480000Y-103784285D01*
X182556190Y-103860476D01*
X182632380Y-103898571D01*
X182784761Y-103936666D01*
X182899047Y-103936666D01*
X183051428Y-103898571D01*
X183127619Y-103860476D01*
X183203809Y-103784285D01*
X183241904Y-103670000D01*
X183241904Y-103593809D01*
X183203809Y-103479523D01*
X183165714Y-103441428D01*
X182899047Y-103441428D01*
X182899047Y-103593809D01*
X183241904Y-103098571D02*
X182441904Y-103098571D01*
X183241904Y-102641428D01*
X182441904Y-102641428D01*
X183241904Y-102260476D02*
X182441904Y-102260476D01*
X182441904Y-102070000D01*
X182480000Y-101955714D01*
X182556190Y-101879523D01*
X182632380Y-101841428D01*
X182784761Y-101803333D01*
X182899047Y-101803333D01*
X183051428Y-101841428D01*
X183127619Y-101879523D01*
X183203809Y-101955714D01*
X183241904Y-102070000D01*
X183241904Y-102260476D01*
X182441904Y-100482380D02*
X182441904Y-100863333D01*
X182822857Y-100901428D01*
X182784761Y-100863333D01*
X182746666Y-100787142D01*
X182746666Y-100596666D01*
X182784761Y-100520476D01*
X182822857Y-100482380D01*
X182899047Y-100444285D01*
X183089523Y-100444285D01*
X183165714Y-100482380D01*
X183203809Y-100520476D01*
X183241904Y-100596666D01*
X183241904Y-100787142D01*
X183203809Y-100863333D01*
X183165714Y-100901428D01*
X182441904Y-100215714D02*
X183241904Y-99949047D01*
X182441904Y-99682380D01*
X183203809Y-96202380D02*
X183241904Y-96088095D01*
X183241904Y-95897619D01*
X183203809Y-95821428D01*
X183165714Y-95783333D01*
X183089523Y-95745238D01*
X183013333Y-95745238D01*
X182937142Y-95783333D01*
X182899047Y-95821428D01*
X182860952Y-95897619D01*
X182822857Y-96050000D01*
X182784761Y-96126190D01*
X182746666Y-96164285D01*
X182670476Y-96202380D01*
X182594285Y-96202380D01*
X182518095Y-96164285D01*
X182480000Y-96126190D01*
X182441904Y-96050000D01*
X182441904Y-95859523D01*
X182480000Y-95745238D01*
X183165714Y-94945238D02*
X183203809Y-94983333D01*
X183241904Y-95097619D01*
X183241904Y-95173809D01*
X183203809Y-95288095D01*
X183127619Y-95364285D01*
X183051428Y-95402380D01*
X182899047Y-95440476D01*
X182784761Y-95440476D01*
X182632380Y-95402380D01*
X182556190Y-95364285D01*
X182480000Y-95288095D01*
X182441904Y-95173809D01*
X182441904Y-95097619D01*
X182480000Y-94983333D01*
X182518095Y-94945238D01*
X183241904Y-94221428D02*
X183241904Y-94602380D01*
X182441904Y-94602380D01*
X183203809Y-98761428D02*
X183241904Y-98647142D01*
X183241904Y-98456666D01*
X183203809Y-98380476D01*
X183165714Y-98342380D01*
X183089523Y-98304285D01*
X183013333Y-98304285D01*
X182937142Y-98342380D01*
X182899047Y-98380476D01*
X182860952Y-98456666D01*
X182822857Y-98609047D01*
X182784761Y-98685238D01*
X182746666Y-98723333D01*
X182670476Y-98761428D01*
X182594285Y-98761428D01*
X182518095Y-98723333D01*
X182480000Y-98685238D01*
X182441904Y-98609047D01*
X182441904Y-98418571D01*
X182480000Y-98304285D01*
X183241904Y-97961428D02*
X182441904Y-97961428D01*
X182441904Y-97770952D01*
X182480000Y-97656666D01*
X182556190Y-97580476D01*
X182632380Y-97542380D01*
X182784761Y-97504285D01*
X182899047Y-97504285D01*
X183051428Y-97542380D01*
X183127619Y-97580476D01*
X183203809Y-97656666D01*
X183241904Y-97770952D01*
X183241904Y-97961428D01*
X183013333Y-97199523D02*
X183013333Y-96818571D01*
X183241904Y-97275714D02*
X182441904Y-97009047D01*
X183241904Y-96742380D01*
D10*
X163630000Y-70392857D02*
X163230000Y-69821428D01*
X162944285Y-70392857D02*
X162944285Y-69192857D01*
X163401428Y-69192857D01*
X163515714Y-69250000D01*
X163572857Y-69307142D01*
X163630000Y-69421428D01*
X163630000Y-69592857D01*
X163572857Y-69707142D01*
X163515714Y-69764285D01*
X163401428Y-69821428D01*
X162944285Y-69821428D01*
X164030000Y-69192857D02*
X164830000Y-70392857D01*
X164830000Y-69192857D02*
X164030000Y-70392857D01*
X157835714Y-69192857D02*
X158521428Y-69192857D01*
X158178571Y-70392857D02*
X158178571Y-69192857D01*
X158807142Y-69192857D02*
X159607142Y-70392857D01*
X159607142Y-69192857D02*
X158807142Y-70392857D01*
X152755714Y-69250000D02*
X152641428Y-69192857D01*
X152470000Y-69192857D01*
X152298571Y-69250000D01*
X152184285Y-69364285D01*
X152127142Y-69478571D01*
X152070000Y-69707142D01*
X152070000Y-69878571D01*
X152127142Y-70107142D01*
X152184285Y-70221428D01*
X152298571Y-70335714D01*
X152470000Y-70392857D01*
X152584285Y-70392857D01*
X152755714Y-70335714D01*
X152812857Y-70278571D01*
X152812857Y-69878571D01*
X152584285Y-69878571D01*
X153327142Y-70392857D02*
X153327142Y-69192857D01*
X154012857Y-70392857D01*
X154012857Y-69192857D01*
X154584285Y-70392857D02*
X154584285Y-69192857D01*
X154870000Y-69192857D01*
X155041428Y-69250000D01*
X155155714Y-69364285D01*
X155212857Y-69478571D01*
X155270000Y-69707142D01*
X155270000Y-69878571D01*
X155212857Y-70107142D01*
X155155714Y-70221428D01*
X155041428Y-70335714D01*
X154870000Y-70392857D01*
X154584285Y-70392857D01*
X148361428Y-69192857D02*
X147790000Y-69192857D01*
X147732857Y-69764285D01*
X147790000Y-69707142D01*
X147904285Y-69650000D01*
X148190000Y-69650000D01*
X148304285Y-69707142D01*
X148361428Y-69764285D01*
X148418571Y-69878571D01*
X148418571Y-70164285D01*
X148361428Y-70278571D01*
X148304285Y-70335714D01*
X148190000Y-70392857D01*
X147904285Y-70392857D01*
X147790000Y-70335714D01*
X147732857Y-70278571D01*
X148761428Y-69192857D02*
X149161428Y-70392857D01*
X149561428Y-69192857D01*
X172120000Y-115214285D02*
X172062857Y-115328571D01*
X172062857Y-115500000D01*
X172120000Y-115671428D01*
X172234285Y-115785714D01*
X172348571Y-115842857D01*
X172577142Y-115900000D01*
X172748571Y-115900000D01*
X172977142Y-115842857D01*
X173091428Y-115785714D01*
X173205714Y-115671428D01*
X173262857Y-115500000D01*
X173262857Y-115385714D01*
X173205714Y-115214285D01*
X173148571Y-115157142D01*
X172748571Y-115157142D01*
X172748571Y-115385714D01*
X173262857Y-114642857D02*
X172062857Y-114642857D01*
X173262857Y-113957142D01*
X172062857Y-113957142D01*
X173262857Y-113385714D02*
X172062857Y-113385714D01*
X172062857Y-113100000D01*
X172120000Y-112928571D01*
X172234285Y-112814285D01*
X172348571Y-112757142D01*
X172577142Y-112700000D01*
X172748571Y-112700000D01*
X172977142Y-112757142D01*
X173091428Y-112814285D01*
X173205714Y-112928571D01*
X173262857Y-113100000D01*
X173262857Y-113385714D01*
X172062857Y-109448571D02*
X172062857Y-110020000D01*
X172634285Y-110077142D01*
X172577142Y-110020000D01*
X172520000Y-109905714D01*
X172520000Y-109620000D01*
X172577142Y-109505714D01*
X172634285Y-109448571D01*
X172748571Y-109391428D01*
X173034285Y-109391428D01*
X173148571Y-109448571D01*
X173205714Y-109505714D01*
X173262857Y-109620000D01*
X173262857Y-109905714D01*
X173205714Y-110020000D01*
X173148571Y-110077142D01*
X172062857Y-109048571D02*
X173262857Y-108648571D01*
X172062857Y-108248571D01*
X126715714Y-113565714D02*
X126644285Y-113637142D01*
X126430000Y-113708571D01*
X126287142Y-113708571D01*
X126072857Y-113637142D01*
X125930000Y-113494285D01*
X125858571Y-113351428D01*
X125787142Y-113065714D01*
X125787142Y-112851428D01*
X125858571Y-112565714D01*
X125930000Y-112422857D01*
X126072857Y-112280000D01*
X126287142Y-112208571D01*
X126430000Y-112208571D01*
X126644285Y-112280000D01*
X126715714Y-112351428D01*
X127287142Y-113280000D02*
X128001428Y-113280000D01*
X127144285Y-113708571D02*
X127644285Y-112208571D01*
X128144285Y-113708571D01*
X128644285Y-112208571D02*
X128644285Y-113422857D01*
X128715714Y-113565714D01*
X128787142Y-113637142D01*
X128930000Y-113708571D01*
X129215714Y-113708571D01*
X129358571Y-113637142D01*
X129430000Y-113565714D01*
X129501428Y-113422857D01*
X129501428Y-112208571D01*
X130001428Y-112208571D02*
X130858571Y-112208571D01*
X130430000Y-113708571D02*
X130430000Y-112208571D01*
X131358571Y-113708571D02*
X131358571Y-112208571D01*
X132358571Y-112208571D02*
X132644285Y-112208571D01*
X132787142Y-112280000D01*
X132930000Y-112422857D01*
X133001428Y-112708571D01*
X133001428Y-113208571D01*
X132930000Y-113494285D01*
X132787142Y-113637142D01*
X132644285Y-113708571D01*
X132358571Y-113708571D01*
X132215714Y-113637142D01*
X132072857Y-113494285D01*
X132001428Y-113208571D01*
X132001428Y-112708571D01*
X132072857Y-112422857D01*
X132215714Y-112280000D01*
X132358571Y-112208571D01*
X133644285Y-113708571D02*
X133644285Y-112208571D01*
X134501428Y-113708571D01*
X134501428Y-112208571D01*
X136358571Y-113708571D02*
X136358571Y-112208571D01*
X136358571Y-112922857D02*
X137215714Y-112922857D01*
X137215714Y-113708571D02*
X137215714Y-112208571D01*
X138215714Y-112208571D02*
X138501428Y-112208571D01*
X138644285Y-112280000D01*
X138787142Y-112422857D01*
X138858571Y-112708571D01*
X138858571Y-113208571D01*
X138787142Y-113494285D01*
X138644285Y-113637142D01*
X138501428Y-113708571D01*
X138215714Y-113708571D01*
X138072857Y-113637142D01*
X137930000Y-113494285D01*
X137858571Y-113208571D01*
X137858571Y-112708571D01*
X137930000Y-112422857D01*
X138072857Y-112280000D01*
X138215714Y-112208571D01*
X139287142Y-112208571D02*
X140144285Y-112208571D01*
X139715714Y-113708571D02*
X139715714Y-112208571D01*
X141715714Y-113637142D02*
X141930000Y-113708571D01*
X142287142Y-113708571D01*
X142430000Y-113637142D01*
X142501428Y-113565714D01*
X142572857Y-113422857D01*
X142572857Y-113280000D01*
X142501428Y-113137142D01*
X142430000Y-113065714D01*
X142287142Y-112994285D01*
X142001428Y-112922857D01*
X141858571Y-112851428D01*
X141787142Y-112780000D01*
X141715714Y-112637142D01*
X141715714Y-112494285D01*
X141787142Y-112351428D01*
X141858571Y-112280000D01*
X142001428Y-112208571D01*
X142358571Y-112208571D01*
X142572857Y-112280000D01*
X143215714Y-112208571D02*
X143215714Y-113422857D01*
X143287142Y-113565714D01*
X143358571Y-113637142D01*
X143501428Y-113708571D01*
X143787142Y-113708571D01*
X143930000Y-113637142D01*
X144001428Y-113565714D01*
X144072857Y-113422857D01*
X144072857Y-112208571D01*
X145644285Y-113708571D02*
X145144285Y-112994285D01*
X144787142Y-113708571D02*
X144787142Y-112208571D01*
X145358571Y-112208571D01*
X145501428Y-112280000D01*
X145572857Y-112351428D01*
X145644285Y-112494285D01*
X145644285Y-112708571D01*
X145572857Y-112851428D01*
X145501428Y-112922857D01*
X145358571Y-112994285D01*
X144787142Y-112994285D01*
X146787142Y-112922857D02*
X146287142Y-112922857D01*
X146287142Y-113708571D02*
X146287142Y-112208571D01*
X147001428Y-112208571D01*
X147501428Y-113280000D02*
X148215714Y-113280000D01*
X147358571Y-113708571D02*
X147858571Y-112208571D01*
X148358571Y-113708571D01*
X149715714Y-113565714D02*
X149644285Y-113637142D01*
X149430000Y-113708571D01*
X149287142Y-113708571D01*
X149072857Y-113637142D01*
X148930000Y-113494285D01*
X148858571Y-113351428D01*
X148787142Y-113065714D01*
X148787142Y-112851428D01*
X148858571Y-112565714D01*
X148930000Y-112422857D01*
X149072857Y-112280000D01*
X149287142Y-112208571D01*
X149430000Y-112208571D01*
X149644285Y-112280000D01*
X149715714Y-112351428D01*
X150358571Y-112922857D02*
X150858571Y-112922857D01*
X151072857Y-113708571D02*
X150358571Y-113708571D01*
X150358571Y-112208571D01*
X151072857Y-112208571D01*
X126715714Y-123725714D02*
X126644285Y-123797142D01*
X126430000Y-123868571D01*
X126287142Y-123868571D01*
X126072857Y-123797142D01*
X125930000Y-123654285D01*
X125858571Y-123511428D01*
X125787142Y-123225714D01*
X125787142Y-123011428D01*
X125858571Y-122725714D01*
X125930000Y-122582857D01*
X126072857Y-122440000D01*
X126287142Y-122368571D01*
X126430000Y-122368571D01*
X126644285Y-122440000D01*
X126715714Y-122511428D01*
X127287142Y-123440000D02*
X128001428Y-123440000D01*
X127144285Y-123868571D02*
X127644285Y-122368571D01*
X128144285Y-123868571D01*
X128644285Y-122368571D02*
X128644285Y-123582857D01*
X128715714Y-123725714D01*
X128787142Y-123797142D01*
X128930000Y-123868571D01*
X129215714Y-123868571D01*
X129358571Y-123797142D01*
X129430000Y-123725714D01*
X129501428Y-123582857D01*
X129501428Y-122368571D01*
X130001428Y-122368571D02*
X130858571Y-122368571D01*
X130430000Y-123868571D02*
X130430000Y-122368571D01*
X131358571Y-123868571D02*
X131358571Y-122368571D01*
X132358571Y-122368571D02*
X132644285Y-122368571D01*
X132787142Y-122440000D01*
X132930000Y-122582857D01*
X133001428Y-122868571D01*
X133001428Y-123368571D01*
X132930000Y-123654285D01*
X132787142Y-123797142D01*
X132644285Y-123868571D01*
X132358571Y-123868571D01*
X132215714Y-123797142D01*
X132072857Y-123654285D01*
X132001428Y-123368571D01*
X132001428Y-122868571D01*
X132072857Y-122582857D01*
X132215714Y-122440000D01*
X132358571Y-122368571D01*
X133644285Y-123868571D02*
X133644285Y-122368571D01*
X134501428Y-123868571D01*
X134501428Y-122368571D01*
X136358571Y-123868571D02*
X136358571Y-122368571D01*
X136358571Y-123082857D02*
X137215714Y-123082857D01*
X137215714Y-123868571D02*
X137215714Y-122368571D01*
X138215714Y-122368571D02*
X138501428Y-122368571D01*
X138644285Y-122440000D01*
X138787142Y-122582857D01*
X138858571Y-122868571D01*
X138858571Y-123368571D01*
X138787142Y-123654285D01*
X138644285Y-123797142D01*
X138501428Y-123868571D01*
X138215714Y-123868571D01*
X138072857Y-123797142D01*
X137930000Y-123654285D01*
X137858571Y-123368571D01*
X137858571Y-122868571D01*
X137930000Y-122582857D01*
X138072857Y-122440000D01*
X138215714Y-122368571D01*
X139287142Y-122368571D02*
X140144285Y-122368571D01*
X139715714Y-123868571D02*
X139715714Y-122368571D01*
X141715714Y-123797142D02*
X141930000Y-123868571D01*
X142287142Y-123868571D01*
X142430000Y-123797142D01*
X142501428Y-123725714D01*
X142572857Y-123582857D01*
X142572857Y-123440000D01*
X142501428Y-123297142D01*
X142430000Y-123225714D01*
X142287142Y-123154285D01*
X142001428Y-123082857D01*
X141858571Y-123011428D01*
X141787142Y-122940000D01*
X141715714Y-122797142D01*
X141715714Y-122654285D01*
X141787142Y-122511428D01*
X141858571Y-122440000D01*
X142001428Y-122368571D01*
X142358571Y-122368571D01*
X142572857Y-122440000D01*
X143215714Y-122368571D02*
X143215714Y-123582857D01*
X143287142Y-123725714D01*
X143358571Y-123797142D01*
X143501428Y-123868571D01*
X143787142Y-123868571D01*
X143930000Y-123797142D01*
X144001428Y-123725714D01*
X144072857Y-123582857D01*
X144072857Y-122368571D01*
X145644285Y-123868571D02*
X145144285Y-123154285D01*
X144787142Y-123868571D02*
X144787142Y-122368571D01*
X145358571Y-122368571D01*
X145501428Y-122440000D01*
X145572857Y-122511428D01*
X145644285Y-122654285D01*
X145644285Y-122868571D01*
X145572857Y-123011428D01*
X145501428Y-123082857D01*
X145358571Y-123154285D01*
X144787142Y-123154285D01*
X146787142Y-123082857D02*
X146287142Y-123082857D01*
X146287142Y-123868571D02*
X146287142Y-122368571D01*
X147001428Y-122368571D01*
X147501428Y-123440000D02*
X148215714Y-123440000D01*
X147358571Y-123868571D02*
X147858571Y-122368571D01*
X148358571Y-123868571D01*
X149715714Y-123725714D02*
X149644285Y-123797142D01*
X149430000Y-123868571D01*
X149287142Y-123868571D01*
X149072857Y-123797142D01*
X148930000Y-123654285D01*
X148858571Y-123511428D01*
X148787142Y-123225714D01*
X148787142Y-123011428D01*
X148858571Y-122725714D01*
X148930000Y-122582857D01*
X149072857Y-122440000D01*
X149287142Y-122368571D01*
X149430000Y-122368571D01*
X149644285Y-122440000D01*
X149715714Y-122511428D01*
X150358571Y-123082857D02*
X150858571Y-123082857D01*
X151072857Y-123868571D02*
X150358571Y-123868571D01*
X150358571Y-122368571D01*
X151072857Y-122368571D01*
X134087142Y-118652857D02*
X133401428Y-118652857D01*
X133744285Y-118652857D02*
X133744285Y-117452857D01*
X133630000Y-117624285D01*
X133515714Y-117738571D01*
X133401428Y-117795714D01*
X135744285Y-117452857D02*
X135972857Y-117452857D01*
X136087142Y-117510000D01*
X136201428Y-117624285D01*
X136258571Y-117852857D01*
X136258571Y-118252857D01*
X136201428Y-118481428D01*
X136087142Y-118595714D01*
X135972857Y-118652857D01*
X135744285Y-118652857D01*
X135630000Y-118595714D01*
X135515714Y-118481428D01*
X135458571Y-118252857D01*
X135458571Y-117852857D01*
X135515714Y-117624285D01*
X135630000Y-117510000D01*
X135744285Y-117452857D01*
X136772857Y-118652857D02*
X136772857Y-117452857D01*
X136772857Y-118024285D02*
X137458571Y-118024285D01*
X137458571Y-118652857D02*
X137458571Y-117452857D01*
X138030000Y-118652857D02*
X138030000Y-117452857D01*
X138430000Y-118310000D01*
X138830000Y-117452857D01*
X138830000Y-118652857D01*
X140944285Y-118652857D02*
X140258571Y-118652857D01*
X140601428Y-118652857D02*
X140601428Y-117452857D01*
X140487142Y-117624285D01*
X140372857Y-117738571D01*
X140258571Y-117795714D01*
X141687142Y-117452857D02*
X141801428Y-117452857D01*
X141915714Y-117510000D01*
X141972857Y-117567142D01*
X142030000Y-117681428D01*
X142087142Y-117910000D01*
X142087142Y-118195714D01*
X142030000Y-118424285D01*
X141972857Y-118538571D01*
X141915714Y-118595714D01*
X141801428Y-118652857D01*
X141687142Y-118652857D01*
X141572857Y-118595714D01*
X141515714Y-118538571D01*
X141458571Y-118424285D01*
X141401428Y-118195714D01*
X141401428Y-117910000D01*
X141458571Y-117681428D01*
X141515714Y-117567142D01*
X141572857Y-117510000D01*
X141687142Y-117452857D01*
X142487142Y-117452857D02*
X142772857Y-118652857D01*
X143001428Y-117795714D01*
X143230000Y-118652857D01*
X143515714Y-117452857D01*
X116408571Y-121135714D02*
X116580000Y-121192857D01*
X116865714Y-121192857D01*
X116980000Y-121135714D01*
X117037142Y-121078571D01*
X117094285Y-120964285D01*
X117094285Y-120850000D01*
X117037142Y-120735714D01*
X116980000Y-120678571D01*
X116865714Y-120621428D01*
X116637142Y-120564285D01*
X116522857Y-120507142D01*
X116465714Y-120450000D01*
X116408571Y-120335714D01*
X116408571Y-120221428D01*
X116465714Y-120107142D01*
X116522857Y-120050000D01*
X116637142Y-119992857D01*
X116922857Y-119992857D01*
X117094285Y-120050000D01*
X117437142Y-119992857D02*
X118122857Y-119992857D01*
X117780000Y-121192857D02*
X117780000Y-119992857D01*
X118465714Y-120850000D02*
X119037142Y-120850000D01*
X118351428Y-121192857D02*
X118751428Y-119992857D01*
X119151428Y-121192857D01*
X119380000Y-119992857D02*
X120065714Y-119992857D01*
X119722857Y-121192857D02*
X119722857Y-119992857D01*
X120465714Y-119992857D02*
X120465714Y-120964285D01*
X120522857Y-121078571D01*
X120580000Y-121135714D01*
X120694285Y-121192857D01*
X120922857Y-121192857D01*
X121037142Y-121135714D01*
X121094285Y-121078571D01*
X121151428Y-120964285D01*
X121151428Y-119992857D01*
X121665714Y-121135714D02*
X121837142Y-121192857D01*
X122122857Y-121192857D01*
X122237142Y-121135714D01*
X122294285Y-121078571D01*
X122351428Y-120964285D01*
X122351428Y-120850000D01*
X122294285Y-120735714D01*
X122237142Y-120678571D01*
X122122857Y-120621428D01*
X121894285Y-120564285D01*
X121780000Y-120507142D01*
X121722857Y-120450000D01*
X121665714Y-120335714D01*
X121665714Y-120221428D01*
X121722857Y-120107142D01*
X121780000Y-120050000D01*
X121894285Y-119992857D01*
X122180000Y-119992857D01*
X122351428Y-120050000D01*
X167310000Y-109762857D02*
X167310000Y-108562857D01*
X167767142Y-108562857D01*
X167881428Y-108620000D01*
X167938571Y-108677142D01*
X167995714Y-108791428D01*
X167995714Y-108962857D01*
X167938571Y-109077142D01*
X167881428Y-109134285D01*
X167767142Y-109191428D01*
X167310000Y-109191428D01*
X168395714Y-108562857D02*
X168681428Y-109762857D01*
X168910000Y-108905714D01*
X169138571Y-109762857D01*
X169424285Y-108562857D01*
X170567142Y-109762857D02*
X170167142Y-109191428D01*
X169881428Y-109762857D02*
X169881428Y-108562857D01*
X170338571Y-108562857D01*
X170452857Y-108620000D01*
X170510000Y-108677142D01*
X170567142Y-108791428D01*
X170567142Y-108962857D01*
X170510000Y-109077142D01*
X170452857Y-109134285D01*
X170338571Y-109191428D01*
X169881428Y-109191428D01*
X116195714Y-100815714D02*
X116367142Y-100872857D01*
X116652857Y-100872857D01*
X116767142Y-100815714D01*
X116824285Y-100758571D01*
X116881428Y-100644285D01*
X116881428Y-100530000D01*
X116824285Y-100415714D01*
X116767142Y-100358571D01*
X116652857Y-100301428D01*
X116424285Y-100244285D01*
X116310000Y-100187142D01*
X116252857Y-100130000D01*
X116195714Y-100015714D01*
X116195714Y-99901428D01*
X116252857Y-99787142D01*
X116310000Y-99730000D01*
X116424285Y-99672857D01*
X116710000Y-99672857D01*
X116881428Y-99730000D01*
X117224285Y-99672857D02*
X117910000Y-99672857D01*
X117567142Y-100872857D02*
X117567142Y-99672857D01*
X118710000Y-100244285D02*
X118881428Y-100301428D01*
X118938571Y-100358571D01*
X118995714Y-100472857D01*
X118995714Y-100644285D01*
X118938571Y-100758571D01*
X118881428Y-100815714D01*
X118767142Y-100872857D01*
X118310000Y-100872857D01*
X118310000Y-99672857D01*
X118710000Y-99672857D01*
X118824285Y-99730000D01*
X118881428Y-99787142D01*
X118938571Y-99901428D01*
X118938571Y-100015714D01*
X118881428Y-100130000D01*
X118824285Y-100187142D01*
X118710000Y-100244285D01*
X118310000Y-100244285D01*
X119738571Y-100301428D02*
X119738571Y-100872857D01*
X119338571Y-99672857D02*
X119738571Y-100301428D01*
X120138571Y-99672857D01*
X116652857Y-95678571D02*
X116595714Y-95735714D01*
X116424285Y-95792857D01*
X116310000Y-95792857D01*
X116138571Y-95735714D01*
X116024285Y-95621428D01*
X115967142Y-95507142D01*
X115910000Y-95278571D01*
X115910000Y-95107142D01*
X115967142Y-94878571D01*
X116024285Y-94764285D01*
X116138571Y-94650000D01*
X116310000Y-94592857D01*
X116424285Y-94592857D01*
X116595714Y-94650000D01*
X116652857Y-94707142D01*
X117167142Y-95792857D02*
X117167142Y-94592857D01*
X117167142Y-95164285D02*
X117852857Y-95164285D01*
X117852857Y-95792857D02*
X117852857Y-94592857D01*
X119110000Y-95792857D02*
X118710000Y-95221428D01*
X118424285Y-95792857D02*
X118424285Y-94592857D01*
X118881428Y-94592857D01*
X118995714Y-94650000D01*
X119052857Y-94707142D01*
X119110000Y-94821428D01*
X119110000Y-94992857D01*
X119052857Y-95107142D01*
X118995714Y-95164285D01*
X118881428Y-95221428D01*
X118424285Y-95221428D01*
X120252857Y-94650000D02*
X120138571Y-94592857D01*
X119967142Y-94592857D01*
X119795714Y-94650000D01*
X119681428Y-94764285D01*
X119624285Y-94878571D01*
X119567142Y-95107142D01*
X119567142Y-95278571D01*
X119624285Y-95507142D01*
X119681428Y-95621428D01*
X119795714Y-95735714D01*
X119967142Y-95792857D01*
X120081428Y-95792857D01*
X120252857Y-95735714D01*
X120310000Y-95678571D01*
X120310000Y-95278571D01*
X120081428Y-95278571D01*
D13*
%TO.C,BT1*%
X104365001Y-72500000D02*
X182365001Y-72500000D01*
X182365001Y-72500000D02*
X182365001Y-92600000D01*
X182365001Y-92600000D02*
X104365001Y-92600000D01*
X104365001Y-92600000D02*
X104365001Y-72500000D01*
%TO.C,C1*%
X148326741Y-96552706D02*
X148696208Y-96183239D01*
X147287294Y-95513259D02*
X147656761Y-95143792D01*
%TO.C,C2*%
X145484457Y-99394990D02*
X145114990Y-99764457D01*
X144445010Y-98355543D02*
X144075543Y-98725010D01*
%TO.C,C3*%
X114038748Y-117375000D02*
X114561252Y-117375000D01*
X114038748Y-118845000D02*
X114561252Y-118845000D01*
%TO.C,C4*%
X105490000Y-94780000D02*
X105490000Y-95780000D01*
X104990000Y-95280000D02*
X105990000Y-95280000D01*
X106230000Y-100985563D02*
X107294437Y-102050000D01*
X106230000Y-94594437D02*
X107294437Y-93530000D01*
X106230000Y-94594437D02*
X106230000Y-96280000D01*
X106230000Y-100985563D02*
X106230000Y-99300000D01*
X107294437Y-102050000D02*
X114750000Y-102050000D01*
X107294437Y-93530000D02*
X114750000Y-93530000D01*
X114750000Y-93530000D02*
X114750000Y-96280000D01*
X114750000Y-102050000D02*
X114750000Y-99300000D01*
%TO.C,C5*%
X130075000Y-105148748D02*
X130075000Y-105671252D01*
X131545000Y-105148748D02*
X131545000Y-105671252D01*
%TO.C,C6*%
X168090000Y-124910000D02*
X168090000Y-122160000D01*
X168090000Y-116390000D02*
X168090000Y-119140000D01*
X160634437Y-116390000D02*
X168090000Y-116390000D01*
X160634437Y-124910000D02*
X168090000Y-124910000D01*
X159570000Y-123845563D02*
X159570000Y-122160000D01*
X159570000Y-117454437D02*
X159570000Y-119140000D01*
X159570000Y-117454437D02*
X160634437Y-116390000D01*
X159570000Y-123845563D02*
X160634437Y-124910000D01*
X158330000Y-118140000D02*
X159330000Y-118140000D01*
X158830000Y-117640000D02*
X158830000Y-118640000D01*
%TO.C,C7*%
X166704990Y-106114457D02*
X167074457Y-105744990D01*
X165665543Y-105075010D02*
X166035010Y-104705543D01*
%TO.C,D1*%
X122880000Y-96250000D02*
X122880000Y-93565000D01*
X122880000Y-93565000D02*
X120960000Y-93565000D01*
X120960000Y-93565000D02*
X120960000Y-96250000D01*
%TO.C,D2*%
X120960000Y-98645000D02*
X120960000Y-101330000D01*
X122880000Y-98645000D02*
X120960000Y-98645000D01*
X122880000Y-101330000D02*
X122880000Y-98645000D01*
%TO.C,D3*%
X171140000Y-113777500D02*
X171140000Y-111092500D01*
X169220000Y-113777500D02*
X171140000Y-113777500D01*
X169220000Y-111092500D02*
X169220000Y-113777500D01*
D12*
%TO.C,IC1*%
X133215000Y-93750000D02*
G75*
G03*
X133215000Y-93750000I-100000J0D01*
G01*
D14*
X133335000Y-95840000D02*
X133335000Y-99740000D01*
X128285000Y-95840000D02*
X128285000Y-99740000D01*
D12*
%TO.C,J1*%
X172765001Y-105930000D02*
G75*
G03*
X172765001Y-105930000I-100000J0D01*
G01*
D14*
X170315001Y-105320000D02*
X176065001Y-105320000D01*
X170315001Y-92920000D02*
X170315001Y-105320000D01*
X176065001Y-92920000D02*
X170315001Y-92920000D01*
X176065001Y-105320000D02*
X176065001Y-92920000D01*
%TO.C,J2*%
X182470000Y-105320000D02*
X182470000Y-92920000D01*
X182470000Y-92920000D02*
X176720000Y-92920000D01*
X176720000Y-92920000D02*
X176720000Y-105320000D01*
X176720000Y-105320000D02*
X182470000Y-105320000D01*
D12*
X179170000Y-105930000D02*
G75*
G03*
X179170000Y-105930000I-100000J0D01*
G01*
D13*
%TO.C,Q1*%
X115980000Y-107100000D02*
X117080000Y-107100000D01*
X115980000Y-105290000D02*
X115980000Y-107100000D01*
X114480000Y-105290000D02*
X115980000Y-105290000D01*
X115980000Y-113880000D02*
X121105000Y-113880000D01*
X115980000Y-115690000D02*
X115980000Y-113880000D01*
X114480000Y-115690000D02*
X115980000Y-115690000D01*
%TO.C,R1*%
X153442936Y-103605000D02*
X153897064Y-103605000D01*
X153442936Y-102135000D02*
X153897064Y-102135000D01*
%TO.C,R2*%
X149690000Y-118110000D02*
X148550000Y-118110000D01*
X127170000Y-118110000D02*
X128310000Y-118110000D01*
X148550000Y-114790000D02*
X128310000Y-114790000D01*
X148550000Y-121430000D02*
X148550000Y-114790000D01*
X128310000Y-121430000D02*
X148550000Y-121430000D01*
X128310000Y-114790000D02*
X128310000Y-121430000D01*
%TO.C,R3*%
X126465000Y-95022936D02*
X126465000Y-95477064D01*
X124995000Y-95022936D02*
X124995000Y-95477064D01*
%TO.C,R4*%
X124995000Y-100137937D02*
X124995000Y-100592065D01*
X126465000Y-100137937D02*
X126465000Y-100592065D01*
%TO.C,R5*%
X170915000Y-116612936D02*
X170915000Y-117067064D01*
X169445000Y-116612936D02*
X169445000Y-117067064D01*
%TO.C,R6*%
X136625000Y-95834564D02*
X136625000Y-95380436D01*
X135155000Y-95834564D02*
X135155000Y-95380436D01*
%TO.C,SW1*%
X150460000Y-108020000D02*
X150460000Y-110420000D01*
X150460000Y-106010000D02*
X150460000Y-106420000D01*
X156880000Y-106010000D02*
X150460000Y-106010000D01*
X156880000Y-106420000D02*
X156880000Y-106010000D01*
X156880000Y-110420000D02*
X156880000Y-108020000D01*
X156880000Y-112430000D02*
X156880000Y-112150000D01*
X150460000Y-112430000D02*
X156880000Y-112430000D01*
X150460000Y-112020000D02*
X150460000Y-112430000D01*
D15*
%TO.C,U1*%
X162400901Y-95362575D02*
X161393274Y-94354948D01*
X167686524Y-100330000D02*
X167456714Y-100100190D01*
X162560000Y-105456524D02*
X162330190Y-105226714D01*
X157433476Y-100330000D02*
X157663286Y-100559810D01*
X162560000Y-95203476D02*
X162789810Y-95433286D01*
X157433476Y-100330000D02*
X157663286Y-100100190D01*
X162560000Y-105456524D02*
X162789810Y-105226714D01*
X167686524Y-100330000D02*
X167456714Y-100559810D01*
X162560000Y-95203476D02*
X162400901Y-95362575D01*
D14*
%TO.C,U2*%
X136480000Y-107935000D02*
X140380000Y-107935000D01*
X136480000Y-102885000D02*
X140380000Y-102885000D01*
D12*
X134490000Y-103105000D02*
G75*
G03*
X134490000Y-103105000I-100000J0D01*
G01*
D13*
%TO.C,Y1*%
X154064493Y-92519262D02*
X145154948Y-101428808D01*
X157670738Y-96125507D02*
X154064493Y-92519262D01*
X148761192Y-105035052D02*
X157670738Y-96125507D01*
%TO.C,J3*%
X173500000Y-106420000D02*
X173500000Y-106920000D01*
X174240000Y-106420000D02*
X173500000Y-106420000D01*
X182100000Y-115220000D02*
X181100000Y-115220000D01*
X182100000Y-113220000D02*
X181100000Y-113220000D01*
X181100000Y-113220000D02*
X181100000Y-115220000D01*
X182100000Y-113220000D02*
X182100000Y-115220000D01*
X176777000Y-112993000D02*
X176731000Y-112946000D01*
X179075000Y-115290000D02*
X179039000Y-115255000D01*
X176561000Y-113186000D02*
X176526000Y-113151000D01*
X178869000Y-115495000D02*
X178823000Y-115448000D01*
X182100000Y-110220000D02*
X181100000Y-110220000D01*
X182100000Y-108220000D02*
X181100000Y-108220000D01*
X181100000Y-108220000D02*
X181100000Y-110220000D01*
X182100000Y-108220000D02*
X182100000Y-110220000D01*
X182160000Y-116780000D02*
X173740000Y-116780000D01*
X182160000Y-106660000D02*
X173740000Y-106660000D01*
X173740000Y-106660000D02*
X173740000Y-116780000D01*
X182160000Y-106660000D02*
X182160000Y-116780000D01*
X180101000Y-106660000D02*
X180101000Y-116780000D01*
X175800000Y-106660000D02*
X175800000Y-116780000D01*
X174300000Y-106660000D02*
X174300000Y-116780000D01*
X179480000Y-114220000D02*
G75*
G03*
X179480000Y-114220000I-1680000J0D01*
G01*
X176265244Y-109903318D02*
G75*
G02*
X176120000Y-109220000I1534756J683318D01*
G01*
X178483042Y-110755426D02*
G75*
G02*
X177116000Y-110755000I-683042J1535426D01*
G01*
X179335426Y-108536958D02*
G75*
G02*
X179335000Y-109904000I-1535426J-683042D01*
G01*
X177116958Y-107684574D02*
G75*
G02*
X178484000Y-107685000I683042J-1535426D01*
G01*
X176119747Y-109248805D02*
G75*
G02*
X176265000Y-108536000I1680253J28805D01*
G01*
%TO.C,JP1*%
X169480000Y-105680000D02*
X170880000Y-105680000D01*
X171580000Y-106380000D02*
X171580000Y-106980000D01*
X170880000Y-107680000D02*
X169480000Y-107680000D01*
X168780000Y-106980000D02*
X168780000Y-106380000D01*
X170880000Y-105680000D02*
G75*
G02*
X171580000Y-106380000I0J-700000D01*
G01*
X171580000Y-106980000D02*
G75*
G02*
X170880000Y-107680000I-700000J0D01*
G01*
X169480000Y-107680000D02*
G75*
G02*
X168780000Y-106980000I0J700000D01*
G01*
X168780000Y-106380000D02*
G75*
G02*
X169480000Y-105680000I700000J0D01*
G01*
%TO.C,D4*%
X116425000Y-119070000D02*
X119110000Y-119070000D01*
X116425000Y-117150000D02*
X116425000Y-119070000D01*
X119110000Y-117150000D02*
X116425000Y-117150000D01*
%TO.C,R7*%
X114527064Y-121185000D02*
X114072936Y-121185000D01*
X114527064Y-122655000D02*
X114072936Y-122655000D01*
%TO.C,J4*%
X160520000Y-118980000D02*
X160020000Y-117980000D01*
X159520000Y-118980000D02*
X160520000Y-118980000D01*
X160020000Y-117980000D02*
X159520000Y-118980000D01*
X164610000Y-116280000D02*
X164610000Y-117590000D01*
X164610000Y-116280000D02*
X164610000Y-116280000D01*
X169010000Y-116280000D02*
X164610000Y-116280000D01*
X169010000Y-109780000D02*
X169010000Y-116280000D01*
X156110000Y-109780000D02*
X169010000Y-109780000D01*
X156110000Y-116280000D02*
X156110000Y-109780000D01*
X160510000Y-116280000D02*
X156110000Y-116280000D01*
X160510000Y-117590000D02*
X160510000Y-116280000D01*
X170310000Y-117590000D02*
X154810000Y-117590000D01*
X170310000Y-108470000D02*
X170310000Y-117590000D01*
X154810000Y-108470000D02*
X170310000Y-108470000D01*
X154810000Y-117590000D02*
X154810000Y-108470000D01*
%TO.C,R8*%
X167055436Y-94715000D02*
X167509564Y-94715000D01*
X167055436Y-93245000D02*
X167509564Y-93245000D01*
%TO.C,TP1*%
X150375001Y-66795001D02*
G75*
G03*
X150375001Y-66795001I-1750000J0D01*
G01*
%TO.C,TP2*%
X155425001Y-66795001D02*
G75*
G03*
X155425001Y-66795001I-1750000J0D01*
G01*
%TO.C,TP3*%
X165615001Y-66765001D02*
G75*
G03*
X165615001Y-66765001I-1750000J0D01*
G01*
%TO.C,TP4*%
X160500000Y-66765001D02*
G75*
G03*
X160500000Y-66765001I-1750000J0D01*
G01*
%TO.C,BT1*%
D15*
X142579286Y-83478571D02*
X142722143Y-83526190D01*
X142769762Y-83573809D01*
X142817381Y-83669047D01*
X142817381Y-83811904D01*
X142769762Y-83907142D01*
X142722143Y-83954761D01*
X142626905Y-84002380D01*
X142245953Y-84002380D01*
X142245953Y-83002380D01*
X142579286Y-83002380D01*
X142674524Y-83050000D01*
X142722143Y-83097619D01*
X142769762Y-83192857D01*
X142769762Y-83288095D01*
X142722143Y-83383333D01*
X142674524Y-83430952D01*
X142579286Y-83478571D01*
X142245953Y-83478571D01*
X143103096Y-83002380D02*
X143674524Y-83002380D01*
X143388810Y-84002380D02*
X143388810Y-83002380D01*
X144531667Y-84002380D02*
X143960239Y-84002380D01*
X144245953Y-84002380D02*
X144245953Y-83002380D01*
X144150715Y-83145238D01*
X144055477Y-83240476D01*
X143960239Y-83288095D01*
%TO.C,C1*%
X146938499Y-95030699D02*
X146938499Y-95098042D01*
X146871155Y-95232729D01*
X146803812Y-95300073D01*
X146669124Y-95367416D01*
X146534437Y-95367416D01*
X146433422Y-95333745D01*
X146265063Y-95232729D01*
X146164048Y-95131714D01*
X146063033Y-94963355D01*
X146029361Y-94862340D01*
X146029361Y-94727653D01*
X146096705Y-94592966D01*
X146164048Y-94525622D01*
X146298735Y-94458279D01*
X146366079Y-94458279D01*
X147679277Y-94424607D02*
X147275216Y-94828668D01*
X147477247Y-94626638D02*
X146770140Y-93919531D01*
X146803812Y-94087890D01*
X146803812Y-94222577D01*
X146770140Y-94323592D01*
%TO.C,C2*%
X146102626Y-100618328D02*
X146102626Y-100685671D01*
X146035282Y-100820358D01*
X145967939Y-100887702D01*
X145833251Y-100955045D01*
X145698564Y-100955045D01*
X145597549Y-100921374D01*
X145429190Y-100820358D01*
X145328175Y-100719343D01*
X145227160Y-100550984D01*
X145193488Y-100449969D01*
X145193488Y-100315282D01*
X145260832Y-100180595D01*
X145328175Y-100113251D01*
X145462862Y-100045908D01*
X145530206Y-100045908D01*
X145799580Y-99776534D02*
X145799580Y-99709190D01*
X145833251Y-99608175D01*
X146001610Y-99439816D01*
X146102626Y-99406145D01*
X146169969Y-99406145D01*
X146270984Y-99439816D01*
X146338328Y-99507160D01*
X146405671Y-99641847D01*
X146405671Y-100449969D01*
X146843404Y-100012236D01*
%TO.C,C3*%
X114133333Y-116787142D02*
X114085714Y-116834761D01*
X113942857Y-116882380D01*
X113847619Y-116882380D01*
X113704761Y-116834761D01*
X113609523Y-116739523D01*
X113561904Y-116644285D01*
X113514285Y-116453809D01*
X113514285Y-116310952D01*
X113561904Y-116120476D01*
X113609523Y-116025238D01*
X113704761Y-115930000D01*
X113847619Y-115882380D01*
X113942857Y-115882380D01*
X114085714Y-115930000D01*
X114133333Y-115977619D01*
X114466666Y-115882380D02*
X115085714Y-115882380D01*
X114752380Y-116263333D01*
X114895238Y-116263333D01*
X114990476Y-116310952D01*
X115038095Y-116358571D01*
X115085714Y-116453809D01*
X115085714Y-116691904D01*
X115038095Y-116787142D01*
X114990476Y-116834761D01*
X114895238Y-116882380D01*
X114609523Y-116882380D01*
X114514285Y-116834761D01*
X114466666Y-116787142D01*
%TO.C,C4*%
X106513333Y-103227142D02*
X106465714Y-103274761D01*
X106322857Y-103322380D01*
X106227619Y-103322380D01*
X106084761Y-103274761D01*
X105989523Y-103179523D01*
X105941904Y-103084285D01*
X105894285Y-102893809D01*
X105894285Y-102750952D01*
X105941904Y-102560476D01*
X105989523Y-102465238D01*
X106084761Y-102370000D01*
X106227619Y-102322380D01*
X106322857Y-102322380D01*
X106465714Y-102370000D01*
X106513333Y-102417619D01*
X107370476Y-102655714D02*
X107370476Y-103322380D01*
X107132380Y-102274761D02*
X106894285Y-102989047D01*
X107513333Y-102989047D01*
%TO.C,C5*%
X132847142Y-105576666D02*
X132894761Y-105624285D01*
X132942380Y-105767142D01*
X132942380Y-105862380D01*
X132894761Y-106005238D01*
X132799523Y-106100476D01*
X132704285Y-106148095D01*
X132513809Y-106195714D01*
X132370952Y-106195714D01*
X132180476Y-106148095D01*
X132085238Y-106100476D01*
X131990000Y-106005238D01*
X131942380Y-105862380D01*
X131942380Y-105767142D01*
X131990000Y-105624285D01*
X132037619Y-105576666D01*
X131942380Y-104671904D02*
X131942380Y-105148095D01*
X132418571Y-105195714D01*
X132370952Y-105148095D01*
X132323333Y-105052857D01*
X132323333Y-104814761D01*
X132370952Y-104719523D01*
X132418571Y-104671904D01*
X132513809Y-104624285D01*
X132751904Y-104624285D01*
X132847142Y-104671904D01*
X132894761Y-104719523D01*
X132942380Y-104814761D01*
X132942380Y-105052857D01*
X132894761Y-105148095D01*
X132847142Y-105195714D01*
%TO.C,C6*%
X167473333Y-126087142D02*
X167425714Y-126134761D01*
X167282857Y-126182380D01*
X167187619Y-126182380D01*
X167044761Y-126134761D01*
X166949523Y-126039523D01*
X166901904Y-125944285D01*
X166854285Y-125753809D01*
X166854285Y-125610952D01*
X166901904Y-125420476D01*
X166949523Y-125325238D01*
X167044761Y-125230000D01*
X167187619Y-125182380D01*
X167282857Y-125182380D01*
X167425714Y-125230000D01*
X167473333Y-125277619D01*
X168330476Y-125182380D02*
X168140000Y-125182380D01*
X168044761Y-125230000D01*
X167997142Y-125277619D01*
X167901904Y-125420476D01*
X167854285Y-125610952D01*
X167854285Y-125991904D01*
X167901904Y-126087142D01*
X167949523Y-126134761D01*
X168044761Y-126182380D01*
X168235238Y-126182380D01*
X168330476Y-126134761D01*
X168378095Y-126087142D01*
X168425714Y-125991904D01*
X168425714Y-125753809D01*
X168378095Y-125658571D01*
X168330476Y-125610952D01*
X168235238Y-125563333D01*
X168044761Y-125563333D01*
X167949523Y-125610952D01*
X167901904Y-125658571D01*
X167854285Y-125753809D01*
%TO.C,C7*%
X165234687Y-108320389D02*
X165234687Y-108387732D01*
X165167343Y-108522419D01*
X165100000Y-108589763D01*
X164965312Y-108657106D01*
X164830625Y-108657106D01*
X164729610Y-108623435D01*
X164561251Y-108522419D01*
X164460236Y-108421404D01*
X164359221Y-108253045D01*
X164325549Y-108152030D01*
X164325549Y-108017343D01*
X164392893Y-107882656D01*
X164460236Y-107815312D01*
X164594923Y-107747969D01*
X164662267Y-107747969D01*
X164830625Y-107444923D02*
X165302030Y-106973519D01*
X165706091Y-107983671D01*
%TO.C,D1*%
X124022380Y-95988095D02*
X123022380Y-95988095D01*
X123022380Y-95750000D01*
X123070000Y-95607142D01*
X123165238Y-95511904D01*
X123260476Y-95464285D01*
X123450952Y-95416666D01*
X123593809Y-95416666D01*
X123784285Y-95464285D01*
X123879523Y-95511904D01*
X123974761Y-95607142D01*
X124022380Y-95750000D01*
X124022380Y-95988095D01*
X124022380Y-94464285D02*
X124022380Y-95035714D01*
X124022380Y-94750000D02*
X123022380Y-94750000D01*
X123165238Y-94845238D01*
X123260476Y-94940476D01*
X123308095Y-95035714D01*
%TO.C,D2*%
X124022380Y-101068095D02*
X123022380Y-101068095D01*
X123022380Y-100830000D01*
X123070000Y-100687142D01*
X123165238Y-100591904D01*
X123260476Y-100544285D01*
X123450952Y-100496666D01*
X123593809Y-100496666D01*
X123784285Y-100544285D01*
X123879523Y-100591904D01*
X123974761Y-100687142D01*
X124022380Y-100830000D01*
X124022380Y-101068095D01*
X123117619Y-100115714D02*
X123070000Y-100068095D01*
X123022380Y-99972857D01*
X123022380Y-99734761D01*
X123070000Y-99639523D01*
X123117619Y-99591904D01*
X123212857Y-99544285D01*
X123308095Y-99544285D01*
X123450952Y-99591904D01*
X124022380Y-100163333D01*
X124022380Y-99544285D01*
%TO.C,D3*%
X168982380Y-112830595D02*
X167982380Y-112830595D01*
X167982380Y-112592500D01*
X168030000Y-112449642D01*
X168125238Y-112354404D01*
X168220476Y-112306785D01*
X168410952Y-112259166D01*
X168553809Y-112259166D01*
X168744285Y-112306785D01*
X168839523Y-112354404D01*
X168934761Y-112449642D01*
X168982380Y-112592500D01*
X168982380Y-112830595D01*
X167982380Y-111925833D02*
X167982380Y-111306785D01*
X168363333Y-111640119D01*
X168363333Y-111497261D01*
X168410952Y-111402023D01*
X168458571Y-111354404D01*
X168553809Y-111306785D01*
X168791904Y-111306785D01*
X168887142Y-111354404D01*
X168934761Y-111402023D01*
X168982380Y-111497261D01*
X168982380Y-111782976D01*
X168934761Y-111878214D01*
X168887142Y-111925833D01*
%TO.C,IC1*%
D16*
X134799380Y-98381190D02*
X133799380Y-98381190D01*
X134704142Y-97333571D02*
X134751761Y-97381190D01*
X134799380Y-97524047D01*
X134799380Y-97619285D01*
X134751761Y-97762142D01*
X134656523Y-97857380D01*
X134561285Y-97905000D01*
X134370809Y-97952619D01*
X134227952Y-97952619D01*
X134037476Y-97905000D01*
X133942238Y-97857380D01*
X133847000Y-97762142D01*
X133799380Y-97619285D01*
X133799380Y-97524047D01*
X133847000Y-97381190D01*
X133894619Y-97333571D01*
X134799380Y-96381190D02*
X134799380Y-96952619D01*
X134799380Y-96666904D02*
X133799380Y-96666904D01*
X133942238Y-96762142D01*
X134037476Y-96857380D01*
X134085095Y-96952619D01*
%TO.C,J1*%
X168196279Y-102566279D02*
X168911853Y-102566279D01*
X169054967Y-102613984D01*
X169150377Y-102709394D01*
X169198082Y-102852508D01*
X169198082Y-102947918D01*
X169198082Y-101564476D02*
X169198082Y-102136935D01*
X169198082Y-101850705D02*
X168196279Y-101850705D01*
X168339394Y-101946115D01*
X168434804Y-102041525D01*
X168482509Y-102136935D01*
%TO.C,J2*%
X174601278Y-102566279D02*
X175316852Y-102566279D01*
X175459966Y-102613984D01*
X175555376Y-102709394D01*
X175603081Y-102852508D01*
X175603081Y-102947918D01*
X174696688Y-102136935D02*
X174648983Y-102089230D01*
X174601278Y-101993820D01*
X174601278Y-101755295D01*
X174648983Y-101659886D01*
X174696688Y-101612181D01*
X174792098Y-101564476D01*
X174887508Y-101564476D01*
X175030622Y-101612181D01*
X175603081Y-102184640D01*
X175603081Y-101564476D01*
%TO.C,Q1*%
D15*
X111664761Y-117387619D02*
X111569523Y-117340000D01*
X111474285Y-117244761D01*
X111331428Y-117101904D01*
X111236190Y-117054285D01*
X111140952Y-117054285D01*
X111188571Y-117292380D02*
X111093333Y-117244761D01*
X110998095Y-117149523D01*
X110950476Y-116959047D01*
X110950476Y-116625714D01*
X110998095Y-116435238D01*
X111093333Y-116340000D01*
X111188571Y-116292380D01*
X111379047Y-116292380D01*
X111474285Y-116340000D01*
X111569523Y-116435238D01*
X111617142Y-116625714D01*
X111617142Y-116959047D01*
X111569523Y-117149523D01*
X111474285Y-117244761D01*
X111379047Y-117292380D01*
X111188571Y-117292380D01*
X112569523Y-117292380D02*
X111998095Y-117292380D01*
X112283809Y-117292380D02*
X112283809Y-116292380D01*
X112188571Y-116435238D01*
X112093333Y-116530476D01*
X111998095Y-116578095D01*
%TO.C,R1*%
X153503333Y-101672380D02*
X153170000Y-101196190D01*
X152931904Y-101672380D02*
X152931904Y-100672380D01*
X153312857Y-100672380D01*
X153408095Y-100720000D01*
X153455714Y-100767619D01*
X153503333Y-100862857D01*
X153503333Y-101005714D01*
X153455714Y-101100952D01*
X153408095Y-101148571D01*
X153312857Y-101196190D01*
X152931904Y-101196190D01*
X154455714Y-101672380D02*
X153884285Y-101672380D01*
X154170000Y-101672380D02*
X154170000Y-100672380D01*
X154074761Y-100815238D01*
X153979523Y-100910476D01*
X153884285Y-100958095D01*
%TO.C,R2*%
X138263333Y-114242380D02*
X137930000Y-113766190D01*
X137691904Y-114242380D02*
X137691904Y-113242380D01*
X138072857Y-113242380D01*
X138168095Y-113290000D01*
X138215714Y-113337619D01*
X138263333Y-113432857D01*
X138263333Y-113575714D01*
X138215714Y-113670952D01*
X138168095Y-113718571D01*
X138072857Y-113766190D01*
X137691904Y-113766190D01*
X138644285Y-113337619D02*
X138691904Y-113290000D01*
X138787142Y-113242380D01*
X139025238Y-113242380D01*
X139120476Y-113290000D01*
X139168095Y-113337619D01*
X139215714Y-113432857D01*
X139215714Y-113528095D01*
X139168095Y-113670952D01*
X138596666Y-114242380D01*
X139215714Y-114242380D01*
%TO.C,R3*%
X127832380Y-95416666D02*
X127356190Y-95750000D01*
X127832380Y-95988095D02*
X126832380Y-95988095D01*
X126832380Y-95607142D01*
X126880000Y-95511904D01*
X126927619Y-95464285D01*
X127022857Y-95416666D01*
X127165714Y-95416666D01*
X127260952Y-95464285D01*
X127308571Y-95511904D01*
X127356190Y-95607142D01*
X127356190Y-95988095D01*
X126832380Y-95083333D02*
X126832380Y-94464285D01*
X127213333Y-94797619D01*
X127213333Y-94654761D01*
X127260952Y-94559523D01*
X127308571Y-94511904D01*
X127403809Y-94464285D01*
X127641904Y-94464285D01*
X127737142Y-94511904D01*
X127784761Y-94559523D01*
X127832380Y-94654761D01*
X127832380Y-94940476D01*
X127784761Y-95035714D01*
X127737142Y-95083333D01*
%TO.C,R4*%
X127832380Y-100531667D02*
X127356190Y-100865001D01*
X127832380Y-101103096D02*
X126832380Y-101103096D01*
X126832380Y-100722143D01*
X126880000Y-100626905D01*
X126927619Y-100579286D01*
X127022857Y-100531667D01*
X127165714Y-100531667D01*
X127260952Y-100579286D01*
X127308571Y-100626905D01*
X127356190Y-100722143D01*
X127356190Y-101103096D01*
X127165714Y-99674524D02*
X127832380Y-99674524D01*
X126784761Y-99912620D02*
X127499047Y-100150715D01*
X127499047Y-99531667D01*
%TO.C,R5*%
X172282380Y-117006666D02*
X171806190Y-117340000D01*
X172282380Y-117578095D02*
X171282380Y-117578095D01*
X171282380Y-117197142D01*
X171330000Y-117101904D01*
X171377619Y-117054285D01*
X171472857Y-117006666D01*
X171615714Y-117006666D01*
X171710952Y-117054285D01*
X171758571Y-117101904D01*
X171806190Y-117197142D01*
X171806190Y-117578095D01*
X171282380Y-116101904D02*
X171282380Y-116578095D01*
X171758571Y-116625714D01*
X171710952Y-116578095D01*
X171663333Y-116482857D01*
X171663333Y-116244761D01*
X171710952Y-116149523D01*
X171758571Y-116101904D01*
X171853809Y-116054285D01*
X172091904Y-116054285D01*
X172187142Y-116101904D01*
X172234761Y-116149523D01*
X172282380Y-116244761D01*
X172282380Y-116482857D01*
X172234761Y-116578095D01*
X172187142Y-116625714D01*
%TO.C,R6*%
X134692380Y-95774166D02*
X134216190Y-96107500D01*
X134692380Y-96345595D02*
X133692380Y-96345595D01*
X133692380Y-95964642D01*
X133740000Y-95869404D01*
X133787619Y-95821785D01*
X133882857Y-95774166D01*
X134025714Y-95774166D01*
X134120952Y-95821785D01*
X134168571Y-95869404D01*
X134216190Y-95964642D01*
X134216190Y-96345595D01*
X133692380Y-94917023D02*
X133692380Y-95107500D01*
X133740000Y-95202738D01*
X133787619Y-95250357D01*
X133930476Y-95345595D01*
X134120952Y-95393214D01*
X134501904Y-95393214D01*
X134597142Y-95345595D01*
X134644761Y-95297976D01*
X134692380Y-95202738D01*
X134692380Y-95012261D01*
X134644761Y-94917023D01*
X134597142Y-94869404D01*
X134501904Y-94821785D01*
X134263809Y-94821785D01*
X134168571Y-94869404D01*
X134120952Y-94917023D01*
X134073333Y-95012261D01*
X134073333Y-95202738D01*
X134120952Y-95297976D01*
X134168571Y-95345595D01*
X134263809Y-95393214D01*
%TO.C,SW1*%
X145986666Y-109624761D02*
X146129523Y-109672380D01*
X146367619Y-109672380D01*
X146462857Y-109624761D01*
X146510476Y-109577142D01*
X146558095Y-109481904D01*
X146558095Y-109386666D01*
X146510476Y-109291428D01*
X146462857Y-109243809D01*
X146367619Y-109196190D01*
X146177142Y-109148571D01*
X146081904Y-109100952D01*
X146034285Y-109053333D01*
X145986666Y-108958095D01*
X145986666Y-108862857D01*
X146034285Y-108767619D01*
X146081904Y-108720000D01*
X146177142Y-108672380D01*
X146415238Y-108672380D01*
X146558095Y-108720000D01*
X146891428Y-108672380D02*
X147129523Y-109672380D01*
X147320000Y-108958095D01*
X147510476Y-109672380D01*
X147748571Y-108672380D01*
X148653333Y-109672380D02*
X148081904Y-109672380D01*
X148367619Y-109672380D02*
X148367619Y-108672380D01*
X148272380Y-108815238D01*
X148177142Y-108910476D01*
X148081904Y-108958095D01*
%TO.C,U1*%
X166686473Y-95126030D02*
X166114053Y-95698450D01*
X166080381Y-95799465D01*
X166080381Y-95866809D01*
X166114053Y-95967824D01*
X166248740Y-96102511D01*
X166349755Y-96136183D01*
X166417099Y-96136183D01*
X166518114Y-96102511D01*
X167090534Y-95530091D01*
X167090534Y-96944305D02*
X166686473Y-96540244D01*
X166888503Y-96742274D02*
X167595610Y-96035168D01*
X167427251Y-96068839D01*
X167292564Y-96068839D01*
X167191549Y-96035168D01*
%TO.C,U2*%
D16*
X137283095Y-101325380D02*
X137283095Y-102134904D01*
X137330714Y-102230142D01*
X137378333Y-102277761D01*
X137473571Y-102325380D01*
X137664047Y-102325380D01*
X137759285Y-102277761D01*
X137806904Y-102230142D01*
X137854523Y-102134904D01*
X137854523Y-101325380D01*
X138283095Y-101420619D02*
X138330714Y-101373000D01*
X138425952Y-101325380D01*
X138664047Y-101325380D01*
X138759285Y-101373000D01*
X138806904Y-101420619D01*
X138854523Y-101515857D01*
X138854523Y-101611095D01*
X138806904Y-101753952D01*
X138235476Y-102325380D01*
X138854523Y-102325380D01*
%TO.C,Y1*%
D15*
X155856446Y-93029881D02*
X156193164Y-93366599D01*
X155250355Y-92895194D02*
X155856446Y-93029881D01*
X155721759Y-92423790D01*
X157034957Y-92524805D02*
X156630896Y-92928866D01*
X156832927Y-92726835D02*
X156125820Y-92019729D01*
X156159492Y-92188087D01*
X156159492Y-92322774D01*
X156125820Y-92423790D01*
%TO.C,J3*%
X182612380Y-112053333D02*
X183326666Y-112053333D01*
X183469523Y-112100952D01*
X183564761Y-112196190D01*
X183612380Y-112339047D01*
X183612380Y-112434285D01*
X182612380Y-111672380D02*
X182612380Y-111053333D01*
X182993333Y-111386666D01*
X182993333Y-111243809D01*
X183040952Y-111148571D01*
X183088571Y-111100952D01*
X183183809Y-111053333D01*
X183421904Y-111053333D01*
X183517142Y-111100952D01*
X183564761Y-111148571D01*
X183612380Y-111243809D01*
X183612380Y-111529523D01*
X183564761Y-111624761D01*
X183517142Y-111672380D01*
%TO.C,H1*%
X103378095Y-71572380D02*
X103378095Y-70572380D01*
X103378095Y-71048571D02*
X103949523Y-71048571D01*
X103949523Y-71572380D02*
X103949523Y-70572380D01*
X104949523Y-71572380D02*
X104378095Y-71572380D01*
X104663809Y-71572380D02*
X104663809Y-70572380D01*
X104568571Y-70715238D01*
X104473333Y-70810476D01*
X104378095Y-70858095D01*
%TO.C,H2*%
X182118095Y-71572380D02*
X182118095Y-70572380D01*
X182118095Y-71048571D02*
X182689523Y-71048571D01*
X182689523Y-71572380D02*
X182689523Y-70572380D01*
X183118095Y-70667619D02*
X183165714Y-70620000D01*
X183260952Y-70572380D01*
X183499047Y-70572380D01*
X183594285Y-70620000D01*
X183641904Y-70667619D01*
X183689523Y-70762857D01*
X183689523Y-70858095D01*
X183641904Y-71000952D01*
X183070476Y-71572380D01*
X183689523Y-71572380D01*
%TO.C,H3*%
X182118095Y-118562380D02*
X182118095Y-117562380D01*
X182118095Y-118038571D02*
X182689523Y-118038571D01*
X182689523Y-118562380D02*
X182689523Y-117562380D01*
X183070476Y-117562380D02*
X183689523Y-117562380D01*
X183356190Y-117943333D01*
X183499047Y-117943333D01*
X183594285Y-117990952D01*
X183641904Y-118038571D01*
X183689523Y-118133809D01*
X183689523Y-118371904D01*
X183641904Y-118467142D01*
X183594285Y-118514761D01*
X183499047Y-118562380D01*
X183213333Y-118562380D01*
X183118095Y-118514761D01*
X183070476Y-118467142D01*
%TO.C,H4*%
X103378095Y-118562380D02*
X103378095Y-117562380D01*
X103378095Y-118038571D02*
X103949523Y-118038571D01*
X103949523Y-118562380D02*
X103949523Y-117562380D01*
X104854285Y-117895714D02*
X104854285Y-118562380D01*
X104616190Y-117514761D02*
X104378095Y-118229047D01*
X104997142Y-118229047D01*
%TO.C,JP1*%
X169346666Y-104332380D02*
X169346666Y-105046666D01*
X169299047Y-105189523D01*
X169203809Y-105284761D01*
X169060952Y-105332380D01*
X168965714Y-105332380D01*
X169822857Y-105332380D02*
X169822857Y-104332380D01*
X170203809Y-104332380D01*
X170299047Y-104380000D01*
X170346666Y-104427619D01*
X170394285Y-104522857D01*
X170394285Y-104665714D01*
X170346666Y-104760952D01*
X170299047Y-104808571D01*
X170203809Y-104856190D01*
X169822857Y-104856190D01*
X171346666Y-105332380D02*
X170775238Y-105332380D01*
X171060952Y-105332380D02*
X171060952Y-104332380D01*
X170965714Y-104475238D01*
X170870476Y-104570476D01*
X170775238Y-104618095D01*
%TO.C,D4*%
X117371904Y-116912380D02*
X117371904Y-115912380D01*
X117610000Y-115912380D01*
X117752857Y-115960000D01*
X117848095Y-116055238D01*
X117895714Y-116150476D01*
X117943333Y-116340952D01*
X117943333Y-116483809D01*
X117895714Y-116674285D01*
X117848095Y-116769523D01*
X117752857Y-116864761D01*
X117610000Y-116912380D01*
X117371904Y-116912380D01*
X118800476Y-116245714D02*
X118800476Y-116912380D01*
X118562380Y-115864761D02*
X118324285Y-116579047D01*
X118943333Y-116579047D01*
%TO.C,R7*%
X114133333Y-124022380D02*
X113800000Y-123546190D01*
X113561904Y-124022380D02*
X113561904Y-123022380D01*
X113942857Y-123022380D01*
X114038095Y-123070000D01*
X114085714Y-123117619D01*
X114133333Y-123212857D01*
X114133333Y-123355714D01*
X114085714Y-123450952D01*
X114038095Y-123498571D01*
X113942857Y-123546190D01*
X113561904Y-123546190D01*
X114466666Y-123022380D02*
X115133333Y-123022380D01*
X114704761Y-124022380D01*
%TO.C,J4*%
X153372380Y-113363333D02*
X154086666Y-113363333D01*
X154229523Y-113410952D01*
X154324761Y-113506190D01*
X154372380Y-113649047D01*
X154372380Y-113744285D01*
X153705714Y-112458571D02*
X154372380Y-112458571D01*
X153324761Y-112696666D02*
X154039047Y-112934761D01*
X154039047Y-112315714D01*
%TO.C,R8*%
X167115833Y-92782380D02*
X166782500Y-92306190D01*
X166544404Y-92782380D02*
X166544404Y-91782380D01*
X166925357Y-91782380D01*
X167020595Y-91830000D01*
X167068214Y-91877619D01*
X167115833Y-91972857D01*
X167115833Y-92115714D01*
X167068214Y-92210952D01*
X167020595Y-92258571D01*
X166925357Y-92306190D01*
X166544404Y-92306190D01*
X167687261Y-92210952D02*
X167592023Y-92163333D01*
X167544404Y-92115714D01*
X167496785Y-92020476D01*
X167496785Y-91972857D01*
X167544404Y-91877619D01*
X167592023Y-91830000D01*
X167687261Y-91782380D01*
X167877738Y-91782380D01*
X167972976Y-91830000D01*
X168020595Y-91877619D01*
X168068214Y-91972857D01*
X168068214Y-92020476D01*
X168020595Y-92115714D01*
X167972976Y-92163333D01*
X167877738Y-92210952D01*
X167687261Y-92210952D01*
X167592023Y-92258571D01*
X167544404Y-92306190D01*
X167496785Y-92401428D01*
X167496785Y-92591904D01*
X167544404Y-92687142D01*
X167592023Y-92734761D01*
X167687261Y-92782380D01*
X167877738Y-92782380D01*
X167972976Y-92734761D01*
X168020595Y-92687142D01*
X168068214Y-92591904D01*
X168068214Y-92401428D01*
X168020595Y-92306190D01*
X167972976Y-92258571D01*
X167877738Y-92210952D01*
%TD*%
M02*
