%TF.GenerationSoftware,KiCad,Pcbnew,(5.1.8-0-10_14)*%
%TF.CreationDate,2021-01-12T16:11:11+01:00*%
%TF.ProjectId,battery_checker,62617474-6572-4795-9f63-6865636b6572,rev?*%
%TF.SameCoordinates,Original*%
%TF.FileFunction,Soldermask,Bot*%
%TF.FilePolarity,Negative*%
%FSLAX46Y46*%
G04 Gerber Fmt 4.6, Leading zero omitted, Abs format (unit mm)*
G04 Created by KiCad (PCBNEW (5.1.8-0-10_14)) date 2021-01-12 16:11:11*
%MOMM*%
%LPD*%
G01*
G04 APERTURE LIST*
%ADD10C,3.500000*%
%ADD11R,3.500000X3.500000*%
%ADD12C,3.200000*%
%ADD13R,1.590000X1.590000*%
%ADD14C,1.590000*%
%ADD15C,2.400000*%
%ADD16O,2.400000X2.400000*%
%ADD17R,2.600000X2.600000*%
%ADD18C,2.600000*%
%ADD19C,0.800000*%
%ADD20C,6.400000*%
%ADD21C,1.700000*%
G04 APERTURE END LIST*
D10*
%TO.C,BT1*%
X179365001Y-82550000D03*
D11*
X107365001Y-82550000D03*
D12*
X116010001Y-82550000D03*
X171620001Y-82550000D03*
%TD*%
D13*
%TO.C,J1*%
X172665001Y-102870000D03*
D14*
X172665001Y-100370000D03*
X172665001Y-97870000D03*
X172665001Y-95370000D03*
%TD*%
%TO.C,J2*%
X179070000Y-95370000D03*
X179070000Y-97870000D03*
X179070000Y-100370000D03*
D13*
X179070000Y-102870000D03*
%TD*%
D15*
%TO.C,R2*%
X125730000Y-118110000D03*
D16*
X151130000Y-118110000D03*
%TD*%
D17*
%TO.C,J3*%
X177800000Y-109220000D03*
D18*
X177800000Y-114220000D03*
%TD*%
D19*
%TO.C,H1*%
X109647056Y-66882944D03*
X107950000Y-66180000D03*
X106252944Y-66882944D03*
X105550000Y-68580000D03*
X106252944Y-70277056D03*
X107950000Y-70980000D03*
X109647056Y-70277056D03*
X110350000Y-68580000D03*
D20*
X107950000Y-68580000D03*
%TD*%
%TO.C,H2*%
X179070000Y-68580000D03*
D19*
X181470000Y-68580000D03*
X180767056Y-70277056D03*
X179070000Y-70980000D03*
X177372944Y-70277056D03*
X176670000Y-68580000D03*
X177372944Y-66882944D03*
X179070000Y-66180000D03*
X180767056Y-66882944D03*
%TD*%
%TO.C,H3*%
X180907056Y-118952944D03*
X179210000Y-118250000D03*
X177512944Y-118952944D03*
X176810000Y-120650000D03*
X177512944Y-122347056D03*
X179210000Y-123050000D03*
X180907056Y-122347056D03*
X181610000Y-120650000D03*
D20*
X179210000Y-120650000D03*
%TD*%
%TO.C,H4*%
X107950000Y-120650000D03*
D19*
X110350000Y-120650000D03*
X109647056Y-122347056D03*
X107950000Y-123050000D03*
X106252944Y-122347056D03*
X105550000Y-120650000D03*
X106252944Y-118952944D03*
X107950000Y-118250000D03*
X109647056Y-118952944D03*
%TD*%
%TO.C,J4*%
G36*
G01*
X160620000Y-115150000D02*
X159420000Y-115150000D01*
G75*
G02*
X159170000Y-114900000I0J250000D01*
G01*
X159170000Y-113700000D01*
G75*
G02*
X159420000Y-113450000I250000J0D01*
G01*
X160620000Y-113450000D01*
G75*
G02*
X160870000Y-113700000I0J-250000D01*
G01*
X160870000Y-114900000D01*
G75*
G02*
X160620000Y-115150000I-250000J0D01*
G01*
G37*
D21*
X162560000Y-114300000D03*
X165100000Y-114300000D03*
X160020000Y-111760000D03*
X162560000Y-111760000D03*
X165100000Y-111760000D03*
%TD*%
M02*
