%TF.GenerationSoftware,KiCad,Pcbnew,(5.1.8-0-10_14)*%
%TF.CreationDate,2021-01-12T16:11:11+01:00*%
%TF.ProjectId,battery_checker,62617474-6572-4795-9f63-6865636b6572,rev?*%
%TF.SameCoordinates,Original*%
%TF.FileFunction,Paste,Top*%
%TF.FilePolarity,Positive*%
%FSLAX46Y46*%
G04 Gerber Fmt 4.6, Leading zero omitted, Abs format (unit mm)*
G04 Created by KiCad (PCBNEW (5.1.8-0-10_14)) date 2021-01-12 16:11:11*
%MOMM*%
%LPD*%
G01*
G04 APERTURE LIST*
%ADD10R,0.600000X1.970000*%
%ADD11R,4.600000X1.100000*%
%ADD12R,4.550000X5.250000*%
%ADD13R,2.800000X1.000000*%
%ADD14C,0.100000*%
%ADD15R,1.970000X0.600000*%
G04 APERTURE END LIST*
%TO.C,C1*%
G36*
G01*
X147302322Y-97209429D02*
X146630571Y-96537678D01*
G75*
G02*
X146630571Y-96184124I176777J176777D01*
G01*
X146984124Y-95830571D01*
G75*
G02*
X147337678Y-95830571I176777J-176777D01*
G01*
X148009429Y-96502322D01*
G75*
G02*
X148009429Y-96855876I-176777J-176777D01*
G01*
X147655876Y-97209429D01*
G75*
G02*
X147302322Y-97209429I-176777J176777D01*
G01*
G37*
G36*
G01*
X148645824Y-95865927D02*
X147974073Y-95194176D01*
G75*
G02*
X147974073Y-94840622I176777J176777D01*
G01*
X148327626Y-94487069D01*
G75*
G02*
X148681180Y-94487069I176777J-176777D01*
G01*
X149352931Y-95158820D01*
G75*
G02*
X149352931Y-95512374I-176777J-176777D01*
G01*
X148999378Y-95865927D01*
G75*
G02*
X148645824Y-95865927I-176777J176777D01*
G01*
G37*
%TD*%
%TO.C,C2*%
G36*
G01*
X144125927Y-99042322D02*
X144797678Y-99714073D01*
G75*
G02*
X144797678Y-100067627I-176777J-176777D01*
G01*
X144444125Y-100421180D01*
G75*
G02*
X144090571Y-100421180I-176777J176777D01*
G01*
X143418820Y-99749429D01*
G75*
G02*
X143418820Y-99395875I176777J176777D01*
G01*
X143772373Y-99042322D01*
G75*
G02*
X144125927Y-99042322I176777J-176777D01*
G01*
G37*
G36*
G01*
X145469429Y-97698820D02*
X146141180Y-98370571D01*
G75*
G02*
X146141180Y-98724125I-176777J-176777D01*
G01*
X145787627Y-99077678D01*
G75*
G02*
X145434073Y-99077678I-176777J176777D01*
G01*
X144762322Y-98405927D01*
G75*
G02*
X144762322Y-98052373I176777J176777D01*
G01*
X145115875Y-97698820D01*
G75*
G02*
X145469429Y-97698820I176777J-176777D01*
G01*
G37*
%TD*%
%TO.C,C3*%
G36*
G01*
X114750000Y-118585000D02*
X114750000Y-117635000D01*
G75*
G02*
X115000000Y-117385000I250000J0D01*
G01*
X115500000Y-117385000D01*
G75*
G02*
X115750000Y-117635000I0J-250000D01*
G01*
X115750000Y-118585000D01*
G75*
G02*
X115500000Y-118835000I-250000J0D01*
G01*
X115000000Y-118835000D01*
G75*
G02*
X114750000Y-118585000I0J250000D01*
G01*
G37*
G36*
G01*
X112850000Y-118585000D02*
X112850000Y-117635000D01*
G75*
G02*
X113100000Y-117385000I250000J0D01*
G01*
X113600000Y-117385000D01*
G75*
G02*
X113850000Y-117635000I0J-250000D01*
G01*
X113850000Y-118585000D01*
G75*
G02*
X113600000Y-118835000I-250000J0D01*
G01*
X113100000Y-118835000D01*
G75*
G02*
X112850000Y-118585000I0J250000D01*
G01*
G37*
%TD*%
%TO.C,C4*%
G36*
G01*
X105490000Y-98790000D02*
X105490000Y-96790000D01*
G75*
G02*
X105740000Y-96540000I250000J0D01*
G01*
X108740000Y-96540000D01*
G75*
G02*
X108990000Y-96790000I0J-250000D01*
G01*
X108990000Y-98790000D01*
G75*
G02*
X108740000Y-99040000I-250000J0D01*
G01*
X105740000Y-99040000D01*
G75*
G02*
X105490000Y-98790000I0J250000D01*
G01*
G37*
G36*
G01*
X111990000Y-98790000D02*
X111990000Y-96790000D01*
G75*
G02*
X112240000Y-96540000I250000J0D01*
G01*
X115240000Y-96540000D01*
G75*
G02*
X115490000Y-96790000I0J-250000D01*
G01*
X115490000Y-98790000D01*
G75*
G02*
X115240000Y-99040000I-250000J0D01*
G01*
X112240000Y-99040000D01*
G75*
G02*
X111990000Y-98790000I0J250000D01*
G01*
G37*
%TD*%
%TO.C,C5*%
G36*
G01*
X130335000Y-103960000D02*
X131285000Y-103960000D01*
G75*
G02*
X131535000Y-104210000I0J-250000D01*
G01*
X131535000Y-104710000D01*
G75*
G02*
X131285000Y-104960000I-250000J0D01*
G01*
X130335000Y-104960000D01*
G75*
G02*
X130085000Y-104710000I0J250000D01*
G01*
X130085000Y-104210000D01*
G75*
G02*
X130335000Y-103960000I250000J0D01*
G01*
G37*
G36*
G01*
X130335000Y-105860000D02*
X131285000Y-105860000D01*
G75*
G02*
X131535000Y-106110000I0J-250000D01*
G01*
X131535000Y-106610000D01*
G75*
G02*
X131285000Y-106860000I-250000J0D01*
G01*
X130335000Y-106860000D01*
G75*
G02*
X130085000Y-106610000I0J250000D01*
G01*
X130085000Y-106110000D01*
G75*
G02*
X130335000Y-105860000I250000J0D01*
G01*
G37*
%TD*%
%TO.C,C6*%
G36*
G01*
X165330000Y-121650000D02*
X165330000Y-119650000D01*
G75*
G02*
X165580000Y-119400000I250000J0D01*
G01*
X168580000Y-119400000D01*
G75*
G02*
X168830000Y-119650000I0J-250000D01*
G01*
X168830000Y-121650000D01*
G75*
G02*
X168580000Y-121900000I-250000J0D01*
G01*
X165580000Y-121900000D01*
G75*
G02*
X165330000Y-121650000I0J250000D01*
G01*
G37*
G36*
G01*
X158830000Y-121650000D02*
X158830000Y-119650000D01*
G75*
G02*
X159080000Y-119400000I250000J0D01*
G01*
X162080000Y-119400000D01*
G75*
G02*
X162330000Y-119650000I0J-250000D01*
G01*
X162330000Y-121650000D01*
G75*
G02*
X162080000Y-121900000I-250000J0D01*
G01*
X159080000Y-121900000D01*
G75*
G02*
X158830000Y-121650000I0J250000D01*
G01*
G37*
%TD*%
%TO.C,C7*%
G36*
G01*
X165680571Y-106771180D02*
X165008820Y-106099429D01*
G75*
G02*
X165008820Y-105745875I176777J176777D01*
G01*
X165362373Y-105392322D01*
G75*
G02*
X165715927Y-105392322I176777J-176777D01*
G01*
X166387678Y-106064073D01*
G75*
G02*
X166387678Y-106417627I-176777J-176777D01*
G01*
X166034125Y-106771180D01*
G75*
G02*
X165680571Y-106771180I-176777J176777D01*
G01*
G37*
G36*
G01*
X167024073Y-105427678D02*
X166352322Y-104755927D01*
G75*
G02*
X166352322Y-104402373I176777J176777D01*
G01*
X166705875Y-104048820D01*
G75*
G02*
X167059429Y-104048820I176777J-176777D01*
G01*
X167731180Y-104720571D01*
G75*
G02*
X167731180Y-105074125I-176777J-176777D01*
G01*
X167377627Y-105427678D01*
G75*
G02*
X167024073Y-105427678I-176777J176777D01*
G01*
G37*
%TD*%
%TO.C,D1*%
G36*
G01*
X121463750Y-95700000D02*
X122376250Y-95700000D01*
G75*
G02*
X122620000Y-95943750I0J-243750D01*
G01*
X122620000Y-96431250D01*
G75*
G02*
X122376250Y-96675000I-243750J0D01*
G01*
X121463750Y-96675000D01*
G75*
G02*
X121220000Y-96431250I0J243750D01*
G01*
X121220000Y-95943750D01*
G75*
G02*
X121463750Y-95700000I243750J0D01*
G01*
G37*
G36*
G01*
X121463750Y-93825000D02*
X122376250Y-93825000D01*
G75*
G02*
X122620000Y-94068750I0J-243750D01*
G01*
X122620000Y-94556250D01*
G75*
G02*
X122376250Y-94800000I-243750J0D01*
G01*
X121463750Y-94800000D01*
G75*
G02*
X121220000Y-94556250I0J243750D01*
G01*
X121220000Y-94068750D01*
G75*
G02*
X121463750Y-93825000I243750J0D01*
G01*
G37*
%TD*%
%TO.C,D2*%
G36*
G01*
X121463750Y-98905000D02*
X122376250Y-98905000D01*
G75*
G02*
X122620000Y-99148750I0J-243750D01*
G01*
X122620000Y-99636250D01*
G75*
G02*
X122376250Y-99880000I-243750J0D01*
G01*
X121463750Y-99880000D01*
G75*
G02*
X121220000Y-99636250I0J243750D01*
G01*
X121220000Y-99148750D01*
G75*
G02*
X121463750Y-98905000I243750J0D01*
G01*
G37*
G36*
G01*
X121463750Y-100780000D02*
X122376250Y-100780000D01*
G75*
G02*
X122620000Y-101023750I0J-243750D01*
G01*
X122620000Y-101511250D01*
G75*
G02*
X122376250Y-101755000I-243750J0D01*
G01*
X121463750Y-101755000D01*
G75*
G02*
X121220000Y-101511250I0J243750D01*
G01*
X121220000Y-101023750D01*
G75*
G02*
X121463750Y-100780000I243750J0D01*
G01*
G37*
%TD*%
%TO.C,D3*%
G36*
G01*
X170636250Y-113517500D02*
X169723750Y-113517500D01*
G75*
G02*
X169480000Y-113273750I0J243750D01*
G01*
X169480000Y-112786250D01*
G75*
G02*
X169723750Y-112542500I243750J0D01*
G01*
X170636250Y-112542500D01*
G75*
G02*
X170880000Y-112786250I0J-243750D01*
G01*
X170880000Y-113273750D01*
G75*
G02*
X170636250Y-113517500I-243750J0D01*
G01*
G37*
G36*
G01*
X170636250Y-111642500D02*
X169723750Y-111642500D01*
G75*
G02*
X169480000Y-111398750I0J243750D01*
G01*
X169480000Y-110911250D01*
G75*
G02*
X169723750Y-110667500I243750J0D01*
G01*
X170636250Y-110667500D01*
G75*
G02*
X170880000Y-110911250I0J-243750D01*
G01*
X170880000Y-111398750D01*
G75*
G02*
X170636250Y-111642500I-243750J0D01*
G01*
G37*
%TD*%
D10*
%TO.C,IC1*%
X132715000Y-100260000D03*
X131445000Y-100260000D03*
X130175000Y-100260000D03*
X128905000Y-100260000D03*
X128905000Y-95320000D03*
X130175000Y-95320000D03*
X131445000Y-95320000D03*
X132715000Y-95320000D03*
%TD*%
D11*
%TO.C,Q1*%
X118805000Y-113030000D03*
X118805000Y-107950000D03*
D12*
X107230000Y-107715000D03*
X112080000Y-113265000D03*
X107230000Y-113265000D03*
X112080000Y-107715000D03*
%TD*%
%TO.C,R1*%
G36*
G01*
X152245000Y-103320001D02*
X152245000Y-102419999D01*
G75*
G02*
X152494999Y-102170000I249999J0D01*
G01*
X153020001Y-102170000D01*
G75*
G02*
X153270000Y-102419999I0J-249999D01*
G01*
X153270000Y-103320001D01*
G75*
G02*
X153020001Y-103570000I-249999J0D01*
G01*
X152494999Y-103570000D01*
G75*
G02*
X152245000Y-103320001I0J249999D01*
G01*
G37*
G36*
G01*
X154070000Y-103320001D02*
X154070000Y-102419999D01*
G75*
G02*
X154319999Y-102170000I249999J0D01*
G01*
X154845001Y-102170000D01*
G75*
G02*
X155095000Y-102419999I0J-249999D01*
G01*
X155095000Y-103320001D01*
G75*
G02*
X154845001Y-103570000I-249999J0D01*
G01*
X154319999Y-103570000D01*
G75*
G02*
X154070000Y-103320001I0J249999D01*
G01*
G37*
%TD*%
%TO.C,R3*%
G36*
G01*
X125279999Y-95650000D02*
X126180001Y-95650000D01*
G75*
G02*
X126430000Y-95899999I0J-249999D01*
G01*
X126430000Y-96425001D01*
G75*
G02*
X126180001Y-96675000I-249999J0D01*
G01*
X125279999Y-96675000D01*
G75*
G02*
X125030000Y-96425001I0J249999D01*
G01*
X125030000Y-95899999D01*
G75*
G02*
X125279999Y-95650000I249999J0D01*
G01*
G37*
G36*
G01*
X125279999Y-93825000D02*
X126180001Y-93825000D01*
G75*
G02*
X126430000Y-94074999I0J-249999D01*
G01*
X126430000Y-94600001D01*
G75*
G02*
X126180001Y-94850000I-249999J0D01*
G01*
X125279999Y-94850000D01*
G75*
G02*
X125030000Y-94600001I0J249999D01*
G01*
X125030000Y-94074999D01*
G75*
G02*
X125279999Y-93825000I249999J0D01*
G01*
G37*
%TD*%
%TO.C,R4*%
G36*
G01*
X125279999Y-98940001D02*
X126180001Y-98940001D01*
G75*
G02*
X126430000Y-99190000I0J-249999D01*
G01*
X126430000Y-99715002D01*
G75*
G02*
X126180001Y-99965001I-249999J0D01*
G01*
X125279999Y-99965001D01*
G75*
G02*
X125030000Y-99715002I0J249999D01*
G01*
X125030000Y-99190000D01*
G75*
G02*
X125279999Y-98940001I249999J0D01*
G01*
G37*
G36*
G01*
X125279999Y-100765001D02*
X126180001Y-100765001D01*
G75*
G02*
X126430000Y-101015000I0J-249999D01*
G01*
X126430000Y-101540002D01*
G75*
G02*
X126180001Y-101790001I-249999J0D01*
G01*
X125279999Y-101790001D01*
G75*
G02*
X125030000Y-101540002I0J249999D01*
G01*
X125030000Y-101015000D01*
G75*
G02*
X125279999Y-100765001I249999J0D01*
G01*
G37*
%TD*%
%TO.C,R5*%
G36*
G01*
X169729999Y-117240000D02*
X170630001Y-117240000D01*
G75*
G02*
X170880000Y-117489999I0J-249999D01*
G01*
X170880000Y-118015001D01*
G75*
G02*
X170630001Y-118265000I-249999J0D01*
G01*
X169729999Y-118265000D01*
G75*
G02*
X169480000Y-118015001I0J249999D01*
G01*
X169480000Y-117489999D01*
G75*
G02*
X169729999Y-117240000I249999J0D01*
G01*
G37*
G36*
G01*
X169729999Y-115415000D02*
X170630001Y-115415000D01*
G75*
G02*
X170880000Y-115664999I0J-249999D01*
G01*
X170880000Y-116190001D01*
G75*
G02*
X170630001Y-116440000I-249999J0D01*
G01*
X169729999Y-116440000D01*
G75*
G02*
X169480000Y-116190001I0J249999D01*
G01*
X169480000Y-115664999D01*
G75*
G02*
X169729999Y-115415000I249999J0D01*
G01*
G37*
%TD*%
%TO.C,R6*%
G36*
G01*
X136340001Y-97032500D02*
X135439999Y-97032500D01*
G75*
G02*
X135190000Y-96782501I0J249999D01*
G01*
X135190000Y-96257499D01*
G75*
G02*
X135439999Y-96007500I249999J0D01*
G01*
X136340001Y-96007500D01*
G75*
G02*
X136590000Y-96257499I0J-249999D01*
G01*
X136590000Y-96782501D01*
G75*
G02*
X136340001Y-97032500I-249999J0D01*
G01*
G37*
G36*
G01*
X136340001Y-95207500D02*
X135439999Y-95207500D01*
G75*
G02*
X135190000Y-94957501I0J249999D01*
G01*
X135190000Y-94432499D01*
G75*
G02*
X135439999Y-94182500I249999J0D01*
G01*
X136340001Y-94182500D01*
G75*
G02*
X136590000Y-94432499I0J-249999D01*
G01*
X136590000Y-94957501D01*
G75*
G02*
X136340001Y-95207500I-249999J0D01*
G01*
G37*
%TD*%
D13*
%TO.C,SW1*%
X150770000Y-107220000D03*
X156570000Y-107220000D03*
X150770000Y-111220000D03*
X156570000Y-111220000D03*
%TD*%
D14*
%TO.C,U1*%
G36*
X160774555Y-94973666D02*
G01*
X161163464Y-94584757D01*
X162294835Y-95716128D01*
X161905926Y-96105037D01*
X160774555Y-94973666D01*
G37*
G36*
X160208870Y-95539352D02*
G01*
X160597779Y-95150443D01*
X161729150Y-96281814D01*
X161340241Y-96670723D01*
X160208870Y-95539352D01*
G37*
G36*
X159643184Y-96105037D02*
G01*
X160032093Y-95716128D01*
X161163464Y-96847499D01*
X160774555Y-97236408D01*
X159643184Y-96105037D01*
G37*
G36*
X159077499Y-96670722D02*
G01*
X159466408Y-96281813D01*
X160597779Y-97413184D01*
X160208870Y-97802093D01*
X159077499Y-96670722D01*
G37*
G36*
X158511813Y-97236408D02*
G01*
X158900722Y-96847499D01*
X160032093Y-97978870D01*
X159643184Y-98367779D01*
X158511813Y-97236408D01*
G37*
G36*
X157946128Y-97802093D02*
G01*
X158335037Y-97413184D01*
X159466408Y-98544555D01*
X159077499Y-98933464D01*
X157946128Y-97802093D01*
G37*
G36*
X157380443Y-98367779D02*
G01*
X157769352Y-97978870D01*
X158900723Y-99110241D01*
X158511814Y-99499150D01*
X157380443Y-98367779D01*
G37*
G36*
X156814757Y-98933464D02*
G01*
X157203666Y-98544555D01*
X158335037Y-99675926D01*
X157946128Y-100064835D01*
X156814757Y-98933464D01*
G37*
G36*
X157203666Y-102115445D02*
G01*
X156814757Y-101726536D01*
X157946128Y-100595165D01*
X158335037Y-100984074D01*
X157203666Y-102115445D01*
G37*
G36*
X157769352Y-102681130D02*
G01*
X157380443Y-102292221D01*
X158511814Y-101160850D01*
X158900723Y-101549759D01*
X157769352Y-102681130D01*
G37*
G36*
X158335037Y-103246816D02*
G01*
X157946128Y-102857907D01*
X159077499Y-101726536D01*
X159466408Y-102115445D01*
X158335037Y-103246816D01*
G37*
G36*
X158900722Y-103812501D02*
G01*
X158511813Y-103423592D01*
X159643184Y-102292221D01*
X160032093Y-102681130D01*
X158900722Y-103812501D01*
G37*
G36*
X159466408Y-104378187D02*
G01*
X159077499Y-103989278D01*
X160208870Y-102857907D01*
X160597779Y-103246816D01*
X159466408Y-104378187D01*
G37*
G36*
X160032093Y-104943872D02*
G01*
X159643184Y-104554963D01*
X160774555Y-103423592D01*
X161163464Y-103812501D01*
X160032093Y-104943872D01*
G37*
G36*
X160597779Y-105509557D02*
G01*
X160208870Y-105120648D01*
X161340241Y-103989277D01*
X161729150Y-104378186D01*
X160597779Y-105509557D01*
G37*
G36*
X161163464Y-106075243D02*
G01*
X160774555Y-105686334D01*
X161905926Y-104554963D01*
X162294835Y-104943872D01*
X161163464Y-106075243D01*
G37*
G36*
X162825165Y-104943872D02*
G01*
X163214074Y-104554963D01*
X164345445Y-105686334D01*
X163956536Y-106075243D01*
X162825165Y-104943872D01*
G37*
G36*
X163390850Y-104378186D02*
G01*
X163779759Y-103989277D01*
X164911130Y-105120648D01*
X164522221Y-105509557D01*
X163390850Y-104378186D01*
G37*
G36*
X163956536Y-103812501D02*
G01*
X164345445Y-103423592D01*
X165476816Y-104554963D01*
X165087907Y-104943872D01*
X163956536Y-103812501D01*
G37*
G36*
X164522221Y-103246816D02*
G01*
X164911130Y-102857907D01*
X166042501Y-103989278D01*
X165653592Y-104378187D01*
X164522221Y-103246816D01*
G37*
G36*
X165087907Y-102681130D02*
G01*
X165476816Y-102292221D01*
X166608187Y-103423592D01*
X166219278Y-103812501D01*
X165087907Y-102681130D01*
G37*
G36*
X165653592Y-102115445D02*
G01*
X166042501Y-101726536D01*
X167173872Y-102857907D01*
X166784963Y-103246816D01*
X165653592Y-102115445D01*
G37*
G36*
X166219277Y-101549759D02*
G01*
X166608186Y-101160850D01*
X167739557Y-102292221D01*
X167350648Y-102681130D01*
X166219277Y-101549759D01*
G37*
G36*
X166784963Y-100984074D02*
G01*
X167173872Y-100595165D01*
X168305243Y-101726536D01*
X167916334Y-102115445D01*
X166784963Y-100984074D01*
G37*
G36*
X167173872Y-100064835D02*
G01*
X166784963Y-99675926D01*
X167916334Y-98544555D01*
X168305243Y-98933464D01*
X167173872Y-100064835D01*
G37*
G36*
X166608186Y-99499150D02*
G01*
X166219277Y-99110241D01*
X167350648Y-97978870D01*
X167739557Y-98367779D01*
X166608186Y-99499150D01*
G37*
G36*
X166042501Y-98933464D02*
G01*
X165653592Y-98544555D01*
X166784963Y-97413184D01*
X167173872Y-97802093D01*
X166042501Y-98933464D01*
G37*
G36*
X165476816Y-98367779D02*
G01*
X165087907Y-97978870D01*
X166219278Y-96847499D01*
X166608187Y-97236408D01*
X165476816Y-98367779D01*
G37*
G36*
X164911130Y-97802093D02*
G01*
X164522221Y-97413184D01*
X165653592Y-96281813D01*
X166042501Y-96670722D01*
X164911130Y-97802093D01*
G37*
G36*
X164345445Y-97236408D02*
G01*
X163956536Y-96847499D01*
X165087907Y-95716128D01*
X165476816Y-96105037D01*
X164345445Y-97236408D01*
G37*
G36*
X163779759Y-96670723D02*
G01*
X163390850Y-96281814D01*
X164522221Y-95150443D01*
X164911130Y-95539352D01*
X163779759Y-96670723D01*
G37*
G36*
X163214074Y-96105037D02*
G01*
X162825165Y-95716128D01*
X163956536Y-94584757D01*
X164345445Y-94973666D01*
X163214074Y-96105037D01*
G37*
%TD*%
D15*
%TO.C,U2*%
X135960000Y-103505000D03*
X135960000Y-104775000D03*
X135960000Y-106045000D03*
X135960000Y-107315000D03*
X140900000Y-107315000D03*
X140900000Y-106045000D03*
X140900000Y-104775000D03*
X140900000Y-103505000D03*
%TD*%
D14*
%TO.C,Y1*%
G36*
X155019087Y-93756699D02*
G01*
X156433301Y-95170913D01*
X153251321Y-98352893D01*
X151837107Y-96938679D01*
X155019087Y-93756699D01*
G37*
G36*
X149008679Y-99767107D02*
G01*
X150422893Y-101181321D01*
X147240913Y-104363301D01*
X145826699Y-102949087D01*
X149008679Y-99767107D01*
G37*
%TD*%
%TO.C,D4*%
G36*
G01*
X116685000Y-118566250D02*
X116685000Y-117653750D01*
G75*
G02*
X116928750Y-117410000I243750J0D01*
G01*
X117416250Y-117410000D01*
G75*
G02*
X117660000Y-117653750I0J-243750D01*
G01*
X117660000Y-118566250D01*
G75*
G02*
X117416250Y-118810000I-243750J0D01*
G01*
X116928750Y-118810000D01*
G75*
G02*
X116685000Y-118566250I0J243750D01*
G01*
G37*
G36*
G01*
X118560000Y-118566250D02*
X118560000Y-117653750D01*
G75*
G02*
X118803750Y-117410000I243750J0D01*
G01*
X119291250Y-117410000D01*
G75*
G02*
X119535000Y-117653750I0J-243750D01*
G01*
X119535000Y-118566250D01*
G75*
G02*
X119291250Y-118810000I-243750J0D01*
G01*
X118803750Y-118810000D01*
G75*
G02*
X118560000Y-118566250I0J243750D01*
G01*
G37*
%TD*%
%TO.C,R7*%
G36*
G01*
X115725000Y-121469999D02*
X115725000Y-122370001D01*
G75*
G02*
X115475001Y-122620000I-249999J0D01*
G01*
X114949999Y-122620000D01*
G75*
G02*
X114700000Y-122370001I0J249999D01*
G01*
X114700000Y-121469999D01*
G75*
G02*
X114949999Y-121220000I249999J0D01*
G01*
X115475001Y-121220000D01*
G75*
G02*
X115725000Y-121469999I0J-249999D01*
G01*
G37*
G36*
G01*
X113900000Y-121469999D02*
X113900000Y-122370001D01*
G75*
G02*
X113650001Y-122620000I-249999J0D01*
G01*
X113124999Y-122620000D01*
G75*
G02*
X112875000Y-122370001I0J249999D01*
G01*
X112875000Y-121469999D01*
G75*
G02*
X113124999Y-121220000I249999J0D01*
G01*
X113650001Y-121220000D01*
G75*
G02*
X113900000Y-121469999I0J-249999D01*
G01*
G37*
%TD*%
%TO.C,R8*%
G36*
G01*
X165857500Y-94430001D02*
X165857500Y-93529999D01*
G75*
G02*
X166107499Y-93280000I249999J0D01*
G01*
X166632501Y-93280000D01*
G75*
G02*
X166882500Y-93529999I0J-249999D01*
G01*
X166882500Y-94430001D01*
G75*
G02*
X166632501Y-94680000I-249999J0D01*
G01*
X166107499Y-94680000D01*
G75*
G02*
X165857500Y-94430001I0J249999D01*
G01*
G37*
G36*
G01*
X167682500Y-94430001D02*
X167682500Y-93529999D01*
G75*
G02*
X167932499Y-93280000I249999J0D01*
G01*
X168457501Y-93280000D01*
G75*
G02*
X168707500Y-93529999I0J-249999D01*
G01*
X168707500Y-94430001D01*
G75*
G02*
X168457501Y-94680000I-249999J0D01*
G01*
X167932499Y-94680000D01*
G75*
G02*
X167682500Y-94430001I0J249999D01*
G01*
G37*
%TD*%
M02*
